<svg width="28" height="28" viewBox="0 0 28 28" fill="none" xmlns="http://www.w3.org/2000/svg">
<g clip-path="url(#clip0_16_1496)">
<path d="M14 28C21.732 28 28 21.732 28 14C28 6.26801 21.732 0 14 0C6.26801 0 0 6.26801 0 14C0 21.732 6.26801 28 14 28Z" fill="#D80027"/>
<path d="M7.66172 8.52051L8.87031 12.2393H12.7805L9.61953 14.5416L10.8281 18.2604L7.66172 15.9635L4.49531 18.2604L5.70938 14.5416L2.54297 12.2393H6.45313L7.66172 8.52051Z" fill="#FFDA44"/>
<path d="M16.5975 21.6837L15.6732 20.5462L14.3061 21.0767L15.099 19.8462L14.1748 18.7032L15.5912 19.0806L16.3896 17.8501L16.4662 19.3157L17.8881 19.6931L16.5154 20.2181L16.5975 21.6837Z" fill="#FFDA44"/>
<path d="M18.435 18.3478L18.8725 16.9478L17.6748 16.1001L19.1404 16.0782L19.5725 14.6782L20.0482 16.0673L21.5139 16.0509L20.3381 16.9259L20.8084 18.3149L19.6107 17.4673L18.435 18.3478Z" fill="#FFDA44"/>
<path d="M20.9127 10.2758L20.2674 11.5938L21.3174 12.6165L19.8682 12.4086L19.2229 13.7211L18.9713 12.2774L17.5166 12.0696L18.8182 11.386L18.5666 9.93677L19.6166 10.9594L20.9127 10.2758Z" fill="#FFDA44"/>
<path d="M16.6355 6.28369L16.5262 7.74385L17.8879 8.29619L16.4605 8.64619L16.3566 10.1118L15.5855 8.86494L14.1582 9.21494L15.1043 8.09385L14.3277 6.85244L15.6895 7.40479L16.6355 6.28369Z" fill="#FFDA44"/>
</g>
<defs>
<clipPath id="clip0_16_1496">
<rect width="28" height="28" fill="white"/>
</clipPath>
</defs>
</svg>
