<svg width="29" height="28" viewBox="0 0 29 28" fill="none" xmlns="http://www.w3.org/2000/svg">
<g clip-path="url(#clip0_1_10527)">
<path d="M14.5 28.0013C22.232 28.0013 28.5 21.7333 28.5 14.0013C28.5 6.26936 22.232 0.00134277 14.5 0.00134277C6.76801 0.00134277 0.5 6.26936 0.5 14.0013C0.5 21.7333 6.76801 28.0013 14.5 28.0013Z" fill="#F0F0F0"/>
<path d="M13.8914 14.0013H28.5C28.5 12.7377 28.3316 11.5136 28.0177 10.3491H13.8914V14.0013Z" fill="#D80027"/>
<path d="M13.8914 6.69699H26.4452C25.5882 5.29853 24.4924 4.06242 23.2148 3.0448H13.8914V6.69699Z" fill="#D80027"/>
<path d="M14.5001 28.0014C17.7949 28.0014 20.8234 26.8625 23.2148 24.9579H5.78528C8.17676 26.8625 11.2052 28.0014 14.5001 28.0014Z" fill="#D80027"/>
<path d="M2.55484 21.3056H26.4452C27.1332 20.183 27.6668 18.9558 28.0177 17.6534H0.9823C1.33323 18.9558 1.86682 20.183 2.55484 21.3056V21.3056Z" fill="#D80027"/>
<path d="M6.98506 2.18764H8.26087L7.07415 3.04979L7.52745 4.44481L6.34079 3.58266L5.15412 4.44481L5.54569 3.23966C4.50083 4.11001 3.58503 5.12972 2.83034 6.26591H3.23913L2.48373 6.81469C2.36605 7.01102 2.25317 7.21047 2.145 7.41287L2.50572 8.52308L1.83273 8.03412C1.66545 8.38855 1.51243 8.75096 1.37489 9.12092L1.7723 10.3442H3.23913L2.05241 11.2063L2.50572 12.6013L1.31905 11.7392L0.608227 12.2557C0.537078 12.8276 0.5 13.4101 0.5 14.0013H14.5C14.5 6.26941 14.5 5.35787 14.5 0.00134277C11.7343 0.00134277 9.15621 0.803608 6.98506 2.18764V2.18764ZM7.52745 12.6013L6.34079 11.7392L5.15412 12.6013L5.60743 11.2063L4.42071 10.3442H5.88754L6.34079 8.94915L6.79404 10.3442H8.26087L7.07415 11.2063L7.52745 12.6013ZM7.07415 7.12805L7.52745 8.52308L6.34079 7.66093L5.15412 8.52308L5.60743 7.12805L4.42071 6.26591H5.88754L6.34079 4.87088L6.79404 6.26591H8.26087L7.07415 7.12805ZM12.5492 12.6013L11.3625 11.7392L10.1759 12.6013L10.6292 11.2063L9.44245 10.3442H10.9093L11.3625 8.94915L11.8158 10.3442H13.2826L12.0959 11.2063L12.5492 12.6013ZM12.0959 7.12805L12.5492 8.52308L11.3625 7.66093L10.1759 8.52308L10.6292 7.12805L9.44245 6.26591H10.9093L11.3625 4.87088L11.8158 6.26591H13.2826L12.0959 7.12805ZM12.0959 3.04979L12.5492 4.44481L11.3625 3.58266L10.1759 4.44481L10.6292 3.04979L9.44245 2.18764H10.9093L11.3625 0.792616L11.8158 2.18764H13.2826L12.0959 3.04979Z" fill="#0052B4"/>
</g>
<defs>
<clipPath id="clip0_1_10527">
<rect width="28" height="28" fill="white" transform="translate(0.5 0.00134277)"/>
</clipPath>
</defs>
</svg>
