<svg width="28" height="28" viewBox="0 0 28 28" fill="none" xmlns="http://www.w3.org/2000/svg">
<g clip-path="url(#clip0_16_1490)">
<path d="M0.871094 18.8697C2.8492 24.2008 7.9808 28.0001 14.0003 28.0001C20.0198 28.0001 25.1514 24.2008 27.1295 18.8697L14.0003 17.6523L0.871094 18.8697Z" fill="#FFDA44"/>
<path d="M14.0003 0C7.9808 0 2.8492 3.79925 0.871094 9.13046L14.0003 10.3478L27.1295 9.13041C25.1514 3.79925 20.0198 0 14.0003 0Z" fill="black"/>
<path d="M0.870789 9.13037C0.308055 10.647 0 12.2874 0 13.9999C0 15.7124 0.308055 17.3528 0.870789 18.8694H27.1293C27.692 17.3528 28 15.7124 28 13.9999C28 12.2874 27.692 10.647 27.1292 9.13037H0.870789Z" fill="#D80027"/>
</g>
<defs>
<clipPath id="clip0_16_1490">
<rect width="28" height="28" fill="white"/>
</clipPath>
</defs>
</svg>
