<svg width="711" height="257" viewBox="0 0 711 257" fill="none" xmlns="http://www.w3.org/2000/svg">
<g clip-path="url(#clip0_1_818)">
<rect width="711" height="328" rx="12" fill="white"/>
<path d="M83.9429 233.203C83.2056 233.203 82.5849 233.007 82.0809 232.615C81.5816 232.223 81.2363 231.696 81.0449 231.033L82.4939 230.69C82.5593 231.003 82.7249 231.271 82.9909 231.495C83.2616 231.714 83.5626 231.824 83.8939 231.824C84.1133 231.824 84.3419 231.768 84.5799 231.656C84.8179 231.544 84.9953 231.362 85.1119 231.11C85.1913 230.942 85.2379 230.751 85.2519 230.536C85.2659 230.317 85.2729 230.062 85.2729 229.773V222.92H86.7569V229.773C86.7569 230.072 86.7546 230.338 86.7499 230.571C86.7499 230.804 86.7266 231.024 86.6799 231.229C86.6379 231.434 86.5539 231.647 86.4279 231.866C86.1619 232.328 85.8119 232.666 85.3779 232.881C84.9439 233.096 84.4656 233.203 83.9429 233.203ZM90.9959 233.21C90.4359 233.21 89.9669 233.107 89.5889 232.902C89.2109 232.692 88.9239 232.417 88.7279 232.076C88.5365 231.731 88.4409 231.353 88.4409 230.942C88.4409 230.559 88.5085 230.223 88.6439 229.934C88.7792 229.645 88.9799 229.4 89.2459 229.199C89.5119 228.994 89.8385 228.828 90.2259 228.702C90.5619 228.604 90.9422 228.518 91.3669 228.443C91.7915 228.368 92.2372 228.298 92.7039 228.233C93.1752 228.168 93.6419 228.102 94.1039 228.037L93.5719 228.331C93.5812 227.738 93.4552 227.3 93.1939 227.015C92.9372 226.726 92.4939 226.581 91.8639 226.581C91.4672 226.581 91.1032 226.674 90.7719 226.861C90.4405 227.043 90.2095 227.346 90.0789 227.771L88.7139 227.351C88.9005 226.702 89.2552 226.187 89.7779 225.804C90.3052 225.421 91.0052 225.23 91.8779 225.23C92.5545 225.23 93.1425 225.347 93.6419 225.58C94.1459 225.809 94.5145 226.173 94.7479 226.672C94.8692 226.919 94.9439 227.181 94.9719 227.456C94.9999 227.731 95.0139 228.028 95.0139 228.345V233H93.7189V231.271L93.9709 231.495C93.6582 232.074 93.2592 232.505 92.7739 232.79C92.2932 233.07 91.7005 233.21 90.9959 233.21ZM91.2549 232.013C91.6702 232.013 92.0272 231.941 92.3259 231.796C92.6245 231.647 92.8649 231.458 93.0469 231.229C93.2289 231 93.3479 230.762 93.4039 230.515C93.4832 230.291 93.5275 230.039 93.5369 229.759C93.5509 229.479 93.5579 229.255 93.5579 229.087L94.0339 229.262C93.5719 229.332 93.1519 229.395 92.7739 229.451C92.3959 229.507 92.0529 229.563 91.7449 229.619C91.4415 229.67 91.1709 229.733 90.9329 229.808C90.7322 229.878 90.5525 229.962 90.3939 230.06C90.2399 230.158 90.1162 230.277 90.0229 230.417C89.9342 230.557 89.8899 230.727 89.8899 230.928C89.8899 231.124 89.9389 231.306 90.0369 231.474C90.1349 231.637 90.2842 231.768 90.4849 231.866C90.6855 231.964 90.9422 232.013 91.2549 232.013ZM102.138 233V229.283C102.138 228.989 102.112 228.688 102.061 228.38C102.014 228.067 101.921 227.778 101.781 227.512C101.645 227.246 101.452 227.031 101.2 226.868C100.952 226.705 100.628 226.623 100.227 226.623C99.9652 226.623 99.7179 226.667 99.4846 226.756C99.2512 226.84 99.0459 226.978 98.8686 227.169C98.6959 227.36 98.5582 227.612 98.4556 227.925C98.3576 228.238 98.3086 228.618 98.3086 229.066L97.3986 228.723C97.3986 228.037 97.5269 227.433 97.7836 226.91C98.0402 226.383 98.4089 225.972 98.8896 225.678C99.3702 225.384 99.9512 225.237 100.633 225.237C101.155 225.237 101.594 225.321 101.949 225.489C102.303 225.657 102.59 225.879 102.81 226.154C103.034 226.425 103.204 226.721 103.321 227.043C103.437 227.365 103.517 227.68 103.559 227.988C103.601 228.296 103.622 228.567 103.622 228.8V233H102.138ZM96.8246 233V225.44H98.1336V227.624H98.3086V233H96.8246ZM108.294 233.203C107.771 233.203 107.333 233.119 106.978 232.951C106.623 232.783 106.334 232.564 106.11 232.293C105.891 232.018 105.723 231.719 105.606 231.397C105.489 231.075 105.41 230.76 105.368 230.452C105.326 230.144 105.305 229.873 105.305 229.64V225.44H106.789V229.157C106.789 229.451 106.812 229.754 106.859 230.067C106.91 230.375 107.004 230.662 107.139 230.928C107.279 231.194 107.473 231.409 107.72 231.572C107.972 231.735 108.299 231.817 108.7 231.817C108.961 231.817 109.209 231.775 109.442 231.691C109.675 231.602 109.878 231.462 110.051 231.271C110.228 231.08 110.366 230.828 110.464 230.515C110.567 230.202 110.618 229.822 110.618 229.374L111.528 229.717C111.528 230.403 111.4 231.01 111.143 231.537C110.886 232.06 110.518 232.468 110.037 232.762C109.556 233.056 108.975 233.203 108.294 233.203ZM110.793 233V230.816H110.618V225.44H112.095V233H110.793ZM116.193 233.21C115.633 233.21 115.164 233.107 114.786 232.902C114.408 232.692 114.121 232.417 113.925 232.076C113.734 231.731 113.638 231.353 113.638 230.942C113.638 230.559 113.706 230.223 113.841 229.934C113.976 229.645 114.177 229.4 114.443 229.199C114.709 228.994 115.036 228.828 115.423 228.702C115.759 228.604 116.139 228.518 116.564 228.443C116.989 228.368 117.434 228.298 117.901 228.233C118.372 228.168 118.839 228.102 119.301 228.037L118.769 228.331C118.778 227.738 118.652 227.3 118.391 227.015C118.134 226.726 117.691 226.581 117.061 226.581C116.664 226.581 116.3 226.674 115.969 226.861C115.638 227.043 115.407 227.346 115.276 227.771L113.911 227.351C114.098 226.702 114.452 226.187 114.975 225.804C115.502 225.421 116.202 225.23 117.075 225.23C117.752 225.23 118.34 225.347 118.839 225.58C119.343 225.809 119.712 226.173 119.945 226.672C120.066 226.919 120.141 227.181 120.169 227.456C120.197 227.731 120.211 228.028 120.211 228.345V233H118.916V231.271L119.168 231.495C118.855 232.074 118.456 232.505 117.971 232.79C117.49 233.07 116.898 233.21 116.193 233.21ZM116.452 232.013C116.867 232.013 117.224 231.941 117.523 231.796C117.822 231.647 118.062 231.458 118.244 231.229C118.426 231 118.545 230.762 118.601 230.515C118.68 230.291 118.725 230.039 118.734 229.759C118.748 229.479 118.755 229.255 118.755 229.087L119.231 229.262C118.769 229.332 118.349 229.395 117.971 229.451C117.593 229.507 117.25 229.563 116.942 229.619C116.639 229.67 116.368 229.733 116.13 229.808C115.929 229.878 115.75 229.962 115.591 230.06C115.437 230.158 115.313 230.277 115.22 230.417C115.131 230.557 115.087 230.727 115.087 230.928C115.087 231.124 115.136 231.306 115.234 231.474C115.332 231.637 115.481 231.768 115.682 231.866C115.883 231.964 116.139 232.013 116.452 232.013ZM122.029 233V225.44H123.331V227.274L123.149 227.036C123.242 226.793 123.363 226.572 123.513 226.371C123.662 226.166 123.835 225.998 124.031 225.867C124.222 225.727 124.434 225.62 124.668 225.545C124.906 225.466 125.148 225.419 125.396 225.405C125.643 225.386 125.881 225.398 126.11 225.44V226.812C125.862 226.747 125.587 226.728 125.284 226.756C124.985 226.784 124.71 226.88 124.458 227.043C124.22 227.197 124.031 227.384 123.891 227.603C123.755 227.822 123.657 228.067 123.597 228.338C123.536 228.604 123.506 228.886 123.506 229.185V233H122.029ZM128.273 236.36L129.736 232.377L129.757 233.553L126.46 225.44H127.986L130.45 231.705H130.002L132.354 225.44H133.838L129.666 236.36H128.273Z" fill="#808080"/>
<path d="M170.793 233V222.92H176.764V224.383H172.256V227.225H175.924V228.695H172.256V233H170.793ZM181.173 233.21C180.422 233.21 179.762 233.047 179.192 232.72C178.628 232.389 178.187 231.929 177.869 231.341C177.557 230.748 177.4 230.062 177.4 229.283C177.4 228.457 177.554 227.741 177.862 227.134C178.175 226.527 178.609 226.058 179.164 225.727C179.72 225.396 180.366 225.23 181.103 225.23C181.873 225.23 182.529 225.41 183.07 225.769C183.612 226.124 184.015 226.63 184.281 227.288C184.552 227.946 184.659 228.728 184.603 229.633H183.14V229.101C183.131 228.224 182.963 227.575 182.636 227.155C182.314 226.735 181.822 226.525 181.159 226.525C180.427 226.525 179.876 226.756 179.507 227.218C179.139 227.68 178.954 228.347 178.954 229.22C178.954 230.051 179.139 230.695 179.507 231.152C179.876 231.605 180.408 231.831 181.103 231.831C181.561 231.831 181.955 231.728 182.286 231.523C182.622 231.313 182.884 231.014 183.07 230.627L184.505 231.082C184.211 231.759 183.766 232.284 183.168 232.657C182.571 233.026 181.906 233.21 181.173 233.21ZM178.478 229.633V228.492H183.875V229.633H178.478ZM189.723 233.21C189 233.21 188.393 233.035 187.903 232.685C187.413 232.33 187.042 231.852 186.79 231.25C186.538 230.648 186.412 229.969 186.412 229.213C186.412 228.457 186.536 227.778 186.783 227.176C187.035 226.574 187.404 226.1 187.889 225.755C188.379 225.405 188.981 225.23 189.695 225.23C190.404 225.23 191.016 225.405 191.529 225.755C192.047 226.1 192.446 226.574 192.726 227.176C193.006 227.773 193.146 228.452 193.146 229.213C193.146 229.969 193.006 230.65 192.726 231.257C192.451 231.859 192.056 232.335 191.543 232.685C191.034 233.035 190.428 233.21 189.723 233.21ZM186.167 233V222.92H187.637V227.561H187.469V233H186.167ZM189.52 231.887C189.987 231.887 190.372 231.768 190.675 231.53C190.983 231.292 191.212 230.972 191.361 230.571C191.515 230.165 191.592 229.712 191.592 229.213C191.592 228.718 191.515 228.27 191.361 227.869C191.212 227.468 190.981 227.148 190.668 226.91C190.355 226.672 189.956 226.553 189.471 226.553C189.014 226.553 188.636 226.665 188.337 226.889C188.043 227.113 187.824 227.426 187.679 227.827C187.539 228.228 187.469 228.69 187.469 229.213C187.469 229.736 187.539 230.198 187.679 230.599C187.819 231 188.041 231.315 188.344 231.544C188.647 231.773 189.039 231.887 189.52 231.887ZM194.691 233V225.44H195.993V227.274L195.811 227.036C195.905 226.793 196.026 226.572 196.175 226.371C196.325 226.166 196.497 225.998 196.693 225.867C196.885 225.727 197.097 225.62 197.33 225.545C197.568 225.466 197.811 225.419 198.058 225.405C198.306 225.386 198.544 225.398 198.772 225.44V226.812C198.525 226.747 198.25 226.728 197.946 226.756C197.648 226.784 197.372 226.88 197.12 227.043C196.882 227.197 196.693 227.384 196.553 227.603C196.418 227.822 196.32 228.067 196.259 228.338C196.199 228.604 196.168 228.886 196.168 229.185V233H194.691ZM202.954 233.203C202.432 233.203 201.993 233.119 201.638 232.951C201.284 232.783 200.994 232.564 200.77 232.293C200.551 232.018 200.383 231.719 200.266 231.397C200.15 231.075 200.07 230.76 200.028 230.452C199.986 230.144 199.965 229.873 199.965 229.64V225.44H201.449V229.157C201.449 229.451 201.473 229.754 201.519 230.067C201.571 230.375 201.664 230.662 201.799 230.928C201.939 231.194 202.133 231.409 202.38 231.572C202.632 231.735 202.959 231.817 203.36 231.817C203.622 231.817 203.869 231.775 204.102 231.691C204.336 231.602 204.539 231.462 204.711 231.271C204.889 231.08 205.026 230.828 205.124 230.515C205.227 230.202 205.278 229.822 205.278 229.374L206.188 229.717C206.188 230.403 206.06 231.01 205.803 231.537C205.547 232.06 205.178 232.468 204.697 232.762C204.217 233.056 203.636 233.203 202.954 233.203ZM205.453 233V230.816H205.278V225.44H206.755V233H205.453ZM210.854 233.21C210.294 233.21 209.825 233.107 209.447 232.902C209.069 232.692 208.782 232.417 208.586 232.076C208.394 231.731 208.299 231.353 208.299 230.942C208.299 230.559 208.366 230.223 208.502 229.934C208.637 229.645 208.838 229.4 209.104 229.199C209.37 228.994 209.696 228.828 210.084 228.702C210.42 228.604 210.8 228.518 211.225 228.443C211.649 228.368 212.095 228.298 212.562 228.233C213.033 228.168 213.5 228.102 213.962 228.037L213.43 228.331C213.439 227.738 213.313 227.3 213.052 227.015C212.795 226.726 212.352 226.581 211.722 226.581C211.325 226.581 210.961 226.674 210.63 226.861C210.298 227.043 210.067 227.346 209.937 227.771L208.572 227.351C208.758 226.702 209.113 226.187 209.636 225.804C210.163 225.421 210.863 225.23 211.736 225.23C212.412 225.23 213 225.347 213.5 225.58C214.004 225.809 214.372 226.173 214.606 226.672C214.727 226.919 214.802 227.181 214.83 227.456C214.858 227.731 214.872 228.028 214.872 228.345V233H213.577V231.271L213.829 231.495C213.516 232.074 213.117 232.505 212.632 232.79C212.151 233.07 211.558 233.21 210.854 233.21ZM211.113 232.013C211.528 232.013 211.885 231.941 212.184 231.796C212.482 231.647 212.723 231.458 212.905 231.229C213.087 231 213.206 230.762 213.262 230.515C213.341 230.291 213.385 230.039 213.395 229.759C213.409 229.479 213.416 229.255 213.416 229.087L213.892 229.262C213.43 229.332 213.01 229.395 212.632 229.451C212.254 229.507 211.911 229.563 211.603 229.619C211.299 229.67 211.029 229.733 210.791 229.808C210.59 229.878 210.41 229.962 210.252 230.06C210.098 230.158 209.974 230.277 209.881 230.417C209.792 230.557 209.748 230.727 209.748 230.928C209.748 231.124 209.797 231.306 209.895 231.474C209.993 231.637 210.142 231.768 210.343 231.866C210.543 231.964 210.8 232.013 211.113 232.013ZM216.689 233V225.44H217.991V227.274L217.809 227.036C217.903 226.793 218.024 226.572 218.173 226.371C218.323 226.166 218.495 225.998 218.691 225.867C218.883 225.727 219.095 225.62 219.328 225.545C219.566 225.466 219.809 225.419 220.056 225.405C220.304 225.386 220.542 225.398 220.77 225.44V226.812C220.523 226.747 220.248 226.728 219.944 226.756C219.646 226.784 219.37 226.88 219.118 227.043C218.88 227.197 218.691 227.384 218.551 227.603C218.416 227.822 218.318 228.067 218.257 228.338C218.197 228.604 218.166 228.886 218.166 229.185V233H216.689ZM222.934 236.36L224.397 232.377L224.418 233.553L221.121 225.44H222.647L225.111 231.705H224.663L227.015 225.44H228.499L224.327 236.36H222.934Z" fill="#808080"/>
<path d="M270.545 233V222.92H271.868L275.522 230.501L279.155 222.92H280.492V232.993H279.106V226.098L275.851 233H275.186L271.924 226.098V233H270.545ZM284.588 233.21C284.028 233.21 283.559 233.107 283.181 232.902C282.803 232.692 282.516 232.417 282.32 232.076C282.129 231.731 282.033 231.353 282.033 230.942C282.033 230.559 282.101 230.223 282.236 229.934C282.372 229.645 282.572 229.4 282.838 229.199C283.104 228.994 283.431 228.828 283.818 228.702C284.154 228.604 284.535 228.518 284.959 228.443C285.384 228.368 285.83 228.298 286.296 228.233C286.768 228.168 287.234 228.102 287.696 228.037L287.164 228.331C287.174 227.738 287.048 227.3 286.786 227.015C286.53 226.726 286.086 226.581 285.456 226.581C285.06 226.581 284.696 226.674 284.364 226.861C284.033 227.043 283.802 227.346 283.671 227.771L282.306 227.351C282.493 226.702 282.848 226.187 283.37 225.804C283.898 225.421 284.598 225.23 285.47 225.23C286.147 225.23 286.735 225.347 287.234 225.58C287.738 225.809 288.107 226.173 288.34 226.672C288.462 226.919 288.536 227.181 288.564 227.456C288.592 227.731 288.606 228.028 288.606 228.345V233H287.311V231.271L287.563 231.495C287.251 232.074 286.852 232.505 286.366 232.79C285.886 233.07 285.293 233.21 284.588 233.21ZM284.847 232.013C285.263 232.013 285.62 231.941 285.918 231.796C286.217 231.647 286.457 231.458 286.639 231.229C286.821 231 286.94 230.762 286.996 230.515C287.076 230.291 287.12 230.039 287.129 229.759C287.143 229.479 287.15 229.255 287.15 229.087L287.626 229.262C287.164 229.332 286.744 229.395 286.366 229.451C285.988 229.507 285.645 229.563 285.337 229.619C285.034 229.67 284.763 229.733 284.525 229.808C284.325 229.878 284.145 229.962 283.986 230.06C283.832 230.158 283.709 230.277 283.615 230.417C283.527 230.557 283.482 230.727 283.482 230.928C283.482 231.124 283.531 231.306 283.629 231.474C283.727 231.637 283.877 231.768 284.077 231.866C284.278 231.964 284.535 232.013 284.847 232.013ZM290.424 233V225.44H291.726V227.274L291.544 227.036C291.637 226.793 291.759 226.572 291.908 226.371C292.057 226.166 292.23 225.998 292.426 225.867C292.617 225.727 292.83 225.62 293.063 225.545C293.301 225.466 293.544 225.419 293.791 225.405C294.038 225.386 294.276 225.398 294.505 225.44V226.812C294.258 226.747 293.982 226.728 293.679 226.756C293.38 226.784 293.105 226.88 292.853 227.043C292.615 227.197 292.426 227.384 292.286 227.603C292.151 227.822 292.053 228.067 291.992 228.338C291.931 228.604 291.901 228.886 291.901 229.185V233H290.424ZM298.935 233.21C298.161 233.21 297.503 233.037 296.961 232.692C296.42 232.347 296.005 231.873 295.715 231.271C295.431 230.669 295.286 229.985 295.281 229.22C295.286 228.441 295.435 227.752 295.729 227.155C296.023 226.553 296.443 226.082 296.989 225.741C297.535 225.4 298.191 225.23 298.956 225.23C299.782 225.23 300.487 225.435 301.07 225.846C301.658 226.257 302.046 226.819 302.232 227.533L300.776 227.953C300.632 227.528 300.394 227.199 300.062 226.966C299.736 226.728 299.36 226.609 298.935 226.609C298.455 226.609 298.06 226.723 297.752 226.952C297.444 227.176 297.216 227.484 297.066 227.876C296.917 228.268 296.84 228.716 296.835 229.22C296.84 229.999 297.017 230.629 297.367 231.11C297.722 231.591 298.245 231.831 298.935 231.831C299.407 231.831 299.787 231.724 300.076 231.509C300.37 231.29 300.594 230.977 300.748 230.571L302.232 230.921C301.985 231.658 301.577 232.225 301.007 232.622C300.438 233.014 299.747 233.21 298.935 233.21ZM308.964 233V229.283C308.964 228.989 308.939 228.688 308.887 228.38C308.841 228.067 308.747 227.778 308.607 227.512C308.472 227.246 308.278 227.031 308.026 226.868C307.779 226.705 307.455 226.623 307.053 226.623C306.792 226.623 306.545 226.667 306.311 226.756C306.078 226.84 305.873 226.978 305.695 227.169C305.523 227.36 305.385 227.612 305.282 227.925C305.184 228.238 305.135 228.618 305.135 229.066L304.225 228.723C304.225 228.037 304.354 227.433 304.61 226.91C304.867 226.383 305.236 225.972 305.716 225.678C306.197 225.384 306.778 225.237 307.459 225.237C307.982 225.237 308.421 225.321 308.775 225.489C309.13 225.657 309.417 225.879 309.636 226.154C309.86 226.425 310.031 226.721 310.147 227.043C310.264 227.365 310.343 227.68 310.385 227.988C310.427 228.296 310.448 228.567 310.448 228.8V233H308.964ZM303.651 233V222.92H304.96V228.359H305.135V233H303.651Z" fill="#808080"/>
<path d="M367.645 233L370.921 222.92H373.028L376.304 233H374.785L371.768 223.802H372.146L369.164 233H367.645ZM369.346 230.725V229.353H374.61V230.725H369.346ZM381.108 233.21C380.385 233.21 379.778 233.035 379.288 232.685C378.798 232.33 378.427 231.852 378.175 231.25C377.923 230.648 377.797 229.969 377.797 229.213C377.797 228.457 377.921 227.778 378.168 227.176C378.42 226.574 378.789 226.1 379.274 225.755C379.764 225.405 380.366 225.23 381.08 225.23C381.79 225.23 382.401 225.405 382.914 225.755C383.432 226.1 383.831 226.574 384.111 227.176C384.391 227.773 384.531 228.452 384.531 229.213C384.531 229.969 384.391 230.65 384.111 231.257C383.836 231.859 383.442 232.335 382.928 232.685C382.42 233.035 381.813 233.21 381.108 233.21ZM377.552 236.36V225.44H378.854V230.879H379.022V236.36H377.552ZM380.905 231.887C381.372 231.887 381.757 231.768 382.06 231.53C382.368 231.292 382.597 230.972 382.746 230.571C382.9 230.165 382.977 229.712 382.977 229.213C382.977 228.718 382.9 228.27 382.746 227.869C382.597 227.468 382.366 227.148 382.053 226.91C381.741 226.672 381.342 226.553 380.856 226.553C380.399 226.553 380.021 226.665 379.722 226.889C379.428 227.113 379.209 227.426 379.064 227.827C378.924 228.228 378.854 228.69 378.854 229.213C378.854 229.736 378.924 230.198 379.064 230.599C379.204 231 379.426 231.315 379.729 231.544C380.033 231.773 380.425 231.887 380.905 231.887ZM386.077 233V225.44H387.379V227.274L387.197 227.036C387.29 226.793 387.412 226.572 387.561 226.371C387.71 226.166 387.883 225.998 388.079 225.867C388.27 225.727 388.483 225.62 388.716 225.545C388.954 225.466 389.197 225.419 389.444 225.405C389.691 225.386 389.929 225.398 390.158 225.44V226.812C389.911 226.747 389.635 226.728 389.332 226.756C389.033 226.784 388.758 226.88 388.506 227.043C388.268 227.197 388.079 227.384 387.939 227.603C387.804 227.822 387.706 228.067 387.645 228.338C387.584 228.604 387.554 228.886 387.554 229.185V233H386.077ZM391.631 224.201V222.78H393.094V224.201H391.631ZM391.631 233V225.44H393.094V233H391.631ZM395.336 233V222.71H396.799V233H395.336Z" fill="#808080"/>
<path d="M461.095 233.203C460.358 233.203 459.737 233.007 459.233 232.615C458.734 232.223 458.388 231.696 458.197 231.033L459.646 230.69C459.711 231.003 459.877 231.271 460.143 231.495C460.414 231.714 460.715 231.824 461.046 231.824C461.265 231.824 461.494 231.768 461.732 231.656C461.97 231.544 462.147 231.362 462.264 231.11C462.343 230.942 462.39 230.751 462.404 230.536C462.418 230.317 462.425 230.062 462.425 229.773V222.92H463.909V229.773C463.909 230.072 463.907 230.338 463.902 230.571C463.902 230.804 463.879 231.024 463.832 231.229C463.79 231.434 463.706 231.647 463.58 231.866C463.314 232.328 462.964 232.666 462.53 232.881C462.096 233.096 461.618 233.203 461.095 233.203ZM468.862 233.203C468.339 233.203 467.901 233.119 467.546 232.951C467.191 232.783 466.902 232.564 466.678 232.293C466.459 232.018 466.291 231.719 466.174 231.397C466.057 231.075 465.978 230.76 465.936 230.452C465.894 230.144 465.873 229.873 465.873 229.64V225.44H467.357V229.157C467.357 229.451 467.38 229.754 467.427 230.067C467.478 230.375 467.572 230.662 467.707 230.928C467.847 231.194 468.041 231.409 468.288 231.572C468.54 231.735 468.867 231.817 469.268 231.817C469.529 231.817 469.777 231.775 470.01 231.691C470.243 231.602 470.446 231.462 470.619 231.271C470.796 231.08 470.934 230.828 471.032 230.515C471.135 230.202 471.186 229.822 471.186 229.374L472.096 229.717C472.096 230.403 471.968 231.01 471.711 231.537C471.454 232.06 471.086 232.468 470.605 232.762C470.124 233.056 469.543 233.203 468.862 233.203ZM471.361 233V230.816H471.186V225.44H472.663V233H471.361ZM479.932 233V229.283C479.932 228.989 479.907 228.688 479.855 228.38C479.809 228.067 479.715 227.778 479.575 227.512C479.44 227.246 479.246 227.031 478.994 226.868C478.747 226.705 478.423 226.623 478.021 226.623C477.76 226.623 477.513 226.667 477.279 226.756C477.046 226.84 476.841 226.978 476.663 227.169C476.491 227.36 476.353 227.612 476.25 227.925C476.152 228.238 476.103 228.618 476.103 229.066L475.193 228.723C475.193 228.037 475.322 227.433 475.578 226.91C475.835 226.383 476.204 225.972 476.684 225.678C477.165 225.384 477.746 225.237 478.427 225.237C478.95 225.237 479.389 225.321 479.743 225.489C480.098 225.657 480.385 225.879 480.604 226.154C480.828 226.425 480.999 226.721 481.115 227.043C481.232 227.365 481.311 227.68 481.353 227.988C481.395 228.296 481.416 228.567 481.416 228.8V233H479.932ZM474.619 233V225.44H475.928V227.624H476.103V233H474.619ZM486.497 233.21C485.745 233.21 485.085 233.047 484.516 232.72C483.951 232.389 483.51 231.929 483.193 231.341C482.88 230.748 482.724 230.062 482.724 229.283C482.724 228.457 482.878 227.741 483.186 227.134C483.498 226.527 483.932 226.058 484.488 225.727C485.043 225.396 485.689 225.23 486.427 225.23C487.197 225.23 487.852 225.41 488.394 225.769C488.935 226.124 489.339 226.63 489.605 227.288C489.875 227.946 489.983 228.728 489.927 229.633H488.464V229.101C488.454 228.224 488.286 227.575 487.96 227.155C487.638 226.735 487.145 226.525 486.483 226.525C485.75 226.525 485.199 226.756 484.831 227.218C484.462 227.68 484.278 228.347 484.278 229.22C484.278 230.051 484.462 230.695 484.831 231.152C485.199 231.605 485.731 231.831 486.427 231.831C486.884 231.831 487.278 231.728 487.61 231.523C487.946 231.313 488.207 231.014 488.394 230.627L489.829 231.082C489.535 231.759 489.089 232.284 488.492 232.657C487.894 233.026 487.229 233.21 486.497 233.21ZM483.802 229.633V228.492H489.199V229.633H483.802Z" fill="#808080"/>
<path d="M555.55 233.203C554.813 233.203 554.192 233.007 553.688 232.615C553.189 232.223 552.844 231.696 552.652 231.033L554.101 230.69C554.167 231.003 554.332 231.271 554.598 231.495C554.869 231.714 555.17 231.824 555.501 231.824C555.721 231.824 555.949 231.768 556.187 231.656C556.425 231.544 556.603 231.362 556.719 231.11C556.799 230.942 556.845 230.751 556.859 230.536C556.873 230.317 556.88 230.062 556.88 229.773V222.92H558.364V229.773C558.364 230.072 558.362 230.338 558.357 230.571C558.357 230.804 558.334 231.024 558.287 231.229C558.245 231.434 558.161 231.647 558.035 231.866C557.769 232.328 557.419 232.666 556.985 232.881C556.551 233.096 556.073 233.203 555.55 233.203ZM563.317 233.203C562.795 233.203 562.356 233.119 562.001 232.951C561.647 232.783 561.357 232.564 561.133 232.293C560.914 232.018 560.746 231.719 560.629 231.397C560.513 231.075 560.433 230.76 560.391 230.452C560.349 230.144 560.328 229.873 560.328 229.64V225.44H561.812V229.157C561.812 229.451 561.836 229.754 561.882 230.067C561.934 230.375 562.027 230.662 562.162 230.928C562.302 231.194 562.496 231.409 562.743 231.572C562.995 231.735 563.322 231.817 563.723 231.817C563.985 231.817 564.232 231.775 564.465 231.691C564.699 231.602 564.902 231.462 565.074 231.271C565.252 231.08 565.389 230.828 565.487 230.515C565.59 230.202 565.641 229.822 565.641 229.374L566.551 229.717C566.551 230.403 566.423 231.01 566.166 231.537C565.91 232.06 565.541 232.468 565.06 232.762C564.58 233.056 563.999 233.203 563.317 233.203ZM565.816 233V230.816H565.641V225.44H567.118V233H565.816ZM569.222 233V222.71H570.685V233H569.222ZM573.809 236.36L575.272 232.377L575.293 233.553L571.996 225.44H573.522L575.986 231.705H575.538L577.89 225.44H579.374L575.202 236.36H573.809Z" fill="#808080"/>
<path d="M633.873 233L637.149 222.92H639.256L642.532 233H641.013L637.996 223.802H638.374L635.392 233H633.873ZM635.574 230.725V229.353H640.838V230.725H635.574ZM646.637 233.203C646.114 233.203 645.676 233.119 645.321 232.951C644.966 232.783 644.677 232.564 644.453 232.293C644.234 232.018 644.066 231.719 643.949 231.397C643.832 231.075 643.753 230.76 643.711 230.452C643.669 230.144 643.648 229.873 643.648 229.64V225.44H645.132V229.157C645.132 229.451 645.155 229.754 645.202 230.067C645.253 230.375 645.347 230.662 645.482 230.928C645.622 231.194 645.816 231.409 646.063 231.572C646.315 231.735 646.642 231.817 647.043 231.817C647.304 231.817 647.552 231.775 647.785 231.691C648.018 231.602 648.221 231.462 648.394 231.271C648.571 231.08 648.709 230.828 648.807 230.515C648.91 230.202 648.961 229.822 648.961 229.374L649.871 229.717C649.871 230.403 649.743 231.01 649.486 231.537C649.229 232.06 648.861 232.468 648.38 232.762C647.899 233.056 647.318 233.203 646.637 233.203ZM649.136 233V230.816H648.961V225.44H650.438V233H649.136ZM655.516 236.57C655.11 236.57 654.716 236.507 654.333 236.381C653.955 236.255 653.61 236.068 653.297 235.821C652.985 235.578 652.726 235.277 652.52 234.918L653.871 234.232C654.035 234.554 654.268 234.79 654.571 234.939C654.875 235.088 655.194 235.163 655.53 235.163C655.946 235.163 656.3 235.088 656.594 234.939C656.888 234.794 657.11 234.575 657.259 234.281C657.413 233.987 657.488 233.623 657.483 233.189V231.075H657.658V225.44H658.953V233.203C658.953 233.404 658.946 233.595 658.932 233.777C658.918 233.959 658.893 234.141 658.855 234.323C658.748 234.832 658.543 235.252 658.239 235.583C657.941 235.914 657.558 236.162 657.091 236.325C656.629 236.488 656.104 236.57 655.516 236.57ZM655.404 233.21C654.7 233.21 654.091 233.035 653.577 232.685C653.069 232.335 652.674 231.859 652.394 231.257C652.119 230.65 651.981 229.969 651.981 229.213C651.981 228.452 652.121 227.773 652.401 227.176C652.681 226.574 653.078 226.1 653.591 225.755C654.109 225.405 654.723 225.23 655.432 225.23C656.146 225.23 656.746 225.405 657.231 225.755C657.721 226.1 658.09 226.574 658.337 227.176C658.589 227.778 658.715 228.457 658.715 229.213C658.715 229.969 658.589 230.648 658.337 231.25C658.085 231.852 657.714 232.33 657.224 232.685C656.734 233.035 656.128 233.21 655.404 233.21ZM655.607 231.887C656.088 231.887 656.48 231.773 656.783 231.544C657.087 231.315 657.308 231 657.448 230.599C657.588 230.198 657.658 229.736 657.658 229.213C657.658 228.69 657.586 228.228 657.441 227.827C657.301 227.426 657.082 227.113 656.783 226.889C656.489 226.665 656.114 226.553 655.656 226.553C655.171 226.553 654.772 226.672 654.459 226.91C654.147 227.148 653.913 227.468 653.759 227.869C653.61 228.27 653.535 228.718 653.535 229.213C653.535 229.712 653.61 230.165 653.759 230.571C653.913 230.972 654.142 231.292 654.445 231.53C654.753 231.768 655.141 231.887 655.607 231.887ZM663.768 233.203C663.245 233.203 662.807 233.119 662.452 232.951C662.097 232.783 661.808 232.564 661.584 232.293C661.365 232.018 661.197 231.719 661.08 231.397C660.963 231.075 660.884 230.76 660.842 230.452C660.8 230.144 660.779 229.873 660.779 229.64V225.44H662.263V229.157C662.263 229.451 662.286 229.754 662.333 230.067C662.384 230.375 662.478 230.662 662.613 230.928C662.753 231.194 662.947 231.409 663.194 231.572C663.446 231.735 663.773 231.817 664.174 231.817C664.435 231.817 664.683 231.775 664.916 231.691C665.149 231.602 665.352 231.462 665.525 231.271C665.702 231.08 665.84 230.828 665.938 230.515C666.041 230.202 666.092 229.822 666.092 229.374L667.002 229.717C667.002 230.403 666.874 231.01 666.617 231.537C666.36 232.06 665.992 232.468 665.511 232.762C665.03 233.056 664.449 233.203 663.768 233.203ZM666.267 233V230.816H666.092V225.44H667.569V233H666.267ZM672.423 233.203C671.504 233.203 670.755 233 670.176 232.594C669.598 232.188 669.243 231.616 669.112 230.879L670.61 230.648C670.704 231.04 670.918 231.35 671.254 231.579C671.595 231.803 672.017 231.915 672.521 231.915C672.979 231.915 673.336 231.822 673.592 231.635C673.854 231.448 673.984 231.192 673.984 230.865C673.984 230.674 673.938 230.52 673.844 230.403C673.756 230.282 673.567 230.167 673.277 230.06C672.988 229.953 672.547 229.82 671.954 229.661C671.306 229.493 670.79 229.313 670.407 229.122C670.029 228.926 669.759 228.7 669.595 228.443C669.437 228.182 669.357 227.867 669.357 227.498C669.357 227.041 669.479 226.642 669.721 226.301C669.964 225.96 670.305 225.697 670.743 225.51C671.187 225.323 671.705 225.23 672.297 225.23C672.876 225.23 673.392 225.321 673.844 225.503C674.297 225.685 674.663 225.944 674.943 226.28C675.223 226.611 675.391 227.001 675.447 227.449L673.949 227.722C673.898 227.358 673.728 227.071 673.438 226.861C673.149 226.651 672.773 226.537 672.311 226.518C671.868 226.499 671.509 226.574 671.233 226.742C670.958 226.905 670.82 227.132 670.82 227.421C670.82 227.589 670.872 227.731 670.974 227.848C671.082 227.965 671.287 228.077 671.59 228.184C671.894 228.291 672.342 228.42 672.934 228.569C673.569 228.732 674.073 228.914 674.446 229.115C674.82 229.311 675.086 229.547 675.244 229.822C675.408 230.093 675.489 230.422 675.489 230.809C675.489 231.556 675.216 232.141 674.67 232.566C674.129 232.991 673.38 233.203 672.423 233.203ZM681.364 233C680.888 233.093 680.421 233.133 679.964 233.119C679.507 233.105 679.098 233.016 678.739 232.853C678.38 232.69 678.109 232.433 677.927 232.083C677.764 231.77 677.675 231.453 677.661 231.131C677.652 230.804 677.647 230.436 677.647 230.025V223.34H679.117V229.955C679.117 230.258 679.119 230.522 679.124 230.746C679.133 230.97 679.182 231.159 679.271 231.313C679.439 231.602 679.705 231.768 680.069 231.81C680.438 231.847 680.869 231.831 681.364 231.761V233ZM676.198 226.616V225.44H681.364V226.616H676.198Z" fill="#808080"/>
<path d="M8.7 30.493L8.707 29.191L13.096 25.257C13.4507 24.9443 13.691 24.6457 13.817 24.361C13.9477 24.0763 14.013 23.7917 14.013 23.507C14.013 23.1477 13.9337 22.8257 13.775 22.541C13.6163 22.2517 13.397 22.023 13.117 21.855C12.837 21.687 12.515 21.603 12.151 21.603C11.7777 21.603 11.444 21.6917 11.15 21.869C10.8607 22.0417 10.6343 22.2727 10.471 22.562C10.3077 22.8513 10.2283 23.164 10.233 23.5H8.735C8.735 22.8467 8.882 22.275 9.176 21.785C9.47467 21.2903 9.883 20.9053 10.401 20.63C10.919 20.35 11.5117 20.21 12.179 20.21C12.8137 20.21 13.383 20.3547 13.887 20.644C14.391 20.9287 14.7877 21.3207 15.077 21.82C15.371 22.3193 15.518 22.8887 15.518 23.528C15.518 23.99 15.4573 24.382 15.336 24.704C15.2147 25.026 15.0327 25.3247 14.79 25.6C14.5473 25.8753 14.244 26.174 13.88 26.496L10.492 29.52L10.331 29.1H15.518V30.493H8.7ZM21.1934 30.5V28.743H16.6434V27.357L19.9194 20.42H21.5924L18.3164 27.357H21.1934V24.627H22.6774V27.357H23.6784V28.743H22.6774V30.5H21.1934ZM31.6756 30.71C30.9896 30.71 30.383 30.5607 29.8556 30.262C29.3283 29.9587 28.913 29.5433 28.6096 29.016C28.311 28.4887 28.1616 27.882 28.1616 27.196V23.724C28.1616 23.038 28.311 22.4313 28.6096 21.904C28.913 21.3767 29.3283 20.9637 29.8556 20.665C30.383 20.3617 30.9896 20.21 31.6756 20.21C32.3616 20.21 32.9683 20.3617 33.4956 20.665C34.023 20.9637 34.436 21.3767 34.7346 21.904C35.038 22.4313 35.1896 23.038 35.1896 23.724V27.196C35.1896 27.882 35.038 28.4887 34.7346 29.016C34.436 29.5433 34.023 29.9587 33.4956 30.262C32.9683 30.5607 32.3616 30.71 31.6756 30.71ZM31.6756 29.31C32.049 29.31 32.3873 29.2213 32.6906 29.044C32.9986 28.862 33.2436 28.6193 33.4256 28.316C33.6076 28.008 33.6986 27.665 33.6986 27.287V23.619C33.6986 23.2457 33.6076 22.9073 33.4256 22.604C33.2436 22.296 32.9986 22.0533 32.6906 21.876C32.3873 21.694 32.049 21.603 31.6756 21.603C31.3023 21.603 30.9616 21.694 30.6536 21.876C30.3503 22.0533 30.1076 22.296 29.9256 22.604C29.7436 22.9073 29.6526 23.2457 29.6526 23.619V27.287C29.6526 27.665 29.7436 28.008 29.9256 28.316C30.1076 28.6193 30.3503 28.862 30.6536 29.044C30.9616 29.2213 31.3023 29.31 31.6756 29.31ZM40.6581 30.71C39.9721 30.71 39.3654 30.5607 38.8381 30.262C38.3107 29.9587 37.8954 29.5433 37.5921 29.016C37.2934 28.4887 37.1441 27.882 37.1441 27.196V23.724C37.1441 23.038 37.2934 22.4313 37.5921 21.904C37.8954 21.3767 38.3107 20.9637 38.8381 20.665C39.3654 20.3617 39.9721 20.21 40.6581 20.21C41.3441 20.21 41.9507 20.3617 42.4781 20.665C43.0054 20.9637 43.4184 21.3767 43.7171 21.904C44.0204 22.4313 44.1721 23.038 44.1721 23.724V27.196C44.1721 27.882 44.0204 28.4887 43.7171 29.016C43.4184 29.5433 43.0054 29.9587 42.4781 30.262C41.9507 30.5607 41.3441 30.71 40.6581 30.71ZM40.6581 29.31C41.0314 29.31 41.3697 29.2213 41.6731 29.044C41.9811 28.862 42.2261 28.6193 42.4081 28.316C42.5901 28.008 42.6811 27.665 42.6811 27.287V23.619C42.6811 23.2457 42.5901 22.9073 42.4081 22.604C42.2261 22.296 41.9811 22.0533 41.6731 21.876C41.3697 21.694 41.0314 21.603 40.6581 21.603C40.2847 21.603 39.9441 21.694 39.6361 21.876C39.3327 22.0533 39.0901 22.296 38.9081 22.604C38.7261 22.9073 38.6351 23.2457 38.6351 23.619V27.287C38.6351 27.665 38.7261 28.008 38.9081 28.316C39.0901 28.6193 39.3327 28.862 39.6361 29.044C39.9441 29.2213 40.2847 29.31 40.6581 29.31ZM49.6405 30.71C48.9545 30.71 48.3478 30.5607 47.8205 30.262C47.2932 29.9587 46.8778 29.5433 46.5745 29.016C46.2758 28.4887 46.1265 27.882 46.1265 27.196V23.724C46.1265 23.038 46.2758 22.4313 46.5745 21.904C46.8778 21.3767 47.2932 20.9637 47.8205 20.665C48.3478 20.3617 48.9545 20.21 49.6405 20.21C50.3265 20.21 50.9332 20.3617 51.4605 20.665C51.9878 20.9637 52.4008 21.3767 52.6995 21.904C53.0028 22.4313 53.1545 23.038 53.1545 23.724V27.196C53.1545 27.882 53.0028 28.4887 52.6995 29.016C52.4008 29.5433 51.9878 29.9587 51.4605 30.262C50.9332 30.5607 50.3265 30.71 49.6405 30.71ZM49.6405 29.31C50.0138 29.31 50.3522 29.2213 50.6555 29.044C50.9635 28.862 51.2085 28.6193 51.3905 28.316C51.5725 28.008 51.6635 27.665 51.6635 27.287V23.619C51.6635 23.2457 51.5725 22.9073 51.3905 22.604C51.2085 22.296 50.9635 22.0533 50.6555 21.876C50.3522 21.694 50.0138 21.603 49.6405 21.603C49.2672 21.603 48.9265 21.694 48.6185 21.876C48.3152 22.0533 48.0725 22.296 47.8905 22.604C47.7085 22.9073 47.6175 23.2457 47.6175 23.619V27.287C47.6175 27.665 47.7085 28.008 47.8905 28.316C48.0725 28.6193 48.3152 28.862 48.6185 29.044C48.9265 29.2213 49.2672 29.31 49.6405 29.31ZM57.7549 31.893V30.255H59.2179V31.893H57.7549ZM57.7549 20.672V19.027H59.2179V20.672H57.7549ZM58.5599 30.71C57.8599 30.71 57.2346 30.584 56.6839 30.332C56.1332 30.08 55.6806 29.723 55.3259 29.261C54.9759 28.7943 54.7472 28.2437 54.6399 27.609L56.0889 27.378C56.2289 27.9753 56.5276 28.4513 56.9849 28.806C57.4422 29.156 57.9906 29.331 58.6299 29.331C59.2646 29.331 59.7802 29.1793 60.1769 28.876C60.5782 28.5727 60.7789 28.1853 60.7789 27.714C60.7789 27.378 60.6762 27.105 60.4709 26.895C60.2702 26.685 59.9412 26.5077 59.4839 26.363L57.1179 25.635C55.7179 25.201 55.0179 24.361 55.0179 23.115C55.0179 22.527 55.1579 22.016 55.4379 21.582C55.7226 21.148 56.1216 20.812 56.6349 20.574C57.1482 20.336 57.7479 20.217 58.4339 20.217C59.0919 20.2263 59.6752 20.3477 60.1839 20.581C60.6972 20.8143 61.1219 21.1503 61.4579 21.589C61.7986 22.0277 62.0342 22.555 62.1649 23.171L60.6739 23.437C60.6086 23.0777 60.4709 22.7603 60.2609 22.485C60.0556 22.2097 59.7942 21.995 59.4769 21.841C59.1642 21.687 58.8119 21.6077 58.4199 21.603C58.0512 21.5937 57.7199 21.652 57.4259 21.778C57.1366 21.8993 56.9056 22.072 56.7329 22.296C56.5649 22.5153 56.4809 22.765 56.4809 23.045C56.4809 23.353 56.5999 23.6143 56.8379 23.829C57.0759 24.0437 57.4516 24.228 57.9649 24.382L59.8199 24.921C60.6692 25.173 61.2829 25.5113 61.6609 25.936C62.0389 26.3607 62.2279 26.9253 62.2279 27.63C62.2279 28.246 62.0739 28.785 61.7659 29.247C61.4626 29.7043 61.0356 30.0637 60.4849 30.325C59.9342 30.5817 59.2926 30.71 58.5599 30.71Z" fill="#808080"/>
<path d="M73 25H702" stroke="black" stroke-opacity="0.15" stroke-width="2" stroke-dasharray="12 12"/>
<path d="M10.737 71.5V63.03L8.84 64.185V62.554L10.737 61.42H12.228V71.5H10.737ZM18.1133 71.71C17.4553 71.71 16.8719 71.5793 16.3633 71.318C15.8593 71.052 15.4626 70.6833 15.1733 70.212C14.8886 69.7407 14.7463 69.1947 14.7463 68.574C14.7463 67.9953 14.8816 67.4657 15.1523 66.985C15.4229 66.5043 15.8266 66.1263 16.3633 65.851L16.3353 66.355C15.9059 66.089 15.5746 65.7577 15.3413 65.361C15.1126 64.9597 14.9983 64.5117 14.9983 64.017C14.9983 63.443 15.1313 62.946 15.3973 62.526C15.6633 62.106 16.0296 61.7817 16.4963 61.553C16.9676 61.3243 17.5066 61.21 18.1133 61.21C18.7199 61.21 19.2566 61.3243 19.7233 61.553C20.1899 61.7817 20.5563 62.106 20.8223 62.526C21.0883 62.946 21.2213 63.443 21.2213 64.017C21.2213 64.5117 21.1116 64.9573 20.8923 65.354C20.6729 65.7507 20.3369 66.0843 19.8843 66.355L19.8633 65.865C20.3953 66.1263 20.7989 66.4997 21.0743 66.985C21.3496 67.4657 21.4873 67.9953 21.4873 68.574C21.4873 69.1947 21.3426 69.7407 21.0533 70.212C20.7639 70.6833 20.3649 71.052 19.8563 71.318C19.3476 71.5793 18.7666 71.71 18.1133 71.71ZM18.1133 70.317C18.6546 70.317 19.0933 70.17 19.4293 69.876C19.7653 69.5773 19.9333 69.1433 19.9333 68.574C19.9333 68.0047 19.7653 67.5707 19.4293 67.272C19.0979 66.9687 18.6593 66.817 18.1133 66.817C17.5673 66.817 17.1263 66.9687 16.7903 67.272C16.4589 67.5707 16.2933 68.0047 16.2933 68.574C16.2933 69.1433 16.4613 69.5773 16.7973 69.876C17.1333 70.17 17.5719 70.317 18.1133 70.317ZM18.1133 65.417C18.5753 65.417 18.9486 65.3027 19.2333 65.074C19.5226 64.8407 19.6673 64.4883 19.6673 64.017C19.6673 63.5457 19.5226 63.1933 19.2333 62.96C18.9486 62.722 18.5753 62.603 18.1133 62.603C17.6513 62.603 17.2756 62.722 16.9863 62.96C16.6969 63.1933 16.5523 63.5457 16.5523 64.017C16.5523 64.4883 16.6969 64.8407 16.9863 65.074C17.2756 65.3027 17.6513 65.417 18.1133 65.417ZM29.6249 71.71C28.9389 71.71 28.3322 71.5607 27.8049 71.262C27.2775 70.9587 26.8622 70.5433 26.5589 70.016C26.2602 69.4887 26.1109 68.882 26.1109 68.196V64.724C26.1109 64.038 26.2602 63.4313 26.5589 62.904C26.8622 62.3767 27.2775 61.9637 27.8049 61.665C28.3322 61.3617 28.9389 61.21 29.6249 61.21C30.3109 61.21 30.9175 61.3617 31.4449 61.665C31.9722 61.9637 32.3852 62.3767 32.6839 62.904C32.9872 63.4313 33.1389 64.038 33.1389 64.724V68.196C33.1389 68.882 32.9872 69.4887 32.6839 70.016C32.3852 70.5433 31.9722 70.9587 31.4449 71.262C30.9175 71.5607 30.3109 71.71 29.6249 71.71ZM29.6249 70.31C29.9982 70.31 30.3365 70.2213 30.6399 70.044C30.9479 69.862 31.1929 69.6193 31.3749 69.316C31.5569 69.008 31.6479 68.665 31.6479 68.287V64.619C31.6479 64.2457 31.5569 63.9073 31.3749 63.604C31.1929 63.296 30.9479 63.0533 30.6399 62.876C30.3365 62.694 29.9982 62.603 29.6249 62.603C29.2515 62.603 28.9109 62.694 28.6029 62.876C28.2995 63.0533 28.0569 63.296 27.8749 63.604C27.6929 63.9073 27.6019 64.2457 27.6019 64.619V68.287C27.6019 68.665 27.6929 69.008 27.8749 69.316C28.0569 69.6193 28.2995 69.862 28.6029 70.044C28.9109 70.2213 29.2515 70.31 29.6249 70.31ZM38.6073 71.71C37.9213 71.71 37.3146 71.5607 36.7873 71.262C36.2599 70.9587 35.8446 70.5433 35.5413 70.016C35.2426 69.4887 35.0933 68.882 35.0933 68.196V64.724C35.0933 64.038 35.2426 63.4313 35.5413 62.904C35.8446 62.3767 36.2599 61.9637 36.7873 61.665C37.3146 61.3617 37.9213 61.21 38.6073 61.21C39.2933 61.21 39.8999 61.3617 40.4273 61.665C40.9546 61.9637 41.3676 62.3767 41.6663 62.904C41.9696 63.4313 42.1213 64.038 42.1213 64.724V68.196C42.1213 68.882 41.9696 69.4887 41.6663 70.016C41.3676 70.5433 40.9546 70.9587 40.4273 71.262C39.8999 71.5607 39.2933 71.71 38.6073 71.71ZM38.6073 70.31C38.9806 70.31 39.3189 70.2213 39.6223 70.044C39.9303 69.862 40.1753 69.6193 40.3573 69.316C40.5393 69.008 40.6303 68.665 40.6303 68.287V64.619C40.6303 64.2457 40.5393 63.9073 40.3573 63.604C40.1753 63.296 39.9303 63.0533 39.6223 62.876C39.3189 62.694 38.9806 62.603 38.6073 62.603C38.2339 62.603 37.8933 62.694 37.5853 62.876C37.2819 63.0533 37.0393 63.296 36.8573 63.604C36.6753 63.9073 36.5843 64.2457 36.5843 64.619V68.287C36.5843 68.665 36.6753 69.008 36.8573 69.316C37.0393 69.6193 37.2819 69.862 37.5853 70.044C37.8933 70.2213 38.2339 70.31 38.6073 70.31ZM47.5897 71.71C46.9037 71.71 46.297 71.5607 45.7697 71.262C45.2424 70.9587 44.827 70.5433 44.5237 70.016C44.225 69.4887 44.0757 68.882 44.0757 68.196V64.724C44.0757 64.038 44.225 63.4313 44.5237 62.904C44.827 62.3767 45.2424 61.9637 45.7697 61.665C46.297 61.3617 46.9037 61.21 47.5897 61.21C48.2757 61.21 48.8824 61.3617 49.4097 61.665C49.937 61.9637 50.35 62.3767 50.6487 62.904C50.952 63.4313 51.1037 64.038 51.1037 64.724V68.196C51.1037 68.882 50.952 69.4887 50.6487 70.016C50.35 70.5433 49.937 70.9587 49.4097 71.262C48.8824 71.5607 48.2757 71.71 47.5897 71.71ZM47.5897 70.31C47.963 70.31 48.3014 70.2213 48.6047 70.044C48.9127 69.862 49.1577 69.6193 49.3397 69.316C49.5217 69.008 49.6127 68.665 49.6127 68.287V64.619C49.6127 64.2457 49.5217 63.9073 49.3397 63.604C49.1577 63.296 48.9127 63.0533 48.6047 62.876C48.3014 62.694 47.963 62.603 47.5897 62.603C47.2164 62.603 46.8757 62.694 46.5677 62.876C46.2644 63.0533 46.0217 63.296 45.8397 63.604C45.6577 63.9073 45.5667 64.2457 45.5667 64.619V68.287C45.5667 68.665 45.6577 69.008 45.8397 69.316C46.0217 69.6193 46.2644 69.862 46.5677 70.044C46.8757 70.2213 47.2164 70.31 47.5897 70.31ZM55.7041 72.893V71.255H57.1671V72.893H55.7041ZM55.7041 61.672V60.027H57.1671V61.672H55.7041ZM56.5091 71.71C55.8091 71.71 55.1838 71.584 54.6331 71.332C54.0825 71.08 53.6298 70.723 53.2751 70.261C52.9251 69.7943 52.6965 69.2437 52.5891 68.609L54.0381 68.378C54.1781 68.9753 54.4768 69.4513 54.9341 69.806C55.3915 70.156 55.9398 70.331 56.5791 70.331C57.2138 70.331 57.7295 70.1793 58.1261 69.876C58.5275 69.5727 58.7281 69.1853 58.7281 68.714C58.7281 68.378 58.6255 68.105 58.4201 67.895C58.2195 67.685 57.8905 67.5077 57.4331 67.363L55.0671 66.635C53.6671 66.201 52.9671 65.361 52.9671 64.115C52.9671 63.527 53.1071 63.016 53.3871 62.582C53.6718 62.148 54.0708 61.812 54.5841 61.574C55.0975 61.336 55.6971 61.217 56.3831 61.217C57.0411 61.2263 57.6245 61.3477 58.1331 61.581C58.6465 61.8143 59.0711 62.1503 59.4071 62.589C59.7478 63.0277 59.9835 63.555 60.1141 64.171L58.6231 64.437C58.5578 64.0777 58.4201 63.7603 58.2101 63.485C58.0048 63.2097 57.7435 62.995 57.4261 62.841C57.1135 62.687 56.7611 62.6077 56.3691 62.603C56.0005 62.5937 55.6691 62.652 55.3751 62.778C55.0858 62.8993 54.8548 63.072 54.6821 63.296C54.5141 63.5153 54.4301 63.765 54.4301 64.045C54.4301 64.353 54.5491 64.6143 54.7871 64.829C55.0251 65.0437 55.4008 65.228 55.9141 65.382L57.7691 65.921C58.6185 66.173 59.2321 66.5113 59.6101 66.936C59.9881 67.3607 60.1771 67.9253 60.1771 68.63C60.1771 69.246 60.0231 69.785 59.7151 70.247C59.4118 70.7043 58.9848 71.0637 58.4341 71.325C57.8835 71.5817 57.2418 71.71 56.5091 71.71Z" fill="#808080"/>
<path d="M71 66H700" stroke="black" stroke-opacity="0.15" stroke-width="2" stroke-dasharray="12 12"/>
<path d="M10.737 112.5V104.03L8.84 105.185V103.554L10.737 102.42H12.228V112.5H10.737ZM14.6063 112.493L14.6133 111.191L19.0023 107.257C19.3569 106.944 19.5973 106.646 19.7233 106.361C19.8539 106.076 19.9193 105.792 19.9193 105.507C19.9193 105.148 19.8399 104.826 19.6813 104.541C19.5226 104.252 19.3033 104.023 19.0233 103.855C18.7433 103.687 18.4213 103.603 18.0573 103.603C17.6839 103.603 17.3503 103.692 17.0563 103.869C16.7669 104.042 16.5406 104.273 16.3773 104.562C16.2139 104.851 16.1346 105.164 16.1393 105.5H14.6413C14.6413 104.847 14.7883 104.275 15.0823 103.785C15.3809 103.29 15.7893 102.905 16.3073 102.63C16.8253 102.35 17.4179 102.21 18.0853 102.21C18.7199 102.21 19.2893 102.355 19.7933 102.644C20.2973 102.929 20.6939 103.321 20.9833 103.82C21.2773 104.319 21.4243 104.889 21.4243 105.528C21.4243 105.99 21.3636 106.382 21.2423 106.704C21.1209 107.026 20.9389 107.325 20.6963 107.6C20.4536 107.875 20.1503 108.174 19.7863 108.496L16.3983 111.52L16.2373 111.1H21.4243V112.493H14.6063ZM29.4198 112.71C28.7338 112.71 28.1271 112.561 27.5998 112.262C27.0724 111.959 26.6571 111.543 26.3538 111.016C26.0551 110.489 25.9058 109.882 25.9058 109.196V105.724C25.9058 105.038 26.0551 104.431 26.3538 103.904C26.6571 103.377 27.0724 102.964 27.5998 102.665C28.1271 102.362 28.7338 102.21 29.4198 102.21C30.1058 102.21 30.7124 102.362 31.2398 102.665C31.7671 102.964 32.1801 103.377 32.4788 103.904C32.7821 104.431 32.9338 105.038 32.9338 105.724V109.196C32.9338 109.882 32.7821 110.489 32.4788 111.016C32.1801 111.543 31.7671 111.959 31.2398 112.262C30.7124 112.561 30.1058 112.71 29.4198 112.71ZM29.4198 111.31C29.7931 111.31 30.1314 111.221 30.4348 111.044C30.7428 110.862 30.9878 110.619 31.1698 110.316C31.3518 110.008 31.4428 109.665 31.4428 109.287V105.619C31.4428 105.246 31.3518 104.907 31.1698 104.604C30.9878 104.296 30.7428 104.053 30.4348 103.876C30.1314 103.694 29.7931 103.603 29.4198 103.603C29.0464 103.603 28.7058 103.694 28.3978 103.876C28.0944 104.053 27.8518 104.296 27.6698 104.604C27.4878 104.907 27.3968 105.246 27.3968 105.619V109.287C27.3968 109.665 27.4878 110.008 27.6698 110.316C27.8518 110.619 28.0944 110.862 28.3978 111.044C28.7058 111.221 29.0464 111.31 29.4198 111.31ZM38.4022 112.71C37.7162 112.71 37.1095 112.561 36.5822 112.262C36.0549 111.959 35.6395 111.543 35.3362 111.016C35.0375 110.489 34.8882 109.882 34.8882 109.196V105.724C34.8882 105.038 35.0375 104.431 35.3362 103.904C35.6395 103.377 36.0549 102.964 36.5822 102.665C37.1095 102.362 37.7162 102.21 38.4022 102.21C39.0882 102.21 39.6949 102.362 40.2222 102.665C40.7495 102.964 41.1625 103.377 41.4612 103.904C41.7645 104.431 41.9162 105.038 41.9162 105.724V109.196C41.9162 109.882 41.7645 110.489 41.4612 111.016C41.1625 111.543 40.7495 111.959 40.2222 112.262C39.6949 112.561 39.0882 112.71 38.4022 112.71ZM38.4022 111.31C38.7755 111.31 39.1139 111.221 39.4172 111.044C39.7252 110.862 39.9702 110.619 40.1522 110.316C40.3342 110.008 40.4252 109.665 40.4252 109.287V105.619C40.4252 105.246 40.3342 104.907 40.1522 104.604C39.9702 104.296 39.7252 104.053 39.4172 103.876C39.1139 103.694 38.7755 103.603 38.4022 103.603C38.0289 103.603 37.6882 103.694 37.3802 103.876C37.0769 104.053 36.8342 104.296 36.6522 104.604C36.4702 104.907 36.3792 105.246 36.3792 105.619V109.287C36.3792 109.665 36.4702 110.008 36.6522 110.316C36.8342 110.619 37.0769 110.862 37.3802 111.044C37.6882 111.221 38.0289 111.31 38.4022 111.31ZM47.3846 112.71C46.6986 112.71 46.092 112.561 45.5646 112.262C45.0373 111.959 44.622 111.543 44.3186 111.016C44.02 110.489 43.8706 109.882 43.8706 109.196V105.724C43.8706 105.038 44.02 104.431 44.3186 103.904C44.622 103.377 45.0373 102.964 45.5646 102.665C46.092 102.362 46.6986 102.21 47.3846 102.21C48.0706 102.21 48.6773 102.362 49.2046 102.665C49.732 102.964 50.145 103.377 50.4436 103.904C50.747 104.431 50.8986 105.038 50.8986 105.724V109.196C50.8986 109.882 50.747 110.489 50.4436 111.016C50.145 111.543 49.732 111.959 49.2046 112.262C48.6773 112.561 48.0706 112.71 47.3846 112.71ZM47.3846 111.31C47.758 111.31 48.0963 111.221 48.3996 111.044C48.7076 110.862 48.9526 110.619 49.1346 110.316C49.3166 110.008 49.4076 109.665 49.4076 109.287V105.619C49.4076 105.246 49.3166 104.907 49.1346 104.604C48.9526 104.296 48.7076 104.053 48.3996 103.876C48.0963 103.694 47.758 103.603 47.3846 103.603C47.0113 103.603 46.6706 103.694 46.3626 103.876C46.0593 104.053 45.8166 104.296 45.6346 104.604C45.4526 104.907 45.3616 105.246 45.3616 105.619V109.287C45.3616 109.665 45.4526 110.008 45.6346 110.316C45.8166 110.619 46.0593 110.862 46.3626 111.044C46.6706 111.221 47.0113 111.31 47.3846 111.31ZM55.499 113.893V112.255H56.962V113.893H55.499ZM55.499 102.672V101.027H56.962V102.672H55.499ZM56.304 112.71C55.604 112.71 54.9787 112.584 54.428 112.332C53.8774 112.08 53.4247 111.723 53.07 111.261C52.72 110.794 52.4914 110.244 52.384 109.609L53.833 109.378C53.973 109.975 54.2717 110.451 54.729 110.806C55.1864 111.156 55.7347 111.331 56.374 111.331C57.0087 111.331 57.5244 111.179 57.921 110.876C58.3224 110.573 58.523 110.185 58.523 109.714C58.523 109.378 58.4204 109.105 58.215 108.895C58.0144 108.685 57.6854 108.508 57.228 108.363L54.862 107.635C53.462 107.201 52.762 106.361 52.762 105.115C52.762 104.527 52.902 104.016 53.182 103.582C53.4667 103.148 53.8657 102.812 54.379 102.574C54.8924 102.336 55.492 102.217 56.178 102.217C56.836 102.226 57.4194 102.348 57.928 102.581C58.4414 102.814 58.866 103.15 59.202 103.589C59.5427 104.028 59.7784 104.555 59.909 105.171L58.418 105.437C58.3527 105.078 58.215 104.76 58.005 104.485C57.7997 104.21 57.5384 103.995 57.221 103.841C56.9084 103.687 56.556 103.608 56.164 103.603C55.7954 103.594 55.464 103.652 55.17 103.778C54.8807 103.899 54.6497 104.072 54.477 104.296C54.309 104.515 54.225 104.765 54.225 105.045C54.225 105.353 54.344 105.614 54.582 105.829C54.82 106.044 55.1957 106.228 55.709 106.382L57.564 106.921C58.4134 107.173 59.027 107.511 59.405 107.936C59.783 108.361 59.972 108.925 59.972 109.63C59.972 110.246 59.818 110.785 59.51 111.247C59.2067 111.704 58.7797 112.064 58.229 112.325C57.6784 112.582 57.0367 112.71 56.304 112.71Z" fill="#808080"/>
<path d="M71 107H700" stroke="black" stroke-opacity="0.15" stroke-width="2" stroke-dasharray="12 12"/>
<path d="M12.445 153.71C11.7917 153.71 11.2037 153.556 10.681 153.248C10.1583 152.935 9.743 152.508 9.435 151.967C9.13167 151.426 8.98 150.81 8.98 150.119V146.906C8.98 146.173 9.13167 145.529 9.435 144.974C9.743 144.419 10.1677 143.987 10.709 143.679C11.255 143.371 11.8827 143.217 12.592 143.217C13.124 143.217 13.6233 143.317 14.09 143.518C14.5567 143.719 14.9603 144.017 15.301 144.414L14.23 145.415C14.0387 145.168 13.7983 144.972 13.509 144.827C13.2243 144.678 12.9187 144.603 12.592 144.603C12.172 144.603 11.8033 144.703 11.486 144.904C11.1687 145.1 10.919 145.359 10.737 145.681C10.5597 146.003 10.471 146.348 10.471 146.717V148.565L10.184 148.243C10.4733 147.865 10.8327 147.566 11.262 147.347C11.6913 147.128 12.151 147.018 12.641 147.018C13.2663 147.018 13.824 147.165 14.314 147.459C14.8087 147.748 15.196 148.143 15.476 148.642C15.7607 149.141 15.903 149.704 15.903 150.329C15.903 150.959 15.7443 151.531 15.427 152.044C15.1143 152.553 14.6943 152.959 14.167 153.262C13.6443 153.561 13.0703 153.71 12.445 153.71ZM12.445 152.303C12.809 152.303 13.1403 152.214 13.439 152.037C13.7377 151.86 13.9757 151.622 14.153 151.323C14.3303 151.024 14.419 150.693 14.419 150.329C14.419 149.965 14.3303 149.634 14.153 149.335C13.9803 149.036 13.7447 148.798 13.446 148.621C13.1473 148.444 12.816 148.355 12.452 148.355C12.088 148.355 11.7543 148.444 11.451 148.621C11.1523 148.798 10.9143 149.036 10.737 149.335C10.5597 149.634 10.471 149.965 10.471 150.329C10.471 150.688 10.5597 151.017 10.737 151.316C10.9143 151.615 11.1523 151.855 11.451 152.037C11.7497 152.214 12.081 152.303 12.445 152.303ZM23.992 153.71C23.306 153.71 22.6994 153.561 22.172 153.262C21.6447 152.959 21.2294 152.543 20.926 152.016C20.6274 151.489 20.478 150.882 20.478 150.196V146.724C20.478 146.038 20.6274 145.431 20.926 144.904C21.2294 144.377 21.6447 143.964 22.172 143.665C22.6994 143.362 23.306 143.21 23.992 143.21C24.678 143.21 25.2847 143.362 25.812 143.665C26.3394 143.964 26.7524 144.377 27.051 144.904C27.3544 145.431 27.506 146.038 27.506 146.724V150.196C27.506 150.882 27.3544 151.489 27.051 152.016C26.7524 152.543 26.3394 152.959 25.812 153.262C25.2847 153.561 24.678 153.71 23.992 153.71ZM23.992 152.31C24.3654 152.31 24.7037 152.221 25.007 152.044C25.315 151.862 25.56 151.619 25.742 151.316C25.924 151.008 26.015 150.665 26.015 150.287V146.619C26.015 146.246 25.924 145.907 25.742 145.604C25.56 145.296 25.315 145.053 25.007 144.876C24.7037 144.694 24.3654 144.603 23.992 144.603C23.6187 144.603 23.278 144.694 22.97 144.876C22.6667 145.053 22.424 145.296 22.242 145.604C22.06 145.907 21.969 146.246 21.969 146.619V150.287C21.969 150.665 22.06 151.008 22.242 151.316C22.424 151.619 22.6667 151.862 22.97 152.044C23.278 152.221 23.6187 152.31 23.992 152.31ZM32.9745 153.71C32.2885 153.71 31.6818 153.561 31.1545 153.262C30.6271 152.959 30.2118 152.543 29.9085 152.016C29.6098 151.489 29.4605 150.882 29.4605 150.196V146.724C29.4605 146.038 29.6098 145.431 29.9085 144.904C30.2118 144.377 30.6271 143.964 31.1545 143.665C31.6818 143.362 32.2885 143.21 32.9745 143.21C33.6605 143.21 34.2671 143.362 34.7945 143.665C35.3218 143.964 35.7348 144.377 36.0335 144.904C36.3368 145.431 36.4885 146.038 36.4885 146.724V150.196C36.4885 150.882 36.3368 151.489 36.0335 152.016C35.7348 152.543 35.3218 152.959 34.7945 153.262C34.2671 153.561 33.6605 153.71 32.9745 153.71ZM32.9745 152.31C33.3478 152.31 33.6861 152.221 33.9895 152.044C34.2975 151.862 34.5425 151.619 34.7245 151.316C34.9065 151.008 34.9975 150.665 34.9975 150.287V146.619C34.9975 146.246 34.9065 145.907 34.7245 145.604C34.5425 145.296 34.2975 145.053 33.9895 144.876C33.6861 144.694 33.3478 144.603 32.9745 144.603C32.6011 144.603 32.2605 144.694 31.9525 144.876C31.6491 145.053 31.4065 145.296 31.2245 145.604C31.0425 145.907 30.9515 146.246 30.9515 146.619V150.287C30.9515 150.665 31.0425 151.008 31.2245 151.316C31.4065 151.619 31.6491 151.862 31.9525 152.044C32.2605 152.221 32.6011 152.31 32.9745 152.31ZM41.9569 153.71C41.2709 153.71 40.6642 153.561 40.1369 153.262C39.6096 152.959 39.1942 152.543 38.8909 152.016C38.5922 151.489 38.4429 150.882 38.4429 150.196V146.724C38.4429 146.038 38.5922 145.431 38.8909 144.904C39.1942 144.377 39.6096 143.964 40.1369 143.665C40.6642 143.362 41.2709 143.21 41.9569 143.21C42.6429 143.21 43.2496 143.362 43.7769 143.665C44.3042 143.964 44.7172 144.377 45.0159 144.904C45.3192 145.431 45.4709 146.038 45.4709 146.724V150.196C45.4709 150.882 45.3192 151.489 45.0159 152.016C44.7172 152.543 44.3042 152.959 43.7769 153.262C43.2496 153.561 42.6429 153.71 41.9569 153.71ZM41.9569 152.31C42.3302 152.31 42.6686 152.221 42.9719 152.044C43.2799 151.862 43.5249 151.619 43.7069 151.316C43.8889 151.008 43.9799 150.665 43.9799 150.287V146.619C43.9799 146.246 43.8889 145.907 43.7069 145.604C43.5249 145.296 43.2799 145.053 42.9719 144.876C42.6686 144.694 42.3302 144.603 41.9569 144.603C41.5836 144.603 41.2429 144.694 40.9349 144.876C40.6316 145.053 40.3889 145.296 40.2069 145.604C40.0249 145.907 39.9339 146.246 39.9339 146.619V150.287C39.9339 150.665 40.0249 151.008 40.2069 151.316C40.3889 151.619 40.6316 151.862 40.9349 152.044C41.2429 152.221 41.5836 152.31 41.9569 152.31ZM50.0713 154.893V153.255H51.5343V154.893H50.0713ZM50.0713 143.672V142.027H51.5343V143.672H50.0713ZM50.8763 153.71C50.1763 153.71 49.551 153.584 49.0003 153.332C48.4496 153.08 47.997 152.723 47.6423 152.261C47.2923 151.794 47.0636 151.244 46.9563 150.609L48.4053 150.378C48.5453 150.975 48.844 151.451 49.3013 151.806C49.7586 152.156 50.307 152.331 50.9463 152.331C51.581 152.331 52.0966 152.179 52.4933 151.876C52.8946 151.573 53.0953 151.185 53.0953 150.714C53.0953 150.378 52.9926 150.105 52.7873 149.895C52.5866 149.685 52.2576 149.508 51.8003 149.363L49.4343 148.635C48.0343 148.201 47.3343 147.361 47.3343 146.115C47.3343 145.527 47.4743 145.016 47.7543 144.582C48.039 144.148 48.438 143.812 48.9513 143.574C49.4646 143.336 50.0643 143.217 50.7503 143.217C51.4083 143.226 51.9916 143.348 52.5003 143.581C53.0136 143.814 53.4383 144.15 53.7743 144.589C54.115 145.028 54.3506 145.555 54.4813 146.171L52.9903 146.437C52.925 146.078 52.7873 145.76 52.5773 145.485C52.372 145.21 52.1106 144.995 51.7933 144.841C51.4806 144.687 51.1283 144.608 50.7363 144.603C50.3676 144.594 50.0363 144.652 49.7423 144.778C49.453 144.899 49.222 145.072 49.0493 145.296C48.8813 145.515 48.7973 145.765 48.7973 146.045C48.7973 146.353 48.9163 146.614 49.1543 146.829C49.3923 147.044 49.768 147.228 50.2813 147.382L52.1363 147.921C52.9856 148.173 53.5993 148.511 53.9773 148.936C54.3553 149.361 54.5443 149.925 54.5443 150.63C54.5443 151.246 54.3903 151.785 54.0823 152.247C53.779 152.704 53.352 153.064 52.8013 153.325C52.2506 153.582 51.609 153.71 50.8763 153.71Z" fill="#808080"/>
<path d="M66 148H695" stroke="black" stroke-opacity="0.15" stroke-width="2" stroke-dasharray="12 12"/>
<path d="M10.737 194.5V186.03L8.84 187.185V185.554L10.737 184.42H12.228V194.5H10.737ZM21.203 194.71C20.517 194.71 19.9103 194.561 19.383 194.262C18.8557 193.959 18.4403 193.543 18.137 193.016C17.8383 192.489 17.689 191.882 17.689 191.196V187.724C17.689 187.038 17.8383 186.431 18.137 185.904C18.4403 185.377 18.8557 184.964 19.383 184.665C19.9103 184.362 20.517 184.21 21.203 184.21C21.889 184.21 22.4957 184.362 23.023 184.665C23.5503 184.964 23.9633 185.377 24.262 185.904C24.5653 186.431 24.717 187.038 24.717 187.724V191.196C24.717 191.882 24.5653 192.489 24.262 193.016C23.9633 193.543 23.5503 193.959 23.023 194.262C22.4957 194.561 21.889 194.71 21.203 194.71ZM21.203 193.31C21.5763 193.31 21.9147 193.221 22.218 193.044C22.526 192.862 22.771 192.619 22.953 192.316C23.135 192.008 23.226 191.665 23.226 191.287V187.619C23.226 187.246 23.135 186.907 22.953 186.604C22.771 186.296 22.526 186.053 22.218 185.876C21.9147 185.694 21.5763 185.603 21.203 185.603C20.8297 185.603 20.489 185.694 20.181 185.876C19.8777 186.053 19.635 186.296 19.453 186.604C19.271 186.907 19.18 187.246 19.18 187.619V191.287C19.18 191.665 19.271 192.008 19.453 192.316C19.635 192.619 19.8777 192.862 20.181 193.044C20.489 193.221 20.8297 193.31 21.203 193.31ZM30.1854 194.71C29.4994 194.71 28.8927 194.561 28.3654 194.262C27.8381 193.959 27.4227 193.543 27.1194 193.016C26.8207 192.489 26.6714 191.882 26.6714 191.196V187.724C26.6714 187.038 26.8207 186.431 27.1194 185.904C27.4227 185.377 27.8381 184.964 28.3654 184.665C28.8927 184.362 29.4994 184.21 30.1854 184.21C30.8714 184.21 31.4781 184.362 32.0054 184.665C32.5327 184.964 32.9457 185.377 33.2444 185.904C33.5477 186.431 33.6994 187.038 33.6994 187.724V191.196C33.6994 191.882 33.5477 192.489 33.2444 193.016C32.9457 193.543 32.5327 193.959 32.0054 194.262C31.4781 194.561 30.8714 194.71 30.1854 194.71ZM30.1854 193.31C30.5587 193.31 30.8971 193.221 31.2004 193.044C31.5084 192.862 31.7534 192.619 31.9354 192.316C32.1174 192.008 32.2084 191.665 32.2084 191.287V187.619C32.2084 187.246 32.1174 186.907 31.9354 186.604C31.7534 186.296 31.5084 186.053 31.2004 185.876C30.8971 185.694 30.5587 185.603 30.1854 185.603C29.8121 185.603 29.4714 185.694 29.1634 185.876C28.8601 186.053 28.6174 186.296 28.4354 186.604C28.2534 186.907 28.1624 187.246 28.1624 187.619V191.287C28.1624 191.665 28.2534 192.008 28.4354 192.316C28.6174 192.619 28.8601 192.862 29.1634 193.044C29.4714 193.221 29.8121 193.31 30.1854 193.31ZM39.1678 194.71C38.4818 194.71 37.8752 194.561 37.3478 194.262C36.8205 193.959 36.4052 193.543 36.1018 193.016C35.8032 192.489 35.6538 191.882 35.6538 191.196V187.724C35.6538 187.038 35.8032 186.431 36.1018 185.904C36.4052 185.377 36.8205 184.964 37.3478 184.665C37.8752 184.362 38.4818 184.21 39.1678 184.21C39.8538 184.21 40.4605 184.362 40.9878 184.665C41.5152 184.964 41.9282 185.377 42.2268 185.904C42.5302 186.431 42.6818 187.038 42.6818 187.724V191.196C42.6818 191.882 42.5302 192.489 42.2268 193.016C41.9282 193.543 41.5152 193.959 40.9878 194.262C40.4605 194.561 39.8538 194.71 39.1678 194.71ZM39.1678 193.31C39.5412 193.31 39.8795 193.221 40.1828 193.044C40.4908 192.862 40.7358 192.619 40.9178 192.316C41.0998 192.008 41.1908 191.665 41.1908 191.287V187.619C41.1908 187.246 41.0998 186.907 40.9178 186.604C40.7358 186.296 40.4908 186.053 40.1828 185.876C39.8795 185.694 39.5412 185.603 39.1678 185.603C38.7945 185.603 38.4538 185.694 38.1458 185.876C37.8425 186.053 37.5998 186.296 37.4178 186.604C37.2358 186.907 37.1448 187.246 37.1448 187.619V191.287C37.1448 191.665 37.2358 192.008 37.4178 192.316C37.5998 192.619 37.8425 192.862 38.1458 193.044C38.4538 193.221 38.7945 193.31 39.1678 193.31ZM47.2823 195.893V194.255H48.7453V195.893H47.2823ZM47.2823 184.672V183.027H48.7453V184.672H47.2823ZM48.0873 194.71C47.3873 194.71 46.7619 194.584 46.2113 194.332C45.6606 194.08 45.2079 193.723 44.8533 193.261C44.5033 192.794 44.2746 192.244 44.1673 191.609L45.6163 191.378C45.7563 191.975 46.0549 192.451 46.5123 192.806C46.9696 193.156 47.5179 193.331 48.1573 193.331C48.7919 193.331 49.3076 193.179 49.7043 192.876C50.1056 192.573 50.3063 192.185 50.3063 191.714C50.3063 191.378 50.2036 191.105 49.9983 190.895C49.7976 190.685 49.4686 190.508 49.0113 190.363L46.6453 189.635C45.2453 189.201 44.5453 188.361 44.5453 187.115C44.5453 186.527 44.6853 186.016 44.9653 185.582C45.2499 185.148 45.6489 184.812 46.1623 184.574C46.6756 184.336 47.2753 184.217 47.9613 184.217C48.6193 184.226 49.2026 184.348 49.7113 184.581C50.2246 184.814 50.6493 185.15 50.9853 185.589C51.3259 186.028 51.5616 186.555 51.6923 187.171L50.2013 187.437C50.1359 187.078 49.9983 186.76 49.7883 186.485C49.5829 186.21 49.3216 185.995 49.0043 185.841C48.6916 185.687 48.3393 185.608 47.9473 185.603C47.5786 185.594 47.2473 185.652 46.9533 185.778C46.6639 185.899 46.4329 186.072 46.2603 186.296C46.0923 186.515 46.0083 186.765 46.0083 187.045C46.0083 187.353 46.1273 187.614 46.3653 187.829C46.6033 188.044 46.9789 188.228 47.4923 188.382L49.3473 188.921C50.1966 189.173 50.8103 189.511 51.1883 189.936C51.5663 190.361 51.7553 190.925 51.7553 191.63C51.7553 192.246 51.6013 192.785 51.2933 193.247C50.9899 193.704 50.5629 194.064 50.0123 194.325C49.4616 194.582 48.8199 194.71 48.0873 194.71Z" fill="#808080"/>
<path d="M63 189H692" stroke="black" stroke-opacity="0.15" stroke-width="2" stroke-dasharray="12 12"/>
<path d="M69 173L116.434 142.476L142.313 129.636C145.766 127.922 149.569 127.03 153.425 127.03H193.513C195.809 127.03 198.095 126.714 200.305 126.09L244.903 113.5L297.807 102.879C299.427 102.554 301.075 102.39 302.727 102.39H354.009C356.364 102.39 358.707 102.058 360.969 101.402L400.237 90.0196C401.43 89.6737 402.647 89.4172 403.879 89.2523L460.484 81.6728C461.7 81.5099 462.902 81.2579 464.081 80.9186L515.553 66.1036C516.949 65.702 518.376 65.4227 519.82 65.2689L568.342 60.1004C572.053 59.7052 575.628 58.4842 578.805 56.5271L608.072 38.5L640.683 22.8253C645.191 20.6583 650.246 19.8936 655.193 20.6298L698 27" stroke="#3356D2" stroke-width="2"/>
<circle cx="521" cy="65" r="6" fill="white" stroke="#3356D2" stroke-width="2"/>
<rect x="490" y="31" width="61" height="22" rx="5" fill="#3356D2"/>
<path d="M496.737 47.5V39.03L494.84 40.185V38.554L496.737 37.42H498.228V47.5H496.737ZM504.113 47.71C503.455 47.71 502.872 47.5793 502.363 47.318C501.859 47.052 501.463 46.6833 501.173 46.212C500.889 45.7407 500.746 45.1947 500.746 44.574C500.746 43.9953 500.882 43.4657 501.152 42.985C501.423 42.5043 501.827 42.1263 502.363 41.851L502.335 42.355C501.906 42.089 501.575 41.7577 501.341 41.361C501.113 40.9597 500.998 40.5117 500.998 40.017C500.998 39.443 501.131 38.946 501.397 38.526C501.663 38.106 502.03 37.7817 502.496 37.553C502.968 37.3243 503.507 37.21 504.113 37.21C504.72 37.21 505.257 37.3243 505.723 37.553C506.19 37.7817 506.556 38.106 506.822 38.526C507.088 38.946 507.221 39.443 507.221 40.017C507.221 40.5117 507.112 40.9573 506.892 41.354C506.673 41.7507 506.337 42.0843 505.884 42.355L505.863 41.865C506.395 42.1263 506.799 42.4997 507.074 42.985C507.35 43.4657 507.487 43.9953 507.487 44.574C507.487 45.1947 507.343 45.7407 507.053 46.212C506.764 46.6833 506.365 47.052 505.856 47.318C505.348 47.5793 504.767 47.71 504.113 47.71ZM504.113 46.317C504.655 46.317 505.093 46.17 505.429 45.876C505.765 45.5773 505.933 45.1433 505.933 44.574C505.933 44.0047 505.765 43.5707 505.429 43.272C505.098 42.9687 504.659 42.817 504.113 42.817C503.567 42.817 503.126 42.9687 502.79 43.272C502.459 43.5707 502.293 44.0047 502.293 44.574C502.293 45.1433 502.461 45.5773 502.797 45.876C503.133 46.17 503.572 46.317 504.113 46.317ZM504.113 41.417C504.575 41.417 504.949 41.3027 505.233 41.074C505.523 40.8407 505.667 40.4883 505.667 40.017C505.667 39.5457 505.523 39.1933 505.233 38.96C504.949 38.722 504.575 38.603 504.113 38.603C503.651 38.603 503.276 38.722 502.986 38.96C502.697 39.1933 502.552 39.5457 502.552 40.017C502.552 40.4883 502.697 40.8407 502.986 41.074C503.276 41.3027 503.651 41.417 504.113 41.417ZM515.625 47.71C514.939 47.71 514.332 47.5607 513.805 47.262C513.278 46.9587 512.862 46.5433 512.559 46.016C512.26 45.4887 512.111 44.882 512.111 44.196V40.724C512.111 40.038 512.26 39.4313 512.559 38.904C512.862 38.3767 513.278 37.9637 513.805 37.665C514.332 37.3617 514.939 37.21 515.625 37.21C516.311 37.21 516.918 37.3617 517.445 37.665C517.972 37.9637 518.385 38.3767 518.684 38.904C518.987 39.4313 519.139 40.038 519.139 40.724V44.196C519.139 44.882 518.987 45.4887 518.684 46.016C518.385 46.5433 517.972 46.9587 517.445 47.262C516.918 47.5607 516.311 47.71 515.625 47.71ZM515.625 46.31C515.998 46.31 516.337 46.2213 516.64 46.044C516.948 45.862 517.193 45.6193 517.375 45.316C517.557 45.008 517.648 44.665 517.648 44.287V40.619C517.648 40.2457 517.557 39.9073 517.375 39.604C517.193 39.296 516.948 39.0533 516.64 38.876C516.337 38.694 515.998 38.603 515.625 38.603C515.252 38.603 514.911 38.694 514.603 38.876C514.3 39.0533 514.057 39.296 513.875 39.604C513.693 39.9073 513.602 40.2457 513.602 40.619V44.287C513.602 44.665 513.693 45.008 513.875 45.316C514.057 45.6193 514.3 45.862 514.603 46.044C514.911 46.2213 515.252 46.31 515.625 46.31ZM524.607 47.71C523.921 47.71 523.315 47.5607 522.787 47.262C522.26 46.9587 521.845 46.5433 521.541 46.016C521.243 45.4887 521.093 44.882 521.093 44.196V40.724C521.093 40.038 521.243 39.4313 521.541 38.904C521.845 38.3767 522.26 37.9637 522.787 37.665C523.315 37.3617 523.921 37.21 524.607 37.21C525.293 37.21 525.9 37.3617 526.427 37.665C526.955 37.9637 527.368 38.3767 527.666 38.904C527.97 39.4313 528.121 40.038 528.121 40.724V44.196C528.121 44.882 527.97 45.4887 527.666 46.016C527.368 46.5433 526.955 46.9587 526.427 47.262C525.9 47.5607 525.293 47.71 524.607 47.71ZM524.607 46.31C524.981 46.31 525.319 46.2213 525.622 46.044C525.93 45.862 526.175 45.6193 526.357 45.316C526.539 45.008 526.63 44.665 526.63 44.287V40.619C526.63 40.2457 526.539 39.9073 526.357 39.604C526.175 39.296 525.93 39.0533 525.622 38.876C525.319 38.694 524.981 38.603 524.607 38.603C524.234 38.603 523.893 38.694 523.585 38.876C523.282 39.0533 523.039 39.296 522.857 39.604C522.675 39.9073 522.584 40.2457 522.584 40.619V44.287C522.584 44.665 522.675 45.008 522.857 45.316C523.039 45.6193 523.282 45.862 523.585 46.044C523.893 46.2213 524.234 46.31 524.607 46.31ZM533.59 47.71C532.904 47.71 532.297 47.5607 531.77 47.262C531.242 46.9587 530.827 46.5433 530.524 46.016C530.225 45.4887 530.076 44.882 530.076 44.196V40.724C530.076 40.038 530.225 39.4313 530.524 38.904C530.827 38.3767 531.242 37.9637 531.77 37.665C532.297 37.3617 532.904 37.21 533.59 37.21C534.276 37.21 534.882 37.3617 535.41 37.665C535.937 37.9637 536.35 38.3767 536.649 38.904C536.952 39.4313 537.104 40.038 537.104 40.724V44.196C537.104 44.882 536.952 45.4887 536.649 46.016C536.35 46.5433 535.937 46.9587 535.41 47.262C534.882 47.5607 534.276 47.71 533.59 47.71ZM533.59 46.31C533.963 46.31 534.301 46.2213 534.605 46.044C534.913 45.862 535.158 45.6193 535.34 45.316C535.522 45.008 535.613 44.665 535.613 44.287V40.619C535.613 40.2457 535.522 39.9073 535.34 39.604C535.158 39.296 534.913 39.0533 534.605 38.876C534.301 38.694 533.963 38.603 533.59 38.603C533.216 38.603 532.876 38.694 532.568 38.876C532.264 39.0533 532.022 39.296 531.84 39.604C531.658 39.9073 531.567 40.2457 531.567 40.619V44.287C531.567 44.665 531.658 45.008 531.84 45.316C532.022 45.6193 532.264 45.862 532.568 46.044C532.876 46.2213 533.216 46.31 533.59 46.31ZM541.704 48.893V47.255H543.167V48.893H541.704ZM541.704 37.672V36.027H543.167V37.672H541.704ZM542.509 47.71C541.809 47.71 541.184 47.584 540.633 47.332C540.082 47.08 539.63 46.723 539.275 46.261C538.925 45.7943 538.696 45.2437 538.589 44.609L540.038 44.378C540.178 44.9753 540.477 45.4513 540.934 45.806C541.391 46.156 541.94 46.331 542.579 46.331C543.214 46.331 543.729 46.1793 544.126 45.876C544.527 45.5727 544.728 45.1853 544.728 44.714C544.728 44.378 544.625 44.105 544.42 43.895C544.219 43.685 543.89 43.5077 543.433 43.363L541.067 42.635C539.667 42.201 538.967 41.361 538.967 40.115C538.967 39.527 539.107 39.016 539.387 38.582C539.672 38.148 540.071 37.812 540.584 37.574C541.097 37.336 541.697 37.217 542.383 37.217C543.041 37.2263 543.624 37.3477 544.133 37.581C544.646 37.8143 545.071 38.1503 545.407 38.589C545.748 39.0277 545.983 39.555 546.114 40.171L544.623 40.437C544.558 40.0777 544.42 39.7603 544.21 39.485C544.005 39.2097 543.743 38.995 543.426 38.841C543.113 38.687 542.761 38.6077 542.369 38.603C542 38.5937 541.669 38.652 541.375 38.778C541.086 38.8993 540.855 39.072 540.682 39.296C540.514 39.5153 540.43 39.765 540.43 40.045C540.43 40.353 540.549 40.6143 540.787 40.829C541.025 41.0437 541.401 41.228 541.914 41.382L543.769 41.921C544.618 42.173 545.232 42.5113 545.61 42.936C545.988 43.3607 546.177 43.9253 546.177 44.63C546.177 45.246 546.023 45.785 545.715 46.247C545.412 46.7043 544.985 47.0637 544.434 47.325C543.883 47.5817 543.242 47.71 542.509 47.71Z" fill="white"/>
</g>
<defs>
<clipPath id="clip0_1_818">
<rect width="711" height="328" rx="12" fill="white"/>
</clipPath>
</defs>
</svg>
