<svg width="711" height="328" viewBox="0 0 711 328" fill="none" xmlns="http://www.w3.org/2000/svg">
<g clip-path="url(#clip0_1_87)">
<rect width="711" height="328" rx="12" fill="white"/>
<path d="M83.9429 324.203C83.2056 324.203 82.5849 324.007 82.0809 323.615C81.5816 323.223 81.2363 322.696 81.0449 322.033L82.4939 321.69C82.5593 322.003 82.7249 322.271 82.9909 322.495C83.2616 322.714 83.5626 322.824 83.8939 322.824C84.1133 322.824 84.3419 322.768 84.5799 322.656C84.8179 322.544 84.9953 322.362 85.1119 322.11C85.1913 321.942 85.2379 321.751 85.2519 321.536C85.2659 321.317 85.2729 321.062 85.2729 320.773V313.92H86.7569V320.773C86.7569 321.072 86.7546 321.338 86.7499 321.571C86.7499 321.804 86.7266 322.024 86.6799 322.229C86.6379 322.434 86.5539 322.647 86.4279 322.866C86.1619 323.328 85.8119 323.666 85.3779 323.881C84.9439 324.096 84.4656 324.203 83.9429 324.203ZM90.9959 324.21C90.4359 324.21 89.9669 324.107 89.5889 323.902C89.2109 323.692 88.9239 323.417 88.7279 323.076C88.5365 322.731 88.4409 322.353 88.4409 321.942C88.4409 321.559 88.5085 321.223 88.6439 320.934C88.7792 320.645 88.9799 320.4 89.2459 320.199C89.5119 319.994 89.8385 319.828 90.2259 319.702C90.5619 319.604 90.9422 319.518 91.3669 319.443C91.7915 319.368 92.2372 319.298 92.7039 319.233C93.1752 319.168 93.6419 319.102 94.1039 319.037L93.5719 319.331C93.5812 318.738 93.4552 318.3 93.1939 318.015C92.9372 317.726 92.4939 317.581 91.8639 317.581C91.4672 317.581 91.1032 317.674 90.7719 317.861C90.4405 318.043 90.2095 318.346 90.0789 318.771L88.7139 318.351C88.9005 317.702 89.2552 317.187 89.7779 316.804C90.3052 316.421 91.0052 316.23 91.8779 316.23C92.5545 316.23 93.1425 316.347 93.6419 316.58C94.1459 316.809 94.5145 317.173 94.7479 317.672C94.8692 317.919 94.9439 318.181 94.9719 318.456C94.9999 318.731 95.0139 319.028 95.0139 319.345V324H93.7189V322.271L93.9709 322.495C93.6582 323.074 93.2592 323.505 92.7739 323.79C92.2932 324.07 91.7005 324.21 90.9959 324.21ZM91.2549 323.013C91.6702 323.013 92.0272 322.941 92.3259 322.796C92.6245 322.647 92.8649 322.458 93.0469 322.229C93.2289 322 93.3479 321.762 93.4039 321.515C93.4832 321.291 93.5275 321.039 93.5369 320.759C93.5509 320.479 93.5579 320.255 93.5579 320.087L94.0339 320.262C93.5719 320.332 93.1519 320.395 92.7739 320.451C92.3959 320.507 92.0529 320.563 91.7449 320.619C91.4415 320.67 91.1709 320.733 90.9329 320.808C90.7322 320.878 90.5525 320.962 90.3939 321.06C90.2399 321.158 90.1162 321.277 90.0229 321.417C89.9342 321.557 89.8899 321.727 89.8899 321.928C89.8899 322.124 89.9389 322.306 90.0369 322.474C90.1349 322.637 90.2842 322.768 90.4849 322.866C90.6855 322.964 90.9422 323.013 91.2549 323.013ZM102.138 324V320.283C102.138 319.989 102.112 319.688 102.061 319.38C102.014 319.067 101.921 318.778 101.781 318.512C101.645 318.246 101.452 318.031 101.2 317.868C100.952 317.705 100.628 317.623 100.227 317.623C99.9652 317.623 99.7179 317.667 99.4846 317.756C99.2512 317.84 99.0459 317.978 98.8686 318.169C98.6959 318.36 98.5582 318.612 98.4556 318.925C98.3576 319.238 98.3086 319.618 98.3086 320.066L97.3986 319.723C97.3986 319.037 97.5269 318.433 97.7836 317.91C98.0402 317.383 98.4089 316.972 98.8896 316.678C99.3702 316.384 99.9512 316.237 100.633 316.237C101.155 316.237 101.594 316.321 101.949 316.489C102.303 316.657 102.59 316.879 102.81 317.154C103.034 317.425 103.204 317.721 103.321 318.043C103.437 318.365 103.517 318.68 103.559 318.988C103.601 319.296 103.622 319.567 103.622 319.8V324H102.138ZM96.8246 324V316.44H98.1336V318.624H98.3086V324H96.8246ZM108.294 324.203C107.771 324.203 107.333 324.119 106.978 323.951C106.623 323.783 106.334 323.564 106.11 323.293C105.891 323.018 105.723 322.719 105.606 322.397C105.489 322.075 105.41 321.76 105.368 321.452C105.326 321.144 105.305 320.873 105.305 320.64V316.44H106.789V320.157C106.789 320.451 106.812 320.754 106.859 321.067C106.91 321.375 107.004 321.662 107.139 321.928C107.279 322.194 107.473 322.409 107.72 322.572C107.972 322.735 108.299 322.817 108.7 322.817C108.961 322.817 109.209 322.775 109.442 322.691C109.675 322.602 109.878 322.462 110.051 322.271C110.228 322.08 110.366 321.828 110.464 321.515C110.567 321.202 110.618 320.822 110.618 320.374L111.528 320.717C111.528 321.403 111.4 322.01 111.143 322.537C110.886 323.06 110.518 323.468 110.037 323.762C109.556 324.056 108.975 324.203 108.294 324.203ZM110.793 324V321.816H110.618V316.44H112.095V324H110.793ZM116.193 324.21C115.633 324.21 115.164 324.107 114.786 323.902C114.408 323.692 114.121 323.417 113.925 323.076C113.734 322.731 113.638 322.353 113.638 321.942C113.638 321.559 113.706 321.223 113.841 320.934C113.976 320.645 114.177 320.4 114.443 320.199C114.709 319.994 115.036 319.828 115.423 319.702C115.759 319.604 116.139 319.518 116.564 319.443C116.989 319.368 117.434 319.298 117.901 319.233C118.372 319.168 118.839 319.102 119.301 319.037L118.769 319.331C118.778 318.738 118.652 318.3 118.391 318.015C118.134 317.726 117.691 317.581 117.061 317.581C116.664 317.581 116.3 317.674 115.969 317.861C115.638 318.043 115.407 318.346 115.276 318.771L113.911 318.351C114.098 317.702 114.452 317.187 114.975 316.804C115.502 316.421 116.202 316.23 117.075 316.23C117.752 316.23 118.34 316.347 118.839 316.58C119.343 316.809 119.712 317.173 119.945 317.672C120.066 317.919 120.141 318.181 120.169 318.456C120.197 318.731 120.211 319.028 120.211 319.345V324H118.916V322.271L119.168 322.495C118.855 323.074 118.456 323.505 117.971 323.79C117.49 324.07 116.898 324.21 116.193 324.21ZM116.452 323.013C116.867 323.013 117.224 322.941 117.523 322.796C117.822 322.647 118.062 322.458 118.244 322.229C118.426 322 118.545 321.762 118.601 321.515C118.68 321.291 118.725 321.039 118.734 320.759C118.748 320.479 118.755 320.255 118.755 320.087L119.231 320.262C118.769 320.332 118.349 320.395 117.971 320.451C117.593 320.507 117.25 320.563 116.942 320.619C116.639 320.67 116.368 320.733 116.13 320.808C115.929 320.878 115.75 320.962 115.591 321.06C115.437 321.158 115.313 321.277 115.22 321.417C115.131 321.557 115.087 321.727 115.087 321.928C115.087 322.124 115.136 322.306 115.234 322.474C115.332 322.637 115.481 322.768 115.682 322.866C115.883 322.964 116.139 323.013 116.452 323.013ZM122.029 324V316.44H123.331V318.274L123.149 318.036C123.242 317.793 123.363 317.572 123.513 317.371C123.662 317.166 123.835 316.998 124.031 316.867C124.222 316.727 124.434 316.62 124.668 316.545C124.906 316.466 125.148 316.419 125.396 316.405C125.643 316.386 125.881 316.398 126.11 316.44V317.812C125.862 317.747 125.587 317.728 125.284 317.756C124.985 317.784 124.71 317.88 124.458 318.043C124.22 318.197 124.031 318.384 123.891 318.603C123.755 318.822 123.657 319.067 123.597 319.338C123.536 319.604 123.506 319.886 123.506 320.185V324H122.029ZM128.273 327.36L129.736 323.377L129.757 324.553L126.46 316.44H127.986L130.45 322.705H130.002L132.354 316.44H133.838L129.666 327.36H128.273Z" fill="#808080"/>
<path d="M170.793 324V313.92H176.764V315.383H172.256V318.225H175.924V319.695H172.256V324H170.793ZM181.173 324.21C180.422 324.21 179.761 324.047 179.192 323.72C178.627 323.389 178.186 322.929 177.869 322.341C177.556 321.748 177.4 321.062 177.4 320.283C177.4 319.457 177.554 318.741 177.862 318.134C178.175 317.527 178.609 317.058 179.164 316.727C179.719 316.396 180.366 316.23 181.103 316.23C181.873 316.23 182.529 316.41 183.07 316.769C183.611 317.124 184.015 317.63 184.281 318.288C184.552 318.946 184.659 319.728 184.603 320.633H183.14V320.101C183.131 319.224 182.963 318.575 182.636 318.155C182.314 317.735 181.822 317.525 181.159 317.525C180.426 317.525 179.876 317.756 179.507 318.218C179.138 318.68 178.954 319.347 178.954 320.22C178.954 321.051 179.138 321.695 179.507 322.152C179.876 322.605 180.408 322.831 181.103 322.831C181.56 322.831 181.955 322.728 182.286 322.523C182.622 322.313 182.883 322.014 183.07 321.627L184.505 322.082C184.211 322.759 183.765 323.284 183.168 323.657C182.571 324.026 181.906 324.21 181.173 324.21ZM178.478 320.633V319.492H183.875V320.633H178.478ZM189.722 324.21C188.999 324.21 188.392 324.035 187.902 323.685C187.412 323.33 187.041 322.852 186.789 322.25C186.537 321.648 186.411 320.969 186.411 320.213C186.411 319.457 186.535 318.778 186.782 318.176C187.034 317.574 187.403 317.1 187.888 316.755C188.378 316.405 188.98 316.23 189.694 316.23C190.404 316.23 191.015 316.405 191.528 316.755C192.046 317.1 192.445 317.574 192.725 318.176C193.005 318.773 193.145 319.452 193.145 320.213C193.145 320.969 193.005 321.65 192.725 322.257C192.45 322.859 192.056 323.335 191.542 323.685C191.034 324.035 190.427 324.21 189.722 324.21ZM186.166 324V313.92H187.636V318.561H187.468V324H186.166ZM189.519 322.887C189.986 322.887 190.371 322.768 190.674 322.53C190.982 322.292 191.211 321.972 191.36 321.571C191.514 321.165 191.591 320.712 191.591 320.213C191.591 319.718 191.514 319.27 191.36 318.869C191.211 318.468 190.98 318.148 190.667 317.91C190.355 317.672 189.956 317.553 189.47 317.553C189.013 317.553 188.635 317.665 188.336 317.889C188.042 318.113 187.823 318.426 187.678 318.827C187.538 319.228 187.468 319.69 187.468 320.213C187.468 320.736 187.538 321.198 187.678 321.599C187.818 322 188.04 322.315 188.343 322.544C188.647 322.773 189.039 322.887 189.519 322.887ZM194.691 324V316.44H195.993V318.274L195.811 318.036C195.904 317.793 196.026 317.572 196.175 317.371C196.324 317.166 196.497 316.998 196.693 316.867C196.884 316.727 197.097 316.62 197.33 316.545C197.568 316.466 197.811 316.419 198.058 316.405C198.305 316.386 198.543 316.398 198.772 316.44V317.812C198.525 317.747 198.249 317.728 197.946 317.756C197.647 317.784 197.372 317.88 197.12 318.043C196.882 318.197 196.693 318.384 196.553 318.603C196.418 318.822 196.32 319.067 196.259 319.338C196.198 319.604 196.168 319.886 196.168 320.185V324H194.691ZM202.954 324.203C202.431 324.203 201.993 324.119 201.638 323.951C201.283 323.783 200.994 323.564 200.77 323.293C200.551 323.018 200.383 322.719 200.266 322.397C200.149 322.075 200.07 321.76 200.028 321.452C199.986 321.144 199.965 320.873 199.965 320.64V316.44H201.449V320.157C201.449 320.451 201.472 320.754 201.519 321.067C201.57 321.375 201.664 321.662 201.799 321.928C201.939 322.194 202.133 322.409 202.38 322.572C202.632 322.735 202.959 322.817 203.36 322.817C203.621 322.817 203.869 322.775 204.102 322.691C204.335 322.602 204.538 322.462 204.711 322.271C204.888 322.08 205.026 321.828 205.124 321.515C205.227 321.202 205.278 320.822 205.278 320.374L206.188 320.717C206.188 321.403 206.06 322.01 205.803 322.537C205.546 323.06 205.178 323.468 204.697 323.762C204.216 324.056 203.635 324.203 202.954 324.203ZM205.453 324V321.816H205.278V316.44H206.755V324H205.453ZM210.853 324.21C210.293 324.21 209.824 324.107 209.446 323.902C209.068 323.692 208.781 323.417 208.585 323.076C208.394 322.731 208.298 322.353 208.298 321.942C208.298 321.559 208.366 321.223 208.501 320.934C208.637 320.645 208.837 320.4 209.103 320.199C209.369 319.994 209.696 319.828 210.083 319.702C210.419 319.604 210.8 319.518 211.224 319.443C211.649 319.368 212.095 319.298 212.561 319.233C213.033 319.168 213.499 319.102 213.961 319.037L213.429 319.331C213.439 318.738 213.313 318.3 213.051 318.015C212.795 317.726 212.351 317.581 211.721 317.581C211.325 317.581 210.961 317.674 210.629 317.861C210.298 318.043 210.067 318.346 209.936 318.771L208.571 318.351C208.758 317.702 209.113 317.187 209.635 316.804C210.163 316.421 210.863 316.23 211.735 316.23C212.412 316.23 213 316.347 213.499 316.58C214.003 316.809 214.372 317.173 214.605 317.672C214.727 317.919 214.801 318.181 214.829 318.456C214.857 318.731 214.871 319.028 214.871 319.345V324H213.576V322.271L213.828 322.495C213.516 323.074 213.117 323.505 212.631 323.79C212.151 324.07 211.558 324.21 210.853 324.21ZM211.112 323.013C211.528 323.013 211.885 322.941 212.183 322.796C212.482 322.647 212.722 322.458 212.904 322.229C213.086 322 213.205 321.762 213.261 321.515C213.341 321.291 213.385 321.039 213.394 320.759C213.408 320.479 213.415 320.255 213.415 320.087L213.891 320.262C213.429 320.332 213.009 320.395 212.631 320.451C212.253 320.507 211.91 320.563 211.602 320.619C211.299 320.67 211.028 320.733 210.79 320.808C210.59 320.878 210.41 320.962 210.251 321.06C210.097 321.158 209.974 321.277 209.88 321.417C209.792 321.557 209.747 321.727 209.747 321.928C209.747 322.124 209.796 322.306 209.894 322.474C209.992 322.637 210.142 322.768 210.342 322.866C210.543 322.964 210.8 323.013 211.112 323.013ZM216.689 324V316.44H217.991V318.274L217.809 318.036C217.902 317.793 218.024 317.572 218.173 317.371C218.322 317.166 218.495 316.998 218.691 316.867C218.882 316.727 219.095 316.62 219.328 316.545C219.566 316.466 219.809 316.419 220.056 316.405C220.303 316.386 220.541 316.398 220.77 316.44V317.812C220.523 317.747 220.247 317.728 219.944 317.756C219.645 317.784 219.37 317.88 219.118 318.043C218.88 318.197 218.691 318.384 218.551 318.603C218.416 318.822 218.318 319.067 218.257 319.338C218.196 319.604 218.166 319.886 218.166 320.185V324H216.689ZM222.934 327.36L224.397 323.377L224.418 324.553L221.121 316.44H222.647L225.111 322.705H224.663L227.015 316.44H228.499L224.327 327.36H222.934Z" fill="#808080"/>
<path d="M270.545 324V313.92H271.868L275.522 321.501L279.155 313.92H280.492V323.993H279.106V317.098L275.851 324H275.186L271.924 317.098V324H270.545ZM284.589 324.21C284.029 324.21 283.56 324.107 283.182 323.902C282.804 323.692 282.517 323.417 282.321 323.076C282.129 322.731 282.034 322.353 282.034 321.942C282.034 321.559 282.101 321.223 282.237 320.934C282.372 320.645 282.573 320.4 282.839 320.199C283.105 319.994 283.431 319.828 283.819 319.702C284.155 319.604 284.535 319.518 284.96 319.443C285.384 319.368 285.83 319.298 286.297 319.233C286.768 319.168 287.235 319.102 287.697 319.037L287.165 319.331C287.174 318.738 287.048 318.3 286.787 318.015C286.53 317.726 286.087 317.581 285.457 317.581C285.06 317.581 284.696 317.674 284.365 317.861C284.033 318.043 283.802 318.346 283.672 318.771L282.307 318.351C282.493 317.702 282.848 317.187 283.371 316.804C283.898 316.421 284.598 316.23 285.471 316.23C286.147 316.23 286.735 316.347 287.235 316.58C287.739 316.809 288.107 317.173 288.341 317.672C288.462 317.919 288.537 318.181 288.565 318.456C288.593 318.731 288.607 319.028 288.607 319.345V324H287.312V322.271L287.564 322.495C287.251 323.074 286.852 323.505 286.367 323.79C285.886 324.07 285.293 324.21 284.589 324.21ZM284.848 323.013C285.263 323.013 285.62 322.941 285.919 322.796C286.217 322.647 286.458 322.458 286.64 322.229C286.822 322 286.941 321.762 286.997 321.515C287.076 321.291 287.12 321.039 287.13 320.759C287.144 320.479 287.151 320.255 287.151 320.087L287.627 320.262C287.165 320.332 286.745 320.395 286.367 320.451C285.989 320.507 285.646 320.563 285.338 320.619C285.034 320.67 284.764 320.733 284.526 320.808C284.325 320.878 284.145 320.962 283.987 321.06C283.833 321.158 283.709 321.277 283.616 321.417C283.527 321.557 283.483 321.727 283.483 321.928C283.483 322.124 283.532 322.306 283.63 322.474C283.728 322.637 283.877 322.768 284.078 322.866C284.278 322.964 284.535 323.013 284.848 323.013ZM290.424 324V316.44H291.726V318.274L291.544 318.036C291.638 317.793 291.759 317.572 291.908 317.371C292.058 317.166 292.23 316.998 292.426 316.867C292.618 316.727 292.83 316.62 293.063 316.545C293.301 316.466 293.544 316.419 293.791 316.405C294.039 316.386 294.277 316.398 294.505 316.44V317.812C294.258 317.747 293.983 317.728 293.679 317.756C293.381 317.784 293.105 317.88 292.853 318.043C292.615 318.197 292.426 318.384 292.286 318.603C292.151 318.822 292.053 319.067 291.992 319.338C291.932 319.604 291.901 319.886 291.901 320.185V324H290.424ZM298.936 324.21C298.161 324.21 297.503 324.037 296.962 323.692C296.42 323.347 296.005 322.873 295.716 322.271C295.431 321.669 295.286 320.985 295.282 320.22C295.286 319.441 295.436 318.752 295.73 318.155C296.024 317.553 296.444 317.082 296.99 316.741C297.536 316.4 298.191 316.23 298.957 316.23C299.783 316.23 300.487 316.435 301.071 316.846C301.659 317.257 302.046 317.819 302.233 318.533L300.777 318.953C300.632 318.528 300.394 318.199 300.063 317.966C299.736 317.728 299.36 317.609 298.936 317.609C298.455 317.609 298.061 317.723 297.753 317.952C297.445 318.176 297.216 318.484 297.067 318.876C296.917 319.268 296.84 319.716 296.836 320.22C296.84 320.999 297.018 321.629 297.368 322.11C297.722 322.591 298.245 322.831 298.936 322.831C299.407 322.831 299.787 322.724 300.077 322.509C300.371 322.29 300.595 321.977 300.749 321.571L302.233 321.921C301.985 322.658 301.577 323.225 301.008 323.622C300.438 324.014 299.748 324.21 298.936 324.21ZM308.965 324V320.283C308.965 319.989 308.939 319.688 308.888 319.38C308.841 319.067 308.748 318.778 308.608 318.512C308.472 318.246 308.279 318.031 308.027 317.868C307.779 317.705 307.455 317.623 307.054 317.623C306.792 317.623 306.545 317.667 306.312 317.756C306.078 317.84 305.873 317.978 305.696 318.169C305.523 318.36 305.385 318.612 305.283 318.925C305.185 319.238 305.136 319.618 305.136 320.066L304.226 319.723C304.226 319.037 304.354 318.433 304.611 317.91C304.867 317.383 305.236 316.972 305.717 316.678C306.197 316.384 306.778 316.237 307.46 316.237C307.982 316.237 308.421 316.321 308.776 316.489C309.13 316.657 309.417 316.879 309.637 317.154C309.861 317.425 310.031 317.721 310.148 318.043C310.264 318.365 310.344 318.68 310.386 318.988C310.428 319.296 310.449 319.567 310.449 319.8V324H308.965ZM303.652 324V313.92H304.961V319.359H305.136V324H303.652Z" fill="#808080"/>
<path d="M367.644 324L370.92 313.92H373.027L376.303 324H374.784L371.767 314.802H372.145L369.163 324H367.644ZM369.345 321.725V320.353H374.609V321.725H369.345ZM381.108 324.21C380.385 324.21 379.778 324.035 379.288 323.685C378.798 323.33 378.427 322.852 378.175 322.25C377.923 321.648 377.797 320.969 377.797 320.213C377.797 319.457 377.921 318.778 378.168 318.176C378.42 317.574 378.789 317.1 379.274 316.755C379.764 316.405 380.366 316.23 381.08 316.23C381.789 316.23 382.401 316.405 382.914 316.755C383.432 317.1 383.831 317.574 384.111 318.176C384.391 318.773 384.531 319.452 384.531 320.213C384.531 320.969 384.391 321.65 384.111 322.257C383.836 322.859 383.441 323.335 382.928 323.685C382.419 324.035 381.813 324.21 381.108 324.21ZM377.552 327.36V316.44H378.854V321.879H379.022V327.36H377.552ZM380.905 322.887C381.372 322.887 381.757 322.768 382.06 322.53C382.368 322.292 382.597 321.972 382.746 321.571C382.9 321.165 382.977 320.712 382.977 320.213C382.977 319.718 382.9 319.27 382.746 318.869C382.597 318.468 382.366 318.148 382.053 317.91C381.74 317.672 381.341 317.553 380.856 317.553C380.399 317.553 380.021 317.665 379.722 317.889C379.428 318.113 379.209 318.426 379.064 318.827C378.924 319.228 378.854 319.69 378.854 320.213C378.854 320.736 378.924 321.198 379.064 321.599C379.204 322 379.426 322.315 379.729 322.544C380.032 322.773 380.424 322.887 380.905 322.887ZM386.077 324V316.44H387.379V318.274L387.197 318.036C387.29 317.793 387.411 317.572 387.561 317.371C387.71 317.166 387.883 316.998 388.079 316.867C388.27 316.727 388.482 316.62 388.716 316.545C388.954 316.466 389.196 316.419 389.444 316.405C389.691 316.386 389.929 316.398 390.158 316.44V317.812C389.91 317.747 389.635 317.728 389.332 317.756C389.033 317.784 388.758 317.88 388.506 318.043C388.268 318.197 388.079 318.384 387.939 318.603C387.803 318.822 387.705 319.067 387.645 319.338C387.584 319.604 387.554 319.886 387.554 320.185V324H386.077ZM391.631 315.201V313.78H393.094V315.201H391.631ZM391.631 324V316.44H393.094V324H391.631ZM395.336 324V313.71H396.799V324H395.336Z" fill="#808080"/>
<path d="M461.095 324.203C460.358 324.203 459.737 324.007 459.233 323.615C458.734 323.223 458.389 322.696 458.197 322.033L459.646 321.69C459.712 322.003 459.877 322.271 460.143 322.495C460.414 322.714 460.715 322.824 461.046 322.824C461.266 322.824 461.494 322.768 461.732 322.656C461.97 322.544 462.148 322.362 462.264 322.11C462.344 321.942 462.39 321.751 462.404 321.536C462.418 321.317 462.425 321.062 462.425 320.773V313.92H463.909V320.773C463.909 321.072 463.907 321.338 463.902 321.571C463.902 321.804 463.879 322.024 463.832 322.229C463.79 322.434 463.706 322.647 463.58 322.866C463.314 323.328 462.964 323.666 462.53 323.881C462.096 324.096 461.618 324.203 461.095 324.203ZM468.862 324.203C468.34 324.203 467.901 324.119 467.546 323.951C467.192 323.783 466.902 323.564 466.678 323.293C466.459 323.018 466.291 322.719 466.174 322.397C466.058 322.075 465.978 321.76 465.936 321.452C465.894 321.144 465.873 320.873 465.873 320.64V316.44H467.357V320.157C467.357 320.451 467.381 320.754 467.427 321.067C467.479 321.375 467.572 321.662 467.707 321.928C467.847 322.194 468.041 322.409 468.288 322.572C468.54 322.735 468.867 322.817 469.268 322.817C469.53 322.817 469.777 322.775 470.01 322.691C470.244 322.602 470.447 322.462 470.619 322.271C470.797 322.08 470.934 321.828 471.032 321.515C471.135 321.202 471.186 320.822 471.186 320.374L472.096 320.717C472.096 321.403 471.968 322.01 471.711 322.537C471.455 323.06 471.086 323.468 470.605 323.762C470.125 324.056 469.544 324.203 468.862 324.203ZM471.361 324V321.816H471.186V316.44H472.663V324H471.361ZM479.932 324V320.283C479.932 319.989 479.907 319.688 479.855 319.38C479.809 319.067 479.715 318.778 479.575 318.512C479.44 318.246 479.246 318.031 478.994 317.868C478.747 317.705 478.423 317.623 478.021 317.623C477.76 317.623 477.513 317.667 477.279 317.756C477.046 317.84 476.841 317.978 476.663 318.169C476.491 318.36 476.353 318.612 476.25 318.925C476.152 319.238 476.103 319.618 476.103 320.066L475.193 319.723C475.193 319.037 475.322 318.433 475.578 317.91C475.835 317.383 476.204 316.972 476.684 316.678C477.165 316.384 477.746 316.237 478.427 316.237C478.95 316.237 479.389 316.321 479.743 316.489C480.098 316.657 480.385 316.879 480.604 317.154C480.828 317.425 480.999 317.721 481.115 318.043C481.232 318.365 481.311 318.68 481.353 318.988C481.395 319.296 481.416 319.567 481.416 319.8V324H479.932ZM474.619 324V316.44H475.928V318.624H476.103V324H474.619ZM486.497 324.21C485.746 324.21 485.085 324.047 484.516 323.72C483.951 323.389 483.51 322.929 483.193 322.341C482.88 321.748 482.724 321.062 482.724 320.283C482.724 319.457 482.878 318.741 483.186 318.134C483.499 317.527 483.933 317.058 484.488 316.727C485.043 316.396 485.69 316.23 486.427 316.23C487.197 316.23 487.853 316.41 488.394 316.769C488.935 317.124 489.339 317.63 489.605 318.288C489.876 318.946 489.983 319.728 489.927 320.633H488.464V320.101C488.455 319.224 488.287 318.575 487.96 318.155C487.638 317.735 487.146 317.525 486.483 317.525C485.75 317.525 485.2 317.756 484.831 318.218C484.462 318.68 484.278 319.347 484.278 320.22C484.278 321.051 484.462 321.695 484.831 322.152C485.2 322.605 485.732 322.831 486.427 322.831C486.884 322.831 487.279 322.728 487.61 322.523C487.946 322.313 488.207 322.014 488.394 321.627L489.829 322.082C489.535 322.759 489.089 323.284 488.492 323.657C487.895 324.026 487.23 324.21 486.497 324.21ZM483.802 320.633V319.492H489.199V320.633H483.802Z" fill="#808080"/>
<path d="M555.55 324.203C554.813 324.203 554.192 324.007 553.688 323.615C553.189 323.223 552.844 322.696 552.652 322.033L554.101 321.69C554.167 322.003 554.332 322.271 554.598 322.495C554.869 322.714 555.17 322.824 555.501 322.824C555.721 322.824 555.949 322.768 556.187 322.656C556.425 322.544 556.603 322.362 556.719 322.11C556.799 321.942 556.845 321.751 556.859 321.536C556.873 321.317 556.88 321.062 556.88 320.773V313.92H558.364V320.773C558.364 321.072 558.362 321.338 558.357 321.571C558.357 321.804 558.334 322.024 558.287 322.229C558.245 322.434 558.161 322.647 558.035 322.866C557.769 323.328 557.419 323.666 556.985 323.881C556.551 324.096 556.073 324.203 555.55 324.203ZM563.317 324.203C562.795 324.203 562.356 324.119 562.001 323.951C561.647 323.783 561.357 323.564 561.133 323.293C560.914 323.018 560.746 322.719 560.629 322.397C560.513 322.075 560.433 321.76 560.391 321.452C560.349 321.144 560.328 320.873 560.328 320.64V316.44H561.812V320.157C561.812 320.451 561.836 320.754 561.882 321.067C561.934 321.375 562.027 321.662 562.162 321.928C562.302 322.194 562.496 322.409 562.743 322.572C562.995 322.735 563.322 322.817 563.723 322.817C563.985 322.817 564.232 322.775 564.465 322.691C564.699 322.602 564.902 322.462 565.074 322.271C565.252 322.08 565.389 321.828 565.487 321.515C565.59 321.202 565.641 320.822 565.641 320.374L566.551 320.717C566.551 321.403 566.423 322.01 566.166 322.537C565.91 323.06 565.541 323.468 565.06 323.762C564.58 324.056 563.999 324.203 563.317 324.203ZM565.816 324V321.816H565.641V316.44H567.118V324H565.816ZM569.222 324V313.71H570.685V324H569.222ZM573.809 327.36L575.272 323.377L575.293 324.553L571.996 316.44H573.522L575.986 322.705H575.538L577.89 316.44H579.374L575.202 327.36H573.809Z" fill="#808080"/>
<path d="M633.873 324L637.149 313.92H639.256L642.532 324H641.013L637.996 314.802H638.374L635.392 324H633.873ZM635.574 321.725V320.353H640.838V321.725H635.574ZM646.637 324.203C646.114 324.203 645.676 324.119 645.321 323.951C644.966 323.783 644.677 323.564 644.453 323.293C644.234 323.018 644.066 322.719 643.949 322.397C643.832 322.075 643.753 321.76 643.711 321.452C643.669 321.144 643.648 320.873 643.648 320.64V316.44H645.132V320.157C645.132 320.451 645.155 320.754 645.202 321.067C645.253 321.375 645.347 321.662 645.482 321.928C645.622 322.194 645.816 322.409 646.063 322.572C646.315 322.735 646.642 322.817 647.043 322.817C647.304 322.817 647.552 322.775 647.785 322.691C648.018 322.602 648.221 322.462 648.394 322.271C648.571 322.08 648.709 321.828 648.807 321.515C648.91 321.202 648.961 320.822 648.961 320.374L649.871 320.717C649.871 321.403 649.743 322.01 649.486 322.537C649.229 323.06 648.861 323.468 648.38 323.762C647.899 324.056 647.318 324.203 646.637 324.203ZM649.136 324V321.816H648.961V316.44H650.438V324H649.136ZM655.516 327.57C655.11 327.57 654.716 327.507 654.333 327.381C653.955 327.255 653.61 327.068 653.297 326.821C652.985 326.578 652.726 326.277 652.52 325.918L653.871 325.232C654.035 325.554 654.268 325.79 654.571 325.939C654.875 326.088 655.194 326.163 655.53 326.163C655.946 326.163 656.3 326.088 656.594 325.939C656.888 325.794 657.11 325.575 657.259 325.281C657.413 324.987 657.488 324.623 657.483 324.189V322.075H657.658V316.44H658.953V324.203C658.953 324.404 658.946 324.595 658.932 324.777C658.918 324.959 658.893 325.141 658.855 325.323C658.748 325.832 658.543 326.252 658.239 326.583C657.941 326.914 657.558 327.162 657.091 327.325C656.629 327.488 656.104 327.57 655.516 327.57ZM655.404 324.21C654.7 324.21 654.091 324.035 653.577 323.685C653.069 323.335 652.674 322.859 652.394 322.257C652.119 321.65 651.981 320.969 651.981 320.213C651.981 319.452 652.121 318.773 652.401 318.176C652.681 317.574 653.078 317.1 653.591 316.755C654.109 316.405 654.723 316.23 655.432 316.23C656.146 316.23 656.746 316.405 657.231 316.755C657.721 317.1 658.09 317.574 658.337 318.176C658.589 318.778 658.715 319.457 658.715 320.213C658.715 320.969 658.589 321.648 658.337 322.25C658.085 322.852 657.714 323.33 657.224 323.685C656.734 324.035 656.128 324.21 655.404 324.21ZM655.607 322.887C656.088 322.887 656.48 322.773 656.783 322.544C657.087 322.315 657.308 322 657.448 321.599C657.588 321.198 657.658 320.736 657.658 320.213C657.658 319.69 657.586 319.228 657.441 318.827C657.301 318.426 657.082 318.113 656.783 317.889C656.489 317.665 656.114 317.553 655.656 317.553C655.171 317.553 654.772 317.672 654.459 317.91C654.147 318.148 653.913 318.468 653.759 318.869C653.61 319.27 653.535 319.718 653.535 320.213C653.535 320.712 653.61 321.165 653.759 321.571C653.913 321.972 654.142 322.292 654.445 322.53C654.753 322.768 655.141 322.887 655.607 322.887ZM663.768 324.203C663.245 324.203 662.807 324.119 662.452 323.951C662.097 323.783 661.808 323.564 661.584 323.293C661.365 323.018 661.197 322.719 661.08 322.397C660.963 322.075 660.884 321.76 660.842 321.452C660.8 321.144 660.779 320.873 660.779 320.64V316.44H662.263V320.157C662.263 320.451 662.286 320.754 662.333 321.067C662.384 321.375 662.478 321.662 662.613 321.928C662.753 322.194 662.947 322.409 663.194 322.572C663.446 322.735 663.773 322.817 664.174 322.817C664.435 322.817 664.683 322.775 664.916 322.691C665.149 322.602 665.352 322.462 665.525 322.271C665.702 322.08 665.84 321.828 665.938 321.515C666.041 321.202 666.092 320.822 666.092 320.374L667.002 320.717C667.002 321.403 666.874 322.01 666.617 322.537C666.36 323.06 665.992 323.468 665.511 323.762C665.03 324.056 664.449 324.203 663.768 324.203ZM666.267 324V321.816H666.092V316.44H667.569V324H666.267ZM672.423 324.203C671.504 324.203 670.755 324 670.176 323.594C669.598 323.188 669.243 322.616 669.112 321.879L670.61 321.648C670.704 322.04 670.918 322.35 671.254 322.579C671.595 322.803 672.017 322.915 672.521 322.915C672.979 322.915 673.336 322.822 673.592 322.635C673.854 322.448 673.984 322.192 673.984 321.865C673.984 321.674 673.938 321.52 673.844 321.403C673.756 321.282 673.567 321.167 673.277 321.06C672.988 320.953 672.547 320.82 671.954 320.661C671.306 320.493 670.79 320.313 670.407 320.122C670.029 319.926 669.759 319.7 669.595 319.443C669.437 319.182 669.357 318.867 669.357 318.498C669.357 318.041 669.479 317.642 669.721 317.301C669.964 316.96 670.305 316.697 670.743 316.51C671.187 316.323 671.705 316.23 672.297 316.23C672.876 316.23 673.392 316.321 673.844 316.503C674.297 316.685 674.663 316.944 674.943 317.28C675.223 317.611 675.391 318.001 675.447 318.449L673.949 318.722C673.898 318.358 673.728 318.071 673.438 317.861C673.149 317.651 672.773 317.537 672.311 317.518C671.868 317.499 671.509 317.574 671.233 317.742C670.958 317.905 670.82 318.132 670.82 318.421C670.82 318.589 670.872 318.731 670.974 318.848C671.082 318.965 671.287 319.077 671.59 319.184C671.894 319.291 672.342 319.42 672.934 319.569C673.569 319.732 674.073 319.914 674.446 320.115C674.82 320.311 675.086 320.547 675.244 320.822C675.408 321.093 675.489 321.422 675.489 321.809C675.489 322.556 675.216 323.141 674.67 323.566C674.129 323.991 673.38 324.203 672.423 324.203ZM681.364 324C680.888 324.093 680.421 324.133 679.964 324.119C679.507 324.105 679.098 324.016 678.739 323.853C678.38 323.69 678.109 323.433 677.927 323.083C677.764 322.77 677.675 322.453 677.661 322.131C677.652 321.804 677.647 321.436 677.647 321.025V314.34H679.117V320.955C679.117 321.258 679.119 321.522 679.124 321.746C679.133 321.97 679.182 322.159 679.271 322.313C679.439 322.602 679.705 322.768 680.069 322.81C680.438 322.847 680.869 322.831 681.364 322.761V324ZM676.198 317.616V316.44H681.364V317.616H676.198Z" fill="#808080"/>
<path d="M8.7 50.393L8.707 49.091L13.096 45.157C13.4507 44.8444 13.691 44.5457 13.817 44.261C13.9477 43.9764 14.013 43.6917 14.013 43.407C14.013 43.0477 13.9337 42.7257 13.775 42.441C13.6163 42.1517 13.397 41.923 13.117 41.755C12.837 41.587 12.515 41.503 12.151 41.503C11.7777 41.503 11.444 41.5917 11.15 41.769C10.8607 41.9417 10.6343 42.1727 10.471 42.462C10.3077 42.7514 10.2283 43.064 10.233 43.4H8.735C8.735 42.7467 8.882 42.175 9.176 41.685C9.47467 41.1904 9.883 40.8054 10.401 40.53C10.919 40.25 11.5117 40.11 12.179 40.11C12.8137 40.11 13.383 40.2547 13.887 40.544C14.391 40.8287 14.7877 41.2207 15.077 41.72C15.371 42.2194 15.518 42.7887 15.518 43.428C15.518 43.89 15.4573 44.282 15.336 44.604C15.2147 44.926 15.0327 45.2247 14.79 45.5C14.5473 45.7754 14.244 46.074 13.88 46.396L10.492 49.42L10.331 49H15.518V50.393H8.7ZM21.1934 50.4V48.643H16.6434V47.257L19.9194 40.32H21.5924L18.3164 47.257H21.1934V44.527H22.6774V47.257H23.6784V48.643H22.6774V50.4H21.1934ZM31.6756 50.61C30.9896 50.61 30.383 50.4607 29.8556 50.162C29.3283 49.8587 28.913 49.4434 28.6096 48.916C28.311 48.3887 28.1616 47.782 28.1616 47.096V43.624C28.1616 42.938 28.311 42.3314 28.6096 41.804C28.913 41.2767 29.3283 40.8637 29.8556 40.565C30.383 40.2617 30.9896 40.11 31.6756 40.11C32.3616 40.11 32.9683 40.2617 33.4956 40.565C34.023 40.8637 34.436 41.2767 34.7346 41.804C35.038 42.3314 35.1896 42.938 35.1896 43.624V47.096C35.1896 47.782 35.038 48.3887 34.7346 48.916C34.436 49.4434 34.023 49.8587 33.4956 50.162C32.9683 50.4607 32.3616 50.61 31.6756 50.61ZM31.6756 49.21C32.049 49.21 32.3873 49.1214 32.6906 48.944C32.9986 48.762 33.2436 48.5194 33.4256 48.216C33.6076 47.908 33.6986 47.565 33.6986 47.187V43.519C33.6986 43.1457 33.6076 42.8074 33.4256 42.504C33.2436 42.196 32.9986 41.9534 32.6906 41.776C32.3873 41.594 32.049 41.503 31.6756 41.503C31.3023 41.503 30.9616 41.594 30.6536 41.776C30.3503 41.9534 30.1076 42.196 29.9256 42.504C29.7436 42.8074 29.6526 43.1457 29.6526 43.519V47.187C29.6526 47.565 29.7436 47.908 29.9256 48.216C30.1076 48.5194 30.3503 48.762 30.6536 48.944C30.9616 49.1214 31.3023 49.21 31.6756 49.21ZM40.6581 50.61C39.9721 50.61 39.3654 50.4607 38.8381 50.162C38.3107 49.8587 37.8954 49.4434 37.5921 48.916C37.2934 48.3887 37.1441 47.782 37.1441 47.096V43.624C37.1441 42.938 37.2934 42.3314 37.5921 41.804C37.8954 41.2767 38.3107 40.8637 38.8381 40.565C39.3654 40.2617 39.9721 40.11 40.6581 40.11C41.3441 40.11 41.9507 40.2617 42.4781 40.565C43.0054 40.8637 43.4184 41.2767 43.7171 41.804C44.0204 42.3314 44.1721 42.938 44.1721 43.624V47.096C44.1721 47.782 44.0204 48.3887 43.7171 48.916C43.4184 49.4434 43.0054 49.8587 42.4781 50.162C41.9507 50.4607 41.3441 50.61 40.6581 50.61ZM40.6581 49.21C41.0314 49.21 41.3697 49.1214 41.6731 48.944C41.9811 48.762 42.2261 48.5194 42.4081 48.216C42.5901 47.908 42.6811 47.565 42.6811 47.187V43.519C42.6811 43.1457 42.5901 42.8074 42.4081 42.504C42.2261 42.196 41.9811 41.9534 41.6731 41.776C41.3697 41.594 41.0314 41.503 40.6581 41.503C40.2847 41.503 39.9441 41.594 39.6361 41.776C39.3327 41.9534 39.0901 42.196 38.9081 42.504C38.7261 42.8074 38.6351 43.1457 38.6351 43.519V47.187C38.6351 47.565 38.7261 47.908 38.9081 48.216C39.0901 48.5194 39.3327 48.762 39.6361 48.944C39.9441 49.1214 40.2847 49.21 40.6581 49.21ZM49.6405 50.61C48.9545 50.61 48.3478 50.4607 47.8205 50.162C47.2932 49.8587 46.8778 49.4434 46.5745 48.916C46.2758 48.3887 46.1265 47.782 46.1265 47.096V43.624C46.1265 42.938 46.2758 42.3314 46.5745 41.804C46.8778 41.2767 47.2932 40.8637 47.8205 40.565C48.3478 40.2617 48.9545 40.11 49.6405 40.11C50.3265 40.11 50.9332 40.2617 51.4605 40.565C51.9878 40.8637 52.4008 41.2767 52.6995 41.804C53.0028 42.3314 53.1545 42.938 53.1545 43.624V47.096C53.1545 47.782 53.0028 48.3887 52.6995 48.916C52.4008 49.4434 51.9878 49.8587 51.4605 50.162C50.9332 50.4607 50.3265 50.61 49.6405 50.61ZM49.6405 49.21C50.0138 49.21 50.3522 49.1214 50.6555 48.944C50.9635 48.762 51.2085 48.5194 51.3905 48.216C51.5725 47.908 51.6635 47.565 51.6635 47.187V43.519C51.6635 43.1457 51.5725 42.8074 51.3905 42.504C51.2085 42.196 50.9635 41.9534 50.6555 41.776C50.3522 41.594 50.0138 41.503 49.6405 41.503C49.2672 41.503 48.9265 41.594 48.6185 41.776C48.3152 41.9534 48.0725 42.196 47.8905 42.504C47.7085 42.8074 47.6175 43.1457 47.6175 43.519V47.187C47.6175 47.565 47.7085 47.908 47.8905 48.216C48.0725 48.5194 48.3152 48.762 48.6185 48.944C48.9265 49.1214 49.2672 49.21 49.6405 49.21ZM57.7549 51.793V50.155H59.2179V51.793H57.7549ZM57.7549 40.572V38.927H59.2179V40.572H57.7549ZM58.5599 50.61C57.8599 50.61 57.2346 50.484 56.6839 50.232C56.1332 49.98 55.6806 49.623 55.3259 49.161C54.9759 48.6944 54.7472 48.1437 54.6399 47.509L56.0889 47.278C56.2289 47.8754 56.5276 48.3514 56.9849 48.706C57.4422 49.056 57.9906 49.231 58.6299 49.231C59.2646 49.231 59.7802 49.0794 60.1769 48.776C60.5782 48.4727 60.7789 48.0854 60.7789 47.614C60.7789 47.278 60.6762 47.005 60.4709 46.795C60.2702 46.585 59.9412 46.4077 59.4839 46.263L57.1179 45.535C55.7179 45.101 55.0179 44.261 55.0179 43.015C55.0179 42.427 55.1579 41.916 55.4379 41.482C55.7226 41.048 56.1216 40.712 56.6349 40.474C57.1482 40.236 57.7479 40.117 58.4339 40.117C59.0919 40.1264 59.6752 40.2477 60.1839 40.481C60.6972 40.7144 61.1219 41.0504 61.4579 41.489C61.7986 41.9277 62.0342 42.455 62.1649 43.071L60.6739 43.337C60.6086 42.9777 60.4709 42.6604 60.2609 42.385C60.0556 42.1097 59.7942 41.895 59.4769 41.741C59.1642 41.587 58.8119 41.5077 58.4199 41.503C58.0512 41.4937 57.7199 41.552 57.4259 41.678C57.1366 41.7994 56.9056 41.972 56.7329 42.196C56.5649 42.4154 56.4809 42.665 56.4809 42.945C56.4809 43.253 56.5999 43.5144 56.8379 43.729C57.0759 43.9437 57.4516 44.128 57.9649 44.282L59.8199 44.821C60.6692 45.073 61.2829 45.4114 61.6609 45.836C62.0389 46.2607 62.2279 46.8254 62.2279 47.53C62.2279 48.146 62.0739 48.685 61.7659 49.147C61.4626 49.6044 61.0356 49.9637 60.4849 50.225C59.9342 50.4817 59.2926 50.61 58.5599 50.61Z" fill="#808080"/>
<path d="M73 44.9H702" stroke="black" stroke-opacity="0.15" stroke-width="2" stroke-dasharray="12 12"/>
<path d="M10.737 107.2V98.73L8.84 99.885V98.254L10.737 97.12H12.228V107.2H10.737ZM18.1133 107.41C17.4553 107.41 16.8719 107.279 16.3633 107.018C15.8593 106.752 15.4626 106.383 15.1733 105.912C14.8886 105.441 14.7463 104.895 14.7463 104.274C14.7463 103.695 14.8816 103.166 15.1523 102.685C15.4229 102.204 15.8266 101.826 16.3633 101.551L16.3353 102.055C15.9059 101.789 15.5746 101.458 15.3413 101.061C15.1126 100.66 14.9983 100.212 14.9983 99.717C14.9983 99.143 15.1313 98.646 15.3973 98.226C15.6633 97.806 16.0296 97.4817 16.4963 97.253C16.9676 97.0243 17.5066 96.91 18.1133 96.91C18.7199 96.91 19.2566 97.0243 19.7233 97.253C20.1899 97.4817 20.5563 97.806 20.8223 98.226C21.0883 98.646 21.2213 99.143 21.2213 99.717C21.2213 100.212 21.1116 100.657 20.8923 101.054C20.6729 101.451 20.3369 101.784 19.8843 102.055L19.8633 101.565C20.3953 101.826 20.7989 102.2 21.0743 102.685C21.3496 103.166 21.4873 103.695 21.4873 104.274C21.4873 104.895 21.3426 105.441 21.0533 105.912C20.7639 106.383 20.3649 106.752 19.8563 107.018C19.3476 107.279 18.7666 107.41 18.1133 107.41ZM18.1133 106.017C18.6546 106.017 19.0933 105.87 19.4293 105.576C19.7653 105.277 19.9333 104.843 19.9333 104.274C19.9333 103.705 19.7653 103.271 19.4293 102.972C19.0979 102.669 18.6593 102.517 18.1133 102.517C17.5673 102.517 17.1263 102.669 16.7903 102.972C16.4589 103.271 16.2933 103.705 16.2933 104.274C16.2933 104.843 16.4613 105.277 16.7973 105.576C17.1333 105.87 17.5719 106.017 18.1133 106.017ZM18.1133 101.117C18.5753 101.117 18.9486 101.003 19.2333 100.774C19.5226 100.541 19.6673 100.188 19.6673 99.717C19.6673 99.2457 19.5226 98.8933 19.2333 98.66C18.9486 98.422 18.5753 98.303 18.1133 98.303C17.6513 98.303 17.2756 98.422 16.9863 98.66C16.6969 98.8933 16.5523 99.2457 16.5523 99.717C16.5523 100.188 16.6969 100.541 16.9863 100.774C17.2756 101.003 17.6513 101.117 18.1133 101.117ZM29.6249 107.41C28.9389 107.41 28.3322 107.261 27.8049 106.962C27.2775 106.659 26.8622 106.243 26.5589 105.716C26.2602 105.189 26.1109 104.582 26.1109 103.896V100.424C26.1109 99.738 26.2602 99.1313 26.5589 98.604C26.8622 98.0767 27.2775 97.6637 27.8049 97.365C28.3322 97.0617 28.9389 96.91 29.6249 96.91C30.3109 96.91 30.9175 97.0617 31.4449 97.365C31.9722 97.6637 32.3852 98.0767 32.6839 98.604C32.9872 99.1313 33.1389 99.738 33.1389 100.424V103.896C33.1389 104.582 32.9872 105.189 32.6839 105.716C32.3852 106.243 31.9722 106.659 31.4449 106.962C30.9175 107.261 30.3109 107.41 29.6249 107.41ZM29.6249 106.01C29.9982 106.01 30.3365 105.921 30.6399 105.744C30.9479 105.562 31.1929 105.319 31.3749 105.016C31.5569 104.708 31.6479 104.365 31.6479 103.987V100.319C31.6479 99.9457 31.5569 99.6073 31.3749 99.304C31.1929 98.996 30.9479 98.7533 30.6399 98.576C30.3365 98.394 29.9982 98.303 29.6249 98.303C29.2515 98.303 28.9109 98.394 28.6029 98.576C28.2995 98.7533 28.0569 98.996 27.8749 99.304C27.6929 99.6073 27.6019 99.9457 27.6019 100.319V103.987C27.6019 104.365 27.6929 104.708 27.8749 105.016C28.0569 105.319 28.2995 105.562 28.6029 105.744C28.9109 105.921 29.2515 106.01 29.6249 106.01ZM38.6073 107.41C37.9213 107.41 37.3146 107.261 36.7873 106.962C36.2599 106.659 35.8446 106.243 35.5413 105.716C35.2426 105.189 35.0933 104.582 35.0933 103.896V100.424C35.0933 99.738 35.2426 99.1313 35.5413 98.604C35.8446 98.0767 36.2599 97.6637 36.7873 97.365C37.3146 97.0617 37.9213 96.91 38.6073 96.91C39.2933 96.91 39.8999 97.0617 40.4273 97.365C40.9546 97.6637 41.3676 98.0767 41.6663 98.604C41.9696 99.1313 42.1213 99.738 42.1213 100.424V103.896C42.1213 104.582 41.9696 105.189 41.6663 105.716C41.3676 106.243 40.9546 106.659 40.4273 106.962C39.8999 107.261 39.2933 107.41 38.6073 107.41ZM38.6073 106.01C38.9806 106.01 39.3189 105.921 39.6223 105.744C39.9303 105.562 40.1753 105.319 40.3573 105.016C40.5393 104.708 40.6303 104.365 40.6303 103.987V100.319C40.6303 99.9457 40.5393 99.6073 40.3573 99.304C40.1753 98.996 39.9303 98.7533 39.6223 98.576C39.3189 98.394 38.9806 98.303 38.6073 98.303C38.2339 98.303 37.8933 98.394 37.5853 98.576C37.2819 98.7533 37.0393 98.996 36.8573 99.304C36.6753 99.6073 36.5843 99.9457 36.5843 100.319V103.987C36.5843 104.365 36.6753 104.708 36.8573 105.016C37.0393 105.319 37.2819 105.562 37.5853 105.744C37.8933 105.921 38.2339 106.01 38.6073 106.01ZM47.5897 107.41C46.9037 107.41 46.297 107.261 45.7697 106.962C45.2424 106.659 44.827 106.243 44.5237 105.716C44.225 105.189 44.0757 104.582 44.0757 103.896V100.424C44.0757 99.738 44.225 99.1313 44.5237 98.604C44.827 98.0767 45.2424 97.6637 45.7697 97.365C46.297 97.0617 46.9037 96.91 47.5897 96.91C48.2757 96.91 48.8824 97.0617 49.4097 97.365C49.937 97.6637 50.35 98.0767 50.6487 98.604C50.952 99.1313 51.1037 99.738 51.1037 100.424V103.896C51.1037 104.582 50.952 105.189 50.6487 105.716C50.35 106.243 49.937 106.659 49.4097 106.962C48.8824 107.261 48.2757 107.41 47.5897 107.41ZM47.5897 106.01C47.963 106.01 48.3014 105.921 48.6047 105.744C48.9127 105.562 49.1577 105.319 49.3397 105.016C49.5217 104.708 49.6127 104.365 49.6127 103.987V100.319C49.6127 99.9457 49.5217 99.6073 49.3397 99.304C49.1577 98.996 48.9127 98.7533 48.6047 98.576C48.3014 98.394 47.963 98.303 47.5897 98.303C47.2164 98.303 46.8757 98.394 46.5677 98.576C46.2644 98.7533 46.0217 98.996 45.8397 99.304C45.6577 99.6073 45.5667 99.9457 45.5667 100.319V103.987C45.5667 104.365 45.6577 104.708 45.8397 105.016C46.0217 105.319 46.2644 105.562 46.5677 105.744C46.8757 105.921 47.2164 106.01 47.5897 106.01ZM55.7041 108.593V106.955H57.1671V108.593H55.7041ZM55.7041 97.372V95.727H57.1671V97.372H55.7041ZM56.5091 107.41C55.8091 107.41 55.1838 107.284 54.6331 107.032C54.0825 106.78 53.6298 106.423 53.2751 105.961C52.9251 105.494 52.6965 104.944 52.5891 104.309L54.0381 104.078C54.1781 104.675 54.4768 105.151 54.9341 105.506C55.3915 105.856 55.9398 106.031 56.5791 106.031C57.2138 106.031 57.7295 105.879 58.1261 105.576C58.5275 105.273 58.7281 104.885 58.7281 104.414C58.7281 104.078 58.6255 103.805 58.4201 103.595C58.2195 103.385 57.8905 103.208 57.4331 103.063L55.0671 102.335C53.6671 101.901 52.9671 101.061 52.9671 99.815C52.9671 99.227 53.1071 98.716 53.3871 98.282C53.6718 97.848 54.0708 97.512 54.5841 97.274C55.0975 97.036 55.6971 96.917 56.3831 96.917C57.0411 96.9263 57.6245 97.0477 58.1331 97.281C58.6465 97.5143 59.0711 97.8503 59.4071 98.289C59.7478 98.7277 59.9835 99.255 60.1141 99.871L58.6231 100.137C58.5578 99.7777 58.4201 99.4603 58.2101 99.185C58.0048 98.9097 57.7435 98.695 57.4261 98.541C57.1135 98.387 56.7611 98.3077 56.3691 98.303C56.0005 98.2937 55.6691 98.352 55.3751 98.478C55.0858 98.5993 54.8548 98.772 54.6821 98.996C54.5141 99.2153 54.4301 99.465 54.4301 99.745C54.4301 100.053 54.5491 100.314 54.7871 100.529C55.0251 100.744 55.4008 100.928 55.9141 101.082L57.7691 101.621C58.6185 101.873 59.2321 102.211 59.6101 102.636C59.9881 103.061 60.1771 103.625 60.1771 104.33C60.1771 104.946 60.0231 105.485 59.7151 105.947C59.4118 106.404 58.9848 106.764 58.4341 107.025C57.8835 107.282 57.2418 107.41 56.5091 107.41Z" fill="#808080"/>
<path d="M71 101.7H700" stroke="black" stroke-opacity="0.15" stroke-width="2" stroke-dasharray="12 12"/>
<path d="M10.737 164V155.53L8.84 156.685V155.054L10.737 153.92H12.228V164H10.737ZM14.6063 163.993L14.6133 162.691L19.0023 158.757C19.3569 158.444 19.5973 158.146 19.7233 157.861C19.8539 157.576 19.9193 157.292 19.9193 157.007C19.9193 156.648 19.8399 156.326 19.6813 156.041C19.5226 155.752 19.3033 155.523 19.0233 155.355C18.7433 155.187 18.4213 155.103 18.0573 155.103C17.6839 155.103 17.3503 155.192 17.0563 155.369C16.7669 155.542 16.5406 155.773 16.3773 156.062C16.2139 156.351 16.1346 156.664 16.1393 157H14.6413C14.6413 156.347 14.7883 155.775 15.0823 155.285C15.3809 154.79 15.7893 154.405 16.3073 154.13C16.8253 153.85 17.4179 153.71 18.0853 153.71C18.7199 153.71 19.2893 153.855 19.7933 154.144C20.2973 154.429 20.6939 154.821 20.9833 155.32C21.2773 155.819 21.4243 156.389 21.4243 157.028C21.4243 157.49 21.3636 157.882 21.2423 158.204C21.1209 158.526 20.9389 158.825 20.6963 159.1C20.4536 159.375 20.1503 159.674 19.7863 159.996L16.3983 163.02L16.2373 162.6H21.4243V163.993H14.6063ZM29.4198 164.21C28.7338 164.21 28.1271 164.061 27.5998 163.762C27.0724 163.459 26.6571 163.043 26.3538 162.516C26.0551 161.989 25.9058 161.382 25.9058 160.696V157.224C25.9058 156.538 26.0551 155.931 26.3538 155.404C26.6571 154.877 27.0724 154.464 27.5998 154.165C28.1271 153.862 28.7338 153.71 29.4198 153.71C30.1058 153.71 30.7124 153.862 31.2398 154.165C31.7671 154.464 32.1801 154.877 32.4788 155.404C32.7821 155.931 32.9338 156.538 32.9338 157.224V160.696C32.9338 161.382 32.7821 161.989 32.4788 162.516C32.1801 163.043 31.7671 163.459 31.2398 163.762C30.7124 164.061 30.1058 164.21 29.4198 164.21ZM29.4198 162.81C29.7931 162.81 30.1314 162.721 30.4348 162.544C30.7428 162.362 30.9878 162.119 31.1698 161.816C31.3518 161.508 31.4428 161.165 31.4428 160.787V157.119C31.4428 156.746 31.3518 156.407 31.1698 156.104C30.9878 155.796 30.7428 155.553 30.4348 155.376C30.1314 155.194 29.7931 155.103 29.4198 155.103C29.0464 155.103 28.7058 155.194 28.3978 155.376C28.0944 155.553 27.8518 155.796 27.6698 156.104C27.4878 156.407 27.3968 156.746 27.3968 157.119V160.787C27.3968 161.165 27.4878 161.508 27.6698 161.816C27.8518 162.119 28.0944 162.362 28.3978 162.544C28.7058 162.721 29.0464 162.81 29.4198 162.81ZM38.4022 164.21C37.7162 164.21 37.1095 164.061 36.5822 163.762C36.0549 163.459 35.6395 163.043 35.3362 162.516C35.0375 161.989 34.8882 161.382 34.8882 160.696V157.224C34.8882 156.538 35.0375 155.931 35.3362 155.404C35.6395 154.877 36.0549 154.464 36.5822 154.165C37.1095 153.862 37.7162 153.71 38.4022 153.71C39.0882 153.71 39.6949 153.862 40.2222 154.165C40.7495 154.464 41.1625 154.877 41.4612 155.404C41.7645 155.931 41.9162 156.538 41.9162 157.224V160.696C41.9162 161.382 41.7645 161.989 41.4612 162.516C41.1625 163.043 40.7495 163.459 40.2222 163.762C39.6949 164.061 39.0882 164.21 38.4022 164.21ZM38.4022 162.81C38.7755 162.81 39.1139 162.721 39.4172 162.544C39.7252 162.362 39.9702 162.119 40.1522 161.816C40.3342 161.508 40.4252 161.165 40.4252 160.787V157.119C40.4252 156.746 40.3342 156.407 40.1522 156.104C39.9702 155.796 39.7252 155.553 39.4172 155.376C39.1139 155.194 38.7755 155.103 38.4022 155.103C38.0289 155.103 37.6882 155.194 37.3802 155.376C37.0769 155.553 36.8342 155.796 36.6522 156.104C36.4702 156.407 36.3792 156.746 36.3792 157.119V160.787C36.3792 161.165 36.4702 161.508 36.6522 161.816C36.8342 162.119 37.0769 162.362 37.3802 162.544C37.6882 162.721 38.0289 162.81 38.4022 162.81ZM47.3846 164.21C46.6986 164.21 46.092 164.061 45.5646 163.762C45.0373 163.459 44.622 163.043 44.3186 162.516C44.02 161.989 43.8706 161.382 43.8706 160.696V157.224C43.8706 156.538 44.02 155.931 44.3186 155.404C44.622 154.877 45.0373 154.464 45.5646 154.165C46.092 153.862 46.6986 153.71 47.3846 153.71C48.0706 153.71 48.6773 153.862 49.2046 154.165C49.732 154.464 50.145 154.877 50.4436 155.404C50.747 155.931 50.8986 156.538 50.8986 157.224V160.696C50.8986 161.382 50.747 161.989 50.4436 162.516C50.145 163.043 49.732 163.459 49.2046 163.762C48.6773 164.061 48.0706 164.21 47.3846 164.21ZM47.3846 162.81C47.758 162.81 48.0963 162.721 48.3996 162.544C48.7076 162.362 48.9526 162.119 49.1346 161.816C49.3166 161.508 49.4076 161.165 49.4076 160.787V157.119C49.4076 156.746 49.3166 156.407 49.1346 156.104C48.9526 155.796 48.7076 155.553 48.3996 155.376C48.0963 155.194 47.758 155.103 47.3846 155.103C47.0113 155.103 46.6706 155.194 46.3626 155.376C46.0593 155.553 45.8166 155.796 45.6346 156.104C45.4526 156.407 45.3616 156.746 45.3616 157.119V160.787C45.3616 161.165 45.4526 161.508 45.6346 161.816C45.8166 162.119 46.0593 162.362 46.3626 162.544C46.6706 162.721 47.0113 162.81 47.3846 162.81ZM55.499 165.393V163.755H56.962V165.393H55.499ZM55.499 154.172V152.527H56.962V154.172H55.499ZM56.304 164.21C55.604 164.21 54.9787 164.084 54.428 163.832C53.8774 163.58 53.4247 163.223 53.07 162.761C52.72 162.294 52.4914 161.744 52.384 161.109L53.833 160.878C53.973 161.475 54.2717 161.951 54.729 162.306C55.1864 162.656 55.7347 162.831 56.374 162.831C57.0087 162.831 57.5244 162.679 57.921 162.376C58.3224 162.073 58.523 161.685 58.523 161.214C58.523 160.878 58.4204 160.605 58.215 160.395C58.0144 160.185 57.6854 160.008 57.228 159.863L54.862 159.135C53.462 158.701 52.762 157.861 52.762 156.615C52.762 156.027 52.902 155.516 53.182 155.082C53.4667 154.648 53.8657 154.312 54.379 154.074C54.8924 153.836 55.492 153.717 56.178 153.717C56.836 153.726 57.4194 153.848 57.928 154.081C58.4414 154.314 58.866 154.65 59.202 155.089C59.5427 155.528 59.7784 156.055 59.909 156.671L58.418 156.937C58.3527 156.578 58.215 156.26 58.005 155.985C57.7997 155.71 57.5384 155.495 57.221 155.341C56.9084 155.187 56.556 155.108 56.164 155.103C55.7954 155.094 55.464 155.152 55.17 155.278C54.8807 155.399 54.6497 155.572 54.477 155.796C54.309 156.015 54.225 156.265 54.225 156.545C54.225 156.853 54.344 157.114 54.582 157.329C54.82 157.544 55.1957 157.728 55.709 157.882L57.564 158.421C58.4134 158.673 59.027 159.011 59.405 159.436C59.783 159.861 59.972 160.425 59.972 161.13C59.972 161.746 59.818 162.285 59.51 162.747C59.2067 163.204 58.7797 163.564 58.229 163.825C57.6784 164.082 57.0367 164.21 56.304 164.21Z" fill="#808080"/>
<path d="M71 158.5H700" stroke="black" stroke-opacity="0.15" stroke-width="2" stroke-dasharray="12 12"/>
<path d="M12.445 221.01C11.7917 221.01 11.2037 220.856 10.681 220.548C10.1583 220.235 9.743 219.808 9.435 219.267C9.13167 218.726 8.98 218.11 8.98 217.419V214.206C8.98 213.473 9.13167 212.829 9.435 212.274C9.743 211.719 10.1677 211.287 10.709 210.979C11.255 210.671 11.8827 210.517 12.592 210.517C13.124 210.517 13.6233 210.617 14.09 210.818C14.5567 211.019 14.9603 211.317 15.301 211.714L14.23 212.715C14.0387 212.468 13.7983 212.272 13.509 212.127C13.2243 211.978 12.9187 211.903 12.592 211.903C12.172 211.903 11.8033 212.003 11.486 212.204C11.1687 212.4 10.919 212.659 10.737 212.981C10.5597 213.303 10.471 213.648 10.471 214.017V215.865L10.184 215.543C10.4733 215.165 10.8327 214.866 11.262 214.647C11.6913 214.428 12.151 214.318 12.641 214.318C13.2663 214.318 13.824 214.465 14.314 214.759C14.8087 215.048 15.196 215.443 15.476 215.942C15.7607 216.441 15.903 217.004 15.903 217.629C15.903 218.259 15.7443 218.831 15.427 219.344C15.1143 219.853 14.6943 220.259 14.167 220.562C13.6443 220.861 13.0703 221.01 12.445 221.01ZM12.445 219.603C12.809 219.603 13.1403 219.514 13.439 219.337C13.7377 219.16 13.9757 218.922 14.153 218.623C14.3303 218.324 14.419 217.993 14.419 217.629C14.419 217.265 14.3303 216.934 14.153 216.635C13.9803 216.336 13.7447 216.098 13.446 215.921C13.1473 215.744 12.816 215.655 12.452 215.655C12.088 215.655 11.7543 215.744 11.451 215.921C11.1523 216.098 10.9143 216.336 10.737 216.635C10.5597 216.934 10.471 217.265 10.471 217.629C10.471 217.988 10.5597 218.317 10.737 218.616C10.9143 218.915 11.1523 219.155 11.451 219.337C11.7497 219.514 12.081 219.603 12.445 219.603ZM23.992 221.01C23.306 221.01 22.6994 220.861 22.172 220.562C21.6447 220.259 21.2294 219.843 20.926 219.316C20.6274 218.789 20.478 218.182 20.478 217.496V214.024C20.478 213.338 20.6274 212.731 20.926 212.204C21.2294 211.677 21.6447 211.264 22.172 210.965C22.6994 210.662 23.306 210.51 23.992 210.51C24.678 210.51 25.2847 210.662 25.812 210.965C26.3394 211.264 26.7524 211.677 27.051 212.204C27.3544 212.731 27.506 213.338 27.506 214.024V217.496C27.506 218.182 27.3544 218.789 27.051 219.316C26.7524 219.843 26.3394 220.259 25.812 220.562C25.2847 220.861 24.678 221.01 23.992 221.01ZM23.992 219.61C24.3654 219.61 24.7037 219.521 25.007 219.344C25.315 219.162 25.56 218.919 25.742 218.616C25.924 218.308 26.015 217.965 26.015 217.587V213.919C26.015 213.546 25.924 213.207 25.742 212.904C25.56 212.596 25.315 212.353 25.007 212.176C24.7037 211.994 24.3654 211.903 23.992 211.903C23.6187 211.903 23.278 211.994 22.97 212.176C22.6667 212.353 22.424 212.596 22.242 212.904C22.06 213.207 21.969 213.546 21.969 213.919V217.587C21.969 217.965 22.06 218.308 22.242 218.616C22.424 218.919 22.6667 219.162 22.97 219.344C23.278 219.521 23.6187 219.61 23.992 219.61ZM32.9745 221.01C32.2885 221.01 31.6818 220.861 31.1545 220.562C30.6271 220.259 30.2118 219.843 29.9085 219.316C29.6098 218.789 29.4605 218.182 29.4605 217.496V214.024C29.4605 213.338 29.6098 212.731 29.9085 212.204C30.2118 211.677 30.6271 211.264 31.1545 210.965C31.6818 210.662 32.2885 210.51 32.9745 210.51C33.6605 210.51 34.2671 210.662 34.7945 210.965C35.3218 211.264 35.7348 211.677 36.0335 212.204C36.3368 212.731 36.4885 213.338 36.4885 214.024V217.496C36.4885 218.182 36.3368 218.789 36.0335 219.316C35.7348 219.843 35.3218 220.259 34.7945 220.562C34.2671 220.861 33.6605 221.01 32.9745 221.01ZM32.9745 219.61C33.3478 219.61 33.6861 219.521 33.9895 219.344C34.2975 219.162 34.5425 218.919 34.7245 218.616C34.9065 218.308 34.9975 217.965 34.9975 217.587V213.919C34.9975 213.546 34.9065 213.207 34.7245 212.904C34.5425 212.596 34.2975 212.353 33.9895 212.176C33.6861 211.994 33.3478 211.903 32.9745 211.903C32.6011 211.903 32.2605 211.994 31.9525 212.176C31.6491 212.353 31.4065 212.596 31.2245 212.904C31.0425 213.207 30.9515 213.546 30.9515 213.919V217.587C30.9515 217.965 31.0425 218.308 31.2245 218.616C31.4065 218.919 31.6491 219.162 31.9525 219.344C32.2605 219.521 32.6011 219.61 32.9745 219.61ZM41.9569 221.01C41.2709 221.01 40.6642 220.861 40.1369 220.562C39.6096 220.259 39.1942 219.843 38.8909 219.316C38.5922 218.789 38.4429 218.182 38.4429 217.496V214.024C38.4429 213.338 38.5922 212.731 38.8909 212.204C39.1942 211.677 39.6096 211.264 40.1369 210.965C40.6642 210.662 41.2709 210.51 41.9569 210.51C42.6429 210.51 43.2496 210.662 43.7769 210.965C44.3042 211.264 44.7172 211.677 45.0159 212.204C45.3192 212.731 45.4709 213.338 45.4709 214.024V217.496C45.4709 218.182 45.3192 218.789 45.0159 219.316C44.7172 219.843 44.3042 220.259 43.7769 220.562C43.2496 220.861 42.6429 221.01 41.9569 221.01ZM41.9569 219.61C42.3302 219.61 42.6686 219.521 42.9719 219.344C43.2799 219.162 43.5249 218.919 43.7069 218.616C43.8889 218.308 43.9799 217.965 43.9799 217.587V213.919C43.9799 213.546 43.8889 213.207 43.7069 212.904C43.5249 212.596 43.2799 212.353 42.9719 212.176C42.6686 211.994 42.3302 211.903 41.9569 211.903C41.5836 211.903 41.2429 211.994 40.9349 212.176C40.6316 212.353 40.3889 212.596 40.2069 212.904C40.0249 213.207 39.9339 213.546 39.9339 213.919V217.587C39.9339 217.965 40.0249 218.308 40.2069 218.616C40.3889 218.919 40.6316 219.162 40.9349 219.344C41.2429 219.521 41.5836 219.61 41.9569 219.61ZM50.0713 222.193V220.555H51.5343V222.193H50.0713ZM50.0713 210.972V209.327H51.5343V210.972H50.0713ZM50.8763 221.01C50.1763 221.01 49.551 220.884 49.0003 220.632C48.4496 220.38 47.997 220.023 47.6423 219.561C47.2923 219.094 47.0636 218.544 46.9563 217.909L48.4053 217.678C48.5453 218.275 48.844 218.751 49.3013 219.106C49.7586 219.456 50.307 219.631 50.9463 219.631C51.581 219.631 52.0966 219.479 52.4933 219.176C52.8946 218.873 53.0953 218.485 53.0953 218.014C53.0953 217.678 52.9926 217.405 52.7873 217.195C52.5866 216.985 52.2576 216.808 51.8003 216.663L49.4343 215.935C48.0343 215.501 47.3343 214.661 47.3343 213.415C47.3343 212.827 47.4743 212.316 47.7543 211.882C48.039 211.448 48.438 211.112 48.9513 210.874C49.4646 210.636 50.0643 210.517 50.7503 210.517C51.4083 210.526 51.9916 210.648 52.5003 210.881C53.0136 211.114 53.4383 211.45 53.7743 211.889C54.115 212.328 54.3506 212.855 54.4813 213.471L52.9903 213.737C52.925 213.378 52.7873 213.06 52.5773 212.785C52.372 212.51 52.1106 212.295 51.7933 212.141C51.4806 211.987 51.1283 211.908 50.7363 211.903C50.3676 211.894 50.0363 211.952 49.7423 212.078C49.453 212.199 49.222 212.372 49.0493 212.596C48.8813 212.815 48.7973 213.065 48.7973 213.345C48.7973 213.653 48.9163 213.914 49.1543 214.129C49.3923 214.344 49.768 214.528 50.2813 214.682L52.1363 215.221C52.9856 215.473 53.5993 215.811 53.9773 216.236C54.3553 216.661 54.5443 217.225 54.5443 217.93C54.5443 218.546 54.3903 219.085 54.0823 219.547C53.779 220.004 53.352 220.364 52.8013 220.625C52.2506 220.882 51.609 221.01 50.8763 221.01Z" fill="#808080"/>
<path d="M66 215.3H695" stroke="black" stroke-opacity="0.15" stroke-width="2" stroke-dasharray="12 12"/>
<path d="M10.737 277.6V269.13L8.84 270.285V268.654L10.737 267.52H12.228V277.6H10.737ZM21.203 277.81C20.517 277.81 19.9103 277.661 19.383 277.362C18.8557 277.059 18.4403 276.643 18.137 276.116C17.8383 275.589 17.689 274.982 17.689 274.296V270.824C17.689 270.138 17.8383 269.531 18.137 269.004C18.4403 268.477 18.8557 268.064 19.383 267.765C19.9103 267.462 20.517 267.31 21.203 267.31C21.889 267.31 22.4957 267.462 23.023 267.765C23.5503 268.064 23.9633 268.477 24.262 269.004C24.5653 269.531 24.717 270.138 24.717 270.824V274.296C24.717 274.982 24.5653 275.589 24.262 276.116C23.9633 276.643 23.5503 277.059 23.023 277.362C22.4957 277.661 21.889 277.81 21.203 277.81ZM21.203 276.41C21.5763 276.41 21.9147 276.321 22.218 276.144C22.526 275.962 22.771 275.719 22.953 275.416C23.135 275.108 23.226 274.765 23.226 274.387V270.719C23.226 270.346 23.135 270.007 22.953 269.704C22.771 269.396 22.526 269.153 22.218 268.976C21.9147 268.794 21.5763 268.703 21.203 268.703C20.8297 268.703 20.489 268.794 20.181 268.976C19.8777 269.153 19.635 269.396 19.453 269.704C19.271 270.007 19.18 270.346 19.18 270.719V274.387C19.18 274.765 19.271 275.108 19.453 275.416C19.635 275.719 19.8777 275.962 20.181 276.144C20.489 276.321 20.8297 276.41 21.203 276.41ZM30.1854 277.81C29.4994 277.81 28.8927 277.661 28.3654 277.362C27.8381 277.059 27.4227 276.643 27.1194 276.116C26.8207 275.589 26.6714 274.982 26.6714 274.296V270.824C26.6714 270.138 26.8207 269.531 27.1194 269.004C27.4227 268.477 27.8381 268.064 28.3654 267.765C28.8927 267.462 29.4994 267.31 30.1854 267.31C30.8714 267.31 31.4781 267.462 32.0054 267.765C32.5327 268.064 32.9457 268.477 33.2444 269.004C33.5477 269.531 33.6994 270.138 33.6994 270.824V274.296C33.6994 274.982 33.5477 275.589 33.2444 276.116C32.9457 276.643 32.5327 277.059 32.0054 277.362C31.4781 277.661 30.8714 277.81 30.1854 277.81ZM30.1854 276.41C30.5587 276.41 30.8971 276.321 31.2004 276.144C31.5084 275.962 31.7534 275.719 31.9354 275.416C32.1174 275.108 32.2084 274.765 32.2084 274.387V270.719C32.2084 270.346 32.1174 270.007 31.9354 269.704C31.7534 269.396 31.5084 269.153 31.2004 268.976C30.8971 268.794 30.5587 268.703 30.1854 268.703C29.8121 268.703 29.4714 268.794 29.1634 268.976C28.8601 269.153 28.6174 269.396 28.4354 269.704C28.2534 270.007 28.1624 270.346 28.1624 270.719V274.387C28.1624 274.765 28.2534 275.108 28.4354 275.416C28.6174 275.719 28.8601 275.962 29.1634 276.144C29.4714 276.321 29.8121 276.41 30.1854 276.41ZM39.1678 277.81C38.4818 277.81 37.8752 277.661 37.3478 277.362C36.8205 277.059 36.4052 276.643 36.1018 276.116C35.8032 275.589 35.6538 274.982 35.6538 274.296V270.824C35.6538 270.138 35.8032 269.531 36.1018 269.004C36.4052 268.477 36.8205 268.064 37.3478 267.765C37.8752 267.462 38.4818 267.31 39.1678 267.31C39.8538 267.31 40.4605 267.462 40.9878 267.765C41.5152 268.064 41.9282 268.477 42.2268 269.004C42.5302 269.531 42.6818 270.138 42.6818 270.824V274.296C42.6818 274.982 42.5302 275.589 42.2268 276.116C41.9282 276.643 41.5152 277.059 40.9878 277.362C40.4605 277.661 39.8538 277.81 39.1678 277.81ZM39.1678 276.41C39.5412 276.41 39.8795 276.321 40.1828 276.144C40.4908 275.962 40.7358 275.719 40.9178 275.416C41.0998 275.108 41.1908 274.765 41.1908 274.387V270.719C41.1908 270.346 41.0998 270.007 40.9178 269.704C40.7358 269.396 40.4908 269.153 40.1828 268.976C39.8795 268.794 39.5412 268.703 39.1678 268.703C38.7945 268.703 38.4538 268.794 38.1458 268.976C37.8425 269.153 37.5998 269.396 37.4178 269.704C37.2358 270.007 37.1448 270.346 37.1448 270.719V274.387C37.1448 274.765 37.2358 275.108 37.4178 275.416C37.5998 275.719 37.8425 275.962 38.1458 276.144C38.4538 276.321 38.7945 276.41 39.1678 276.41ZM47.2823 278.993V277.355H48.7453V278.993H47.2823ZM47.2823 267.772V266.127H48.7453V267.772H47.2823ZM48.0873 277.81C47.3873 277.81 46.7619 277.684 46.2113 277.432C45.6606 277.18 45.2079 276.823 44.8533 276.361C44.5033 275.894 44.2746 275.344 44.1673 274.709L45.6163 274.478C45.7563 275.075 46.0549 275.551 46.5123 275.906C46.9696 276.256 47.5179 276.431 48.1573 276.431C48.7919 276.431 49.3076 276.279 49.7043 275.976C50.1056 275.673 50.3063 275.285 50.3063 274.814C50.3063 274.478 50.2036 274.205 49.9983 273.995C49.7976 273.785 49.4686 273.608 49.0113 273.463L46.6453 272.735C45.2453 272.301 44.5453 271.461 44.5453 270.215C44.5453 269.627 44.6853 269.116 44.9653 268.682C45.2499 268.248 45.6489 267.912 46.1623 267.674C46.6756 267.436 47.2753 267.317 47.9613 267.317C48.6193 267.326 49.2026 267.448 49.7113 267.681C50.2246 267.914 50.6493 268.25 50.9853 268.689C51.3259 269.128 51.5616 269.655 51.6923 270.271L50.2013 270.537C50.1359 270.178 49.9983 269.86 49.7883 269.585C49.5829 269.31 49.3216 269.095 49.0043 268.941C48.6916 268.787 48.3393 268.708 47.9473 268.703C47.5786 268.694 47.2473 268.752 46.9533 268.878C46.6639 268.999 46.4329 269.172 46.2603 269.396C46.0923 269.615 46.0083 269.865 46.0083 270.145C46.0083 270.453 46.1273 270.714 46.3653 270.929C46.6033 271.144 46.9789 271.328 47.4923 271.482L49.3473 272.021C50.1966 272.273 50.8103 272.611 51.1883 273.036C51.5663 273.461 51.7553 274.025 51.7553 274.73C51.7553 275.346 51.6013 275.885 51.2933 276.347C50.9899 276.804 50.5629 277.164 50.0123 277.425C49.4616 277.682 48.8199 277.81 48.0873 277.81Z" fill="#808080"/>
<path d="M63 272.1H692" stroke="black" stroke-opacity="0.15" stroke-width="2" stroke-dasharray="12 12"/>
<path d="M69 272L100.343 238.293C108.828 229.168 123.434 229.693 131.241 239.405V239.405C139.548 249.737 155.341 249.55 163.4 239.024L185.869 209.678C192.483 201.039 203.926 197.67 214.167 201.347L239.171 210.325C242.937 211.677 246.323 213.913 249.046 216.846L284.817 255.382C293.569 264.81 308.048 266.058 318.283 258.265L353.722 231.284C356.257 229.354 358.399 226.958 360.035 224.223L385.839 181.07C394.11 167.239 413.113 164.731 424.689 175.943L439.554 190.341C451.16 201.583 470.222 199.027 478.457 185.126L504.631 140.941C511.775 128.88 527.439 125.05 539.343 132.454L568.717 150.723C572.173 152.872 575.051 155.832 577.103 159.346L581.003 166.025C591.717 184.374 618.986 181.839 626.135 161.831L646.517 104.787C647.237 102.773 648.212 100.859 649.418 99.0935L698 28" stroke="#3356D2" stroke-width="2"/>
<circle cx="521" cy="129" r="6" fill="white" stroke="#3356D2" stroke-width="2"/>
<rect x="490" y="95" width="61" height="23" rx="5" fill="#3356D2"/>
<path d="M496.737 112V103.53L494.84 104.685V103.054L496.737 101.92H498.228V112H496.737ZM504.113 112.21C503.455 112.21 502.872 112.079 502.363 111.818C501.859 111.552 501.463 111.183 501.173 110.712C500.889 110.241 500.746 109.695 500.746 109.074C500.746 108.495 500.882 107.966 501.152 107.485C501.423 107.004 501.827 106.626 502.363 106.351L502.335 106.855C501.906 106.589 501.575 106.258 501.341 105.861C501.113 105.46 500.998 105.012 500.998 104.517C500.998 103.943 501.131 103.446 501.397 103.026C501.663 102.606 502.03 102.282 502.496 102.053C502.968 101.824 503.507 101.71 504.113 101.71C504.72 101.71 505.257 101.824 505.723 102.053C506.19 102.282 506.556 102.606 506.822 103.026C507.088 103.446 507.221 103.943 507.221 104.517C507.221 105.012 507.112 105.457 506.892 105.854C506.673 106.251 506.337 106.584 505.884 106.855L505.863 106.365C506.395 106.626 506.799 107 507.074 107.485C507.35 107.966 507.487 108.495 507.487 109.074C507.487 109.695 507.343 110.241 507.053 110.712C506.764 111.183 506.365 111.552 505.856 111.818C505.348 112.079 504.767 112.21 504.113 112.21ZM504.113 110.817C504.655 110.817 505.093 110.67 505.429 110.376C505.765 110.077 505.933 109.643 505.933 109.074C505.933 108.505 505.765 108.071 505.429 107.772C505.098 107.469 504.659 107.317 504.113 107.317C503.567 107.317 503.126 107.469 502.79 107.772C502.459 108.071 502.293 108.505 502.293 109.074C502.293 109.643 502.461 110.077 502.797 110.376C503.133 110.67 503.572 110.817 504.113 110.817ZM504.113 105.917C504.575 105.917 504.949 105.803 505.233 105.574C505.523 105.341 505.667 104.988 505.667 104.517C505.667 104.046 505.523 103.693 505.233 103.46C504.949 103.222 504.575 103.103 504.113 103.103C503.651 103.103 503.276 103.222 502.986 103.46C502.697 103.693 502.552 104.046 502.552 104.517C502.552 104.988 502.697 105.341 502.986 105.574C503.276 105.803 503.651 105.917 504.113 105.917ZM515.625 112.21C514.939 112.21 514.332 112.061 513.805 111.762C513.278 111.459 512.862 111.043 512.559 110.516C512.26 109.989 512.111 109.382 512.111 108.696V105.224C512.111 104.538 512.26 103.931 512.559 103.404C512.862 102.877 513.278 102.464 513.805 102.165C514.332 101.862 514.939 101.71 515.625 101.71C516.311 101.71 516.918 101.862 517.445 102.165C517.972 102.464 518.385 102.877 518.684 103.404C518.987 103.931 519.139 104.538 519.139 105.224V108.696C519.139 109.382 518.987 109.989 518.684 110.516C518.385 111.043 517.972 111.459 517.445 111.762C516.918 112.061 516.311 112.21 515.625 112.21ZM515.625 110.81C515.998 110.81 516.337 110.721 516.64 110.544C516.948 110.362 517.193 110.119 517.375 109.816C517.557 109.508 517.648 109.165 517.648 108.787V105.119C517.648 104.746 517.557 104.407 517.375 104.104C517.193 103.796 516.948 103.553 516.64 103.376C516.337 103.194 515.998 103.103 515.625 103.103C515.252 103.103 514.911 103.194 514.603 103.376C514.3 103.553 514.057 103.796 513.875 104.104C513.693 104.407 513.602 104.746 513.602 105.119V108.787C513.602 109.165 513.693 109.508 513.875 109.816C514.057 110.119 514.3 110.362 514.603 110.544C514.911 110.721 515.252 110.81 515.625 110.81ZM524.607 112.21C523.921 112.21 523.315 112.061 522.787 111.762C522.26 111.459 521.845 111.043 521.541 110.516C521.243 109.989 521.093 109.382 521.093 108.696V105.224C521.093 104.538 521.243 103.931 521.541 103.404C521.845 102.877 522.26 102.464 522.787 102.165C523.315 101.862 523.921 101.71 524.607 101.71C525.293 101.71 525.9 101.862 526.427 102.165C526.955 102.464 527.368 102.877 527.666 103.404C527.97 103.931 528.121 104.538 528.121 105.224V108.696C528.121 109.382 527.97 109.989 527.666 110.516C527.368 111.043 526.955 111.459 526.427 111.762C525.9 112.061 525.293 112.21 524.607 112.21ZM524.607 110.81C524.981 110.81 525.319 110.721 525.622 110.544C525.93 110.362 526.175 110.119 526.357 109.816C526.539 109.508 526.63 109.165 526.63 108.787V105.119C526.63 104.746 526.539 104.407 526.357 104.104C526.175 103.796 525.93 103.553 525.622 103.376C525.319 103.194 524.981 103.103 524.607 103.103C524.234 103.103 523.893 103.194 523.585 103.376C523.282 103.553 523.039 103.796 522.857 104.104C522.675 104.407 522.584 104.746 522.584 105.119V108.787C522.584 109.165 522.675 109.508 522.857 109.816C523.039 110.119 523.282 110.362 523.585 110.544C523.893 110.721 524.234 110.81 524.607 110.81ZM533.59 112.21C532.904 112.21 532.297 112.061 531.77 111.762C531.242 111.459 530.827 111.043 530.524 110.516C530.225 109.989 530.076 109.382 530.076 108.696V105.224C530.076 104.538 530.225 103.931 530.524 103.404C530.827 102.877 531.242 102.464 531.77 102.165C532.297 101.862 532.904 101.71 533.59 101.71C534.276 101.71 534.882 101.862 535.41 102.165C535.937 102.464 536.35 102.877 536.649 103.404C536.952 103.931 537.104 104.538 537.104 105.224V108.696C537.104 109.382 536.952 109.989 536.649 110.516C536.35 111.043 535.937 111.459 535.41 111.762C534.882 112.061 534.276 112.21 533.59 112.21ZM533.59 110.81C533.963 110.81 534.301 110.721 534.605 110.544C534.913 110.362 535.158 110.119 535.34 109.816C535.522 109.508 535.613 109.165 535.613 108.787V105.119C535.613 104.746 535.522 104.407 535.34 104.104C535.158 103.796 534.913 103.553 534.605 103.376C534.301 103.194 533.963 103.103 533.59 103.103C533.216 103.103 532.876 103.194 532.568 103.376C532.264 103.553 532.022 103.796 531.84 104.104C531.658 104.407 531.567 104.746 531.567 105.119V108.787C531.567 109.165 531.658 109.508 531.84 109.816C532.022 110.119 532.264 110.362 532.568 110.544C532.876 110.721 533.216 110.81 533.59 110.81ZM541.704 113.393V111.755H543.167V113.393H541.704ZM541.704 102.172V100.527H543.167V102.172H541.704ZM542.509 112.21C541.809 112.21 541.184 112.084 540.633 111.832C540.082 111.58 539.63 111.223 539.275 110.761C538.925 110.294 538.696 109.744 538.589 109.109L540.038 108.878C540.178 109.475 540.477 109.951 540.934 110.306C541.391 110.656 541.94 110.831 542.579 110.831C543.214 110.831 543.729 110.679 544.126 110.376C544.527 110.073 544.728 109.685 544.728 109.214C544.728 108.878 544.625 108.605 544.42 108.395C544.219 108.185 543.89 108.008 543.433 107.863L541.067 107.135C539.667 106.701 538.967 105.861 538.967 104.615C538.967 104.027 539.107 103.516 539.387 103.082C539.672 102.648 540.071 102.312 540.584 102.074C541.097 101.836 541.697 101.717 542.383 101.717C543.041 101.726 543.624 101.848 544.133 102.081C544.646 102.314 545.071 102.65 545.407 103.089C545.748 103.528 545.983 104.055 546.114 104.671L544.623 104.937C544.558 104.578 544.42 104.26 544.21 103.985C544.005 103.71 543.743 103.495 543.426 103.341C543.113 103.187 542.761 103.108 542.369 103.103C542 103.094 541.669 103.152 541.375 103.278C541.086 103.399 540.855 103.572 540.682 103.796C540.514 104.015 540.43 104.265 540.43 104.545C540.43 104.853 540.549 105.114 540.787 105.329C541.025 105.544 541.401 105.728 541.914 105.882L543.769 106.421C544.618 106.673 545.232 107.011 545.61 107.436C545.988 107.861 546.177 108.425 546.177 109.13C546.177 109.746 546.023 110.285 545.715 110.747C545.412 111.204 544.985 111.564 544.434 111.825C543.883 112.082 543.242 112.21 542.509 112.21Z" fill="white"/>
<path d="M69 272L98.9068 249.723C108.944 242.247 122.964 243.345 131.715 252.294L136.066 256.743C143.044 263.878 153.597 266.18 162.913 262.598L196.974 249.5L244.903 230.708L289.798 214.72C296.449 212.351 303.791 212.905 310.011 216.245L345.954 235.545C353.218 239.445 361.937 239.513 369.261 235.727L394.269 222.8C399.293 220.202 405.05 219.386 410.598 220.483L453.526 228.971C459.206 230.094 465.099 229.211 470.2 226.473L514.272 202.814C516.511 201.612 518.921 200.758 521.417 200.282L559.612 193.005C568.486 191.314 577.583 194.542 583.406 201.449L587.349 206.126C597.859 218.593 617.297 217.824 626.79 204.566L643.486 181.248C646.176 177.49 649.856 174.551 654.117 172.759L698.5 154.083" stroke="#3356D2" stroke-width="2" stroke-dasharray="12 12"/>
</g>
<defs>
<clipPath id="clip0_1_87">
<rect width="711" height="328" rx="12" fill="white"/>
</clipPath>
</defs>
</svg>
