<svg width="163" height="50" viewBox="0 0 163 50" fill="none" xmlns="http://www.w3.org/2000/svg">
<g clip-path="url(#clip0_1_10282)">
<path fill-rule="evenodd" clip-rule="evenodd" d="M15.2221 18.4132C14.0911 20.2113 13.4367 22.3405 13.4367 24.6228C13.4367 31.0644 18.6495 36.2863 25.0798 36.2863C27.3581 36.2863 29.4835 35.6307 31.2785 34.4977L27.4437 30.6561C26.7114 30.9442 25.914 31.1025 25.0798 31.1025C21.5074 31.1025 18.6114 28.2014 18.6114 24.6228C18.6114 23.7871 18.7694 22.9883 19.057 22.2547L15.2221 18.4132ZM31.1027 26.9906C31.3902 26.2572 31.5481 25.4584 31.5481 24.6228C31.5481 21.0441 28.6522 18.1431 25.0798 18.1431C24.2456 18.1431 23.4482 18.3013 22.7161 18.5894L18.8813 14.7479C20.6761 13.6149 22.8015 12.9594 25.0798 12.9594C31.51 12.9594 36.7228 18.1813 36.7228 24.6228C36.7228 26.905 36.0684 29.0341 34.9374 30.8321L31.1027 26.9906Z" fill="#848484"/>
<path fill-rule="evenodd" clip-rule="evenodd" d="M15.2221 18.4132C14.0911 20.2113 13.4367 22.3405 13.4367 24.6228C13.4367 31.0644 18.6495 36.2863 25.0798 36.2863C27.3581 36.2863 29.4835 35.6307 31.2785 34.4977L27.4437 30.6561C26.7114 30.9442 25.914 31.1025 25.0798 31.1025C21.5074 31.1025 18.6114 28.2014 18.6114 24.6228C18.6114 23.7871 18.7694 22.9883 19.057 22.2547L15.2221 18.4132ZM31.1027 26.9906C31.3902 26.2572 31.5481 25.4584 31.5481 24.6228C31.5481 21.0441 28.6522 18.1431 25.0798 18.1431C24.2456 18.1431 23.4482 18.3013 22.7161 18.5894L18.8813 14.7479C20.6761 13.6149 22.8015 12.9594 25.0798 12.9594C31.51 12.9594 36.7228 18.1813 36.7228 24.6228C36.7228 26.905 36.0684 29.0341 34.9374 30.8321L31.1027 26.9906Z" fill="#848484"/>
<path d="M27.6671 24.6228C27.6671 23.1914 26.5087 22.0309 25.0798 22.0309C23.6508 22.0309 22.4924 23.1914 22.4924 24.6228C22.4924 26.0543 23.6508 27.2147 25.0798 27.2147C26.5087 27.2147 27.6671 26.0543 27.6671 24.6228Z" fill="#848484"/>
<path fill-rule="evenodd" clip-rule="evenodd" d="M5.6747 24.6227C5.6747 13.8869 14.3627 5.18369 25.0798 5.18369C35.7969 5.18369 44.4849 13.8869 44.4849 24.6227C44.4849 35.3586 35.7969 44.0618 25.0798 44.0618C14.3627 44.0618 5.6747 35.3586 5.6747 24.6227ZM25.0798 10.3674C17.2206 10.3674 10.8494 16.7498 10.8494 24.6227C10.8494 32.4957 17.2206 38.8781 25.0798 38.8781C32.939 38.8781 39.3102 32.4957 39.3102 24.6227C39.3102 16.7498 32.939 10.3674 25.0798 10.3674Z" fill="#848484"/>
<path d="M39.3102 20.7348H47.0722C48.5011 20.7348 49.6595 21.8952 49.6595 23.3267V25.9186C49.6595 27.35 48.5011 28.5104 47.0722 28.5104H39.3102V20.7348Z" fill="#848484"/>
<path d="M28.9607 38.8781V46.6537C28.9607 48.0851 27.8024 49.2455 26.3734 49.2455H23.7861C22.3571 49.2455 21.1987 48.0851 21.1987 46.6537V38.8781H28.9607Z" fill="#848484"/>
<path d="M17.7617 37.452L12.273 42.9502C11.2627 43.9624 9.62443 43.9624 8.61399 42.9502L6.78449 41.1175C5.77406 40.1053 5.77407 38.4642 6.78449 37.452L12.273 31.9538L17.7617 37.452Z" fill="#848484"/>
<path d="M12.2731 17.2918L6.78448 11.7935C5.77407 10.7813 5.77407 9.14027 6.78448 8.12807L8.61403 6.29535C9.62447 5.28316 11.2627 5.28316 12.2731 6.29535L17.7616 11.7935L12.2731 17.2918Z" fill="#848484"/>
<path d="M10.8493 20.7348H3.08734C1.65839 20.7348 0.5 21.8952 0.5 23.3267V25.9186C0.5 27.35 1.65839 28.5104 3.08734 28.5104H10.8493V20.7348Z" fill="#848484"/>
<path d="M28.9607 10.3675V2.59193C28.9607 1.16048 27.8024 6.1211e-05 26.3734 6.11485e-05L23.7861 6.10352e-05C22.3571 6.09726e-05 21.1987 1.16048 21.1987 2.59193V10.3675H28.9607Z" fill="#848484"/>
<path d="M37.8865 17.2919L43.375 11.7937C44.3854 10.7815 44.3854 9.1404 43.375 8.12819L41.5455 6.29549C40.5351 5.2833 38.8968 5.2833 37.8865 6.29549L32.3978 11.7937L37.8865 17.2919Z" fill="#848484"/>
<path d="M32.3978 37.452L37.8865 42.9502C38.8968 43.9624 40.5351 43.9624 41.5455 42.9502L43.375 41.1174C44.3854 40.1053 44.3854 38.4642 43.375 37.452L37.8865 31.9538L32.3978 37.452Z" fill="#848484"/>
<path d="M72.5989 38.6835L72.2573 38.3413L69.9057 35.9856C69.3028 36.7659 68.5916 37.2676 67.7898 37.5497C67.7519 37.5631 67.7154 37.5761 67.6786 37.5893C67.6595 37.5961 67.6405 37.603 67.6211 37.6099C67.6209 37.6099 67.6208 37.61 67.6206 37.61L67.5535 37.4217C67.1165 37.5787 66.7341 37.7157 66.0825 37.7542L72.5989 38.6835ZM72.5989 38.6835V38.2V35.8326V35.7498L72.5404 35.6913L68.126 31.269L67.7837 30.9261L67.7845 31.4107L67.7885 33.7822L67.7886 33.8647L67.8469 33.9231L68.3035 34.3805L72.5989 38.6835ZM110.108 11.3388L110.104 11.1431H109.908H108.355H108.155V11.3431V37.3968V37.5968H108.355H110.174H110.374V37.3968L110.374 23.8518L110.374 23.8477L110.302 20.2748L110.302 20.2744L110.108 11.3388ZM111.778 20.282L111.779 20.3124L111.789 20.3411L117.513 37.4602L117.558 37.5968H117.702H120.128H120.328V37.3968V11.3431V11.1431H120.128H118.308H118.108V11.3431L118.108 24.6023L118.108 24.6061L118.273 33.0895L112.046 14.5811L111.656 14.6492L111.778 20.282ZM150.701 29.1199H150.497L157.515 23.5659L157.613 23.391C157.612 23.3909 157.612 23.3909 157.612 23.3908C156.447 22.7442 155.374 22.1435 154.585 21.2408C153.805 20.3484 153.292 19.1463 153.292 17.2759C153.292 15.8978 153.522 14.7925 154.029 14.0368C154.527 13.2954 155.307 12.8656 156.481 12.8656C157.587 12.8656 158.479 13.1494 159.11 13.9671C159.751 14.799 160.152 16.2187 160.17 18.564L160.171 18.7625H160.37H162.189H162.391L162.389 18.5609C162.371 16.2421 161.995 14.3172 161.07 12.9679C160.133 11.6035 158.656 10.8573 156.516 10.8573C154.886 10.8573 153.498 11.3725 152.52 12.4508C151.544 13.5264 151.001 15.1355 151.001 17.2759C151.001 19.7793 151.645 21.4259 152.62 22.6161C153.589 23.7986 154.872 24.5116 156.1 25.1714C157.351 25.8515 158.406 26.4791 159.155 27.3711C159.895 28.2538 160.348 29.4119 160.348 31.1783C160.348 32.6261 160.091 33.8016 159.523 34.6105C158.965 35.4065 158.085 35.8745 156.766 35.8745C155.53 35.8745 154.538 35.4825 153.844 34.4984C153.139 33.4991 152.721 31.8608 152.721 29.3199V29.1199H152.521H150.701ZM76.1398 11.1431H75.9398V11.3431V29.0339C75.9398 31.7863 76.4327 34.0129 77.4818 35.5569C78.5393 37.1134 80.1473 37.9542 82.312 37.9542C84.4213 37.9542 86.0289 37.1506 87.1004 35.6125C88.1637 34.086 88.6836 31.8586 88.6836 29.0339V11.3431V11.1431H88.4836H86.6644H86.4644V11.3431V28.9624C86.4644 31.5564 86.0374 33.2679 85.3131 34.3264C84.5992 35.3698 83.5791 35.8029 82.312 35.8029C81.0793 35.8029 80.0682 35.387 79.3546 34.3526C78.6307 33.3032 78.1949 31.592 78.1949 28.9624V11.3431V11.1431H77.9949H76.1398ZM124.095 13.2586H128.676V37.3968V37.5968H128.876H130.767H130.967V37.3968V13.2586H135.583H135.783V13.0586V11.3431V11.1431H135.583H124.095H123.895V11.3431V13.0586V13.2586H124.095ZM138.76 37.3969V37.5969H138.96H147.843H148.043V37.3969V35.7529V35.5529H147.843H141.015V25.0168H143.4H143.6V24.8168V23.2085V23.0085L143.4 23.0085L138.96 23.0085L138.76 23.0085V23.2085V37.3969ZM140.815 21.5781H141.015V21.3781V13.1871H147.843H148.043V12.9871V11.3431V11.1431H147.843H138.96H138.76V11.3431V21.3781V21.5781H138.96H140.815ZM96.6789 11.1431H96.5171L96.4833 11.3013L90.9179 37.355L90.8662 37.5968H91.1135H92.9686H93.1315L93.1645 37.4373L94.591 30.541L94.5913 30.5397L94.9121 29.04L94.9125 29.0378L97.0894 18.2804L97.0897 18.2788L97.9479 13.853L98.8373 18.2433L98.8376 18.2447L100.942 29.0364L100.942 29.0364L100.943 29.04L101.264 30.5387L101.264 30.541L102.655 37.4363L102.687 37.5968H102.851H104.742H104.989L104.937 37.355L99.3717 11.3013L99.3379 11.1431H99.1762H96.6789Z" fill="#848484" stroke="#848484" stroke-width="0.4"/>
</g>
<defs>
<clipPath id="clip0_1_10282">
<rect width="162" height="49.2456" fill="white" transform="translate(0.5 0.00012207)"/>
</clipPath>
</defs>
</svg>
