<svg width="212" height="212" viewBox="0 0 212 212" fill="none" xmlns="http://www.w3.org/2000/svg">
<path d="M64.3306 6.61157L59.9669 6.61157C58.7254 6.61157 57.719 5.60514 57.719 4.36364V2.24794C57.719 1.00644 58.7254 1.43051e-06 59.9669 1.43051e-06L64.3306 1.43051e-06V6.61157Z" fill="black"/>
<path d="M70.7439 0H64.1323V6.61157H70.7439V0Z" fill="black"/>
<path d="M70.5454 6.61157V2.24794C70.5454 1.00644 71.5518 1.43051e-06 72.7933 1.43051e-06H74.909C76.1505 1.43051e-06 77.157 1.00644 77.157 2.24794V6.61157H70.5454Z" fill="black"/>
<path d="M89.9834 6.61157L85.6198 6.61157C84.3783 6.61157 83.3718 5.60514 83.3718 4.36364V2.24794C83.3718 1.00644 84.3783 1.43051e-06 85.6198 1.43051e-06L89.9834 1.43051e-06V6.61157Z" fill="black"/>
<path d="M96.3967 0H89.7852V6.61157H96.3967V0Z" fill="black"/>
<path d="M96.1982 6.61157V1.43051e-06H100.562C101.803 1.43051e-06 102.81 1.00644 102.81 2.24794V6.61157H96.1982Z" fill="black"/>
<path d="M122.049 6.61157L115.438 6.61157V2.24794C115.438 1.00644 116.444 1.43051e-06 117.686 1.43051e-06L122.049 1.43051e-06V6.61157Z" fill="black"/>
<path d="M128.463 0H121.851V6.61157H128.463V0Z" fill="black"/>
<path d="M128.265 6.61157V2.24794C128.265 1.00644 129.271 1.43051e-06 130.513 1.43051e-06H132.628C133.87 1.43051e-06 134.876 1.00644 134.876 2.24794V6.61157H128.265Z" fill="black"/>
<path d="M147.702 6.61157L143.339 6.61157C142.097 6.61157 141.091 5.60514 141.091 4.36364V2.24794C141.091 1.00644 142.097 1.43051e-06 143.339 1.43051e-06L147.702 1.43051e-06V6.61157Z" fill="black"/>
<path d="M154.115 0H147.504V6.61157H154.115V0Z" fill="black"/>
<path d="M153.917 6.61157V2.24794C153.917 1.00644 154.924 1.43051e-06 156.165 1.43051e-06H158.281C159.523 1.43051e-06 160.529 1.00644 160.529 2.24794V6.61157H153.917Z" fill="black"/>
<path d="M102.81 6.41321H96.1982V13.0248H102.81V6.41321Z" fill="black"/>
<path d="M122.049 6.41321V10.7768C122.049 12.0183 121.043 13.0248 119.801 13.0248H117.686C116.444 13.0248 115.438 12.0183 115.438 10.7768V6.41321H122.049Z" fill="black"/>
<path d="M154.115 6.41321V10.7768C154.115 12.0183 153.109 13.0248 151.867 13.0248H149.752C148.51 13.0248 147.504 12.0183 147.504 10.7768V6.41321H154.115Z" fill="black"/>
<path d="M57.7192 19.438V15.0744C57.7192 13.8329 58.7257 12.8264 59.9672 12.8264H62.0829C63.3244 12.8264 64.3308 13.8329 64.3308 15.0744V19.438H57.7192Z" fill="black"/>
<path d="M83.5698 19.438H76.9583V15.0744C76.9583 13.8329 77.9647 12.8264 79.2062 12.8264H83.5698V19.438Z" fill="black"/>
<path d="M89.9836 12.8264H83.3721V19.438H89.9836V12.8264Z" fill="black"/>
<path d="M96.3967 12.8264H89.7852V19.438H96.3967V12.8264Z" fill="black"/>
<path d="M102.81 12.8264H96.1982V19.438H102.81V12.8264Z" fill="black"/>
<path d="M109.025 19.438V15.0744C109.025 13.8329 110.031 12.8264 111.273 12.8264H113.389C114.63 12.8264 115.636 13.8329 115.636 15.0744V19.438H109.025Z" fill="black"/>
<path d="M126.446 19.3058V19.438H128.463V17.4215H128.331C128.331 18.4661 127.484 19.3058 126.446 19.3058Z" fill="black"/>
<path d="M128.265 19.438V15.0744C128.265 13.8329 129.271 12.8264 130.513 12.8264H132.628C133.87 12.8264 134.876 13.8329 134.876 15.0744V19.438H128.265Z" fill="black"/>
<path d="M139.273 19.3058V19.438H141.289V17.4215H141.157C141.157 18.4661 140.311 19.3058 139.273 19.3058Z" fill="black"/>
<path d="M141.091 19.438V15.0744C141.091 13.8329 142.097 12.8264 143.339 12.8264H145.454C146.696 12.8264 147.702 13.8329 147.702 15.0744V19.438H141.091Z" fill="black"/>
<path d="M153.917 14.7173V17.5537C153.917 18.5983 154.764 19.438 155.808 19.438H158.645C159.696 19.438 160.536 18.5917 160.536 17.5471V14.7173C160.529 13.6661 159.683 12.8264 158.638 12.8264H155.808C154.764 12.8264 153.917 13.6727 153.917 14.7173Z" fill="black"/>
<path d="M55.9009 25.719V25.8512H57.9174V23.8347H57.7852C57.7852 24.8793 56.9389 25.719 55.9009 25.719Z" fill="black"/>
<path d="M64.3308 19.2396H57.7192V25.8512H64.3308V19.2396Z" fill="black"/>
<path d="M83.5701 19.2396H76.9585V25.8512H83.5701V19.2396Z" fill="black"/>
<path d="M89.9836 19.2396H83.3721V25.8512H89.9836V19.2396Z" fill="black"/>
<path d="M102.81 19.2396V23.6033C102.81 24.8448 101.803 25.8512 100.562 25.8512H98.4459C97.2044 25.8512 96.198 24.8448 96.198 23.6033V19.2396H102.81Z" fill="black"/>
<path d="M115.636 19.2396V25.8512H111.273C110.031 25.8512 109.025 24.8448 109.025 23.6033V19.2396H115.636Z" fill="black"/>
<path d="M122.05 19.2396H115.438V25.8512H122.05V19.2396Z" fill="black"/>
<path d="M128.463 19.2396H121.851V25.8512H128.463V19.2396Z" fill="black"/>
<path d="M134.876 19.2396H128.265V25.8512H134.876V19.2396Z" fill="black"/>
<path d="M141.289 19.2396H134.678V25.8512H141.289V19.2396Z" fill="black"/>
<path d="M141.091 19.2396H147.702V23.6033C147.702 24.8448 146.696 25.8512 145.454 25.8512H141.091V19.2396Z" fill="black"/>
<path d="M57.917 32.2644H53.5534C52.3119 32.2644 51.3054 31.258 51.3054 30.0165V27.9008C51.3054 26.6593 52.3119 25.6528 53.5534 25.6528H57.917V32.2644Z" fill="black"/>
<path d="M57.7192 25.6528H64.3308V30.0165C64.3308 31.258 63.3244 32.2644 62.0829 32.2644H57.7192V25.6528Z" fill="black"/>
<path d="M83.5698 25.6528V32.2644H79.2062C77.9647 32.2644 76.9583 31.258 76.9583 30.0165V25.6528H83.5698Z" fill="black"/>
<path d="M83.3721 25.6528H89.9836V30.0165C89.9836 31.258 88.9772 32.2644 87.7357 32.2644H83.3721V25.6528Z" fill="black"/>
<path d="M154.115 32.2644H149.752C148.51 32.2644 147.504 31.258 147.504 30.0165V27.9008C147.504 26.6593 148.51 25.6528 149.752 25.6528H154.115V32.2644Z" fill="black"/>
<path d="M153.917 32.2644V27.9008C153.917 26.6593 154.924 25.6528 156.165 25.6528H158.281C159.523 25.6528 160.529 26.6593 160.529 27.9008V32.2644H153.917Z" fill="black"/>
<path d="M70.7437 38.6777H64.1321V34.3141C64.1321 33.0726 65.1385 32.0662 66.38 32.0662H70.7437V38.6777Z" fill="black"/>
<path d="M70.5454 38.6777V34.3141C70.5454 33.0726 71.5518 32.0662 72.7933 32.0662H74.909C76.1505 32.0662 77.157 33.0726 77.157 34.3141V38.6777H70.5454Z" fill="black"/>
<path d="M102.81 38.6777H98.4459C97.2044 38.6777 96.198 37.6713 96.198 36.4298V34.3141C96.198 33.0726 97.2044 32.0662 98.4459 32.0662H102.81V38.6777Z" fill="black"/>
<path d="M102.611 38.6777V32.0662H106.975C108.216 32.0662 109.223 33.0726 109.223 34.3141V38.6777H102.611Z" fill="black"/>
<path d="M115.438 38.6777V34.3141C115.438 33.0726 116.444 32.0662 117.686 32.0662H119.802C121.043 32.0662 122.05 33.0726 122.05 34.3141V38.6777H115.438Z" fill="black"/>
<path d="M134.876 38.6777H128.264V34.3141C128.264 33.0726 129.271 32.0662 130.512 32.0662H134.876V38.6777Z" fill="black"/>
<path d="M141.289 32.0662H134.678V38.6777H141.289V32.0662Z" fill="black"/>
<path d="M141.091 38.6777V32.0662H145.454C146.696 32.0662 147.702 33.0726 147.702 34.3141V38.6777H141.091Z" fill="black"/>
<path d="M51.3057 45.0909V40.7273C51.3057 39.4858 52.3121 38.4794 53.5536 38.4794H55.6693C56.9108 38.4794 57.9172 39.4858 57.9172 40.7273V45.0909H51.3057Z" fill="black"/>
<path d="M70.7437 38.4794V42.843C70.7437 44.0845 69.7372 45.0909 68.4957 45.0909H66.38C65.1385 45.0909 64.1321 44.0845 64.1321 42.843V38.4794H70.7437Z" fill="black"/>
<path d="M76.9585 45.0909V40.7273C76.9585 39.4858 77.9649 38.4794 79.2064 38.4794H81.3221C82.5636 38.4794 83.5701 39.4858 83.5701 40.7273V45.0909H76.9585Z" fill="black"/>
<path d="M87.9668 44.9586V45.0909H89.9833V43.0743H89.8511C89.8511 44.119 89.0048 44.9586 87.9668 44.9586Z" fill="black"/>
<path d="M89.7852 45.0909V40.7273C89.7852 39.4858 90.7916 38.4794 92.0331 38.4794H94.1488C95.3903 38.4794 96.3967 39.4858 96.3967 40.7273V45.0909H89.7852Z" fill="black"/>
<path d="M100.793 44.9586V45.0909H102.81V43.0743H102.678C102.678 44.119 101.831 44.9586 100.793 44.9586Z" fill="black"/>
<path d="M109.223 38.4794H102.611V45.0909H109.223V38.4794Z" fill="black"/>
<path d="M122.05 38.4794H115.438V45.0909H122.05V38.4794Z" fill="black"/>
<path d="M134.876 38.4794H128.265V45.0909H134.876V38.4794Z" fill="black"/>
<path d="M147.702 38.4794V42.843C147.702 44.0845 146.696 45.0909 145.454 45.0909H143.339C142.097 45.0909 141.091 44.0845 141.091 42.843V38.4794H147.702Z" fill="black"/>
<path d="M153.917 45.0909V40.7273C153.917 39.4858 154.924 38.4794 156.165 38.4794H158.281C159.523 38.4794 160.529 39.4858 160.529 40.7273V45.0909H153.917Z" fill="black"/>
<path d="M49.4878 51.3718V51.5041H51.5043V49.4875H51.3721C51.3721 50.5322 50.5258 51.3718 49.4878 51.3718Z" fill="black"/>
<path d="M57.9172 44.8926H51.3057V51.5041H57.9172V44.8926Z" fill="black"/>
<path d="M83.5698 44.8926V51.5041H79.2062C77.9647 51.5041 76.9583 50.4977 76.9583 49.2562V44.8926H83.5698Z" fill="black"/>
<path d="M89.9836 44.8926H83.3721V51.5041H89.9836V44.8926Z" fill="black"/>
<path d="M96.3967 44.8926H89.7852V51.5041H96.3967V44.8926Z" fill="black"/>
<path d="M102.81 44.8926H96.1982V51.5041H102.81V44.8926Z" fill="black"/>
<path d="M109.223 44.8926H102.611V51.5041H109.223V44.8926Z" fill="black"/>
<path d="M113.62 51.3718V51.5041H115.636V49.4875H115.504C115.504 50.5322 114.658 51.3718 113.62 51.3718Z" fill="black"/>
<path d="M122.05 44.8926H115.438V51.5041H122.05V44.8926Z" fill="black"/>
<path d="M134.876 44.8926V49.2562C134.876 50.4977 133.87 51.5041 132.628 51.5041H130.512C129.271 51.5041 128.264 50.4977 128.264 49.2562V44.8926H134.876Z" fill="black"/>
<path d="M160.529 44.8926V49.2562C160.529 50.4977 159.522 51.5041 158.281 51.5041H156.165C154.924 51.5041 153.917 50.4977 153.917 49.2562V44.8926H160.529Z" fill="black"/>
<path d="M19.438 57.9174H15.0744C13.8329 57.9174 12.8264 56.9109 12.8264 55.6694V53.5537C12.8264 52.3122 13.8329 51.3058 15.0744 51.3058H19.438V57.9174Z" fill="black"/>
<path d="M19.2397 57.9174V53.5537C19.2397 52.3122 20.2462 51.3058 21.4877 51.3058H23.6034C24.8449 51.3058 25.8513 52.3122 25.8513 53.5537V57.9174H19.2397Z" fill="black"/>
<path d="M45.0908 57.9174H40.7272C39.4857 57.9174 38.4792 56.9109 38.4792 55.6694V53.5537C38.4792 52.3122 39.4857 51.3058 40.7272 51.3058H45.0908V57.9174Z" fill="black"/>
<path d="M51.5041 51.3058H44.8926V57.9174H51.5041V51.3058Z" fill="black"/>
<path d="M57.9172 51.3058H51.3057V57.9174H57.9172V51.3058Z" fill="black"/>
<path d="M64.3308 51.3058H57.7192V57.9174H64.3308V51.3058Z" fill="black"/>
<path d="M64.1323 57.9174V53.5537C64.1323 52.3122 65.1388 51.3058 66.3803 51.3058H68.496C69.7375 51.3058 70.7439 52.3122 70.7439 53.5537V57.9174H64.1323Z" fill="black"/>
<path d="M96.3965 51.3058V55.6694C96.3965 56.9109 95.3901 57.9174 94.1486 57.9174H92.0328C90.7913 57.9174 89.7849 56.9109 89.7849 55.6694V51.3058H96.3965Z" fill="black"/>
<path d="M109.223 51.3058H102.611V57.9174H109.223V51.3058Z" fill="black"/>
<path d="M115.636 51.3058H109.025V57.9174H115.636V51.3058Z" fill="black"/>
<path d="M115.438 51.3058H122.05V55.6694C122.05 56.9109 121.043 57.9174 119.802 57.9174H115.438V51.3058Z" fill="black"/>
<path d="M134.678 57.9174V53.5537C134.678 52.3122 135.684 51.3058 136.926 51.3058H139.041C140.283 51.3058 141.289 52.3122 141.289 53.5537V57.9174H134.678Z" fill="black"/>
<path d="M166.942 57.9174H162.578C161.337 57.9174 160.33 56.9109 160.33 55.6694V53.5537C160.33 52.3122 161.337 51.3058 162.578 51.3058H166.942V57.9174Z" fill="black"/>
<path d="M166.744 57.9174V51.3058H171.107C172.349 51.3058 173.355 52.3122 173.355 53.5537V57.9174H166.744Z" fill="black"/>
<path d="M179.57 53.1967V56.0331C179.57 57.0777 180.417 57.9174 181.461 57.9174H184.298C185.349 57.9174 186.188 57.0711 186.188 56.0264V53.1967C186.182 52.1455 185.336 51.3058 184.291 51.3058H181.461C180.417 51.3058 179.57 52.1521 179.57 53.1967Z" fill="black"/>
<path d="M51.5039 57.719V64.3306H47.1403C45.8988 64.3306 44.8923 63.3241 44.8923 62.0826V57.719H51.5039Z" fill="black"/>
<path d="M57.9172 57.719H51.3057V64.3306H57.9172V57.719Z" fill="black"/>
<path d="M57.7192 57.719H64.3308V62.0826C64.3308 63.3241 63.3244 64.3306 62.0829 64.3306H57.7192V57.719Z" fill="black"/>
<path d="M83.3721 59.6099V62.4463C83.3721 63.4909 84.2184 64.3306 85.263 64.3306H88.0993C89.1506 64.3306 89.9903 63.4843 89.9903 62.4397V59.6099C89.9836 58.5587 89.1374 57.719 88.0927 57.719H85.263C84.2184 57.719 83.3721 58.5653 83.3721 59.6099Z" fill="black"/>
<path d="M100.793 64.1984V64.3306H102.81V62.3141H102.678C102.678 63.3587 101.831 64.1984 100.793 64.1984Z" fill="black"/>
<path d="M109.223 57.719H102.611V64.3306H109.223V57.719Z" fill="black"/>
<path d="M141.289 57.719V64.3306H136.925C135.684 64.3306 134.677 63.3241 134.677 62.0826V57.719H141.289Z" fill="black"/>
<path d="M147.702 57.719H141.091V64.3306H147.702V57.719Z" fill="black"/>
<path d="M147.504 64.3306V57.719H151.868C153.109 57.719 154.115 58.7254 154.115 59.9669V64.3306H147.504Z" fill="black"/>
<path d="M173.355 57.719V62.0826C173.355 63.3241 172.349 64.3306 171.107 64.3306H168.991C167.75 64.3306 166.743 63.3241 166.743 62.0826V57.719H173.355Z" fill="black"/>
<path d="M192.595 64.3306H185.983V59.9669C185.983 58.7254 186.99 57.719 188.231 57.719H192.595V64.3306Z" fill="black"/>
<path d="M192.396 64.3306V59.9669C192.396 58.7254 193.403 57.719 194.644 57.719H196.76C198.002 57.719 199.008 58.7254 199.008 59.9669V64.3306H192.396Z" fill="black"/>
<path d="M0 70.7438L0 66.3801C0 65.1386 1.00643 64.1322 2.24793 64.1322H4.36364C5.60514 64.1322 6.61157 65.1386 6.61157 66.3801V70.7438H0Z" fill="black"/>
<path d="M19.438 70.7438H12.8264V66.3801C12.8264 65.1386 13.8329 64.1322 15.0744 64.1322H19.438V70.7438Z" fill="black"/>
<path d="M25.8513 64.1322H19.2397V70.7438H25.8513V64.1322Z" fill="black"/>
<path d="M32.2644 64.1322H25.6528V70.7438H32.2644V64.1322Z" fill="black"/>
<path d="M38.6775 64.1322H32.0659V70.7438H38.6775V64.1322Z" fill="black"/>
<path d="M38.4795 70.7438V66.3801C38.4795 65.1386 39.4859 64.1322 40.7274 64.1322H42.8431C44.0846 64.1322 45.0911 65.1386 45.0911 66.3801V70.7438H38.4795Z" fill="black"/>
<path d="M57.9172 64.1322H51.3057V70.7438H57.9172V64.1322Z" fill="black"/>
<path d="M87.9668 70.6116V70.7438H89.9833V68.7273H89.8511C89.8511 69.7719 89.0048 70.6116 87.9668 70.6116Z" fill="black"/>
<path d="M96.3965 70.7438H89.7849V66.3801C89.7849 65.1386 90.7913 64.1322 92.0328 64.1322H96.3965V70.7438Z" fill="black"/>
<path d="M102.81 64.1322H96.1982V70.7438H102.81V64.1322Z" fill="black"/>
<path d="M102.611 64.1322H109.223V68.4958C109.223 69.7373 108.216 70.7438 106.975 70.7438H102.611V64.1322Z" fill="black"/>
<path d="M147.702 64.1322V70.7438H143.339C142.097 70.7438 141.091 69.7373 141.091 68.4958V64.1322H147.702Z" fill="black"/>
<path d="M154.115 64.1322H147.504V70.7438H154.115V64.1322Z" fill="black"/>
<path d="M160.331 66.0231V68.8595C160.331 69.9041 161.177 70.7438 162.221 70.7438H165.058C166.109 70.7438 166.949 69.8975 166.949 68.8529V66.0231C166.942 64.9719 166.096 64.1322 165.051 64.1322H162.221C161.177 64.1322 160.331 64.9785 160.331 66.0231Z" fill="black"/>
<path d="M184.165 70.6116V70.7438H186.182V68.7273H186.049C186.049 69.7719 185.203 70.6116 184.165 70.6116Z" fill="black"/>
<path d="M192.595 64.1322H185.983V70.7438H192.595V64.1322Z" fill="black"/>
<path d="M205.421 70.7438H201.058C199.816 70.7438 198.81 69.7373 198.81 68.4958V66.3801C198.81 65.1386 199.816 64.1322 201.058 64.1322H205.421V70.7438Z" fill="black"/>
<path d="M205.223 70.7438V64.1322H209.587C210.828 64.1322 211.835 65.1386 211.835 66.3801V70.7438H205.223Z" fill="black"/>
<path d="M6.61133 70.5454V74.909C6.61133 76.1505 5.60489 77.157 4.36339 77.157H2.24769C1.00619 77.157 -0.00024271 76.1505 -0.00024271 74.909V70.5454H6.61133Z" fill="black"/>
<path d="M19.438 70.5454V74.909C19.438 76.1505 18.4316 77.157 17.1901 77.157H15.0744C13.8329 77.157 12.8264 76.1505 12.8264 74.909V70.5454H19.438Z" fill="black"/>
<path d="M57.917 70.5454V77.157H53.5534C52.3119 77.157 51.3054 76.1505 51.3054 74.909V70.5454H57.917Z" fill="black"/>
<path d="M57.7192 77.157V70.5454H62.0829C63.3244 70.5454 64.3308 71.5518 64.3308 72.7933V77.157H57.7192Z" fill="black"/>
<path d="M83.5698 77.157H79.2062C77.9647 77.157 76.9583 76.1505 76.9583 74.909V72.7933C76.9583 71.5518 77.9647 70.5454 79.2062 70.5454H83.5698V77.157Z" fill="black"/>
<path d="M89.9836 70.5454H83.3721V77.157H89.9836V70.5454Z" fill="black"/>
<path d="M89.7852 70.5454H96.3967V74.909C96.3967 76.1505 95.3903 77.157 94.1488 77.157H89.7852V70.5454Z" fill="black"/>
<path d="M115.438 72.4363V75.2727C115.438 76.3173 116.284 77.157 117.329 77.157H120.165C121.217 77.157 122.056 76.3107 122.056 75.2661V72.4363C122.05 71.3851 121.203 70.5454 120.159 70.5454H117.329C116.284 70.5454 115.438 71.3917 115.438 72.4363Z" fill="black"/>
<path d="M154.115 70.5454H147.504V77.157H154.115V70.5454Z" fill="black"/>
<path d="M179.769 77.157H175.405C174.163 77.157 173.157 76.1505 173.157 74.909V72.7933C173.157 71.5518 174.163 70.5454 175.405 70.5454H179.769V77.157Z" fill="black"/>
<path d="M186.182 70.5454H179.57V77.157H186.182V70.5454Z" fill="black"/>
<path d="M192.595 70.5454H185.983V77.157H192.595V70.5454Z" fill="black"/>
<path d="M211.835 70.5454H205.223V77.157H211.835V70.5454Z" fill="black"/>
<path d="M23.8345 83.438V83.5702H25.851V81.5537H25.7188C25.7188 82.5983 24.8725 83.438 23.8345 83.438Z" fill="black"/>
<path d="M25.6528 83.5703V79.2067C25.6528 77.9652 26.6593 76.9587 27.9008 76.9587H30.0165C31.258 76.9587 32.2644 77.9652 32.2644 79.2067V83.5703H25.6528Z" fill="black"/>
<path d="M45.0908 83.5703H40.7272C39.4857 83.5703 38.4792 82.5639 38.4792 81.3224V79.2067C38.4792 77.9652 39.4857 76.9587 40.7272 76.9587H45.0908V83.5703Z" fill="black"/>
<path d="M44.8926 83.5703V79.2067C44.8926 77.9652 45.899 76.9587 47.1405 76.9587H49.2562C50.4977 76.9587 51.5041 77.9652 51.5041 79.2067V83.5703H44.8926Z" fill="black"/>
<path d="M64.3306 76.9587V81.3224C64.3306 82.5639 63.3241 83.5703 62.0826 83.5703H59.9669C58.7254 83.5703 57.719 82.5639 57.719 81.3224V76.9587H64.3306Z" fill="black"/>
<path d="M102.81 83.5703H98.4459C97.2044 83.5703 96.198 82.5639 96.198 81.3224V79.2067C96.198 77.9652 97.2044 76.9587 98.4459 76.9587H102.81V83.5703Z" fill="black"/>
<path d="M109.223 76.9587H102.611V83.5703H109.223V76.9587Z" fill="black"/>
<path d="M109.025 83.5703V79.2067C109.025 77.9652 110.031 76.9587 111.273 76.9587H113.389C114.63 76.9587 115.636 77.9652 115.636 79.2067V83.5703H109.025Z" fill="black"/>
<path d="M120.033 83.438V83.5702H122.05V81.5537H121.918C121.918 82.5983 121.071 83.438 120.033 83.438Z" fill="black"/>
<path d="M121.851 83.5703V79.2067C121.851 77.9652 122.858 76.9587 124.099 76.9587H126.215C127.456 76.9587 128.463 77.9652 128.463 79.2067V83.5703H121.851Z" fill="black"/>
<path d="M147.702 83.5703H141.091V79.2067C141.091 77.9652 142.097 76.9587 143.339 76.9587H147.702V83.5703Z" fill="black"/>
<path d="M154.115 76.9587H147.504V83.5703H154.115V76.9587Z" fill="black"/>
<path d="M160.331 78.8496V81.686C160.331 82.7306 161.177 83.5703 162.221 83.5703H165.058C166.109 83.5703 166.949 82.724 166.949 81.6794V78.8496C166.942 77.7984 166.096 76.9587 165.051 76.9587H162.221C161.177 76.9587 160.331 77.805 160.331 78.8496Z" fill="black"/>
<path d="M186.182 76.9587V83.5703H181.818C180.577 83.5703 179.57 82.5639 179.57 81.3224V76.9587H186.182Z" fill="black"/>
<path d="M185.983 76.9587H192.595V81.3224C192.595 82.5639 191.589 83.5703 190.347 83.5703H185.983V76.9587Z" fill="black"/>
<path d="M203.405 83.438V83.5702H205.421V81.5537H205.289C205.289 82.5983 204.443 83.438 203.405 83.438Z" fill="black"/>
<path d="M211.835 76.9587H205.223V83.5703H211.835V76.9587Z" fill="black"/>
<path d="M4.59521 89.8512V89.9834H6.61174V87.9669H6.47951C6.47951 89.0115 5.63323 89.8512 4.59521 89.8512Z" fill="black"/>
<path d="M13.0244 89.9835H6.41284L6.41284 85.6199C6.41284 84.3784 7.41928 83.3719 8.66078 83.3719H13.0244V89.9835Z" fill="black"/>
<path d="M19.4382 83.3719H12.8267V89.9835H19.4382V83.3719Z" fill="black"/>
<path d="M25.8513 83.3719H19.2397V89.9835H25.8513V83.3719Z" fill="black"/>
<path d="M32.2644 83.3719H25.6528V89.9835H32.2644V83.3719Z" fill="black"/>
<path d="M51.3057 85.2629V88.0992C51.3057 89.1438 52.1519 89.9835 53.1966 89.9835H56.0329C57.0842 89.9835 57.9238 89.1372 57.9238 88.0926V85.2629C57.9172 84.2116 57.071 83.3719 56.0263 83.3719H53.1966C52.1519 83.3719 51.3057 84.2182 51.3057 85.2629Z" fill="black"/>
<path d="M70.7437 89.9835H66.38C65.1385 89.9835 64.1321 88.9771 64.1321 87.7356V85.6199C64.1321 84.3784 65.1385 83.3719 66.38 83.3719H70.7437V89.9835Z" fill="black"/>
<path d="M70.5454 89.9835V85.6199C70.5454 84.3784 71.5518 83.3719 72.7933 83.3719H74.909C76.1505 83.3719 77.157 84.3784 77.157 85.6199V89.9835H70.5454Z" fill="black"/>
<path d="M83.3721 85.2629V88.0992C83.3721 89.1438 84.2184 89.9835 85.263 89.9835H88.0993C89.1506 89.9835 89.9903 89.1372 89.9903 88.0926V85.2629C89.9836 84.2116 89.1374 83.3719 88.0927 83.3719H85.263C84.2184 83.3719 83.3721 84.2182 83.3721 85.2629Z" fill="black"/>
<path d="M122.049 89.9835H117.686C116.444 89.9835 115.438 88.9771 115.438 87.7356V85.6199C115.438 84.3784 116.444 83.3719 117.686 83.3719H122.049V89.9835Z" fill="black"/>
<path d="M128.463 83.3719H121.851V89.9835H128.463V83.3719Z" fill="black"/>
<path d="M128.265 89.9835V83.3719H132.628C133.87 83.3719 134.876 84.3784 134.876 85.6199V89.9835H128.265Z" fill="black"/>
<path d="M147.702 83.3719H141.091V89.9835H147.702V83.3719Z" fill="black"/>
<path d="M154.115 83.3719H147.504V89.9835H154.115V83.3719Z" fill="black"/>
<path d="M153.917 89.9835V83.3719H158.281C159.523 83.3719 160.529 84.3784 160.529 85.6199V89.9835H153.917Z" fill="black"/>
<path d="M164.926 89.8512V89.9834H166.942V87.9669H166.81C166.81 89.0115 165.964 89.8512 164.926 89.8512Z" fill="black"/>
<path d="M166.744 89.9835V85.6199C166.744 84.3784 167.75 83.3719 168.992 83.3719H171.107C172.349 83.3719 173.355 84.3784 173.355 85.6199V89.9835H166.744Z" fill="black"/>
<path d="M199.008 89.9835H194.644C193.403 89.9835 192.396 88.9771 192.396 87.7356V85.6199C192.396 84.3784 193.403 83.3719 194.644 83.3719H199.008V89.9835Z" fill="black"/>
<path d="M205.422 83.3719H198.81V89.9835H205.422V83.3719Z" fill="black"/>
<path d="M205.223 83.3719H211.835V87.7356C211.835 88.9771 210.828 89.9835 209.587 89.9835H205.223V83.3719Z" fill="black"/>
<path d="M6.61133 96.3967H2.24769C1.00619 96.3967 -0.00024271 95.3903 -0.00024271 94.1488L-0.00024271 92.0331C-0.00024271 90.7916 1.00619 89.7852 2.24769 89.7852H6.61133L6.61133 96.3967Z" fill="black"/>
<path d="M13.0247 89.7852H6.41309V96.3967H13.0247V89.7852Z" fill="black"/>
<path d="M25.8511 89.7852V96.3967H21.4874C20.2459 96.3967 19.2395 95.3903 19.2395 94.1488V89.7852H25.8511Z" fill="black"/>
<path d="M25.6528 89.7852H32.2644V94.1488C32.2644 95.3903 31.258 96.3967 30.0165 96.3967H25.6528V89.7852Z" fill="black"/>
<path d="M38.4795 91.6761V94.5124C38.4795 95.5571 39.3258 96.3967 40.3704 96.3967H43.2068C44.258 96.3967 45.0977 95.5504 45.0977 94.5058V91.6761C45.0911 90.6248 44.2448 89.7852 43.2002 89.7852H40.3704C39.3258 89.7852 38.4795 90.6314 38.4795 91.6761Z" fill="black"/>
<path d="M57.7192 91.6761V94.5124C57.7192 95.5571 58.5655 96.3967 59.6101 96.3967H62.4465C63.4978 96.3967 64.3374 95.5504 64.3374 94.5058V91.6761C64.3308 90.6248 63.4845 89.7852 62.4399 89.7852H59.6101C58.5655 89.7852 57.7192 90.6314 57.7192 91.6761Z" fill="black"/>
<path d="M76.9585 91.6761V94.5124C76.9585 95.5571 77.8048 96.3967 78.8494 96.3967H81.6858C82.737 96.3967 83.5767 95.5504 83.5767 94.5058V91.6761C83.5701 90.6248 82.7238 89.7852 81.6792 89.7852H78.8494C77.8048 89.7852 76.9585 90.6314 76.9585 91.6761Z" fill="black"/>
<path d="M102.611 91.6761V94.5124C102.611 95.5571 103.458 96.3967 104.502 96.3967H107.339C108.39 96.3967 109.23 95.5504 109.23 94.5058V91.6761C109.223 90.6248 108.377 89.7852 107.332 89.7852H104.502C103.458 89.7852 102.611 90.6314 102.611 91.6761Z" fill="black"/>
<path d="M134.876 89.7852V94.1488C134.876 95.3903 133.87 96.3967 132.628 96.3967H130.512C129.271 96.3967 128.264 95.3903 128.264 94.1488V89.7852H134.876Z" fill="black"/>
<path d="M139.273 96.2644V96.3967H141.289V94.3801H141.157C141.157 95.4248 140.311 96.2644 139.273 96.2644Z" fill="black"/>
<path d="M147.702 89.7852H141.091V96.3967H147.702V89.7852Z" fill="black"/>
<path d="M160.529 89.7852V96.3967H156.165C154.924 96.3967 153.917 95.3903 153.917 94.1488V89.7852H160.529Z" fill="black"/>
<path d="M166.942 89.7852H160.331V96.3967H166.942V89.7852Z" fill="black"/>
<path d="M173.355 89.7852H166.744V96.3967H173.355V89.7852Z" fill="black"/>
<path d="M177.752 96.2644V96.3967H179.768V94.3801H179.636C179.636 95.4248 178.79 96.2644 177.752 96.2644Z" fill="black"/>
<path d="M186.182 96.3967H179.57V92.0331C179.57 90.7916 180.577 89.7852 181.818 89.7852H186.182V96.3967Z" fill="black"/>
<path d="M185.983 96.3967V89.7852H190.347C191.589 89.7852 192.595 90.7916 192.595 92.0331V96.3967H185.983Z" fill="black"/>
<path d="M13.0244 96.1984V100.562C13.0244 101.804 12.018 102.81 10.7765 102.81H8.66078C7.41928 102.81 6.41284 101.804 6.41284 100.562V96.1984H13.0244Z" fill="black"/>
<path d="M32.0659 98.0893V100.926C32.0659 101.97 32.9122 102.81 33.9568 102.81H36.7932C37.8444 102.81 38.6841 101.964 38.6841 100.919V98.0893C38.6775 97.038 37.8312 96.1984 36.7866 96.1984H33.9568C32.9122 96.1984 32.0659 97.0446 32.0659 98.0893Z" fill="black"/>
<path d="M51.3057 98.0893V100.926C51.3057 101.97 52.1519 102.81 53.1966 102.81H56.0329C57.0842 102.81 57.9238 101.964 57.9238 100.919V98.0893C57.9172 97.038 57.071 96.1984 56.0263 96.1984H53.1966C52.1519 96.1984 51.3057 97.0446 51.3057 98.0893Z" fill="black"/>
<path d="M70.5454 98.0893V100.926C70.5454 101.97 71.3917 102.81 72.4363 102.81H75.2727C76.3239 102.81 77.1636 101.964 77.1636 100.919V98.0893C77.157 97.038 76.3107 96.1984 75.2661 96.1984H72.4363C71.3917 96.1984 70.5454 97.0446 70.5454 98.0893Z" fill="black"/>
<path d="M89.7852 98.0893V100.926C89.7852 101.97 90.6314 102.81 91.6761 102.81H94.5124C95.5637 102.81 96.4033 101.964 96.4033 100.919V98.0893C96.3967 97.038 95.5504 96.1984 94.5058 96.1984H91.6761C90.6314 96.1984 89.7852 97.0446 89.7852 98.0893Z" fill="black"/>
<path d="M107.207 102.678V102.81H109.223V100.793H109.091C109.091 101.838 108.245 102.678 107.207 102.678Z" fill="black"/>
<path d="M109.025 102.81V98.4463C109.025 97.2048 110.031 96.1984 111.273 96.1984H113.389C114.63 96.1984 115.636 97.2048 115.636 98.4463V102.81H109.025Z" fill="black"/>
<path d="M121.851 98.0893V100.926C121.851 101.97 122.697 102.81 123.742 102.81H126.578C127.63 102.81 128.469 101.964 128.469 100.919V98.0893C128.463 97.038 127.616 96.1984 126.572 96.1984H123.742C122.697 96.1984 121.851 97.0446 121.851 98.0893Z" fill="black"/>
<path d="M141.289 102.81H136.925C135.684 102.81 134.677 101.804 134.677 100.562V98.4463C134.677 97.2048 135.684 96.1984 136.925 96.1984H141.289V102.81Z" fill="black"/>
<path d="M147.702 96.1984H141.091V102.81H147.702V96.1984Z" fill="black"/>
<path d="M147.504 102.81V96.1984H151.868C153.109 96.1984 154.115 97.2048 154.115 98.4463V102.81H147.504Z" fill="black"/>
<path d="M173.355 96.1984H166.744V102.81H173.355V96.1984Z" fill="black"/>
<path d="M179.769 96.1984H173.157V102.81H179.769V96.1984Z" fill="black"/>
<path d="M186.182 96.1984H179.57V102.81H186.182V96.1984Z" fill="black"/>
<path d="M192.595 96.1984H185.983V102.81H192.595V96.1984Z" fill="black"/>
<path d="M192.396 102.81V98.4463C192.396 97.2048 193.403 96.1984 194.644 96.1984H196.76C198.002 96.1984 199.008 97.2048 199.008 98.4463V102.81H192.396Z" fill="black"/>
<path d="M205.223 102.81V98.4463C205.223 97.2048 206.23 96.1984 207.471 96.1984H209.587C210.828 96.1984 211.835 97.2048 211.835 98.4463V102.81H205.223Z" fill="black"/>
<path d="M0 104.502V107.339C0 108.383 0.846281 109.223 1.89091 109.223H4.72727C5.77851 109.223 6.61818 108.377 6.61818 107.332V104.502C6.61157 103.451 5.76529 102.612 4.72066 102.612H1.89091C0.846281 102.612 0 103.458 0 104.502Z" fill="black"/>
<path d="M45.0908 109.223H40.7272C39.4857 109.223 38.4792 108.217 38.4792 106.975V104.86C38.4792 103.618 39.4857 102.612 40.7272 102.612H45.0908V109.223Z" fill="black"/>
<path d="M44.8926 109.223V102.612H49.2562C50.4977 102.612 51.5041 103.618 51.5041 104.86V109.223H44.8926Z" fill="black"/>
<path d="M64.1323 104.502V107.339C64.1323 108.383 64.9786 109.223 66.0232 109.223H68.8596C69.9108 109.223 70.7505 108.377 70.7505 107.332V104.502C70.7439 103.451 69.8976 102.612 68.853 102.612H66.0232C64.9786 102.612 64.1323 103.458 64.1323 104.502Z" fill="black"/>
<path d="M75.1406 109.091V109.223H77.1572V107.207H77.0249C77.0249 108.251 76.1786 109.091 75.1406 109.091Z" fill="black"/>
<path d="M76.9585 109.223V104.86C76.9585 103.618 77.9649 102.612 79.2064 102.612H81.3221C82.5636 102.612 83.5701 103.618 83.5701 104.86V109.223H76.9585Z" fill="black"/>
<path d="M109.223 109.223H104.859C103.618 109.223 102.611 108.217 102.611 106.975V104.86C102.611 103.618 103.618 102.612 104.859 102.612H109.223V109.223Z" fill="black"/>
<path d="M109.025 102.612H115.636V106.975C115.636 108.217 114.63 109.223 113.389 109.223H109.025V102.612Z" fill="black"/>
<path d="M147.702 102.612H141.091V109.223H147.702V102.612Z" fill="black"/>
<path d="M154.115 102.612H147.504V109.223H154.115V102.612Z" fill="black"/>
<path d="M158.512 109.091V109.223H160.529V107.207H160.397C160.397 108.251 159.55 109.091 158.512 109.091Z" fill="black"/>
<path d="M166.942 109.223H160.33V104.86C160.33 103.618 161.337 102.612 162.578 102.612H166.942V109.223Z" fill="black"/>
<path d="M166.744 102.612H173.355V106.975C173.355 108.217 172.349 109.223 171.107 109.223H166.744V102.612Z" fill="black"/>
<path d="M186.182 102.612H179.57V109.223H186.182V102.612Z" fill="black"/>
<path d="M203.405 109.091V109.223H205.421V107.207H205.289C205.289 108.251 204.443 109.091 203.405 109.091Z" fill="black"/>
<path d="M211.835 102.612H205.223V109.223H211.835V102.612Z" fill="black"/>
<path d="M13.0244 115.636H6.41284L6.41284 111.273C6.41284 110.031 7.41928 109.025 8.66078 109.025H13.0244V115.636Z" fill="black"/>
<path d="M19.4382 109.025H12.8267V115.636H19.4382V109.025Z" fill="black"/>
<path d="M19.2397 115.636V109.025H23.6034C24.8449 109.025 25.8513 110.031 25.8513 111.273V115.636H19.2397Z" fill="black"/>
<path d="M51.5041 109.025H44.8926V115.636H51.5041V109.025Z" fill="black"/>
<path d="M57.9172 109.025H51.3057V115.636H57.9172V109.025Z" fill="black"/>
<path d="M57.7192 115.636V111.273C57.7192 110.031 58.7257 109.025 59.9672 109.025H62.0829C63.3244 109.025 64.3308 110.031 64.3308 111.273V115.636H57.7192Z" fill="black"/>
<path d="M77.1567 115.636H72.7931C71.5516 115.636 70.5452 114.63 70.5452 113.388V111.273C70.5452 110.031 71.5516 109.025 72.7931 109.025H77.1567V115.636Z" fill="black"/>
<path d="M83.5701 109.025H76.9585V115.636H83.5701V109.025Z" fill="black"/>
<path d="M89.9836 109.025H83.3721V115.636H89.9836V109.025Z" fill="black"/>
<path d="M89.7852 115.636V109.025H94.1488C95.3903 109.025 96.3967 110.031 96.3967 111.273V115.636H89.7852Z" fill="black"/>
<path d="M122.049 115.636H117.686C116.444 115.636 115.438 114.63 115.438 113.388V111.273C115.438 110.031 116.444 109.025 117.686 109.025H122.049V115.636Z" fill="black"/>
<path d="M128.463 109.025H121.851V115.636H128.463V109.025Z" fill="black"/>
<path d="M128.265 115.636V111.273C128.265 110.031 129.271 109.025 130.513 109.025H132.628C133.87 109.025 134.876 110.031 134.876 111.273V115.636H128.265Z" fill="black"/>
<path d="M147.702 109.025V115.636H143.339C142.097 115.636 141.091 114.63 141.091 113.388V109.025H147.702Z" fill="black"/>
<path d="M154.115 109.025H147.504V115.636H154.115V109.025Z" fill="black"/>
<path d="M160.529 109.025H153.917V115.636H160.529V109.025Z" fill="black"/>
<path d="M166.942 109.025H160.331V115.636H166.942V109.025Z" fill="black"/>
<path d="M179.769 115.636H173.157V111.273C173.157 110.031 174.163 109.025 175.405 109.025H179.769V115.636Z" fill="black"/>
<path d="M186.182 109.025H179.57V115.636H186.182V109.025Z" fill="black"/>
<path d="M185.983 115.636V111.273C185.983 110.031 186.99 109.025 188.231 109.025H190.347C191.589 109.025 192.595 110.031 192.595 111.273V115.636H185.983Z" fill="black"/>
<path d="M196.992 115.504V115.636H199.008V113.62H198.876C198.876 114.665 198.03 115.504 196.992 115.504Z" fill="black"/>
<path d="M205.421 115.636H198.81V111.273C198.81 110.031 199.816 109.025 201.058 109.025H205.421V115.636Z" fill="black"/>
<path d="M205.223 109.025H211.835V113.388C211.835 114.63 210.828 115.636 209.587 115.636H205.223V109.025Z" fill="black"/>
<path d="M13.0244 115.438V119.802C13.0244 121.043 12.018 122.05 10.7765 122.05H8.66078C7.41928 122.05 6.41284 121.043 6.41284 119.802V115.438H13.0244Z" fill="black"/>
<path d="M25.8513 115.438H19.2397V122.05H25.8513V115.438Z" fill="black"/>
<path d="M25.6528 122.05V115.438H30.0165C31.258 115.438 32.2644 116.444 32.2644 117.686V122.05H25.6528Z" fill="black"/>
<path d="M45.0908 122.05H40.7272C39.4857 122.05 38.4792 121.043 38.4792 119.802V117.686C38.4792 116.444 39.4857 115.438 40.7272 115.438H45.0908V122.05Z" fill="black"/>
<path d="M51.5041 115.438H44.8926V122.05H51.5041V115.438Z" fill="black"/>
<path d="M57.9172 115.438H51.3057V122.05H57.9172V115.438Z" fill="black"/>
<path d="M64.1323 122.05V117.686C64.1323 116.444 65.1388 115.438 66.3803 115.438H68.496C69.7375 115.438 70.7439 116.444 70.7439 117.686V122.05H64.1323Z" fill="black"/>
<path d="M83.5698 115.438V119.802C83.5698 121.043 82.5634 122.05 81.3219 122.05H79.2062C77.9647 122.05 76.9583 121.043 76.9583 119.802V115.438H83.5698Z" fill="black"/>
<path d="M96.3965 115.438V119.802C96.3965 121.043 95.3901 122.05 94.1486 122.05H92.0328C90.7913 122.05 89.7849 121.043 89.7849 119.802V115.438H96.3965Z" fill="black"/>
<path d="M102.611 117.329V120.165C102.611 121.21 103.458 122.05 104.502 122.05H107.339C108.39 122.05 109.23 121.203 109.23 120.159V117.329C109.223 116.278 108.377 115.438 107.332 115.438H104.502C103.458 115.438 102.611 116.284 102.611 117.329Z" fill="black"/>
<path d="M128.463 115.438H121.851V122.05H128.463V115.438Z" fill="black"/>
<path d="M166.942 115.438H160.331V122.05H166.942V115.438Z" fill="black"/>
<path d="M179.769 115.438V122.05H175.405C174.163 122.05 173.157 121.043 173.157 119.802V115.438H179.769Z" fill="black"/>
<path d="M186.182 115.438H179.57V122.05H186.182V115.438Z" fill="black"/>
<path d="M199.008 122.05H194.644C193.403 122.05 192.396 121.043 192.396 119.802V117.686C192.396 116.444 193.403 115.438 194.644 115.438H199.008V122.05Z" fill="black"/>
<path d="M205.422 115.438H198.81V122.05H205.422V115.438Z" fill="black"/>
<path d="M0 128.463L0 124.099C0 122.858 1.00643 121.851 2.24793 121.851H4.36364C5.60514 121.851 6.61157 122.858 6.61157 124.099V128.463H0Z" fill="black"/>
<path d="M17.4214 128.331V128.463H19.4379V126.446H19.3057C19.3057 127.491 18.4594 128.331 17.4214 128.331Z" fill="black"/>
<path d="M25.8513 121.851H19.2397V128.463H25.8513V121.851Z" fill="black"/>
<path d="M25.6528 121.851H32.2644V126.215C32.2644 127.456 31.258 128.463 30.0165 128.463H25.6528V121.851Z" fill="black"/>
<path d="M57.917 121.851V126.215C57.917 127.456 56.9106 128.463 55.6691 128.463H53.5534C52.3119 128.463 51.3054 127.456 51.3054 126.215V121.851H57.917Z" fill="black"/>
<path d="M70.7437 121.851V128.463H66.38C65.1385 128.463 64.1321 127.456 64.1321 126.215V121.851H70.7437Z" fill="black"/>
<path d="M70.5454 128.463V121.851H74.909C76.1505 121.851 77.157 122.858 77.157 124.099V128.463H70.5454Z" fill="black"/>
<path d="M83.3721 128.463V124.099C83.3721 122.858 84.3785 121.851 85.62 121.851H87.7357C88.9772 121.851 89.9836 122.858 89.9836 124.099V128.463H83.3721Z" fill="black"/>
<path d="M96.1982 123.742V126.578C96.1982 127.623 97.0445 128.463 98.0892 128.463H100.926C101.977 128.463 102.816 127.616 102.816 126.572V123.742C102.81 122.691 101.964 121.851 100.919 121.851H98.0892C97.0445 121.851 96.1982 122.697 96.1982 123.742Z" fill="black"/>
<path d="M122.049 128.463H115.438V124.099C115.438 122.858 116.444 121.851 117.686 121.851H122.049V128.463Z" fill="black"/>
<path d="M128.463 121.851H121.851V128.463H128.463V121.851Z" fill="black"/>
<path d="M147.702 128.463H143.339C142.097 128.463 141.091 127.456 141.091 126.215V124.099C141.091 122.858 142.097 121.851 143.339 121.851H147.702V128.463Z" fill="black"/>
<path d="M147.504 128.463V124.099C147.504 122.858 148.51 121.851 149.752 121.851H151.868C153.109 121.851 154.115 122.858 154.115 124.099V128.463H147.504Z" fill="black"/>
<path d="M166.942 121.851V128.463H162.578C161.337 128.463 160.33 127.456 160.33 126.215V121.851H166.942Z" fill="black"/>
<path d="M166.744 128.463V124.099C166.744 122.858 167.75 121.851 168.992 121.851H171.107C172.349 121.851 173.355 122.858 173.355 124.099V128.463H166.744Z" fill="black"/>
<path d="M186.182 121.851H179.57V128.463H186.182V121.851Z" fill="black"/>
<path d="M205.421 121.851V128.463H201.058C199.816 128.463 198.81 127.456 198.81 126.215V121.851H205.421Z" fill="black"/>
<path d="M205.223 128.463V121.851H209.587C210.828 121.851 211.835 122.858 211.835 124.099V128.463H205.223Z" fill="black"/>
<path d="M6.61157 128.264H0V134.876H6.61157V128.264Z" fill="black"/>
<path d="M11.0083 134.744V134.876H13.0248V132.859H12.8926C12.8926 133.904 12.0463 134.744 11.0083 134.744Z" fill="black"/>
<path d="M19.438 134.876H12.8264V130.512C12.8264 129.271 13.8329 128.264 15.0744 128.264H19.438V134.876Z" fill="black"/>
<path d="M25.8513 128.264H19.2397V134.876H25.8513V128.264Z" fill="black"/>
<path d="M45.0908 134.876H40.7272C39.4857 134.876 38.4792 133.87 38.4792 132.628V130.512C38.4792 129.271 39.4857 128.264 40.7272 128.264H45.0908V134.876Z" fill="black"/>
<path d="M44.8926 134.876V128.264H49.2562C50.4977 128.264 51.5041 129.271 51.5041 130.512V134.876H44.8926Z" fill="black"/>
<path d="M55.9009 134.744V134.876H57.9174V132.859H57.7852C57.7852 133.904 56.9389 134.744 55.9009 134.744Z" fill="black"/>
<path d="M57.7192 134.876V130.512C57.7192 129.271 58.7257 128.264 59.9672 128.264H62.0829C63.3244 128.264 64.3308 129.271 64.3308 130.512V134.876H57.7192Z" fill="black"/>
<path d="M77.157 128.264H70.5454V134.876H77.157V128.264Z" fill="black"/>
<path d="M89.9834 128.264V134.876H85.6198C84.3783 134.876 83.3718 133.87 83.3718 132.628V128.264H89.9834Z" fill="black"/>
<path d="M89.7852 134.876V130.512C89.7852 129.271 90.7916 128.264 92.0331 128.264H94.1488C95.3903 128.264 96.3967 129.271 96.3967 130.512V134.876H89.7852Z" fill="black"/>
<path d="M113.62 134.744V134.876H115.636V132.859H115.504C115.504 133.904 114.658 134.744 113.62 134.744Z" fill="black"/>
<path d="M122.05 128.264H115.438V134.876H122.05V128.264Z" fill="black"/>
<path d="M128.463 128.264H121.851V134.876H128.463V128.264Z" fill="black"/>
<path d="M134.876 128.264H128.265V134.876H134.876V128.264Z" fill="black"/>
<path d="M134.678 134.876V130.512C134.678 129.271 135.684 128.264 136.926 128.264H139.041C140.283 128.264 141.289 129.271 141.289 130.512V134.876H134.678Z" fill="black"/>
<path d="M186.182 128.264V132.628C186.182 133.87 185.175 134.876 183.934 134.876H181.818C180.577 134.876 179.57 133.87 179.57 132.628V128.264H186.182Z" fill="black"/>
<path d="M211.835 128.264H205.223V134.876H211.835V128.264Z" fill="black"/>
<path d="M6.61133 134.678V141.289H2.24769C1.00619 141.289 -0.00024271 140.283 -0.00024271 139.041V134.678H6.61133Z" fill="black"/>
<path d="M13.0247 134.678H6.41309V141.289H13.0247V134.678Z" fill="black"/>
<path d="M19.4382 134.678H12.8267V141.289H19.4382V134.678Z" fill="black"/>
<path d="M19.2397 134.678H25.8513V139.041C25.8513 140.283 24.8449 141.289 23.6034 141.289H19.2397V134.678Z" fill="black"/>
<path d="M51.5039 134.678V141.289H47.1403C45.8988 141.289 44.8923 140.283 44.8923 139.041V134.678H51.5039Z" fill="black"/>
<path d="M57.9172 134.678H51.3057V141.289H57.9172V134.678Z" fill="black"/>
<path d="M64.3308 134.678H57.7192V141.289H64.3308V134.678Z" fill="black"/>
<path d="M77.157 134.678H70.5454V141.289H77.157V134.678Z" fill="black"/>
<path d="M109.223 141.289H104.859C103.618 141.289 102.611 140.283 102.611 139.041V136.926C102.611 135.684 103.618 134.678 104.859 134.678H109.223V141.289Z" fill="black"/>
<path d="M115.636 134.678H109.025V141.289H115.636V134.678Z" fill="black"/>
<path d="M122.05 134.678H115.438V141.289H122.05V134.678Z" fill="black"/>
<path d="M134.876 134.678H128.265V141.289H134.876V134.678Z" fill="black"/>
<path d="M141.091 136.569V139.405C141.091 140.45 141.937 141.289 142.982 141.289H145.818C146.869 141.289 147.709 140.443 147.709 139.398V136.569C147.702 135.517 146.856 134.678 145.811 134.678H142.982C141.937 134.678 141.091 135.524 141.091 136.569Z" fill="black"/>
<path d="M160.331 141.289V136.926C160.331 135.684 161.337 134.678 162.579 134.678H164.694C165.936 134.678 166.942 135.684 166.942 136.926V141.289H160.331Z" fill="black"/>
<path d="M199.008 141.289H192.396V136.926C192.396 135.684 193.403 134.678 194.644 134.678H199.008V141.289Z" fill="black"/>
<path d="M205.422 134.678H198.81V141.289H205.422V134.678Z" fill="black"/>
<path d="M211.835 134.678H205.223V141.289H211.835V134.678Z" fill="black"/>
<path d="M25.6528 142.982V145.818C25.6528 146.863 26.4991 147.703 27.5437 147.703H30.3801C31.4313 147.703 32.271 146.856 32.271 145.812V142.982C32.2644 141.931 31.4181 141.091 30.3735 141.091H27.5437C26.4991 141.091 25.6528 141.937 25.6528 142.982Z" fill="black"/>
<path d="M38.4795 142.982V145.818C38.4795 146.863 39.3258 147.703 40.3704 147.703H43.2068C44.258 147.703 45.0977 146.856 45.0977 145.812V142.982C45.0911 141.931 44.2448 141.091 43.2002 141.091H40.3704C39.3258 141.091 38.4795 141.937 38.4795 142.982Z" fill="black"/>
<path d="M64.3306 141.091V145.455C64.3306 146.696 63.3241 147.703 62.0826 147.703H59.9669C58.7254 147.703 57.719 146.696 57.719 145.455V141.091H64.3306Z" fill="black"/>
<path d="M77.157 141.091H70.5454V147.703H77.157V141.091Z" fill="black"/>
<path d="M89.9834 147.703H83.3718V143.339C83.3718 142.097 84.3783 141.091 85.6198 141.091H89.9834V147.703Z" fill="black"/>
<path d="M96.3967 141.091H89.7852V147.703H96.3967V141.091Z" fill="black"/>
<path d="M96.1982 147.703V143.339C96.1982 142.097 97.2047 141.091 98.4462 141.091H100.562C101.803 141.091 102.81 142.097 102.81 143.339V147.703H96.1982Z" fill="black"/>
<path d="M122.05 141.091H115.438V147.703H122.05V141.091Z" fill="black"/>
<path d="M128.463 141.091H121.851V147.703H128.463V141.091Z" fill="black"/>
<path d="M128.265 141.091H134.876V145.455C134.876 146.696 133.87 147.703 132.628 147.703H128.265V141.091Z" fill="black"/>
<path d="M145.686 147.57V147.702H147.703V145.686H147.57C147.57 146.731 146.724 147.57 145.686 147.57Z" fill="black"/>
<path d="M147.504 147.703V143.339C147.504 142.097 148.51 141.091 149.752 141.091H151.868C153.109 141.091 154.115 142.097 154.115 143.339V147.703H147.504Z" fill="black"/>
<path d="M166.942 141.091V145.455C166.942 146.696 165.935 147.703 164.694 147.703H162.578C161.337 147.703 160.33 146.696 160.33 145.455V141.091H166.942Z" fill="black"/>
<path d="M177.752 147.57V147.702H179.768V145.686H179.636C179.636 146.731 178.79 147.57 177.752 147.57Z" fill="black"/>
<path d="M179.57 147.703V143.339C179.57 142.097 180.577 141.091 181.818 141.091H183.934C185.175 141.091 186.182 142.097 186.182 143.339V147.703H179.57Z" fill="black"/>
<path d="M199.008 141.091V145.455C199.008 146.696 198.001 147.703 196.76 147.703H194.644C193.403 147.703 192.396 146.696 192.396 145.455V141.091H199.008Z" fill="black"/>
<path d="M211.835 141.091H205.223V147.703H211.835V141.091Z" fill="black"/>
<path d="M6.41309 149.395V152.231C6.41309 153.276 7.25937 154.116 8.304 154.116H11.1404C12.1916 154.116 13.0313 153.269 13.0313 152.225V149.395C13.0247 148.344 12.1784 147.504 11.1337 147.504H8.304C7.25937 147.504 6.41309 148.35 6.41309 149.395Z" fill="black"/>
<path d="M32.0659 149.395V152.231C32.0659 153.276 32.9122 154.116 33.9568 154.116H36.7932C37.8444 154.116 38.6841 153.269 38.6841 152.225V149.395C38.6775 148.344 37.8312 147.504 36.7866 147.504H33.9568C32.9122 147.504 32.0659 148.35 32.0659 149.395Z" fill="black"/>
<path d="M44.8926 149.395V152.231C44.8926 153.276 45.7389 154.116 46.7835 154.116H49.6199C50.6711 154.116 51.5108 153.269 51.5108 152.225V149.395C51.5041 148.344 50.6579 147.504 49.6132 147.504H46.7835C45.7389 147.504 44.8926 148.35 44.8926 149.395Z" fill="black"/>
<path d="M77.157 147.504H70.5454V154.116H77.157V147.504Z" fill="black"/>
<path d="M89.9836 147.504H83.3721V154.116H89.9836V147.504Z" fill="black"/>
<path d="M96.3967 147.504H89.7852V154.116H96.3967V147.504Z" fill="black"/>
<path d="M102.611 149.395V152.231C102.611 153.276 103.458 154.116 104.502 154.116H107.339C108.39 154.116 109.23 153.269 109.23 152.225V149.395C109.223 148.344 108.377 147.504 107.332 147.504H104.502C103.458 147.504 102.611 148.35 102.611 149.395Z" fill="black"/>
<path d="M113.62 153.983V154.116H115.636V152.099H115.504C115.504 153.144 114.658 153.983 113.62 153.983Z" fill="black"/>
<path d="M122.05 147.504H115.438V154.116H122.05V147.504Z" fill="black"/>
<path d="M121.851 147.504H128.463V151.868C128.463 153.109 127.456 154.116 126.215 154.116H121.851V147.504Z" fill="black"/>
<path d="M147.702 154.116H141.091V149.752C141.091 148.511 142.097 147.504 143.339 147.504H147.702V154.116Z" fill="black"/>
<path d="M147.504 147.504H154.115V151.868C154.115 153.109 153.109 154.116 151.868 154.116H147.504V147.504Z" fill="black"/>
<path d="M164.926 153.983V154.116H166.942V152.099H166.81C166.81 153.144 165.964 153.983 164.926 153.983Z" fill="black"/>
<path d="M173.355 154.116H166.743V149.752C166.743 148.511 167.75 147.504 168.991 147.504H173.355V154.116Z" fill="black"/>
<path d="M179.769 147.504H173.157V154.116H179.769V147.504Z" fill="black"/>
<path d="M186.182 147.504H179.57V154.116H186.182V147.504Z" fill="black"/>
<path d="M185.983 154.116V147.504H190.347C191.589 147.504 192.595 148.511 192.595 149.752V154.116H185.983Z" fill="black"/>
<path d="M211.834 147.504V151.868C211.834 153.109 210.828 154.116 209.587 154.116H207.471C206.229 154.116 205.223 153.109 205.223 151.868V147.504H211.834Z" fill="black"/>
<path d="M0 155.808V158.645C0 159.689 0.846281 160.529 1.89091 160.529H4.72727C5.77851 160.529 6.61818 159.683 6.61818 158.638V155.808C6.61157 154.757 5.76529 153.917 4.72066 153.917H1.89091C0.846281 153.917 0 154.764 0 155.808Z" fill="black"/>
<path d="M19.438 160.529H15.0744C13.8329 160.529 12.8264 159.522 12.8264 158.281V156.165C12.8264 154.924 13.8329 153.917 15.0744 153.917H19.438V160.529Z" fill="black"/>
<path d="M25.8513 153.917H19.2397V160.529H25.8513V153.917Z" fill="black"/>
<path d="M25.6528 160.529V156.165C25.6528 154.924 26.6593 153.917 27.9008 153.917H30.0165C31.258 153.917 32.2644 154.924 32.2644 156.165V160.529H25.6528Z" fill="black"/>
<path d="M38.4795 155.808V158.645C38.4795 159.689 39.3258 160.529 40.3704 160.529H43.2068C44.258 160.529 45.0977 159.683 45.0977 158.638V155.808C45.0911 154.757 44.2448 153.917 43.2002 153.917H40.3704C39.3258 153.917 38.4795 154.764 38.4795 155.808Z" fill="black"/>
<path d="M55.9009 160.397V160.529H57.9174V158.512H57.7852C57.7852 159.557 56.9389 160.397 55.9009 160.397Z" fill="black"/>
<path d="M57.7192 160.529V156.165C57.7192 154.924 58.7257 153.917 59.9672 153.917H62.0829C63.3244 153.917 64.3308 154.924 64.3308 156.165V160.529H57.7192Z" fill="black"/>
<path d="M68.7271 160.397V160.529H70.7436V158.512H70.6113C70.6113 159.557 69.7651 160.397 68.7271 160.397Z" fill="black"/>
<path d="M77.157 153.917H70.5454V160.529H77.157V153.917Z" fill="black"/>
<path d="M89.9834 153.917V160.529H85.6198C84.3783 160.529 83.3718 159.522 83.3718 158.281V153.917H89.9834Z" fill="black"/>
<path d="M96.3967 153.917H89.7852V160.529H96.3967V153.917Z" fill="black"/>
<path d="M107.207 160.397V160.529H109.223V158.512H109.091C109.091 159.557 108.245 160.397 107.207 160.397Z" fill="black"/>
<path d="M115.636 160.529H109.025V156.165C109.025 154.924 110.031 153.917 111.273 153.917H115.636V160.529Z" fill="black"/>
<path d="M122.05 153.917H115.438V160.529H122.05V153.917Z" fill="black"/>
<path d="M128.265 155.808V158.645C128.265 159.689 129.111 160.529 130.156 160.529H132.992C134.043 160.529 134.883 159.683 134.883 158.638V155.808C134.876 154.757 134.03 153.917 132.985 153.917H130.156C129.111 153.917 128.265 154.764 128.265 155.808Z" fill="black"/>
<path d="M147.702 153.917V158.281C147.702 159.522 146.696 160.529 145.454 160.529H143.339C142.097 160.529 141.091 159.522 141.091 158.281V153.917H147.702Z" fill="black"/>
<path d="M160.529 160.529H153.917V156.165C153.917 154.924 154.924 153.917 156.165 153.917H160.529V160.529Z" fill="black"/>
<path d="M166.942 153.917H160.331V160.529H166.942V153.917Z" fill="black"/>
<path d="M173.355 153.917H166.744V160.529H173.355V153.917Z" fill="black"/>
<path d="M179.769 153.917H173.157V160.529H179.769V153.917Z" fill="black"/>
<path d="M186.182 153.917H179.57V160.529H186.182V153.917Z" fill="black"/>
<path d="M192.595 153.917H185.983V160.529H192.595V153.917Z" fill="black"/>
<path d="M198.81 155.808V158.645C198.81 159.689 199.656 160.529 200.701 160.529H203.537C204.589 160.529 205.428 159.683 205.428 158.638V155.808C205.422 154.757 204.575 153.917 203.531 153.917H200.701C199.656 153.917 198.81 154.764 198.81 155.808Z" fill="black"/>
<path d="M57.917 166.942H51.3054V162.579C51.3054 161.337 52.3119 160.331 53.5534 160.331H57.917V166.942Z" fill="black"/>
<path d="M64.3308 160.331H57.7192V166.942H64.3308V160.331Z" fill="black"/>
<path d="M70.7439 160.331H64.1323V166.942H70.7439V160.331Z" fill="black"/>
<path d="M70.5454 160.331H77.157V164.694C77.157 165.936 76.1505 166.942 74.909 166.942H70.5454V160.331Z" fill="black"/>
<path d="M96.3967 160.331H89.7852V166.942H96.3967V160.331Z" fill="black"/>
<path d="M102.81 160.331H96.1982V166.942H102.81V160.331Z" fill="black"/>
<path d="M109.223 160.331H102.611V166.942H109.223V160.331Z" fill="black"/>
<path d="M115.636 160.331H109.025V166.942H115.636V160.331Z" fill="black"/>
<path d="M122.05 160.331H115.438V166.942H122.05V160.331Z" fill="black"/>
<path d="M121.851 166.942V162.579C121.851 161.337 122.858 160.331 124.099 160.331H126.215C127.456 160.331 128.463 161.337 128.463 162.579V166.942H121.851Z" fill="black"/>
<path d="M134.678 162.221V165.058C134.678 166.102 135.524 166.942 136.569 166.942H139.405C140.456 166.942 141.296 166.096 141.296 165.051V162.221C141.289 161.17 140.443 160.331 139.398 160.331H136.569C135.524 160.331 134.678 161.177 134.678 162.221Z" fill="black"/>
<path d="M152.099 166.81V166.942H154.116V164.926H153.983C153.983 165.97 153.137 166.81 152.099 166.81Z" fill="black"/>
<path d="M160.529 160.331H153.917V166.942H160.529V160.331Z" fill="black"/>
<path d="M186.182 160.331H179.57V166.942H186.182V160.331Z" fill="black"/>
<path d="M192.595 160.331H185.983V166.942H192.595V160.331Z" fill="black"/>
<path d="M192.396 166.942V162.579C192.396 161.337 193.403 160.331 194.644 160.331H196.76C198.002 160.331 199.008 161.337 199.008 162.579V166.942H192.396Z" fill="black"/>
<path d="M57.917 166.744V173.355H53.5534C52.3119 173.355 51.3054 172.349 51.3054 171.107V166.744H57.917Z" fill="black"/>
<path d="M64.3308 166.744H57.7192V173.355H64.3308V166.744Z" fill="black"/>
<path d="M70.7439 166.744H64.1323V173.355H70.7439V166.744Z" fill="black"/>
<path d="M81.5537 173.223V173.355H83.5702V171.339H83.438C83.438 172.383 82.5917 173.223 81.5537 173.223Z" fill="black"/>
<path d="M89.9834 173.355H83.3718V168.992C83.3718 167.75 84.3783 166.744 85.6198 166.744H89.9834V173.355Z" fill="black"/>
<path d="M96.3967 166.744H89.7852V173.355H96.3967V166.744Z" fill="black"/>
<path d="M102.81 166.744H96.1982V173.355H102.81V166.744Z" fill="black"/>
<path d="M109.223 166.744H102.611V173.355H109.223V166.744Z" fill="black"/>
<path d="M122.05 166.744H115.438V173.355H122.05V166.744Z" fill="black"/>
<path d="M128.265 168.635V171.471C128.265 172.516 129.111 173.355 130.156 173.355H132.992C134.043 173.355 134.883 172.509 134.883 171.464V168.635C134.876 167.583 134.03 166.744 132.985 166.744H130.156C129.111 166.744 128.265 167.59 128.265 168.635Z" fill="black"/>
<path d="M147.702 173.355H143.339C142.097 173.355 141.091 172.349 141.091 171.107V168.992C141.091 167.75 142.097 166.744 143.339 166.744H147.702V173.355Z" fill="black"/>
<path d="M154.115 166.744H147.504V173.355H154.115V166.744Z" fill="black"/>
<path d="M160.529 166.744H153.917V173.355H160.529V166.744Z" fill="black"/>
<path d="M166.744 168.635V171.471C166.744 172.516 167.59 173.355 168.635 173.355H171.471C172.522 173.355 173.362 172.509 173.362 171.464V168.635C173.355 167.583 172.509 166.744 171.464 166.744H168.635C167.59 166.744 166.744 167.59 166.744 168.635Z" fill="black"/>
<path d="M186.182 166.744H179.57V173.355H186.182V166.744Z" fill="black"/>
<path d="M64.3306 173.157V179.769H59.9669C58.7254 179.769 57.719 178.762 57.719 177.521V173.157H64.3306Z" fill="black"/>
<path d="M70.7439 173.157H64.1323V179.769H70.7439V173.157Z" fill="black"/>
<path d="M77.157 173.157H70.5454V179.769H77.157V173.157Z" fill="black"/>
<path d="M83.5701 173.157H76.9585V179.769H83.5701V173.157Z" fill="black"/>
<path d="M89.9836 173.157H83.3721V179.769H89.9836V173.157Z" fill="black"/>
<path d="M102.81 173.157V179.769H98.4459C97.2044 179.769 96.198 178.762 96.198 177.521V173.157H102.81Z" fill="black"/>
<path d="M102.611 173.157H109.223V177.521C109.223 178.762 108.216 179.769 106.975 179.769H102.611V173.157Z" fill="black"/>
<path d="M122.05 173.157H115.438V179.769H122.05V173.157Z" fill="black"/>
<path d="M121.851 179.769V175.405C121.851 174.163 122.858 173.157 124.099 173.157H126.215C127.456 173.157 128.463 174.163 128.463 175.405V179.769H121.851Z" fill="black"/>
<path d="M134.678 175.048V177.884C134.678 178.929 135.524 179.769 136.569 179.769H139.405C140.456 179.769 141.296 178.922 141.296 177.878V175.048C141.289 173.997 140.443 173.157 139.398 173.157H136.569C135.524 173.157 134.678 174.003 134.678 175.048Z" fill="black"/>
<path d="M154.115 173.157H147.504V179.769H154.115V173.157Z" fill="black"/>
<path d="M160.529 173.157H153.917V179.769H160.529V173.157Z" fill="black"/>
<path d="M177.752 179.636V179.769H179.768V177.752H179.636C179.636 178.797 178.79 179.636 177.752 179.636Z" fill="black"/>
<path d="M186.182 173.157H179.57V179.769H186.182V173.157Z" fill="black"/>
<path d="M192.595 173.157H185.983V179.769H192.595V173.157Z" fill="black"/>
<path d="M199.008 173.157H192.396V179.769H199.008V173.157Z" fill="black"/>
<path d="M198.81 179.769V173.157H203.174C204.415 173.157 205.422 174.163 205.422 175.405V179.769H198.81Z" fill="black"/>
<path d="M77.1567 179.57V183.934C77.1567 185.175 76.1503 186.182 74.9088 186.182H72.7931C71.5516 186.182 70.5452 185.175 70.5452 183.934V179.57H77.1567Z" fill="black"/>
<path d="M89.9834 179.57V183.934C89.9834 185.175 88.977 186.182 87.7355 186.182H85.6198C84.3783 186.182 83.3718 185.175 83.3718 183.934V179.57H89.9834Z" fill="black"/>
<path d="M113.62 186.05V186.182H115.636V184.165H115.504C115.504 185.21 114.658 186.05 113.62 186.05Z" fill="black"/>
<path d="M122.05 179.57H115.438V186.182H122.05V179.57Z" fill="black"/>
<path d="M128.265 181.461V184.298C128.265 185.342 129.111 186.182 130.156 186.182H132.992C134.043 186.182 134.883 185.336 134.883 184.291V181.461C134.876 180.41 134.03 179.57 132.985 179.57H130.156C129.111 179.57 128.265 180.417 128.265 181.461Z" fill="black"/>
<path d="M145.686 186.05V186.182H147.703V184.165H147.57C147.57 185.21 146.724 186.05 145.686 186.05Z" fill="black"/>
<path d="M154.115 179.57H147.504V186.182H154.115V179.57Z" fill="black"/>
<path d="M160.529 179.57H153.917V186.182H160.529V179.57Z" fill="black"/>
<path d="M166.942 179.57H160.331V186.182H166.942V179.57Z" fill="black"/>
<path d="M173.355 179.57H166.744V186.182H173.355V179.57Z" fill="black"/>
<path d="M179.769 179.57H173.157V186.182H179.769V179.57Z" fill="black"/>
<path d="M186.182 179.57H179.57V186.182H186.182V179.57Z" fill="black"/>
<path d="M192.595 179.57H185.983V186.182H192.595V179.57Z" fill="black"/>
<path d="M199.008 179.57H192.396V186.182H199.008V179.57Z" fill="black"/>
<path d="M205.422 179.57H198.81V186.182H205.422V179.57Z" fill="black"/>
<path d="M51.3057 192.595V188.231C51.3057 186.99 52.3121 185.984 53.5536 185.984H55.6693C56.9108 185.984 57.9172 186.99 57.9172 188.231V192.595H51.3057Z" fill="black"/>
<path d="M76.9585 187.874V190.711C76.9585 191.755 77.8048 192.595 78.8494 192.595H81.6858C82.737 192.595 83.5767 191.749 83.5767 190.704V187.874C83.5701 186.823 82.7238 185.984 81.6792 185.984H78.8494C77.8048 185.984 76.9585 186.83 76.9585 187.874Z" fill="black"/>
<path d="M115.636 192.595H109.025V188.231C109.025 186.99 110.031 185.984 111.273 185.984H115.636V192.595Z" fill="black"/>
<path d="M122.05 185.984H115.438V192.595H122.05V185.984Z" fill="black"/>
<path d="M121.851 192.595V188.231C121.851 186.99 122.858 185.984 124.099 185.984H126.215C127.456 185.984 128.463 186.99 128.463 188.231V192.595H121.851Z" fill="black"/>
<path d="M139.273 192.463V192.595H141.289V190.578H141.157C141.157 191.623 140.311 192.463 139.273 192.463Z" fill="black"/>
<path d="M147.702 192.595H141.091V188.231C141.091 186.99 142.097 185.984 143.339 185.984H147.702V192.595Z" fill="black"/>
<path d="M147.504 185.984H154.115V190.347C154.115 191.589 153.109 192.595 151.868 192.595H147.504V185.984Z" fill="black"/>
<path d="M179.769 185.984V190.347C179.769 191.589 178.762 192.595 177.521 192.595H175.405C174.163 192.595 173.157 191.589 173.157 190.347V185.984H179.769Z" fill="black"/>
<path d="M205.421 185.984V192.595H201.058C199.816 192.595 198.81 191.589 198.81 190.347V185.984H205.421Z" fill="black"/>
<path d="M205.223 192.595V188.231C205.223 186.99 206.23 185.984 207.471 185.984H209.587C210.828 185.984 211.835 186.99 211.835 188.231V192.595H205.223Z" fill="black"/>
<path d="M57.917 192.397V196.76C57.917 198.002 56.9106 199.008 55.6691 199.008H53.5534C52.3119 199.008 51.3054 198.002 51.3054 196.76V192.397H57.917Z" fill="black"/>
<path d="M70.5454 199.008V194.645C70.5454 193.403 71.5518 192.397 72.7933 192.397H74.909C76.1505 192.397 77.157 193.403 77.157 194.645V199.008H70.5454Z" fill="black"/>
<path d="M89.9834 199.008H85.6198C84.3783 199.008 83.3718 198.002 83.3718 196.76V194.645C83.3718 193.403 84.3783 192.397 85.6198 192.397H89.9834V199.008Z" fill="black"/>
<path d="M89.7852 199.008V194.645C89.7852 193.403 90.7916 192.397 92.0331 192.397H94.1488C95.3903 192.397 96.3967 193.403 96.3967 194.645V199.008H89.7852Z" fill="black"/>
<path d="M115.636 192.397V199.008H111.273C110.031 199.008 109.025 198.002 109.025 196.76V192.397H115.636Z" fill="black"/>
<path d="M115.438 192.397H122.05V196.76C122.05 198.002 121.043 199.008 119.802 199.008H115.438V192.397Z" fill="black"/>
<path d="M134.876 199.008H130.512C129.271 199.008 128.264 198.002 128.264 196.76V194.645C128.264 193.403 129.271 192.397 130.512 192.397H134.876V199.008Z" fill="black"/>
<path d="M141.289 192.397H134.678V199.008H141.289V192.397Z" fill="black"/>
<path d="M147.702 192.397H141.091V199.008H147.702V192.397Z" fill="black"/>
<path d="M160.529 199.008H153.917V194.645C153.917 193.403 154.924 192.397 156.165 192.397H160.529V199.008Z" fill="black"/>
<path d="M160.331 199.008V192.397H164.694C165.936 192.397 166.942 193.403 166.942 194.645V199.008H160.331Z" fill="black"/>
<path d="M185.983 199.008V194.645C185.983 193.403 186.99 192.397 188.231 192.397H190.347C191.589 192.397 192.595 193.403 192.595 194.645V199.008H185.983Z" fill="black"/>
<path d="M57.7192 200.701V203.537C57.7192 204.582 58.5655 205.422 59.6101 205.422H62.4465C63.4978 205.422 64.3374 204.575 64.3374 203.531V200.701C64.3308 199.65 63.4845 198.81 62.4399 198.81H59.6101C58.5655 198.81 57.7192 199.656 57.7192 200.701Z" fill="black"/>
<path d="M77.1567 198.81V205.422H72.7931C71.5516 205.422 70.5452 204.415 70.5452 203.174V198.81H77.1567Z" fill="black"/>
<path d="M76.9585 205.422V201.058C76.9585 199.816 77.9649 198.81 79.2064 198.81H81.3221C82.5636 198.81 83.5701 199.816 83.5701 201.058V205.422H76.9585Z" fill="black"/>
<path d="M102.81 205.422H98.4459C97.2044 205.422 96.198 204.415 96.198 203.174V201.058C96.198 199.816 97.2044 198.81 98.4459 198.81H102.81V205.422Z" fill="black"/>
<path d="M102.611 205.422V198.81H106.975C108.216 198.81 109.223 199.816 109.223 201.058V205.422H102.611Z" fill="black"/>
<path d="M121.851 205.422V201.058C121.851 199.816 122.858 198.81 124.099 198.81H126.215C127.456 198.81 128.463 199.816 128.463 201.058V205.422H121.851Z" fill="black"/>
<path d="M141.289 198.81H134.678V205.422H141.289V198.81Z" fill="black"/>
<path d="M141.091 198.81H147.702V203.174C147.702 204.415 146.696 205.422 145.454 205.422H141.091V198.81Z" fill="black"/>
<path d="M160.529 198.81V205.422H156.165C154.924 205.422 153.917 204.415 153.917 203.174V198.81H160.529Z" fill="black"/>
<path d="M160.331 198.81H166.942V203.174C166.942 204.415 165.936 205.422 164.694 205.422H160.331V198.81Z" fill="black"/>
<path d="M173.157 200.701V203.537C173.157 204.582 174.004 205.422 175.048 205.422H177.884C178.936 205.422 179.775 204.575 179.775 203.531V200.701C179.769 199.65 178.923 198.81 177.878 198.81H175.048C174.004 198.81 173.157 199.656 173.157 200.701Z" fill="black"/>
<path d="M184.165 205.289V205.421H186.182V203.405H186.049C186.049 204.45 185.203 205.289 184.165 205.289Z" fill="black"/>
<path d="M192.595 198.81H185.983V205.422H192.595V198.81Z" fill="black"/>
<path d="M205.223 200.701V203.537C205.223 204.582 206.069 205.422 207.114 205.422H209.95C211.002 205.422 211.841 204.575 211.841 203.531V200.701C211.835 199.65 210.988 198.81 209.944 198.81H207.114C206.069 198.81 205.223 199.656 205.223 200.701Z" fill="black"/>
<path d="M64.1323 207.114V209.95C64.1323 210.995 64.9786 211.835 66.0232 211.835H68.8596C69.9108 211.835 70.7505 210.988 70.7505 209.944V207.114C70.7439 206.063 69.8976 205.223 68.853 205.223H66.0232C64.9786 205.223 64.1323 206.069 64.1323 207.114Z" fill="black"/>
<path d="M89.9834 211.835H85.6198C84.3783 211.835 83.3718 210.828 83.3718 209.587V207.471C83.3718 206.23 84.3783 205.223 85.6198 205.223H89.9834V211.835Z" fill="black"/>
<path d="M89.7852 211.835V207.471C89.7852 206.23 90.7916 205.223 92.0331 205.223H94.1488C95.3903 205.223 96.3967 206.23 96.3967 207.471V211.835H89.7852Z" fill="black"/>
<path d="M109.223 205.223V211.835H104.859C103.618 211.835 102.611 210.828 102.611 209.587V205.223H109.223Z" fill="black"/>
<path d="M109.025 211.835V207.471C109.025 206.23 110.031 205.223 111.273 205.223H113.389C114.63 205.223 115.636 206.23 115.636 207.471V211.835H109.025Z" fill="black"/>
<path d="M128.462 205.223V209.587C128.462 210.828 127.456 211.835 126.214 211.835H124.099C122.857 211.835 121.851 210.828 121.851 209.587V205.223H128.462Z" fill="black"/>
<path d="M141.289 205.223V209.587C141.289 210.828 140.283 211.835 139.041 211.835H136.925C135.684 211.835 134.677 210.828 134.677 209.587V205.223H141.289Z" fill="black"/>
<path d="M186.182 211.835H181.818C180.577 211.835 179.57 210.828 179.57 209.587V207.471C179.57 206.23 180.577 205.223 181.818 205.223H186.182V211.835Z" fill="black"/>
<path d="M192.595 205.223H185.983V211.835H192.595V205.223Z" fill="black"/>
<path d="M192.396 211.835V207.471C192.396 206.23 193.403 205.223 194.644 205.223H196.76C198.002 205.223 199.008 206.23 199.008 207.471V211.835H192.396Z" fill="black"/>
<path d="M39.6695 30.2367V16.0435C39.6695 9.74363 38.8125 8.20646 38.4439 7.83705C38.0745 7.46846 36.5374 6.61145 30.2367 6.61145H16.0443C9.74363 6.61145 8.20646 7.46846 7.83788 7.83705C7.46929 8.20646 6.61145 9.74363 6.61145 16.0435V30.2367C6.61145 36.5374 7.46929 38.0745 7.83788 38.4439C8.20646 38.8117 9.74363 39.6695 16.0443 39.6695H30.2367C36.5374 39.6695 38.0745 38.8117 38.4439 38.4439C38.8125 38.0745 39.6695 36.5374 39.6695 30.2367ZM30.2367 0C43.1959 0 46.281 3.08507 46.281 16.0435C46.281 29.0028 46.281 17.2782 46.281 30.2367C46.281 43.1959 43.1959 46.281 30.2367 46.281C17.2782 46.281 29.0028 46.281 16.0443 46.281C3.08507 46.281 0 43.1959 0 30.2367C0 17.2782 0 23.2806 0 16.0435C0 3.08507 3.08507 0 16.0443 0C29.0028 0 17.2782 0 30.2367 0ZM26.1816 13.2231C31.7358 13.2231 33.0578 14.546 33.0578 20.0986C33.0578 25.6528 33.0578 20.6282 33.0578 26.1816C33.0578 31.735 31.7358 33.0578 26.1816 33.0578C20.6282 33.0578 25.6528 33.0578 20.0994 33.0578C14.546 33.0578 13.2231 31.735 13.2231 26.1816C13.2231 20.6282 13.2231 23.2004 13.2231 20.0986C13.2231 14.546 14.546 13.2231 20.0994 13.2231C25.6528 13.2231 20.6282 13.2231 26.1816 13.2231Z" fill="black"/>
<path d="M204.694 30.2367V16.0435C204.694 9.74363 203.837 8.20646 203.469 7.83705C203.099 7.46846 201.562 6.61145 195.262 6.61145H181.069C174.769 6.61145 173.231 7.46846 172.863 7.83705C172.494 8.20646 171.636 9.74363 171.636 16.0435V30.2367C171.636 36.5374 172.494 38.0745 172.863 38.4439C173.231 38.8117 174.769 39.6695 181.069 39.6695H195.262C201.562 39.6695 203.099 38.8117 203.469 38.4439C203.837 38.0745 204.694 36.5374 204.694 30.2367ZM195.262 0C208.221 0 211.306 3.08507 211.306 16.0435C211.306 29.0028 211.306 17.2782 211.306 30.2367C211.306 43.1959 208.221 46.281 195.262 46.281C182.303 46.281 194.028 46.281 181.069 46.281C168.11 46.281 165.025 43.1959 165.025 30.2367C165.025 17.2782 165.025 23.2806 165.025 16.0435C165.025 3.08507 168.11 0 181.069 0C194.028 0 182.303 0 195.262 0ZM191.206 13.2231C196.761 13.2231 198.083 14.546 198.083 20.0986C198.083 25.6528 198.083 20.6282 198.083 26.1816C198.083 31.735 196.761 33.0578 191.206 33.0578C185.653 33.0578 190.678 33.0578 185.124 33.0578C179.571 33.0578 178.248 31.735 178.248 26.1816C178.248 20.6282 178.248 23.2004 178.248 20.0986C178.248 14.546 179.571 13.2231 185.124 13.2231C190.678 13.2231 185.653 13.2231 191.206 13.2231Z" fill="black"/>
<path d="M39.6695 195.261V181.068C39.6695 174.768 38.8125 173.231 38.4439 172.862C38.0745 172.493 36.5374 171.636 30.2367 171.636H16.0443C9.74363 171.636 8.20646 172.493 7.83788 172.862C7.46929 173.231 6.61145 174.768 6.61145 181.068V195.261C6.61145 201.562 7.46929 203.099 7.83788 203.469C8.20646 203.836 9.74363 204.694 16.0443 204.694H30.2367C36.5374 204.694 38.0745 203.836 38.4439 203.469C38.8125 203.099 39.6695 201.562 39.6695 195.261ZM30.2367 165.025C43.1959 165.025 46.281 168.11 46.281 181.068C46.281 194.028 46.281 182.303 46.281 195.261C46.281 208.221 43.1959 211.306 30.2367 211.306C17.2782 211.306 29.0028 211.306 16.0443 211.306C3.08507 211.306 0 208.221 0 195.261C0 182.303 0 188.305 0 181.068C0 168.11 3.08507 165.025 16.0443 165.025C29.0028 165.025 17.2782 165.025 30.2367 165.025ZM26.1816 178.248C31.7358 178.248 33.0578 179.571 33.0578 185.123C33.0578 190.678 33.0578 185.653 33.0578 191.206C33.0578 196.76 31.7358 198.083 26.1816 198.083C20.6282 198.083 25.6528 198.083 20.0994 198.083C14.546 198.083 13.2231 196.76 13.2231 191.206C13.2231 185.653 13.2231 188.225 13.2231 185.123C13.2231 179.571 14.546 178.248 20.0994 178.248C25.6528 178.248 20.6282 178.248 26.1816 178.248Z" fill="black"/>
</svg>
