<svg width="28" height="28" viewBox="0 0 28 28" fill="none" xmlns="http://www.w3.org/2000/svg">
<g clip-path="url(#clip0_16_1483)">
<path d="M0 14C0 15.7125 0.308055 17.3529 0.870789 18.8696L14 20.087L27.1292 18.8696C27.6919 17.3529 28 15.7125 28 14C28 12.2875 27.6919 10.6471 27.1292 9.13048L14 7.91309L0.870789 9.13048C0.308055 10.6471 0 12.2875 0 14H0Z" fill="#FFDA44"/>
<path d="M27.1295 9.13046C25.1514 3.7993 20.0198 0 14.0003 0C7.9808 0 2.8492 3.7993 0.871094 9.13046H27.1295Z" fill="#D80027"/>
<path d="M0.871094 18.8696C2.8492 24.2008 7.9808 28.0001 14.0003 28.0001C20.0198 28.0001 25.1514 24.2008 27.1295 18.8696H0.871094Z" fill="#D80027"/>
</g>
<defs>
<clipPath id="clip0_16_1483">
<rect width="28" height="28" fill="white"/>
</clipPath>
</defs>
</svg>
