<svg width="256" height="256" viewBox="0 0 256 256" fill="none" xmlns="http://www.w3.org/2000/svg">
<g opacity="0.5">
<rect width="256" height="256" rx="24" fill="white"/>
<path d="M60.6695 51.2367V37.0435C60.6695 30.7436 59.8125 29.2065 59.4439 28.837C59.0745 28.4685 57.5374 27.6115 51.2367 27.6115H37.0443C30.7436 27.6115 29.2065 28.4685 28.8379 28.837C28.4693 29.2065 27.6115 30.7436 27.6115 37.0435V51.2367C27.6115 57.5374 28.4693 59.0745 28.8379 59.4439C29.2065 59.8117 30.7436 60.6695 37.0443 60.6695H51.2367C57.5374 60.6695 59.0745 59.8117 59.4439 59.4439C59.8125 59.0745 60.6695 57.5374 60.6695 51.2367ZM51.2367 21C64.1959 21 67.281 24.0851 67.281 37.0435C67.281 50.0028 67.281 38.2782 67.281 51.2367C67.281 64.1959 64.1959 67.281 51.2367 67.281C38.2782 67.281 50.0028 67.281 37.0443 67.281C24.0851 67.281 21 64.1959 21 51.2367C21 38.2782 21 44.2806 21 37.0435C21 24.0851 24.0851 21 37.0443 21C50.0028 21 38.2782 21 51.2367 21ZM47.1816 34.2231C52.7358 34.2231 54.0578 35.546 54.0578 41.0986C54.0578 46.6528 54.0578 41.6282 54.0578 47.1816C54.0578 52.735 52.7358 54.0578 47.1816 54.0578C41.6282 54.0578 46.6528 54.0578 41.0994 54.0578C35.546 54.0578 34.2231 52.735 34.2231 47.1816C34.2231 41.6282 34.2231 44.2004 34.2231 41.0986C34.2231 35.546 35.546 34.2231 41.0994 34.2231C46.6528 34.2231 41.6282 34.2231 47.1816 34.2231Z" fill="black"/>
<path d="M225.694 51.2367V37.0435C225.694 30.7436 224.837 29.2065 224.469 28.837C224.099 28.4685 222.562 27.6115 216.262 27.6115H202.069C195.769 27.6115 194.231 28.4685 193.863 28.837C193.494 29.2065 192.636 30.7436 192.636 37.0435V51.2367C192.636 57.5374 193.494 59.0745 193.863 59.4439C194.231 59.8117 195.769 60.6695 202.069 60.6695H216.262C222.562 60.6695 224.099 59.8117 224.469 59.4439C224.837 59.0745 225.694 57.5374 225.694 51.2367ZM216.262 21C229.221 21 232.306 24.0851 232.306 37.0435C232.306 50.0028 232.306 38.2782 232.306 51.2367C232.306 64.1959 229.221 67.281 216.262 67.281C203.303 67.281 215.028 67.281 202.069 67.281C189.11 67.281 186.025 64.1959 186.025 51.2367C186.025 38.2782 186.025 44.2806 186.025 37.0435C186.025 24.0851 189.11 21 202.069 21C215.028 21 203.303 21 216.262 21ZM212.206 34.2231C217.761 34.2231 219.083 35.546 219.083 41.0986C219.083 46.6528 219.083 41.6282 219.083 47.1816C219.083 52.735 217.761 54.0578 212.206 54.0578C206.653 54.0578 211.678 54.0578 206.124 54.0578C200.571 54.0578 199.248 52.735 199.248 47.1816C199.248 41.6282 199.248 44.2004 199.248 41.0986C199.248 35.546 200.571 34.2231 206.124 34.2231C211.678 34.2231 206.653 34.2231 212.206 34.2231Z" fill="black"/>
<path d="M60.6695 216.261V202.068C60.6695 195.768 59.8125 194.231 59.4439 193.862C59.0745 193.493 57.5374 192.636 51.2367 192.636H37.0443C30.7436 192.636 29.2065 193.493 28.8379 193.862C28.4693 194.231 27.6115 195.768 27.6115 202.068V216.261C27.6115 222.562 28.4693 224.099 28.8379 224.469C29.2065 224.836 30.7436 225.694 37.0443 225.694H51.2367C57.5374 225.694 59.0745 224.836 59.4439 224.469C59.8125 224.099 60.6695 222.562 60.6695 216.261ZM51.2367 186.025C64.1959 186.025 67.281 189.11 67.281 202.068C67.281 215.028 67.281 203.303 67.281 216.261C67.281 229.221 64.1959 232.306 51.2367 232.306C38.2782 232.306 50.0028 232.306 37.0443 232.306C24.0851 232.306 21 229.221 21 216.261C21 203.303 21 209.305 21 202.068C21 189.11 24.0851 186.025 37.0443 186.025C50.0028 186.025 38.2782 186.025 51.2367 186.025ZM47.1816 199.248C52.7358 199.248 54.0578 200.571 54.0578 206.123C54.0578 211.678 54.0578 206.653 54.0578 212.206C54.0578 217.76 52.7358 219.083 47.1816 219.083C41.6282 219.083 46.6528 219.083 41.0994 219.083C35.546 219.083 34.2231 217.76 34.2231 212.206C34.2231 206.653 34.2231 209.225 34.2231 206.123C34.2231 200.571 35.546 199.248 41.0994 199.248C46.6528 199.248 41.6282 199.248 47.1816 199.248Z" fill="black"/>
</g>
</svg>
