<svg width="24" height="24" viewBox="0 0 24 24" fill="none" xmlns="http://www.w3.org/2000/svg">
<path d="M16.8337 6.2C16.8337 8.86938 14.6697 11.0333 12.0003 11.0333C9.33095 11.0333 7.16699 8.86938 7.16699 6.2C7.16699 3.53063 9.33095 1.36667 12.0003 1.36667C14.6697 1.36667 16.8337 3.53063 16.8337 6.2Z" fill="#3356D2"/>
<path opacity="0.25" fill-rule="evenodd" clip-rule="evenodd" d="M18.5915 14.054C17.9956 13.3631 16.9722 13.3987 16.1719 13.8368C14.9335 14.5146 13.5121 14.9 12.0008 14.9C10.4894 14.9 9.06809 14.5146 7.82966 13.8368C7.02938 13.3987 6.00591 13.3631 5.41005 14.054C4.0956 15.578 3.30078 17.5629 3.30078 19.7333V20.7C3.30078 21.7677 4.16636 22.6333 5.23411 22.6333H18.7674C19.8352 22.6333 20.7008 21.7677 20.7008 20.7V19.7333C20.7008 17.5629 19.906 15.578 18.5915 14.054Z" fill="#3356D2"/>
</svg>
