<?xml version="1.0" encoding="utf-8"?>
<!-- Generator: Adobe Illustrator 26.1.0, SVG Export Plug-In . SVG Version: 6.00 Build 0)  -->
<svg version="1.1" id="Слой_1" xmlns="http://www.w3.org/2000/svg" xmlns:xlink="http://www.w3.org/1999/xlink" x="0px" y="0px"
	 viewBox="0 0 24 24" style="enable-background:new 0 0 24 24;" xml:space="preserve">
<style type="text/css">
	.st0{fill:#FFFFFF;}
</style>
<g>
	<path class="st0" d="M9,11.8c-0.4,0-0.8-0.3-0.8-0.8s0.3-0.8,0.8-0.8c0.4,0,0.7,0,0.8,0c2.6-0.2,4.7-2.3,4.9-4.9c0-0.2,0-0.4,0-0.8
		V2.6c0-0.4,0.3-0.8,0.8-0.8s0.8,0.3,0.8,0.8v1.9c0,0.5,0,0.7,0,0.9c-0.2,3.4-2.9,6.1-6.3,6.3C9.7,11.7,9.5,11.8,9,11.8z"/>
</g>
<g>
	<path class="st0" d="M15.5,20.1c-0.4,0-0.8-0.3-0.8-0.8v-1.9c0-0.4,0-0.7,0-0.8c-0.2-2.6-2.3-4.7-4.9-4.9c-0.2,0-0.4,0-0.8,0
		c-0.4,0-0.8-0.3-0.8-0.8s0.3-0.8,0.8-0.8c0.5,0,0.7,0,0.9,0c3.4,0.2,6.1,2.9,6.3,6.3c0,0.2,0,0.5,0,0.9v1.9
		C16.2,19.8,15.9,20.1,15.5,20.1z"/>
</g>
<g>
	<path class="st0" d="M22,11.8c-0.5,0-0.7,0-0.9,0c-3.4-0.2-6.1-2.9-6.3-6.3c0-0.2,0-0.5,0-0.9V2.6c0-0.4,0.3-0.8,0.8-0.8
		s0.8,0.3,0.8,0.8v1.9c0,0.4,0,0.7,0,0.8c0.2,2.6,2.3,4.7,4.9,4.9c0.2,0,0.4,0,0.8,0c0.4,0,0.8,0.3,0.8,0.8S22.4,11.8,22,11.8z"/>
</g>
<g>
	<path class="st0" d="M15.5,20.1c-0.4,0-0.8-0.3-0.8-0.8v-1.9c0-0.5,0-0.7,0-0.9c0.2-3.4,2.9-6.1,6.3-6.3c0.2,0,0.5,0,0.9,0
		c0.4,0,0.8,0.3,0.8,0.8s-0.3,0.8-0.8,0.8c-0.4,0-0.7,0-0.8,0c-2.6,0.2-4.7,2.3-4.9,4.9c0,0.2,0,0.4,0,0.8v1.9
		C16.2,19.8,15.9,20.1,15.5,20.1z"/>
</g>
<g>
	<path class="st0" d="M4,18.2c-0.4,0-0.8-0.3-0.8-0.8s0.3-0.8,0.8-0.8c1.5,0,2.8-1.2,2.8-2.8v-1c0-0.4,0.3-0.8,0.8-0.8
		s0.8,0.3,0.8,0.8v1C8.2,16.3,6.3,18.2,4,18.2z"/>
</g>
<g>
	<path class="st0" d="M7.5,22.8c-0.4,0-0.8-0.3-0.8-0.8v-1c0-1.5-1.2-2.8-2.8-2.8c-0.4,0-0.8-0.3-0.8-0.8s0.3-0.8,0.8-0.8
		c2.3,0,4.2,1.9,4.2,4.2v1C8.2,22.4,7.9,22.8,7.5,22.8z"/>
</g>
<g>
	<path class="st0" d="M11,18.2c-2.3,0-4.2-1.9-4.2-4.2v-1c0-0.4,0.3-0.8,0.8-0.8s0.8,0.3,0.8,0.8v1c0,1.5,1.2,2.8,2.8,2.8
		c0.4,0,0.8,0.3,0.8,0.8S11.4,18.2,11,18.2z"/>
</g>
<g>
	<path class="st0" d="M7.5,22.8c-0.4,0-0.8-0.3-0.8-0.8v-1c0-2.3,1.9-4.2,4.2-4.2c0.4,0,0.8,0.3,0.8,0.8s-0.3,0.8-0.8,0.8
		c-1.5,0-2.8,1.2-2.8,2.8v1C8.2,22.4,7.9,22.8,7.5,22.8z"/>
</g>
<g>
	<path class="st0" d="M2,7.2c-0.4,0-0.8-0.3-0.8-0.8S1.6,5.8,2,5.8c1.5,0,2.8-1.2,2.8-2.8V2c0-0.4,0.3-0.8,0.8-0.8S6.2,1.6,6.2,2v1
		C6.2,5.3,4.3,7.2,2,7.2z"/>
</g>
<g>
	<path class="st0" d="M5.5,11.8c-0.4,0-0.8-0.3-0.8-0.8v-1c0-1.5-1.2-2.8-2.8-2.8c-0.4,0-0.8-0.3-0.8-0.8S1.6,5.8,2,5.8
		c2.3,0,4.2,1.9,4.2,4.2v1C6.2,11.4,5.9,11.8,5.5,11.8z"/>
</g>
<g>
	<path class="st0" d="M9,7.2C6.7,7.2,4.8,5.3,4.8,3V2c0-0.4,0.3-0.8,0.8-0.8S6.2,1.6,6.2,2v1c0,1.5,1.2,2.8,2.8,2.8
		c0.4,0,0.8,0.3,0.8,0.8S9.4,7.2,9,7.2z"/>
</g>
<g>
	<path class="st0" d="M5.5,11.8c-0.4,0-0.8-0.3-0.8-0.8v-1c0-2.3,1.9-4.2,4.2-4.2c0.4,0,0.8,0.3,0.8,0.8S9.4,7.2,9,7.2
		c-1.5,0-2.8,1.2-2.8,2.8v1C6.2,11.4,5.9,11.8,5.5,11.8z"/>
</g>
</svg>
