<svg width="24" height="24" viewBox="0 0 24 24" fill="none" xmlns="http://www.w3.org/2000/svg">
<path fill-rule="evenodd" clip-rule="evenodd" d="M3 22C2.44772 22 2 21.5523 2 21C2 20.4477 2.44772 20 3 20H4V6C4 3.79086 5.79086 2 8 2H16C18.2091 2 20 3.79086 20 6V20H21C21.5523 20 22 20.4477 22 21C22 21.5523 21.5523 22 21 22H3ZM18 20H6V6C6 4.89543 6.89543 4 8 4H16C17.1046 4 18 4.89543 18 6V20Z" fill="#808080"/>
<path d="M12.7071 16.7071C12.3166 17.0976 11.6834 17.0976 11.2929 16.7071L8.29289 13.7071C7.90237 13.3166 7.90237 12.6834 8.29289 12.2929C8.68342 11.9024 9.31658 11.9024 9.70711 12.2929L11 13.5858V8C11 7.44772 11.4477 7 12 7C12.5523 7 13 7.44772 13 8V13.5858L14.2929 12.2929C14.6834 11.9024 15.3166 11.9024 15.7071 12.2929C16.0976 12.6834 16.0976 13.3166 15.7071 13.7071L12.7071 16.7071Z" fill="#808080"/>
</svg>
