<svg width="24" height="24" viewBox="0 0 24 24" fill="none" xmlns="http://www.w3.org/2000/svg">
<path fill-rule="evenodd" clip-rule="evenodd" d="M3 2C2.44772 2 2 2.44772 2 3C2 3.55228 2.44772 4 3 4H4V18C4 20.2091 5.79086 22 8 22H16C18.2091 22 20 20.2091 20 18V4H21C21.5523 4 22 3.55228 22 3C22 2.44772 21.5523 2 21 2H3ZM18 4H6V18C6 19.1046 6.89543 20 8 20H16C17.1046 20 18 19.1046 18 18V4Z" fill="#808080"/>
<path d="M12.7071 16.7071C12.3166 17.0976 11.6834 17.0976 11.2929 16.7071L8.29289 13.7071C7.90237 13.3166 7.90237 12.6834 8.29289 12.2929C8.68342 11.9024 9.31658 11.9024 9.70711 12.2929L11 13.5858V8C11 7.44772 11.4477 7 12 7C12.5523 7 13 7.44772 13 8V13.5858L14.2929 12.2929C14.6834 11.9024 15.3166 11.9024 15.7071 12.2929C16.0976 12.6834 16.0976 13.3166 15.7071 13.7071L12.7071 16.7071Z" fill="#808080"/>
</svg>
