<svg width="1613" height="316" viewBox="0 0 1613 316" fill="none" xmlns="http://www.w3.org/2000/svg">
<g clip-path="url(#clip0_1_10453)">
<rect width="1612" height="316" transform="translate(0.5)" fill="#EFF3FF"/>
<path d="M1801.42 330.495C1737.58 172.692 1518.11 -63.9507 1150.91 251.903C691.902 646.72 388.368 331.823 356.934 64.7881" stroke="url(#paint0_linear_1_10453)" stroke-width="320"/>
<path d="M-40.1782 897.595C-136.81 740.439 -235.057 417.036 145.006 380.676C620.084 335.227 493.68 -103.264 301.28 -314.907" stroke="url(#paint1_linear_1_10453)" stroke-width="320"/>
<path d="M192.07 634L499.637 -25H1421.43L1113.86 634H192.07Z" stroke="url(#paint2_linear_1_10453)" stroke-width="2"/>
<path d="M449.07 634L756.637 -25H1162.93L855.363 634H449.07Z" stroke="url(#paint3_linear_1_10453)" stroke-width="2"/>
</g>
<defs>
<linearGradient id="paint0_linear_1_10453" x1="1273.47" y1="544.062" x2="549.619" y2="49.1909" gradientUnits="userSpaceOnUse">
<stop stop-color="white"/>
<stop offset="1" stop-color="#F4F2FF"/>
</linearGradient>
<linearGradient id="paint1_linear_1_10453" x1="322.26" y1="674.741" x2="498.314" y2="-127.562" gradientUnits="userSpaceOnUse">
<stop stop-color="white"/>
<stop offset="1" stop-color="#F4F2FF"/>
</linearGradient>
<linearGradient id="paint2_linear_1_10453" x1="483.5" y1="0.5" x2="483.5" y2="585" gradientUnits="userSpaceOnUse">
<stop stop-opacity="0.21"/>
<stop offset="1" stop-opacity="0"/>
</linearGradient>
<linearGradient id="paint3_linear_1_10453" x1="740.5" y1="0.5" x2="740.5" y2="585" gradientUnits="userSpaceOnUse">
<stop stop-opacity="0.21"/>
<stop offset="1" stop-opacity="0"/>
</linearGradient>
<clipPath id="clip0_1_10453">
<rect width="1612" height="316" fill="white" transform="translate(0.5)"/>
</clipPath>
</defs>
</svg>
