<svg width="24" height="25" viewBox="0 0 24 25" fill="none" xmlns="http://www.w3.org/2000/svg">
<path d="M23.6409 15.403C22.0381 21.8317 15.5262 25.744 9.09606 24.1409C2.66863 22.5382 -1.24415 16.0267 0.359423 9.59855C1.96159 3.16921 8.47348 -0.743422 14.9016 0.859264C21.3313 2.46195 25.2438 8.97423 23.6408 15.4032L23.6409 15.403H23.6409Z" fill="#F7931A"/>
<path d="M17.2923 10.7903C17.5312 9.19334 16.3153 8.33492 14.6526 7.76227L15.192 5.59908L13.875 5.27096L13.3499 7.3772C13.0037 7.29086 12.6482 7.20951 12.2948 7.12886L12.8237 5.00872L11.5075 4.6806L10.9679 6.84309C10.6814 6.77787 10.4 6.71341 10.1269 6.64548L10.1285 6.63868L8.31237 6.18522L7.96204 7.59165C7.96204 7.59165 8.93911 7.81559 8.91852 7.82937C9.45181 7.96246 9.54825 8.31545 9.53223 8.59523L8.91781 11.0596C8.95453 11.0689 9.00217 11.0824 9.05473 11.1035C9.01079 11.0926 8.96404 11.0807 8.91552 11.0691L8.05432 14.5214C7.98914 14.6834 7.82372 14.9265 7.45086 14.8342C7.46406 14.8533 6.49369 14.5953 6.49369 14.5953L5.83984 16.1026L7.55364 16.5298C7.87246 16.6098 8.1849 16.6934 8.49258 16.7721L7.94761 18.9601L9.26304 19.2882L9.80272 17.1234C10.1621 17.221 10.5108 17.3109 10.8522 17.3958L10.3144 19.5503L11.6314 19.8784L12.1763 17.6945C14.422 18.1195 16.1105 17.9482 16.8213 15.9172C17.394 14.282 16.7928 13.3388 15.6113 12.7238C16.4718 12.5253 17.12 11.9594 17.2928 10.7904L17.2924 10.7902L17.2923 10.7903ZM14.2834 15.0091C13.8764 16.6443 11.123 15.7603 10.2302 15.5387L10.9534 12.64C11.8461 12.8628 14.7088 13.3038 14.2835 15.0091H14.2834ZM14.6907 10.7666C14.3194 12.2539 12.0277 11.4983 11.2843 11.313L11.9399 8.68403C12.6834 8.86933 15.0774 9.21515 14.6908 10.7666H14.6907Z" fill="white"/>
</svg>
