<svg width="24" height="23" viewBox="0 0 24 23" fill="none" xmlns="http://www.w3.org/2000/svg">
<g clip-path="url(#clip0_1_6476)">
<path d="M6.57935 11.42C6.52815 12.3096 7.21295 13.0712 8.10255 13.1224C8.13455 13.1224 8.16655 13.1224 8.19855 13.1224C9.09455 13.1224 9.81775 12.3992 9.81135 11.5032C9.81135 10.6072 9.08815 9.88396 8.19215 9.89036C7.33455 9.89036 6.62415 10.5624 6.57935 11.42Z" fill="#3356D2"/>
<path d="M0.550449 11.004C0.262449 10.9848 0.0128485 11.2088 4.85321e-05 11.4968C-0.0127515 11.7848 0.204849 12.0344 0.492849 12.0472C0.780849 12.0664 1.02405 11.8424 1.04325 11.5544C1.06245 11.2664 0.838449 11.0232 0.550449 11.004Z" fill="#3356D2"/>
<path d="M6.47688 2.0376C6.73288 1.9096 6.83528 1.5896 6.70728 1.3336C6.57928 1.0776 6.25928 0.975201 6.00328 1.1032C5.74728 1.2312 5.64488 1.5448 5.77288 1.8008C5.90088 2.0632 6.21448 2.172 6.47688 2.0376Z" fill="#3356D2"/>
<path d="M8.11548 4.89838C8.51228 4.69998 8.67228 4.21358 8.47388 3.81678C8.27548 3.41998 7.78908 3.25998 7.39228 3.45838C6.99548 3.65678 6.83548 4.14318 7.03388 4.53998C7.23228 4.93678 7.71868 5.09678 8.11548 4.89838Z" fill="#3356D2"/>
<path d="M2.59871 6.86319C2.90591 7.06159 3.31551 6.97839 3.52031 6.67119C3.71871 6.36399 3.63551 5.95439 3.32831 5.74959C3.02111 5.55119 2.61151 5.63439 2.40671 5.94159C2.20191 6.24879 2.29151 6.66479 2.59871 6.86319Z" fill="#3356D2"/>
<path d="M3.57766 10.716C3.12966 10.6904 2.75206 11.0296 2.72646 11.4776C2.70086 11.9256 3.04006 12.3032 3.48806 12.3288C3.93606 12.3544 4.31366 12.0152 4.33926 11.5672C4.36486 11.1256 4.02566 10.7416 3.57766 10.716Z" fill="#3356D2"/>
<path d="M2.6882 16.1368C2.3618 16.3032 2.2274 16.7 2.3938 17.0328C2.5602 17.3592 2.957 17.4936 3.2898 17.3272C3.6162 17.1608 3.7506 16.764 3.5842 16.4312C3.4178 16.1048 3.0146 15.9704 2.6882 16.1368Z" fill="#3356D2"/>
<path d="M5.82428 9.04558C6.26588 9.33358 6.85468 9.21198 7.13628 8.77038C7.42428 8.32878 7.30268 7.73998 6.86108 7.45838C6.41948 7.17038 5.83068 7.29198 5.54908 7.73358C5.26108 8.16878 5.38268 8.75758 5.82428 9.04558Z" fill="#3356D2"/>
<path d="M15.776 4.83436C16.1472 5.07756 16.6528 4.97516 16.896 4.60396C17.1392 4.23276 17.0368 3.72716 16.6656 3.48396C16.2944 3.24076 15.7888 3.34316 15.5456 3.71436C15.296 4.09196 15.3984 4.59116 15.776 4.83436Z" fill="#3356D2"/>
<path d="M17.4275 1.9864C17.6707 2.1464 17.9907 2.076 18.1507 1.8328C18.3107 1.5896 18.2403 1.2696 17.9971 1.1096C17.7539 0.949604 17.4339 1.02 17.2739 1.2568C17.1203 1.5 17.1907 1.8264 17.4275 1.9864Z" fill="#3356D2"/>
<path d="M15.8975 9.87757C15.0079 9.82637 14.2399 10.5112 14.1951 11.4008C14.1439 12.2904 14.8287 13.0584 15.7183 13.1032C15.7503 13.1032 15.7823 13.1032 15.8079 13.1032C16.6975 13.1032 17.4207 12.38 17.4207 11.484C17.4271 10.6328 16.7551 9.92237 15.8975 9.87757Z" fill="#3356D2"/>
<path d="M8.64644 8.93035C8.92164 9.47435 9.47844 9.81995 10.0928 9.81995C10.9824 9.81995 11.7056 9.09675 11.7056 8.20075C11.7056 7.95115 11.648 7.70155 11.5328 7.47115C11.1296 6.67115 10.1568 6.35115 9.36324 6.75435C8.56324 7.16395 8.24324 8.13675 8.64644 8.93035Z" fill="#3356D2"/>
<path d="M21.3119 6.86319C21.6383 6.69679 21.7663 6.29359 21.5999 5.96719C21.4335 5.64079 21.0303 5.51279 20.7039 5.67919C20.3775 5.84559 20.2495 6.24239 20.4095 6.56879C20.5823 6.89519 20.9791 7.02959 21.3119 6.86319Z" fill="#3356D2"/>
<path d="M17.2159 7.3752C16.7487 7.612 16.5567 8.1816 16.7935 8.6488C17.0303 9.116 17.5999 9.308 18.0671 9.0712C18.5343 8.8344 18.7263 8.2648 18.4895 7.7976C18.2527 7.3304 17.6831 7.1448 17.2159 7.3752Z" fill="#3356D2"/>
<path d="M11.9362 1.74316C12.301 1.76236 12.6146 1.48076 12.6402 1.11596C12.6658 0.751157 12.3778 0.437557 12.013 0.411957C11.6482 0.392757 11.3346 0.667957 11.309 1.03276C11.2898 1.40396 11.5714 1.71756 11.9362 1.74316Z" fill="#3356D2"/>
<path d="M11.9299 5.92236C12.4547 5.95436 12.9027 5.55116 12.9283 5.02636C12.9603 4.50156 12.5571 4.05356 12.0323 4.02796C11.5075 3.99596 11.0595 4.39916 11.0339 4.92396C11.0083 5.44876 11.4051 5.89676 11.9299 5.92236Z" fill="#3356D2"/>
<path d="M6.78387 15.6248C7.25107 15.388 7.44307 14.8184 7.20627 14.3512C6.96947 13.884 6.39987 13.692 5.93267 13.9288C5.46547 14.1656 5.27347 14.7352 5.51027 15.2024C5.74707 15.6696 6.31667 15.8616 6.78387 15.6248Z" fill="#3356D2"/>
<path d="M12.5443 7.3112C12.0579 8.06 12.2627 9.0584 13.0115 9.5448C13.7603 10.0312 14.7587 9.8264 15.2451 9.0776C15.7315 8.3288 15.5267 7.3304 14.7779 6.844C14.5155 6.6712 14.2083 6.5816 13.8947 6.5816C13.3507 6.5816 12.8451 6.8568 12.5443 7.3112Z" fill="#3356D2"/>
<path d="M15.3536 14.0696C14.9504 13.2696 13.9776 12.9496 13.184 13.3528C12.384 13.756 12.064 14.7288 12.4672 15.5224C12.8704 16.3224 13.8432 16.6424 14.6368 16.2392C15.4304 15.8424 15.7568 14.8824 15.36 14.0824C15.36 14.076 15.36 14.076 15.3536 14.0696Z" fill="#3356D2"/>
<path d="M18.176 13.9544C17.7344 13.6664 17.1456 13.788 16.864 14.2296C16.576 14.6712 16.6976 15.26 17.1392 15.5416C17.5808 15.8296 18.1696 15.708 18.4512 15.2664C18.7392 14.8312 18.6176 14.2424 18.176 13.9544Z" fill="#3356D2"/>
<path d="M21.2738 11.5288C21.2994 11.0808 20.9602 10.7032 20.5122 10.6776C20.0642 10.652 19.6866 10.9912 19.661 11.4392C19.6354 11.8872 19.9746 12.2648 20.4226 12.2904C20.8642 12.316 21.2482 11.9704 21.2738 11.5288Z" fill="#3356D2"/>
<path d="M23.5075 10.9527C23.2195 10.9335 22.9699 11.1575 22.9571 11.4455C22.9443 11.7335 23.1619 11.9831 23.4499 11.9959C23.7379 12.0151 23.9811 11.7911 24.0003 11.5031C24.0131 11.2151 23.7955 10.9719 23.5075 10.9527Z" fill="#3356D2"/>
<path d="M21.4017 16.1368C21.0945 15.9384 20.6849 16.0216 20.4801 16.3288C20.2817 16.636 20.3649 17.0456 20.6721 17.2504C20.9793 17.4488 21.3889 17.3656 21.5937 17.0584C21.7985 16.7512 21.7089 16.3352 21.4017 16.1368Z" fill="#3356D2"/>
<path d="M6.56626 21.0136C6.32306 20.8536 6.00306 20.924 5.84306 21.1608C5.68306 21.404 5.75346 21.724 5.99026 21.884C6.23346 22.044 6.55346 21.9736 6.71346 21.7368C6.87986 21.5 6.80946 21.1736 6.56626 21.0136Z" fill="#3356D2"/>
<path d="M17.5233 20.9624C17.2673 21.0904 17.1649 21.4104 17.2929 21.6664C17.4209 21.9224 17.7409 22.0248 17.9969 21.8968C18.2529 21.7688 18.3553 21.4552 18.2273 21.1992C18.0993 20.9368 17.7857 20.828 17.5233 20.9624Z" fill="#3356D2"/>
<path d="M11.456 15.6888C11.9424 14.94 11.7376 13.9416 10.9888 13.4488C10.24 12.9624 9.24156 13.1672 8.74876 13.916C8.25596 14.6648 8.46716 15.6632 9.21596 16.156C9.47836 16.3288 9.78556 16.4184 10.0992 16.4184C10.6496 16.4248 11.1552 16.1496 11.456 15.6888Z" fill="#3356D2"/>
<path d="M8.22408 18.1656C7.85288 17.9224 7.34728 18.0248 7.10408 18.396C6.86088 18.7672 6.96328 19.2728 7.33448 19.516C7.70568 19.7592 8.21128 19.6568 8.45448 19.2856C8.70408 18.9144 8.60168 18.4088 8.22408 18.1656Z" fill="#3356D2"/>
<path d="M11.9937 21.2568C11.6289 21.2376 11.3153 21.5192 11.2897 21.884C11.2641 22.2488 11.5521 22.5624 11.9169 22.588C12.2817 22.6072 12.5953 22.332 12.6209 21.9672C12.6401 21.596 12.3585 21.2824 11.9937 21.2568Z" fill="#3356D2"/>
<path d="M12.0002 17.0776C11.4754 17.0456 11.0274 17.4488 11.0018 17.9736C10.9698 18.4984 11.373 18.9464 11.8978 18.972C12.4226 18.9976 12.8706 18.6008 12.8962 18.076C12.9282 17.5576 12.525 17.1032 12.0002 17.0776Z" fill="#3356D2"/>
<path d="M15.8847 18.1016C15.4879 18.3064 15.3279 18.7928 15.5327 19.1896C15.7375 19.5864 16.2239 19.7464 16.6207 19.5416C17.0175 19.3432 17.1775 18.8568 16.9791 18.46C16.7743 18.0632 16.2879 17.8968 15.8847 18.1016Z" fill="#3356D2"/>
</g>
<defs>
<clipPath id="clip0_1_6476">
<rect width="24" height="22.176" fill="white" transform="translate(0 0.411987)"/>
</clipPath>
</defs>
</svg>
