<svg width="24" height="25" viewBox="0 0 24 25" fill="none" xmlns="http://www.w3.org/2000/svg">
<g clip-path="url(#clip0_1_6345)">
<path d="M12 24.5C18.6274 24.5 24 19.1274 24 12.5C24 5.87258 18.6274 0.5 12 0.5C5.37258 0.5 0 5.87258 0 12.5C0 19.1274 5.37258 24.5 12 24.5Z" fill="#988430"/>
<path d="M11.9999 24.1156C18.415 24.1156 23.6155 18.9151 23.6155 12.5C23.6155 6.08489 18.415 0.884399 11.9999 0.884399C5.58477 0.884399 0.384277 6.08489 0.384277 12.5C0.384277 18.9151 5.58477 24.1156 11.9999 24.1156Z" fill="#7A6A2A"/>
<path d="M11.9998 23.8709C18.2798 23.8709 23.3707 18.78 23.3707 12.5C23.3707 6.22007 18.2798 1.12915 11.9998 1.12915C5.71982 1.12915 0.628906 6.22007 0.628906 12.5C0.628906 18.78 5.71982 23.8709 11.9998 23.8709Z" fill="#BA9F33"/>
<path fill-rule="evenodd" clip-rule="evenodd" d="M5.24683 11.2185C5.17886 11.1564 5.10705 11.0942 5.041 11.0321C4.97496 10.97 4.90712 10.9078 4.83915 10.8457L4.63717 10.6537C4.60414 10.6207 4.5692 10.5917 4.53617 10.5585C4.50315 10.5294 4.46437 10.4964 4.43134 10.4672C4.16331 10.2129 3.89374 9.95857 3.62942 9.7041C3.90321 9.9546 4.17125 10.2033 4.44504 10.4575L4.54014 10.5527C4.57316 10.5856 4.60811 10.6148 4.64113 10.6478L4.84299 10.8342C4.91096 10.8963 4.97701 10.9585 5.04497 11.0262C5.11294 11.0939 5.17899 11.1563 5.24696 11.2182L5.24683 11.2185ZM1.68958 11.1801C1.68958 11.1801 2.6643 11.2809 3.14008 11.3489C3.58078 11.4111 4.95947 11.6227 4.95947 11.6227L1.68958 11.1801ZM1.68958 11.1801C1.96337 11.2034 2.23717 11.2324 2.51096 11.2616C2.65073 11.2752 2.78475 11.2907 2.91876 11.3042L3.12446 11.3277C3.19243 11.3373 3.25848 11.347 3.32644 11.3567L4.14206 11.4868L4.54974 11.5547C4.68376 11.578 4.81777 11.6034 4.95755 11.6267C4.82353 11.6131 4.68376 11.5936 4.54974 11.5742L4.14206 11.5159L3.32644 11.3956C3.25848 11.3859 3.19243 11.3722 3.12446 11.3626L2.91864 11.3389C2.78462 11.3253 2.64485 11.3059 2.51083 11.2903C2.23704 11.2574 1.96325 11.2223 1.68945 11.1797L1.68958 11.1801ZM4.86244 11.8766C4.86244 11.8766 3.82168 12.1408 3.47019 12.2418C3.12459 12.3369 2.07793 12.6554 2.07793 12.6554L4.86232 11.8768L4.86244 11.8766Z" fill="#CFB66C"/>
<path fill-rule="evenodd" clip-rule="evenodd" d="M4.86203 11.8766C4.63099 11.9446 4.40123 12.0107 4.16686 12.0729L3.47169 12.2592C3.24065 12.3272 3.01089 12.3933 2.78049 12.4612L2.43489 12.5563C2.32033 12.5894 2.20385 12.6184 2.08545 12.6516C2.19988 12.6132 2.31649 12.5739 2.43105 12.5408L2.77665 12.4302C3.00769 12.3583 3.23745 12.2903 3.46785 12.2185C3.70273 12.1603 3.9339 12.0981 4.16878 12.0418C4.39201 11.9854 4.62702 11.9293 4.86203 11.8768V11.8766ZM2.22331 13.2962C2.33774 13.2534 3.65819 12.638 3.965 12.4942C4.1186 12.4223 4.56507 12.2638 4.56507 12.2638L2.22331 13.2962Z" fill="#CFB66C"/>
<path fill-rule="evenodd" clip-rule="evenodd" d="M2.22327 13.2962C2.32414 13.2578 2.41937 13.2108 2.51639 13.1661L2.80375 13.0321L3.38052 12.7545C3.57252 12.6632 3.75914 12.5625 3.95716 12.4767C4.05815 12.4341 4.15914 12.3991 4.26001 12.3661L4.41361 12.3176C4.46596 12.304 4.5146 12.2884 4.56721 12.2748C4.37521 12.3661 4.1731 12.4438 3.98084 12.533C3.78884 12.6282 3.59249 12.7059 3.39434 12.7913L2.80798 13.0495C2.61111 13.1292 2.41911 13.2146 2.22314 13.2962H2.22327ZM2.35127 13.8338C2.35127 13.8338 3.5473 13.1328 3.95895 12.9075C4.1745 12.7872 4.87159 12.4415 4.87159 12.4415L2.35127 13.8338Z" fill="#CFB66C"/>
<path fill-rule="evenodd" clip-rule="evenodd" d="M2.35156 13.834C2.55342 13.7097 2.75924 13.5835 2.96507 13.4554L3.27227 13.2689C3.3771 13.2068 3.47809 13.1486 3.58497 13.0865C3.6898 13.0243 3.79079 12.9622 3.89755 12.904C3.94837 12.8726 4.00161 12.8453 4.05678 12.8224L4.21985 12.7409C4.4354 12.6361 4.65095 12.5292 4.87815 12.4379C4.67233 12.5681 4.46062 12.6788 4.24903 12.7933C4.1442 12.8515 4.03732 12.904 3.93249 12.9622C3.82766 13.0205 3.72667 13.0827 3.61979 13.139C3.51495 13.2011 3.41396 13.2593 3.30721 13.3156L2.99067 13.4884L2.35182 13.834H2.35156ZM4.86215 12.5951C4.86215 12.5951 4.11847 13.166 3.87771 13.3485C3.63694 13.531 2.9282 14.0437 2.9282 14.0437L4.86215 12.5951Z" fill="#CFB66C"/>
<path fill-rule="evenodd" clip-rule="evenodd" d="M9.13006 17.199L8.74951 16.4786L8.97082 15.5776L10.5494 14.968L9.87758 13.5894L10.2096 12.1972L10.833 10.9504L12.7592 10.6476L14.1747 9.2981L17.231 9.52914L17.831 12.7971L16.6757 16.9117L16.0175 19.0418L13.3494 19.1428L12.1107 18.2846L10.6602 17.6786L9.13006 17.199Z" fill="#E2CC85"/>
<path fill-rule="evenodd" clip-rule="evenodd" d="M13.81 17.1757C13.81 17.1757 13.441 17.3447 12.8116 17.3058C12.6295 17.0612 11.3538 16.9466 11.3538 16.9466C11.3538 16.9466 11.1946 16.8981 10.913 17.0146C10.6296 17.1298 10.3616 17.1156 10.1111 17.1777C9.86056 17.2397 9.61186 16.9136 9.41986 16.8456C9.22786 16.7738 8.97327 16.601 8.97327 16.601L8.43567 16.5485L7.35611 16.0922L5.64104 14.3835L5.17499 15.1131L5.03125 16.0161L5.54978 17.086L6.94587 18.3578L9.66818 19.049L11.2817 18.5736L13.3031 17.7192L13.81 17.1756V17.1757Z" fill="#F1D789"/>
<path fill-rule="evenodd" clip-rule="evenodd" d="M4.13767 11.1369L4.48327 10.0904L4.89505 9.41455L6.22113 9.30383L5.82305 10.465L4.71444 12.4379L5.1746 14.1991L4.35911 14.6067L4.10849 14.2224L3.90663 13.3408L3.89307 12.3505L4.13767 11.1369Z" fill="#F4ECB4"/>
<path fill-rule="evenodd" clip-rule="evenodd" d="M5.62513 17.1039L5.37079 16.7486C5.37079 16.7486 5.30282 16.5796 5.34174 16.4321C5.38014 16.2826 5.37463 16.2728 5.3553 16.2165C5.33598 16.1602 5.17278 15.966 5.1825 15.799C5.1921 15.63 5.16894 15.5737 5.2931 15.4398C5.42314 15.3098 5.38436 15.0845 5.38436 15.0845L5.55332 15.1893L5.59172 15.1311C5.59172 15.1311 5.6538 15.1796 5.6538 15.2554C5.66737 15.1505 5.61105 14.665 5.73918 14.5544C5.8673 14.4438 6.0945 15.0728 6.0945 15.0728L5.95473 14.1602L5.59543 13.2244L4.95658 12.37L4.91818 11.4282V11.3466C4.91818 11.3466 4.62494 11.7972 4.5434 12.153C4.48516 12.3976 4.62494 12.6947 4.59588 13.0462C4.57246 13.3958 4.5434 13.3685 4.62878 13.507C4.71415 13.6455 4.92202 13.9303 4.84049 14.1361C4.76868 14.3129 4.52394 14.1886 4.52394 14.1886C4.52394 14.1886 4.47543 14.3322 4.40938 14.3847C4.38609 14.2993 4.36087 14.2449 4.31428 14.1927C4.31031 14.2257 4.30071 14.2704 4.30071 14.2704C4.30071 14.2704 4.25796 14.1364 4.21521 13.9674C4.1571 13.7423 4.09489 13.4452 4.03857 13.2859C4.01527 13.3772 3.95703 13.6548 3.95703 13.6548L3.99006 14.0821L4.14929 14.6685L4.30289 15.0525L4.45239 15.5224L4.58231 15.838L4.68714 16.0788L4.77841 16.6206L5.21911 17.0865L5.45412 17.1915L5.62487 17.1041L5.62513 17.1039Z" fill="#F3E19D"/>
<path fill-rule="evenodd" clip-rule="evenodd" d="M4.36876 10.2825C4.36876 10.2825 4.05222 10.8201 3.96108 11.3621C3.86995 11.904 3.78828 12.4767 3.84588 13.2145C3.90412 13.9583 4.01484 14.4145 4.10419 14.7408C4.25779 15.2826 4.65561 16.036 4.65561 16.036L4.66918 16.0068C4.60231 15.8801 4.54894 15.7466 4.50995 15.6087C4.45747 15.4029 4.43801 15.1583 4.3895 15.0476C4.34675 14.937 4.27494 14.8418 4.24 14.7058C4.20697 14.5758 4.2016 14.37 4.10022 14.2166C4.05747 14.1544 4.00499 13.9913 3.9895 13.8283C3.97004 13.5835 3.99923 13.3097 3.97593 13.0846C3.93318 12.7098 3.90412 12.4555 3.94291 12.2592C3.98169 12.063 4.1838 11.506 4.30809 11.0632C4.38963 10.7797 4.34099 10.5408 4.49049 10.2942C4.64 10.0496 4.73139 9.83402 4.76428 9.68452C4.80268 9.54858 4.36825 10.2825 4.36825 10.2825H4.36876Z" fill="#F2E8B0"/>
<path fill-rule="evenodd" clip-rule="evenodd" d="M5.86996 10.067C5.86996 10.067 5.70689 10.1156 5.6292 10.201C5.5515 10.2825 5.51848 10.3505 5.41364 10.4883C5.30881 10.6262 5.30292 10.7388 5.21742 10.9116C5.13204 11.0806 4.94363 11.3349 4.92033 11.4262C4.89704 11.5175 4.85825 11.9446 4.80974 12.1466C4.76699 12.3486 4.85825 12.5971 4.85825 12.5971L4.96884 12.5737C4.96884 12.5737 4.96884 12.7175 5.07956 12.8146C5.19016 12.9097 5.20961 12.4922 5.20961 12.4922L5.62318 11.0961L6.24641 10.6728L6.31438 10.331L5.86971 10.067H5.86996Z" fill="#F5EEC0"/>
<path fill-rule="evenodd" clip-rule="evenodd" d="M6.17265 10.7001C6.17265 10.7001 5.87941 10.7194 5.73579 10.8244C5.67755 10.867 5.65425 10.9019 5.59217 10.9544C5.47761 11.0495 5.36101 11.1369 5.30481 11.2616C5.24261 11.3858 5.17464 11.5742 5.12805 11.9295C5.10859 12.079 5.10859 12.2169 5.09502 12.3373C5.07557 12.5004 5.04651 12.6304 5.062 12.7213C5.08145 12.9077 5.27371 13.0048 5.2924 13.2164L5.69048 13.0146L6.06526 11.5368L6.86142 11.0376L6.41086 10.5328L6.17214 10.6992L6.17265 10.7001Z" fill="#E6DB9D"/>
<path fill-rule="evenodd" clip-rule="evenodd" d="M4.07288 20.6509C4.07455 20.6363 4.07621 20.6217 4.07787 20.6067C4.13599 20.1075 4.14584 19.7292 4.18847 19.4922C4.25055 19.1564 4.2933 19.0314 4.28357 18.9057C4.27 18.7039 4.25451 18.5563 4.27397 18.4009C4.30303 18.1951 4.50501 17.9505 4.49925 17.7815C4.49528 17.6475 4.42731 17.5602 4.36907 17.4787C4.31083 17.3971 4.26424 17.3292 4.26424 17.3292C4.26424 17.3292 4.66232 17.0554 4.65848 15.9524C4.66661 15.9547 4.67443 15.958 4.68178 15.9621L4.87787 16.5193L5.01189 16.6824L5.52645 17.6416L6.18859 18.2844L7.16715 18.9426L7.78079 19.6104L7.84287 21.391L7.04095 22.4318L6.90962 22.6696C5.86625 22.1458 4.90949 21.4649 4.07275 20.6508L4.07288 20.6509Z" fill="#E5CB7A"/>
<path fill-rule="evenodd" clip-rule="evenodd" d="M6.52246 22.3544C6.52246 22.3544 6.53603 22.133 6.71856 21.9893C6.74774 22.0378 6.76707 22.0845 6.76131 22.1193C6.79433 22.0612 7.02537 21.6884 7.54774 21.5912C8.07011 21.4961 8.19632 21.1156 8.19632 21.1156L9.30492 20.1078L10.5729 18.9408L12.1147 18.399L12.8352 18.2223C12.8352 18.2223 12.8487 18.2747 12.8216 18.3912C12.9555 18.3816 13.2526 18.3136 13.5613 18.2048C13.6856 18.1563 13.8022 18.1369 13.8643 18.201C13.9555 18.2864 13.9691 18.4884 13.9749 18.6087C14.1244 18.5757 14.2972 18.4321 14.4357 18.4456C14.6571 18.4689 14.8532 18.7291 15.0785 18.7291C15.3756 18.7291 15.5095 18.5466 15.7173 18.4029C15.8416 18.3175 16.0202 18.2109 16.1212 18.1388C16.3619 17.962 18.9095 17.1834 18.9095 17.1834L19.8027 17.2416L19.9465 18.2009L19.8697 20.7084C19.8602 20.7175 19.8507 20.727 19.8411 20.736L15.7799 22.8571L10.1505 23.7201C8.88948 23.5141 7.67258 23.0955 6.55164 22.4822L6.52284 22.3542L6.52246 22.3544Z" fill="#D8C173"/>
<path fill-rule="evenodd" clip-rule="evenodd" d="M4.41406 20.9699C4.49406 20.8026 4.566 20.6627 4.57867 20.6127C4.58865 20.7135 4.60696 20.9348 4.64382 21.1701C4.56642 21.1043 4.48984 21.0375 4.41406 20.9698V20.9699Z" fill="#F1D789"/>
<path fill-rule="evenodd" clip-rule="evenodd" d="M8.52629 23.3297L9.25435 23.1272L9.31643 23.1466C9.31643 23.1466 9.34945 23.1661 9.34945 23.232C9.44072 23.1797 9.51842 23.1893 9.57474 23.1544C9.60379 23.2165 9.63285 23.4223 9.7611 23.4476C9.89499 23.4767 10.0387 23.3893 10.1844 23.2787C10.328 23.1642 10.4916 23.0204 10.6154 22.9622C10.6608 23.0457 10.701 23.1319 10.7358 23.2204C10.8989 23.0903 11.1824 22.5622 11.5863 22.5718C11.703 22.2959 11.898 22.0604 12.1472 21.8941C12.5219 21.6398 12.7568 21.6204 13.0501 21.6437C13.1665 21.4924 13.3101 21.364 13.4734 21.265C13.5219 21.2845 13.6559 21.366 13.8229 21.2883C13.9919 21.2108 14.1821 20.9097 14.4326 20.8709C14.5676 20.8523 14.7048 20.8812 14.8209 20.9525C14.8209 20.9525 15.5505 20.2281 16.054 19.9873C16.0345 19.9291 15.9957 19.7097 16.5859 19.2242C16.619 19.2534 16.5957 19.3349 16.619 19.3394C16.6286 19.3394 16.7726 19.2773 16.9548 19.1374C17.1801 18.9686 17.4499 18.7918 17.613 18.7433C17.9202 18.652 18.2461 18.8384 18.2461 18.8384C18.2738 18.819 18.3047 18.8045 18.3374 18.7957C18.4149 18.7821 18.4712 18.7724 18.514 18.7573C18.5102 18.8582 18.5665 19.031 18.514 19.1805C18.5748 19.2147 18.6392 19.2421 18.706 19.2621C18.6731 19.3339 18.6012 19.5164 18.4808 19.6038C18.5817 19.6524 18.5953 19.7087 18.739 19.7574C18.6808 19.839 18.5854 19.9789 18.5429 20.0646C18.5002 20.1559 18.3467 20.5345 18.2787 20.6781C18.2069 20.8219 18.1099 21.086 18.0632 21.1389C18.0165 21.1919 17.8476 21.4166 17.7176 21.5272C17.8328 21.4844 18.3041 21.3408 18.504 21.2864C18.4445 21.3737 18.1428 21.8213 17.8528 22.2518C16.464 23.0842 14.9138 23.611 13.3055 23.7972C11.6971 23.9834 10.0676 23.8247 8.52539 23.3316L8.52629 23.3297Z" fill="#E0CD81"/>
<path fill-rule="evenodd" clip-rule="evenodd" d="M6.22062 10.6476C6.22062 10.6476 6.05178 10.6476 6.01876 10.6709C5.98574 10.6942 6.18772 10.7428 6.2498 10.7661C6.31188 10.7894 6.4459 10.8962 6.48084 10.9817C6.51386 11.0632 7.69441 11.5389 7.69441 11.5389L8.52935 11.4961L8.81722 11.0984L8.26964 10.6188L8.65364 9.48676L8.14497 9.56829L6.92167 10.2979L6.30804 10.5329L6.22062 10.6476Z" fill="#DFC57C"/>
<path fill-rule="evenodd" clip-rule="evenodd" d="M8.05432 11.0224C8.06639 11.0419 8.08339 11.0579 8.10361 11.0688C8.12383 11.0797 8.14656 11.0851 8.16952 11.0844C8.34232 11.0844 8.50142 11.1272 8.56747 11.2145C8.67819 11.3544 8.98501 11.801 8.98501 11.801L9.71896 12.0651L9.76632 11.2008L8.9644 10.6436L8.05176 10.9795V11.0222H8.05381L8.05432 11.0224Z" fill="#E5CC7C"/>
<path fill-rule="evenodd" clip-rule="evenodd" d="M7.91061 11.3427C7.91061 11.3427 8.04449 11.3525 8.21345 11.2903C8.38241 11.228 8.66005 11.0942 8.78049 11.1466C8.94933 11.2184 8.91438 11.4437 9.09704 11.6458C9.20763 11.7701 9.40961 11.7663 9.52417 11.9003C9.63873 12.0343 10.0328 11.9721 10.0328 11.9721L10.1823 12.7785L9.58241 13.5475L9.38619 14.5028H8.57493L7.83381 14.2088L7.46875 13.3256L7.65128 12.4324L7.91061 11.3427Z" fill="#D2C281"/>
<path fill-rule="evenodd" clip-rule="evenodd" d="M9.47974 11.3815C9.49986 11.3877 9.52077 11.391 9.54182 11.3913C9.51853 11.4107 9.46989 11.4534 9.48934 11.5641C9.5088 11.6748 9.57088 11.8146 9.51853 11.8999C9.56032 11.9456 9.59149 12 9.60979 12.0592C9.64282 12.1544 9.65254 12.2417 9.86797 12.2554C9.83688 12.2745 9.80821 12.2974 9.78259 12.3234C9.78259 12.3234 9.9321 12.4534 10.0079 12.5737C10.0854 12.5704 10.2913 12.5064 10.2913 12.5064L10.334 12.5356L10.4253 12.4972C10.4253 12.4972 10.3399 12.4642 10.402 12.2564C10.4602 12.0739 10.5127 12.0836 10.5172 12.0701C10.5217 12.0565 10.5599 11.8642 10.5599 11.7865C10.589 11.6857 10.6123 11.3789 10.6123 11.3789L10.5502 10.7012L10.2008 10.4895L9.91661 10.2152L9.64858 10.72L9.47206 10.896L9.4585 11.3329L9.47974 11.3815Z" fill="#E2C270"/>
<path fill-rule="evenodd" clip-rule="evenodd" d="M10.3203 10.8146C10.3203 10.8146 10.3824 10.9912 10.4058 11.1272C10.4141 11.1008 10.4186 11.0733 10.4194 11.0456C10.4194 11.0456 10.4679 11.3137 10.4775 11.4244C10.497 11.4204 10.5159 11.4147 10.5202 11.434C10.5246 11.4533 10.5689 11.669 10.5586 11.7893C10.6395 11.6559 10.7514 11.544 10.8848 11.4632C10.9625 11.4145 11.0538 11.3622 11.149 11.3582C11.2985 11.3544 11.4072 11.4534 11.5858 11.4534C12.0168 11.4534 12.4072 11.1369 12.6946 11.0399C12.9062 10.9679 13.0887 10.9156 13.2168 10.799C13.279 10.7466 13.3898 10.6302 13.4906 10.4572C13.6246 10.2268 13.7644 10.0262 13.9043 10.001C13.841 10.0127 13.7766 10.0172 13.7123 10.0146C13.7123 10.0146 13.7551 9.97185 13.8275 9.91361C13.9 9.85537 13.9867 9.78356 14.1109 9.78356C14.3323 9.78356 14.4429 9.81646 14.5672 9.81646C14.6915 9.81262 14.7633 9.78356 14.7633 9.78356C14.7633 9.78356 14.8935 9.87482 15.1866 9.87482C15.4799 9.87866 15.676 9.90388 15.8294 9.91758C15.9829 9.93127 16.4973 9.87482 16.6449 9.87918C16.7411 9.88288 16.8356 9.906 16.9227 9.94714L16.4469 8.56474L14.7378 7.07098L13.7204 7.79137L12.1552 9.35642L10.6407 9.91758L10.3242 10.2729V10.8146H10.3203Z" fill="#CCB360"/>
<path fill-rule="evenodd" clip-rule="evenodd" d="M13.7185 10.0223C13.7185 10.0223 13.7613 9.97968 13.8329 9.92144C13.9046 9.8632 13.9923 9.79127 14.1165 9.79127C14.3378 9.79127 14.4485 9.82429 14.5728 9.82429C14.6971 9.82045 14.7689 9.79127 14.7689 9.79127C14.7689 9.79127 14.8992 9.8824 15.1922 9.8824C15.4854 9.88624 15.6815 9.91146 15.835 9.92503C15.9885 9.9386 16.5029 9.8824 16.6505 9.88663C16.7467 9.89025 16.8411 9.91337 16.9281 9.9546L16.7126 9.33124L16.4622 8.85559L15.7476 8.073C15.7476 8.073 14.89 7.56816 14.8834 7.56432C14.8796 7.56048 14.5863 7.48279 14.5863 7.48279L13.8096 7.95268L13.1049 9.77604L13.0913 10.16L13.5475 10.3756C13.6621 10.1836 13.7884 10.03 13.9068 10.0105C13.7999 10.0222 13.7184 10.0222 13.7184 10.0222L13.7185 10.0223Z" fill="#D5B457"/>
<path fill-rule="evenodd" clip-rule="evenodd" d="M13.709 10.1525C13.641 10.1563 13.5848 10.1427 13.5692 10.0942C13.5109 9.93115 13.4644 9.90785 13.4156 9.90785C13.3668 9.90785 13.301 10.0127 13.262 10.0223C13.2229 10.0319 13.1766 9.90196 13.1766 9.90196L13.1339 9.88251C13.1339 9.88251 12.8834 10.0456 12.7067 10.2378C12.5301 10.4301 12.2407 10.7564 12.1106 10.8145C11.9806 10.8726 11.5339 10.8922 11.381 10.9252C11.2282 10.9582 11.0587 11.0689 11.0354 11.0942C11.0121 11.1194 11.1035 11.1465 11.1171 11.1717C11.1307 11.195 10.9675 11.1853 10.9539 11.2101C10.9443 11.2296 10.9923 11.3402 11.0161 11.3965C11.0578 11.3758 11.1035 11.3645 11.15 11.3635C11.2995 11.3596 11.4083 11.4587 11.5868 11.4587C12.018 11.4587 12.4082 11.1422 12.6956 11.045C12.9073 10.9732 13.0898 10.9207 13.218 10.8042C13.28 10.7519 13.3908 10.6353 13.4917 10.4625C13.5655 10.3441 13.6374 10.2334 13.7093 10.1518L13.709 10.1525Z" fill="#D2B257"/>
<path fill-rule="evenodd" clip-rule="evenodd" d="M7.52653 19.7622C7.52653 19.7622 7.48813 19.6184 7.13229 19.2476C7.03129 19.1428 6.96921 19.0556 6.90125 18.9933C6.73229 18.8339 6.63321 18.7913 6.51289 18.7C6.24883 18.5039 5.96147 18.5039 5.74016 18.2632C5.51885 18.0224 5.26093 17.5624 5.08173 17.0922C4.90509 16.6223 4.85645 16.4728 4.85645 16.4593C4.85645 16.4457 4.90509 16.3544 4.96717 16.368C5.02925 16.3816 5.02925 16.5019 5.04486 16.5311C5.07579 16.5787 5.11087 16.6235 5.14969 16.665C5.24096 16.7699 5.37101 16.8954 5.43705 17.0825C5.42349 16.9233 5.36909 16.7466 5.36909 16.7466C5.36909 16.7466 5.71085 16.9622 6.00205 17.1873C6.29529 17.4126 6.41561 17.4903 6.50125 17.6339C6.58688 17.7775 6.78861 18.1563 6.88525 18.267C6.98189 18.3777 8.30605 18.7951 8.30605 18.7951L8.93593 19.2648L9.24864 19.9502L9.0039 20.3342L8.53401 20.4352L7.77088 20.0934L7.52653 19.7621V19.7622Z" fill="#D2B159"/>
<path fill-rule="evenodd" clip-rule="evenodd" d="M5.83105 17.401C5.83105 17.401 5.99029 17.6553 6.37864 17.8961C6.72821 18.1078 7.28155 18.3 7.77486 18.4146C8.05825 18.4826 8.34177 18.5349 8.59611 18.5389C9.28155 18.5485 9.75336 18.3525 10.3379 18.2884C10.6545 18.2554 11.0428 18.2301 11.4467 18.1348C11.9651 18.0105 12.2719 17.8706 12.6894 17.674C12.9923 17.5342 13.27 17.4294 13.4952 17.2954C13.8117 17.109 14.0428 16.9013 14.3108 16.8392C14.2778 16.9304 14.2428 17.0935 13.9788 17.2625C14.1185 17.2585 14.3108 17.2489 14.3108 17.2489C14.3108 17.2489 14.1244 17.3595 13.7962 17.6081C13.5943 17.7617 13.3264 18.0216 13.0526 18.1944C12.8758 18.3052 12.6835 18.3864 12.5573 18.4527C12.2501 18.6217 12.1262 18.7071 11.9244 18.9135C11.9962 18.9097 12.0021 18.9135 12.0021 18.9135C12.0021 18.9135 11.7476 18.9466 11.5652 19.0436C11.5268 19.0436 11.4602 19.03 11.3438 19.063C11.2525 19.0921 11.132 19.1583 11.0079 19.1931C10.8311 19.2456 10.773 19.2223 10.773 19.2223L10.8021 19.2805C10.8021 19.2805 10.5717 19.2765 10.4949 19.2844C10.5084 19.2882 10.5046 19.2941 10.5046 19.2941C10.4911 19.2963 10.4781 19.3009 10.4662 19.3077C10.4292 19.3316 10.3886 19.3493 10.3459 19.36C10.3226 19.3638 10.3031 19.3638 10.2739 19.3697C10.2837 19.393 10.3594 19.5233 10.3944 19.6001C10.3653 19.6196 9.92834 19.9497 9.92834 19.9497C9.94189 19.971 9.95297 19.9938 9.96136 20.0177C9.97493 20.0603 9.98081 20.1225 9.99438 20.1516C10.0273 20.2098 10.0467 20.2195 10.0467 20.2195C10.0467 20.2195 9.99438 20.2293 9.90299 20.2525C9.82542 20.272 9.73019 20.3049 9.59579 20.3244C9.55455 20.3297 9.51307 20.333 9.4715 20.3341C9.49096 20.3768 9.57633 20.5399 9.41902 20.7282C9.26171 20.9165 9.2132 20.9439 9.16469 21.0642C9.14027 21.0457 9.11427 21.0295 9.08699 21.0156C9.03464 20.9923 8.9627 20.9574 8.93749 20.9107C8.92279 20.973 8.90332 21.034 8.87925 21.0933C8.83073 21.2233 8.75893 21.3516 8.74536 21.4486C8.69288 21.3903 8.59586 21.2758 8.46184 21.2991C8.32782 21.3224 8.22107 21.5049 8.19778 21.5574C8.19778 21.5244 8.17448 21.4991 8.16872 21.5379C8.16475 21.5807 8.09102 22.0271 7.67938 22.3884C7.67554 22.2971 7.67554 22.0951 7.66581 22.0292C7.62741 22.0676 7.58043 22.1243 7.30075 22.2447C7.02696 22.3651 7.07035 22.4855 7.07035 22.4855C7.07035 22.4855 7.04706 22.2935 7.19464 22.0913C7.34414 21.8894 7.43541 21.7942 7.43541 21.7787C7.43299 21.7629 7.42626 21.7481 7.41595 21.7359C7.39649 21.7165 7.35771 21.6932 7.35771 21.6777C7.38101 21.6681 7.61205 21.5574 7.59848 21.3281C7.58491 21.1224 7.49762 21.0156 7.43541 20.9399C7.42581 20.9302 7.5268 20.8584 7.5131 20.8351C7.50338 20.8215 7.37922 20.7301 7.3636 20.6815C7.36727 20.6524 7.37379 20.6239 7.38305 20.5961C7.39662 20.5533 7.40635 20.5242 7.40251 20.4951C7.39278 20.4466 7.3403 20.3126 7.32481 20.299C7.33838 20.3029 7.43541 20.299 7.43541 20.299C7.43541 20.299 7.35784 20.1747 7.34414 20.1165C7.33045 20.0582 7.30139 19.9048 7.2859 19.8757C7.31893 19.8796 7.40046 19.8853 7.40046 19.8757C7.40443 19.8465 7.32865 19.798 7.36206 19.7605C7.38536 19.7644 7.43003 19.7838 7.47265 19.8382C7.44936 19.776 7.41058 19.6557 7.32891 19.6072C7.36731 19.5936 7.49787 19.5585 7.61243 19.6265C7.72699 19.6945 7.76603 19.7896 7.76603 19.7896C7.76603 19.7896 7.834 19.8421 7.93896 19.9197C8.05928 20.0149 8.21262 20.1501 8.45736 20.2459C8.50984 20.2751 8.64373 20.2751 8.74088 20.2556C8.78318 20.2455 8.82374 20.2292 8.8612 20.2071C8.87473 20.1991 8.88906 20.1926 8.90395 20.1877C8.88308 20.1458 8.85907 20.1055 8.83214 20.0672C8.86517 20.0672 8.90395 20.0712 8.90395 20.0712C8.90395 20.0712 8.92725 20.0187 8.82241 19.9176C8.84571 19.8943 8.87489 19.8792 8.87489 19.8399C8.84187 19.836 8.78363 19.7875 8.77006 19.7681C8.78939 19.7545 8.81858 19.7098 8.8516 19.6963C8.82242 19.673 8.75061 19.5758 8.71758 19.5662C8.74913 19.5545 8.77966 19.5402 8.80885 19.5235C8.80885 19.5235 8.64577 19.4807 8.59329 19.4458C8.54081 19.4074 8.46325 19.3409 8.41665 19.3215C8.36801 19.302 8.28264 19.2924 8.24769 19.2535C8.28059 19.2632 8.33307 19.2535 8.37198 19.2535C8.40104 19.2535 8.41474 19.2573 8.42434 19.2573C8.4205 19.2438 8.4205 19.2146 8.49627 19.205C8.53272 19.1995 8.56809 19.1884 8.6011 19.172C8.6011 19.172 8.52917 19.1681 8.4475 19.0904C8.36584 19.0127 8.298 18.9507 8.25141 18.9409C8.2029 18.9312 8.11163 18.974 8.05531 18.97C7.97762 18.9604 7.94459 18.9215 7.94459 18.9215C7.94459 18.9215 7.68641 18.9448 7.11361 18.5953C6.61838 18.2924 6.40283 18.0245 6.40283 18.0245C6.35648 18.0076 6.31169 17.9868 6.26894 17.9622C6.08257 17.8652 5.82427 17.6632 5.83208 17.399L5.83105 17.401Z" fill="#C2A44D"/>
<path fill-rule="evenodd" clip-rule="evenodd" d="M12.9747 5.7466C13.0197 5.76119 13.0596 5.78811 13.0899 5.82429C13.1812 5.92912 13.2394 6.12714 13.0317 6.33885C13.1132 6.36791 13.1469 6.37725 13.2181 6.36791C13.1463 6.45341 12.9832 6.63594 12.9735 6.79517C12.9637 6.92522 13.0453 6.96413 13.0453 6.96413C13.0453 6.96413 12.921 7.10775 12.9152 7.34813C12.9739 7.28194 13.0381 7.22088 13.1072 7.1656C13.251 7.05104 13.449 6.921 13.583 6.83946C13.5812 6.87363 13.5858 6.90785 13.5966 6.94032C13.5966 6.94032 13.8469 6.7345 14.0574 6.82589C14.1525 6.86864 14.1097 7.00253 14.1097 7.00253C14.1097 7.00253 14.2399 6.95402 14.3312 7.04528C14.4224 7.13655 14.5514 7.37194 14.6176 7.4632C14.6467 7.50596 14.7225 7.58749 14.8 7.7137C14.906 7.8904 14.9945 8.07701 15.0642 8.27088C15.0681 8.16989 15.0933 8.01271 15.3808 8.11165C15.6681 8.21264 15.9943 8.42436 16.2681 8.84125C16.5418 9.25815 16.6097 9.7288 16.7475 9.908C16.8873 10.0808 17.0311 10.3682 17.0408 10.4886C17.0505 10.6091 16.998 10.9973 17.2854 12.0478C17.3669 11.7216 17.4912 10.9973 17.4912 10.9973L17.5592 10.3584L17.6369 8.38173L15.5728 6.66692L13.9592 5.49597L12.9087 5.59696L12.9746 5.74647L12.9747 5.7466Z" fill="#CAA13E"/>
<path fill-rule="evenodd" clip-rule="evenodd" d="M16.8095 8.6883C16.8095 8.6883 16.7804 8.4963 16.295 8.1699C15.8095 7.84759 15.4309 7.84759 15.0814 7.5738C14.8134 7.35825 14.5338 6.86301 14.3518 6.69994C14.1751 6.53879 14.146 6.07274 14.146 6.07274L14.7421 5.57354L15.6286 4.29214L16.3781 3.46692L16.7372 3.96612L17.2364 4.55249L17.5141 5.72919L17.6151 7.45156L16.8087 8.68842L16.8095 8.6883Z" fill="#B59544"/>
<path fill-rule="evenodd" clip-rule="evenodd" d="M17.41 10.7528C17.4247 10.4916 17.3925 10.2299 17.3148 9.98009C17.1868 9.58201 16.9071 8.8752 16.7772 8.61049C16.7247 8.31725 16.7636 8.29395 16.82 8.26093C16.8763 8.2279 17.088 8.10733 17.204 7.68429C17.3199 7.26125 17.6797 7.24742 17.6797 7.24742L17.901 7.08435L18.237 7.92505L18.5302 8.68435L18.6214 9.26496L18.6894 9.76006L18.5302 10.8067L17.7439 11.5174L17.4099 10.7528H17.41Z" fill="#C89D3A"/>
<path fill-rule="evenodd" clip-rule="evenodd" d="M6.43701 22.4186V22.3971C6.45335 22.3869 6.46778 22.3739 6.47964 22.3587C6.4932 22.3392 6.50306 22.3159 6.51266 22.3102C6.53212 22.3004 6.62338 22.2718 6.67189 22.281C6.7204 22.2902 6.84866 22.343 6.91663 22.3392C7.0564 22.3354 7.21948 22.2285 7.47778 22.2771C7.86613 22.3489 7.9574 22.613 8.18268 22.7625C8.33628 22.8675 8.49525 22.8207 8.51855 22.8207H8.5709C8.58063 22.8207 8.65244 22.7392 8.69135 22.7432C8.76904 22.747 8.77672 22.8111 8.82524 22.815C8.9398 22.8286 9.16124 22.7567 9.27196 22.7859C9.30479 22.7962 9.33464 22.8143 9.35898 22.8386C9.38332 22.8629 9.40142 22.8928 9.41173 22.9256C9.43503 22.9974 9.41557 23.0886 9.35925 23.1411C9.23893 23.2517 9.12437 23.3567 9.10108 23.4483C9.13071 23.4709 9.15916 23.495 9.18632 23.5205C8.22558 23.2757 7.30121 22.9056 6.43701 22.4197V22.4186Z" fill="#CEB052"/>
<path fill-rule="evenodd" clip-rule="evenodd" d="M16.7769 18.5389C16.7769 18.5389 17.0797 18.1351 17.1847 17.935C17.2895 17.7288 16.8526 15.1176 16.8526 15.1176L17.7303 12.242L17.7069 11.306C17.7069 11.306 17.7497 10.4419 17.8506 10.0671C17.9711 10.2827 18.3459 10.5429 18.4274 10.6807C18.4658 10.4166 18.5962 9.85937 18.5769 9.2652C18.6487 9.37579 18.8215 10.4885 18.8215 10.4885L18.9943 11.2379L19.2196 12.0341L19.4701 12.8749L19.6196 13.4555L19.705 13.5953L19.7769 13.8399L19.8449 14.1041L20.041 14.7235L20.1562 15.2322L20.2474 16.1545C20.2673 16.2252 20.2816 16.2972 20.2902 16.3701C20.294 16.4711 20.2766 16.5293 20.2766 16.5469C20.2766 16.5644 20.3097 16.7682 20.2961 16.9216C20.2766 17.0752 20.2766 17.1954 20.1562 17.3056C20.0357 17.4159 19.9601 18.0745 19.9601 18.0745L19.7445 17.9309C19.7445 17.9309 19.7873 17.7347 19.6863 17.5561C19.5853 17.3776 19.3892 17.3406 19.2785 17.3698C19.1679 17.3931 18.9466 17.4279 18.8746 17.4901C18.8067 17.5522 18.6398 17.7444 18.4863 17.8319C18.2943 17.9471 17.9815 17.9561 17.8146 17.9949C17.6456 18.0333 17.4592 18.1485 17.263 18.2823C17.1091 18.3819 16.9467 18.4676 16.7776 18.5383L16.7769 18.5389Z" fill="#CCA847"/>
<path fill-rule="evenodd" clip-rule="evenodd" d="M16.7769 22.7816C16.7769 22.7816 16.7897 22.7899 16.8144 22.8035C18.1939 22.1572 19.4299 21.241 20.4496 20.1091C20.4384 19.7162 20.424 19.3133 20.4081 19.1641C20.3752 18.8475 20.3985 18.5252 20.3888 18.3389C20.379 18.1525 20.2742 17.3932 20.2257 17.1971C20.1732 17.001 20.0721 16.9039 20.0567 16.9039C20.0432 16.9078 19.9615 17.2729 19.9615 17.3647C19.9615 17.4564 19.942 17.6774 19.942 17.7337C19.9285 17.7297 19.9227 17.6953 19.9227 17.6812C19.9033 17.7297 19.88 17.8152 19.8702 17.825C19.8605 17.8347 19.8838 17.7434 19.8702 17.724C19.8567 17.7045 19.8318 17.7142 19.8372 17.6657C19.8395 17.637 19.844 17.6084 19.8508 17.5803C19.8508 17.5803 19.7925 17.6657 19.7499 17.8832C19.7072 18.0987 19.7072 18.1046 19.6917 18.124C19.6781 18.1474 19.6004 18.225 19.5964 18.2541C19.5926 18.3065 19.6684 18.359 19.6741 18.388C19.678 18.4367 19.6062 18.6618 19.5829 18.772C19.5596 18.8822 19.5693 19.0982 19.5445 19.2089C19.525 19.3099 19.5061 19.3681 19.4396 19.4107C19.4882 19.4205 19.5347 19.434 19.5347 19.434C19.5347 19.434 19.6027 19.7214 19.4299 19.9661C19.3678 20.0515 19.3523 20.0904 19.2863 20.1681C19.1561 20.3117 19.0551 20.4753 19.0454 20.5817C19.0387 20.5503 19.0341 20.5185 19.0318 20.4865C19.0318 20.4865 18.83 20.7215 18.7445 20.8555C18.6339 21.0283 18.4804 21.0186 18.4373 21.0613C18.3941 21.1041 18.3848 21.1816 18.3989 21.2438C18.3605 21.2534 18.2883 21.2671 18.2396 21.4166C18.2163 21.4942 18.1581 21.5702 18.0668 21.6225C17.9756 21.6747 17.8649 21.6904 17.8085 21.704C17.857 21.7176 17.8765 21.7176 17.8998 21.7331C17.8707 21.7816 17.7367 21.8573 17.5872 21.9545C17.4377 22.0458 17.3658 22.1796 17.3289 22.2671C17.2905 22.3486 17.2338 22.4011 17.1426 22.4108C17.181 22.4341 17.2378 22.4884 17.2668 22.5059C17.2241 22.5156 17.1516 22.5156 17.0222 22.6264C16.8863 22.739 16.8397 22.772 16.7775 22.7818L16.7769 22.7816Z" fill="#C39D3C"/>
<path fill-rule="evenodd" clip-rule="evenodd" d="M14.0749 23.6814C14.1492 23.6293 14.2297 23.5866 14.3146 23.5543C14.6174 23.434 14.9378 23.4107 15.064 23.3719C15.1845 23.3335 15.2796 23.2805 15.4291 23.2515C15.4251 23.2855 15.4218 23.3175 15.4182 23.3477C14.9775 23.4863 14.5286 23.5977 14.0742 23.6814H14.0749Z" fill="#D2BA6B"/>
<path fill-rule="evenodd" clip-rule="evenodd" d="M19.6607 15.7156C19.6607 15.7156 19.5986 16.0515 19.4879 16.2632C19.3771 16.4749 19.2575 16.768 19.2575 16.768C19.2582 16.702 19.266 16.6362 19.2808 16.5718C19.141 16.6533 18.8011 16.8496 18.7048 16.9369C18.6135 17.0184 18.46 17.1621 18.4212 17.2301C18.5125 16.9622 18.6076 16.7214 18.6232 16.6107C18.4834 16.7117 17.8309 17.2496 17.4912 17.6049L16.4329 18.4612C16.3108 18.5271 16.185 18.586 16.0562 18.6376C15.8738 18.7152 15.6582 18.7812 15.499 18.8434C15.5418 18.7289 15.6096 18.6277 15.7048 18.5307C15.8058 18.4356 16.1087 18.1074 16.1553 17.9547C16.198 17.7955 16.2077 17.7004 16.1514 17.5664C16.0989 17.5799 15.9786 17.5858 15.8971 17.6091C15.8155 17.6324 15.7281 17.7197 15.7281 17.7197C15.7281 17.7197 15.7902 17.3644 15.9242 17.0285C15.8232 17.0324 15.6504 17.0614 15.6504 17.0614C15.6504 17.0614 15.8912 16.6576 16.3032 16.3761C16.177 16.403 16.0536 16.4413 15.9343 16.4905C15.6936 16.5915 15.4295 16.741 15.2334 16.8226C15.344 16.669 16.1207 15.5605 16.5829 14.5274C17.0437 13.4964 17.2159 13.2323 17.3169 12.6789C17.3692 12.4052 17.3553 12.0005 17.3692 11.6382C17.3828 11.2789 17.4274 10.9566 17.3984 10.741C17.5187 10.8905 17.9693 11.3119 17.9848 12.2537C17.9983 13.1954 17.5538 14.4674 17.0818 15.1527C17.197 15.1857 17.4955 15.2246 17.8022 14.6919C18.1089 14.1591 18.1052 14.0104 18.2159 13.789C18.2295 13.8997 18.2255 13.9385 18.2255 13.9385C18.2255 13.9385 18.6722 13.3968 18.8838 12.7152C18.9266 13.0084 19.0528 13.2667 18.8546 13.8046C18.678 14.29 18.447 14.4085 18.447 14.4085C18.447 14.4085 18.5615 14.389 18.7304 14.288C18.7595 14.3598 18.7538 14.4416 18.8023 14.4706C18.8508 14.4995 18.9169 14.5483 18.9266 14.5949C18.9789 14.5172 19.0605 14.4181 19.0858 14.3444C19.0664 14.498 19.0528 15.1696 19.1242 15.5113C19.2738 15.4978 19.4272 15.488 19.532 15.2181C19.4602 15.4823 19.4602 15.6414 19.5087 15.8667C19.5883 15.8124 19.6602 15.7152 19.6602 15.7152L19.6607 15.7156Z" fill="#C0993A"/>
<path fill-rule="evenodd" clip-rule="evenodd" d="M14.6157 5.01261C14.6157 5.01261 14.4662 5.07469 14.2118 5.07469C13.9905 5.07469 14.0526 4.98932 13.707 4.98932C13.175 4.98932 11.3167 5.29652 10.9904 5.29217C10.7787 5.28833 11.7049 5.38343 11.7049 5.38343L14.072 5.41645L14.5477 5.37805L14.7245 5.01837L14.6157 5.01261Z" fill="#A88F33"/>
<path fill-rule="evenodd" clip-rule="evenodd" d="M8.47745 9.63986C8.47745 9.63986 8.17448 9.8709 8.04635 10.0477C7.91822 10.2244 7.85025 10.3408 7.70459 10.4845C7.73878 10.4858 7.77295 10.4812 7.80558 10.471C7.80558 10.471 7.80558 10.5094 7.78229 10.5195C7.80242 10.5172 7.8228 10.5195 7.84193 10.5261C7.86107 10.5328 7.87847 10.5436 7.89288 10.5579C7.85013 10.5812 7.73365 10.6978 7.82491 10.8356C7.89288 10.9405 8.03662 10.9501 8.03662 10.9501C8.03662 10.9501 8.0036 11.0453 8.14145 11.0356C8.43854 11.022 8.77057 10.8918 8.92392 10.9249C9.07752 10.9633 9.16481 10.9773 9.27349 11.1657C9.38869 11.3521 9.48904 11.3813 9.48904 11.3813C9.48904 11.3813 9.55701 11.2084 9.54152 10.9502C9.59725 10.811 9.62814 10.6632 9.63278 10.5133L9.53179 9.76965L9.09109 9.21234L8.52021 9.52889L8.47745 9.63948V9.63986Z" fill="#E3C571"/>
<path fill-rule="evenodd" clip-rule="evenodd" d="M9.01953 9.52911C9.01953 9.52911 9.06228 9.6301 9.24097 9.6397C9.22152 9.68245 9.22152 9.68834 9.2274 9.72123C9.23124 9.75426 9.237 9.80277 9.237 9.80277C9.25668 9.79325 9.27446 9.78024 9.28948 9.76437C9.29921 9.80712 9.27975 9.87496 9.28948 9.9236C9.29549 9.95318 9.30525 9.98188 9.31854 10.009C9.32137 10.0023 9.32462 9.99588 9.32827 9.98965C9.33211 9.97992 9.36667 10.0945 9.46228 10.1816C9.4622 10.1682 9.4655 10.155 9.47188 10.1432C9.47335 10.1676 9.4814 10.1911 9.49518 10.2112C9.48802 10.2078 9.48149 10.2032 9.47585 10.1976C9.47585 10.1976 9.48545 10.5048 9.53793 10.6637C9.5467 10.6534 9.5545 10.6424 9.56123 10.6307C9.56123 10.6211 9.55739 10.7162 9.54766 10.7843C9.53409 10.8522 9.54382 10.9473 9.54382 10.9473C9.57883 10.9198 9.6173 10.8969 9.65825 10.8794C9.71649 10.856 9.81185 10.7841 9.86996 10.6249C9.90368 10.5347 9.92967 10.4419 9.94766 10.3473C9.96643 10.3834 9.97939 10.4223 9.98606 10.4625C9.99003 10.511 10.0813 10.4858 10.0813 10.4858L10.1007 10.2741L10.2159 9.79445L10.3208 9.49736L10.8256 8.71106L11.7377 8.00859L12.5339 8.19112L13.2056 7.27848L12.0484 6.58331L10.9532 6.69787L9.95931 8.07451L9.16328 9.32315L9.01953 9.52898V9.52911Z" fill="#D8B65B"/>
<path fill-rule="evenodd" clip-rule="evenodd" d="M14.7553 7.53695C14.7553 7.53695 14.6873 7.55052 14.4912 7.65215C14.2951 7.75378 14.1592 7.78604 14.0834 7.93554C14.0077 8.08505 14.0019 8.20357 14.0019 8.20357C14.0019 8.20357 14.1359 8.14533 14.2136 8.12588C14.2951 8.10655 14.3864 8.11231 14.3767 8.14533C14.3673 8.16798 14.3544 8.18895 14.3383 8.20741C14.3383 8.20741 14.4919 8.20357 14.4878 8.27935C14.4837 8.35512 14.4587 8.43858 14.4297 8.47545C14.4005 8.51384 14.2802 8.57068 14.2666 8.61535C14.2336 8.70661 14.2802 8.71045 14.2626 8.78418C14.2491 8.85612 14.1851 8.99589 13.9753 9.2405C13.7597 9.48524 13.6681 9.65804 13.6681 9.65804C13.6681 9.65804 13.5632 9.46194 13.5088 9.29298C13.4704 9.31231 13.2642 9.42687 13.2642 9.42687L12.7865 7.76287L12.7961 7.65215C12.7961 7.65215 12.8389 7.5998 12.8486 7.50265C12.7768 7.47935 12.7671 7.45989 12.6719 7.36876C12.5766 7.27762 12.4991 7.16677 12.3399 7.091C12.3167 7.04824 12.2875 6.99013 12.171 6.96671C12.0545 6.94328 11.9846 6.92408 11.9846 6.92408C11.9846 6.92408 12.0467 6.90066 12.0759 6.85215C12.0039 6.86188 11.9458 6.88517 11.7885 6.88133C11.6293 6.87736 11.6118 6.8716 11.5245 6.88517C11.4372 6.89874 11.3325 6.93765 11.2934 6.80364C11.2507 6.77061 11.1594 6.7998 11.0817 6.91423C11.004 7.02866 10.9769 7.12005 10.8274 7.16472C10.8169 7.23063 10.7938 7.2939 10.7594 7.35109C10.7167 7.42303 10.6487 7.49484 10.5574 7.60159C10.4137 7.77055 10.437 8.04818 10.2079 8.25989C9.97681 8.47148 10.2463 7.6734 10.2463 7.6734L10.6151 6.7902L11.6656 5.763L13.2967 5.6524L13.456 6.4972L14.2521 6.771L14.7551 7.53797L14.7553 7.53695Z" fill="#D3AE4D"/>
<path fill-rule="evenodd" clip-rule="evenodd" d="M15.0139 7.7233L14.3284 6.73501L13.8488 6.36598C13.8488 6.36598 13.507 5.73699 13.4837 5.71754C13.4643 5.70397 13.142 5.66902 12.9362 5.65546L12.9746 5.75056C13.0195 5.76515 13.0594 5.79207 13.0898 5.82826C13.181 5.93309 13.2393 6.1311 13.0315 6.34282C13.1131 6.37187 13.1467 6.38122 13.2179 6.37187C13.1461 6.45738 12.983 6.6399 12.9733 6.79914C12.9636 6.92918 13.0451 6.96797 13.0451 6.96797C13.0451 6.96797 12.9208 7.11171 12.915 7.35197C12.9737 7.28578 13.038 7.22471 13.107 7.16944C13.2508 7.05424 13.4488 6.9247 13.5828 6.84317C13.581 6.87738 13.5856 6.91164 13.5964 6.94416C13.5964 6.94416 13.8468 6.73834 14.0572 6.8296C14.1523 6.87235 14.1095 7.00637 14.1095 7.00637C14.1095 7.00637 14.2397 6.95786 14.331 7.04912C14.4222 7.14038 14.5523 7.37526 14.6183 7.46666C14.6474 7.50941 14.7232 7.59094 14.8007 7.71702C14.9067 7.89375 14.9952 8.08041 15.0649 8.27434C15.0688 8.19664 15.0844 8.08797 15.2185 8.08797L15.0146 7.72291L15.0139 7.7233Z" fill="#CAA13E"/>
<path fill-rule="evenodd" clip-rule="evenodd" d="M4.73787 10.5311C4.73787 10.5311 4.68936 10.4107 4.73787 10.1758C4.78638 9.94092 4.86216 9.8302 4.88737 9.4846C4.91259 9.139 5.13787 8.70789 5.13787 8.70789L5.7611 8.4245L6.20193 8.54482L6.33198 9.13516L5.77467 9.44236C5.77467 9.44236 5.74561 9.5724 5.5883 9.67724C5.43099 9.78207 5.21352 9.8636 5.16117 9.97048C5.12987 10.0359 5.10703 10.1051 5.0932 10.1763C5.0932 10.1763 4.93397 10.1433 4.83886 10.2481C4.73787 10.355 4.74171 10.4501 4.73787 10.5316V10.5311Z" fill="#F4EFC8"/>
<path fill-rule="evenodd" clip-rule="evenodd" d="M5.99612 10.3738C5.99612 10.3738 5.94364 10.4068 5.90485 10.489C5.86645 10.4269 5.77468 10.0579 5.77084 9.72587C5.767 9.39383 5.74716 9.31153 5.82396 9.1971C5.90076 9.08267 6.20194 8.96209 6.15919 8.75601C6.11644 8.55991 5.93775 8.47838 5.71836 8.5347C5.56476 8.5731 5.45045 8.89975 5.29122 9.06283C5.17077 9.18711 5.02716 9.16766 4.98837 9.23563C4.93589 9.32689 4.98441 9.41815 4.96892 9.47639C4.96495 9.49585 4.91644 9.60068 4.82901 9.72689C4.65237 9.98123 4.35337 10.3405 4.31445 10.6628C4.32802 10.4803 4.31842 10.4765 4.36693 10.2745L4.33775 10.226L4.52975 9.59684L4.65404 9.07844L4.9318 8.21035L5.42101 7.32305L5.89679 6.79095L6.39189 6.82398L6.45013 7.56766L6.73365 8.96388L7.32975 9.69783L6.37436 10.3408L5.99573 10.3738H5.99612Z" fill="#EBCC73"/>
<path fill-rule="evenodd" clip-rule="evenodd" d="M6.29314 10.6376C6.29314 10.6376 6.2116 10.6571 6.18242 10.6416C6.15323 10.6261 6.12431 10.6086 6.13391 10.5891C6.14351 10.5697 6.19599 10.5368 6.19599 10.5211C6.19706 10.507 6.1926 10.4931 6.18354 10.4822C6.17448 10.4713 6.16155 10.4644 6.14747 10.4629C6.1028 10.4571 6.08923 10.4862 6.08923 10.4862C6.08923 10.4862 6.04648 10.4533 6.01167 10.4478C6.03226 10.4453 6.05299 10.444 6.07374 10.4438C6.02009 10.4195 5.96317 10.4032 5.90479 10.3953C5.9533 10.3663 6.04853 10.2808 6.11061 10.2808C6.17269 10.2808 6.2116 10.2712 6.20187 10.2381C6.19215 10.2051 6.14363 10.1566 6.09128 10.1371C6.11061 10.1138 6.1243 10.0789 6.07771 9.98355C6.02907 9.88844 6.04853 9.82431 6.06414 9.80115C6.07771 9.77196 6.12623 9.71961 6.14952 9.68659C6.17282 9.65356 6.19227 9.60889 6.23106 9.58559C6.25051 9.57203 6.31259 9.54719 6.3748 9.52351C6.44277 9.50022 6.49909 9.47103 6.53787 9.50022C6.58063 9.52927 6.56117 9.56819 6.56117 9.56819C6.56117 9.56819 6.69518 9.51955 6.8155 9.58175C6.93595 9.63987 7.2292 9.67686 7.2292 9.67686L7.33429 9.88857L6.63912 10.4847L6.35176 10.6284L6.29352 10.638L6.29314 10.6376Z" fill="#E5C66B"/>
<path fill-rule="evenodd" clip-rule="evenodd" d="M7.25806 9.66311C7.25806 9.66311 7.04251 9.80685 6.994 9.85921C7.02305 9.86317 7.07156 9.88263 7.05211 9.91169C7.02881 9.94074 6.88904 10.0417 6.81134 10.137C6.7298 10.2321 6.65211 10.3525 6.62497 10.4108C6.59592 10.4631 6.37448 10.6166 6.29883 10.6359C6.45806 10.6359 6.77844 10.4398 6.89876 10.4398C6.89492 10.4981 6.93179 10.5641 6.99976 10.5699C7.06772 10.5756 7.26382 10.6126 7.52788 10.4495C7.79195 10.2903 7.70465 10.1718 7.81524 10.0942C8.02696 9.95431 8.11233 9.83002 8.22881 9.75245C8.34529 9.67489 8.40558 9.65722 8.40558 9.65722C8.40558 9.65722 8.40942 9.59898 8.44398 9.60487C8.45344 9.60595 8.46242 9.6096 8.46996 9.61543C8.47749 9.62125 8.48329 9.62902 8.48673 9.63789C8.48673 9.63789 8.68872 9.49415 8.94753 9.45537C8.94149 9.45267 8.93666 9.44784 8.93396 9.4418C8.93396 9.4418 8.95329 9.43207 8.95726 9.42234C8.95726 9.42234 8.97083 9.40289 8.98056 9.41261C8.99028 9.42234 9.00385 9.49415 9.02331 9.52333C9.06606 9.50388 9.1476 9.32135 9.1476 9.32135L9.34382 8.7602V8.24756L9.19022 8.27674L8.03822 8.76596L7.33908 9.49031L7.25755 9.66311H7.25806Z" fill="#E6BD62"/>
<path fill-rule="evenodd" clip-rule="evenodd" d="M10.5749 7.14855C10.6372 7.13343 10.6969 7.10919 10.7522 7.07661C10.7289 7.13882 10.7289 7.20679 10.6279 7.35437C10.5269 7.50196 10.5231 7.52333 10.4415 7.67668C10.36 7.83591 10.3503 8.06503 10.2726 8.16589C10.3074 8.14897 10.3447 8.13786 10.3832 8.133C10.3832 8.133 10.3056 8.20097 10.2726 8.27277C10.2395 8.34458 10.1813 8.49409 10.0377 8.58548C9.89407 8.67687 9.71141 8.73498 9.51531 8.95053C9.31909 9.16212 9.11723 9.43015 9.01611 9.52653C9.06859 9.43527 9.1404 9.25274 9.15986 9.13242C9.17931 9.0121 9.15589 8.86823 9.18891 8.70913C9.22194 8.55002 9.22194 8.43533 9.38091 8.15757C9.53989 7.87981 9.81202 6.91482 9.81202 6.91482L10.3984 6.72845L10.5752 7.14791L10.5749 7.14855Z" fill="#B6933F"/>
<path fill-rule="evenodd" clip-rule="evenodd" d="M10.1516 6.79327C10.1516 6.79327 9.97494 7.0476 9.92643 7.27288C9.87792 7.49816 9.92246 7.47871 9.8934 7.58943C9.87603 7.65693 9.87603 7.72774 9.8934 7.79525C9.95458 7.6967 10.0383 7.61412 10.1378 7.55435C10.3048 7.45349 10.4407 7.38155 10.5218 7.29618C10.6033 7.20491 10.6713 7.05541 10.8479 6.94085C10.7761 6.93112 10.6751 6.8981 10.6559 6.90245C10.7278 6.82091 10.9433 6.69663 11.1607 6.54712C11.3763 6.39352 11.3627 6.33157 11.7123 6.17823C11.5977 6.19768 11.5433 6.1685 11.4481 6.17823C11.4865 6.09669 11.6209 6.05778 11.7553 5.92389C11.8897 5.79 11.6699 5.59186 11.6699 5.59186L10.6459 6.21125L10.1508 6.79378L10.1516 6.79327Z" fill="#C49937"/>
<path fill-rule="evenodd" clip-rule="evenodd" d="M7.37256 6.33106L7.39585 6.14469L7.6891 5.67481L7.99592 4.84959V3.7214L7.97262 3.06898L8.02113 2.64172L8.058 2.50591L8.09691 2.45343L8.34728 2.58348L8.69301 3.05337L8.72603 3.96025L8.39003 5.39129L7.4308 6.43794L7.37256 6.33106Z" fill="#DFC068"/>
<path fill-rule="evenodd" clip-rule="evenodd" d="M8.13572 2.40093C8.13572 2.40093 7.98212 2.4049 7.94936 3.04375C7.91659 3.68259 7.90072 4.01847 7.87742 4.33501C7.85412 4.65155 7.79985 4.84368 7.77259 5.03018C7.74532 5.21667 7.72984 5.47088 7.64254 5.62627C7.60414 5.69808 7.52209 5.92336 7.32983 6.09232C7.11428 6.27869 6.79223 6.40887 6.74347 6.41859C6.65796 6.43792 6.22494 6.48067 6.0483 6.57783C5.98622 6.61085 5.87934 6.64963 5.76094 6.76035C5.52593 6.97194 5.21336 7.35056 4.98808 7.80688C4.64248 8.48848 4.29688 10.4127 4.29688 10.4127L4.37457 10.2827C4.37457 10.2827 4.3843 10.1099 4.5571 9.80688C4.72606 9.50403 4.67755 9.1642 4.91243 8.58359C5.00369 8.36228 5.11825 8.07491 5.25803 7.83018C5.47947 7.4321 5.74737 7.09034 6.01732 6.90397C6.45803 6.60112 6.94353 6.53507 6.94353 6.53507L7.4659 6.18947C7.4659 6.18947 7.55716 6.01283 7.67761 5.81085C7.84644 5.52746 8.06161 5.21091 8.10859 4.75075C8.18052 4.06915 8.0076 3.62256 8.01732 3.21872C8.02705 2.81488 8.03089 2.51779 8.11256 2.44586C8.19422 2.37392 8.13585 2.40119 8.13585 2.40119L8.13572 2.40093Z" fill="#A88F33"/>
<path fill-rule="evenodd" clip-rule="evenodd" d="M8.136 5.44952C8.136 5.44952 8.3664 4.88248 8.47187 4.37956C8.49132 4.27857 8.53011 4.17771 8.53984 4.09617C8.58835 3.6204 8.60192 3.4243 8.53984 3.16408C8.49132 2.97208 8.30496 2.79902 8.2078 2.66488C8.1127 2.52497 8.06803 2.47288 8.08748 2.44344C8.10694 2.414 8.18259 2.36587 8.25632 2.37163C8.33469 2.37391 8.41178 2.39211 8.4829 2.42511C8.55401 2.45812 8.61768 2.50525 8.67001 2.56363C8.81952 2.73643 8.93792 3.32292 8.93792 3.32292L9.06246 4.09681L9.379 5.07153L8.13625 5.45028L8.136 5.44952Z" fill="#C99E3D"/>
<path fill-rule="evenodd" clip-rule="evenodd" d="M10.3009 4.8593C10.3009 4.8593 10.2581 4.87862 10.1806 4.8593C10.1839 4.89099 10.1784 4.92299 10.1647 4.95176C10.151 4.98054 10.1296 5.00497 10.1029 5.02237C10.0213 4.98934 9.25808 5.05539 9.25808 5.05539C9.25808 5.05539 8.90275 4.99318 8.79203 4.5233C8.71446 4.21059 8.85027 3.77962 8.8056 3.4961C8.73763 3.07856 8.64253 2.9969 8.6328 2.86698C8.62307 2.73706 8.61334 2.7039 8.61334 2.62237C8.57059 2.61264 8.54537 2.59907 8.50275 2.59907C8.49302 2.56067 8.51235 2.52714 8.46973 2.45917C8.49302 2.4689 8.65225 2.48835 8.83862 2.66499C8.99222 2.80874 8.99222 2.86109 9.01539 2.89027C9.04445 2.91933 9.27945 3.12067 9.38045 3.32138C9.48144 3.52208 9.67753 4.16208 9.72221 4.26691C9.73577 4.30966 9.76496 4.35242 9.83741 4.44944C9.95005 4.58934 10.115 4.82064 10.3014 4.85904L10.3009 4.8593Z" fill="#B58634"/>
<path fill-rule="evenodd" clip-rule="evenodd" d="M9.04297 2.90002C9.1606 3.09004 9.26627 3.2872 9.35939 3.49036C9.47395 3.74854 9.54191 3.96025 9.68566 4.13305C9.60796 3.9079 9.4701 3.46514 9.38857 3.30783C9.2973 3.14143 9.11094 2.96223 9.04297 2.90015V2.90002Z" fill="#A88F33"/>
<path fill-rule="evenodd" clip-rule="evenodd" d="M7.72244 6.09229C7.72244 6.09229 7.52634 6.1408 7.16128 6.33306C7.04084 6.39514 6.9264 6.44749 6.81568 6.49613C6.52807 6.62618 6.21959 6.74637 5.97485 6.81267C5.99431 6.83597 6.00391 6.84557 6.00391 6.84557C6.00391 6.84557 6.00391 6.9408 6.05639 6.99507C6.02733 7.02426 5.63885 7.28832 5.75354 8.17178C5.83111 8.14272 5.92237 8.10381 5.93594 8.10381C5.95936 8.10778 5.96512 8.17178 5.99418 8.17178C6.02324 8.17178 6.11847 8.13338 6.21946 8.00282C6.21562 8.0553 6.15738 8.58343 6.46996 8.93876C6.5282 8.87079 6.67578 8.64551 6.67578 8.64551L6.67962 8.5737C6.67962 8.5737 6.69319 8.3232 6.77485 8.09408C6.85652 7.86496 7.01562 7.696 7.01562 7.696L7.84647 6.50957L7.72218 6.09216L7.72244 6.09229Z" fill="#E6C367"/>
<path fill-rule="evenodd" clip-rule="evenodd" d="M6.94574 7.83443C6.9077 7.86131 6.86579 7.88224 6.82145 7.89651C6.80788 7.848 6.78843 7.68096 6.90299 7.51789C7.037 7.32166 7.33012 7.06732 7.41166 6.86508C7.46414 6.73491 7.44084 6.40876 7.90689 5.99123C8.37294 5.57369 8.55534 5.43008 8.55534 5.43008L9.30875 5.05145L10.235 5.41651L9.7748 7.22003L9.41755 8.06483L7.99675 7.79693L6.94561 7.83443H6.94574Z" fill="#DCBA5A"/>
<path fill-rule="evenodd" clip-rule="evenodd" d="M7.48779 7.34468L7.66456 7.12337V6.96606C7.66456 6.96606 7.86066 6.91358 8.07224 6.69802C8.28382 6.48247 8.57707 6.0689 8.83538 6.09412C9.09368 6.1233 9.1189 6.65527 9.12863 6.8049C9.13835 6.95454 9.17138 7.29412 9.22373 7.47678C9.28197 7.6593 8.59461 8.3505 8.59461 8.3505L8.12779 8.70583L7.48779 7.34468Z" fill="#E9CE77"/>
<path fill-rule="evenodd" clip-rule="evenodd" d="M8.03516 9.18735C8.03516 9.18735 8.1789 8.96207 8.07356 8.91355C8.13564 8.77378 8.2502 8.62619 8.2502 8.62619C8.2502 8.62619 8.33173 8.42434 8.5958 8.17576C8.85986 7.92719 9.02306 7.76207 9.06581 7.59515C9.09217 7.48637 9.10651 7.37503 9.10856 7.26312C9.13711 7.28644 9.16765 7.30722 9.19983 7.3252C9.24258 7.34466 9.44444 7.51157 9.41538 7.84757C9.38632 8.18357 9.26178 8.32335 9.26178 8.32335C9.26178 8.32335 9.14146 8.44367 9.05608 8.50587C8.96469 8.56795 8.9318 8.63976 8.77832 8.64565C8.7941 8.63311 8.81183 8.62325 8.8308 8.61647C8.8308 8.61647 8.67157 8.59714 8.58607 8.67471C8.50056 8.75227 8.3188 8.99125 8.22754 9.06319C8.13628 9.12143 8.03554 9.18747 8.03554 9.18747L8.03516 9.18735Z" fill="#CDAE50"/>
<path fill-rule="evenodd" clip-rule="evenodd" d="M14.4914 5.41058C14.262 5.32697 14.0209 5.27981 13.7769 5.2708C13.3691 5.25723 12.773 5.28053 12.1886 5.28437C11.5594 5.28821 10.9886 5.06882 10.1964 5.03003C10.0663 4.95234 9.73557 4.6125 8.70312 5.33288C8.7652 5.32904 9.45269 5.17365 9.69141 5.47279C9.93218 5.76987 9.86421 6.27471 9.83132 6.39503C9.76911 6.66306 9.56713 7.05333 9.48572 7.32712C9.40431 7.60091 9.42351 7.74479 9.36527 7.93679C9.30703 8.12879 9.1789 8.22415 9.25455 8.44546C9.35554 8.38338 9.40815 8.38338 9.57685 8.00475C9.74556 7.62613 9.71087 7.35618 9.99055 7.03579C10.2643 6.71349 10.7201 6.27266 10.8935 6.16194C11.0668 6.05122 12.4429 5.33672 13.8838 6.01832C14.2313 5.98146 14.4915 5.41045 14.4915 5.41045L14.4914 5.41058Z" fill="#D2A83E"/>
<path fill-rule="evenodd" clip-rule="evenodd" d="M9.28345 5.14642C9.28202 5.13183 9.2788 5.11747 9.27385 5.10367C9.26038 5.07527 9.24268 5.04908 9.22137 5.02597C9.22137 5.02597 8.87961 4.96389 8.70681 4.98322C8.40383 5.01625 8.13004 5.39103 8.00192 5.58329C7.87379 5.77554 7.71456 6.0725 7.54176 6.22597C7.54365 6.21102 7.5402 6.19588 7.53203 6.18322C7.53203 6.18322 7.54176 6.19679 7.52243 6.21625C7.5031 6.2357 7.50297 6.2453 7.5127 6.25465L7.54188 6.2837C7.55148 6.2837 7.81951 6.16325 8.18457 5.8229C8.57292 5.46757 8.87001 5.2853 9.0254 5.22284C9.10827 5.18762 9.19489 5.16198 9.28358 5.14642H9.28345Z" fill="#C29637"/>
<path fill-rule="evenodd" clip-rule="evenodd" d="M15.9126 3.68646C15.9126 3.68646 15.8503 3.76403 15.7726 3.84953C15.5998 4.03206 15.3746 4.23776 15.1823 4.44947C14.9999 4.65145 14.7941 4.80877 14.5629 5.07283C14.3317 5.33689 14.0637 5.63001 13.9959 5.71552C13.9338 5.80102 13.8853 5.9408 13.8853 6.01261C13.8523 5.98931 13.8135 5.96409 13.8135 5.96409C13.8298 5.99458 13.8493 6.02324 13.8717 6.0496C13.9202 6.11757 13.9959 6.2032 14.0348 6.25542C14.0825 6.32191 14.1168 6.39709 14.1357 6.47673C14.1589 6.48057 14.3085 6.50976 14.495 6.20294C14.6814 5.89613 14.9259 5.56025 14.9259 5.56025L15.3143 4.98349L15.559 4.49427L15.8662 3.94669L15.9129 3.68646H15.9126Z" fill="#AC8132"/>
<path fill-rule="evenodd" clip-rule="evenodd" d="M16.3107 3.29425C16.3107 3.29425 16.0757 3.48625 15.9844 3.60145C15.8932 3.71665 15.6772 4.01899 15.6772 4.01899L15.7549 4.00926L16.1492 3.65982L16.3028 3.38603L16.3106 3.29476L16.3107 3.29425Z" fill="#A88F33"/>
<path fill-rule="evenodd" clip-rule="evenodd" d="M16.2388 18.7253C16.2388 18.7253 16.235 18.566 16.3243 18.4709C16.4156 18.3757 16.6466 18.2359 16.8719 17.7116C17.0972 17.1873 17.1223 17.0689 17.1223 17.0689C17.1223 17.0689 16.7184 17.4145 16.4695 17.4961C16.5277 17.3756 16.5607 17.2903 16.5899 17.228C16.5569 17.199 16.4171 17.166 16.4036 17.1505C16.4811 17.0728 16.5239 16.8824 16.6812 16.7562C16.8832 16.6026 17.2521 16.3387 17.5388 16.1034C17.8255 15.8682 18.3892 15.321 18.4612 15.1617C18.5039 15.2238 18.5135 15.2626 18.5135 15.2626C18.5135 15.2626 18.2301 15.6316 18.0825 15.8665C17.9524 16.0685 17.9621 16.1831 17.9621 16.1831L18.2301 16.0679C18.2301 16.0679 18.3077 16.3552 17.9563 16.7922C18.1099 16.734 18.1719 16.7689 18.2592 16.7203C18.1154 16.8117 17.9174 16.936 17.731 17.2776C17.5485 17.6193 17.2999 18.0174 16.8806 18.2659C16.4728 18.528 16.2378 18.7241 16.2378 18.7241L16.2388 18.7253Z" fill="#A67A2E"/>
<path fill-rule="evenodd" clip-rule="evenodd" d="M15.1867 5.61272C15.1867 5.61272 15.0274 5.94462 15.0041 6.20293C15.0003 6.26514 14.9847 6.31365 14.9847 6.38546C14.9809 6.6165 14.9983 6.8748 14.9463 6.99512C14.9268 6.94661 14.9171 6.91358 14.8977 6.89426C14.8686 6.97579 14.8161 7.23013 14.7734 7.32523C14.754 7.26315 14.7113 7.0476 14.7153 6.79326C14.7192 6.53893 14.7249 6.49029 14.7249 6.43794C14.7153 6.5155 14.6628 6.62046 14.6433 6.68254C14.6143 6.63019 14.5812 6.56222 14.5423 6.5059C14.519 6.5443 14.49 6.60101 14.4648 6.63019C14.4608 6.6069 14.4512 6.54469 14.4453 6.45739C14.4415 6.3564 14.4356 6.22635 14.4415 6.19909C14.4511 6.14674 14.5327 5.94091 14.7055 5.7525C14.9113 5.52722 15.1231 5.09432 15.1851 4.9603C15.2472 4.82629 15.5113 4.2691 15.5113 4.2691H15.7133L15.42 4.93701C15.42 4.93701 15.2434 5.30206 15.1521 5.43621C15.0609 5.57035 14.8686 5.95474 14.7831 6.10424C14.8452 6.0227 14.8977 5.97995 14.9599 5.90226C15.02 5.84786 15.1869 5.61298 15.1869 5.61298L15.1867 5.61272Z" fill="#8C6228"/>
<path fill-rule="evenodd" clip-rule="evenodd" d="M16.3146 3.26892C16.2816 3.37047 16.2295 3.46475 16.161 3.54668C16.0406 3.69042 15.7822 3.88255 15.6562 4.0359C15.541 4.1854 15.3106 4.59321 15.4153 5.07666C15.4537 4.97183 15.526 4.76409 15.7182 4.52908C15.9105 4.29407 16.1163 4.02425 16.2174 3.81458C16.3183 3.60287 16.3319 3.43596 16.3319 3.43596L16.3703 3.38745L16.347 3.27673L16.314 3.26892H16.3146Z" fill="#CBA94C"/>
<path fill-rule="evenodd" clip-rule="evenodd" d="M20.2465 16.1485C20.2465 16.1485 20.1688 15.937 20.1455 15.7447C20.1222 15.5524 20.1839 15.5143 20.1125 15.2943C20.0697 15.1603 19.9922 15.1791 19.9727 15.1603C19.9533 15.1414 19.9397 14.9389 19.9435 14.8282C19.9474 14.7175 19.9397 14.5739 19.9202 14.5117C19.8912 14.4884 19.8717 14.4689 19.829 14.3253C19.7805 14.1816 19.7572 14.1098 19.7339 14.0671C19.7106 14.0245 19.6425 13.9856 19.6425 13.9428C19.6425 13.8573 19.7202 13.8128 19.7202 13.7892C19.7163 13.7407 19.6581 13.7796 19.6425 13.7659C19.6231 13.7427 19.6911 13.6029 19.6659 13.5834C19.6562 13.5738 19.5882 13.6554 19.5707 13.6321C19.5512 13.6086 19.5279 13.3776 19.493 13.2243C19.4601 13.0747 19.425 12.9661 19.4212 12.9214C19.4173 12.8787 19.1531 12.1252 19.0891 11.9427C19.0375 11.7885 18.9941 11.6316 18.9591 11.4728C18.9396 11.3816 18.9261 11.1951 18.9163 11.2145C18.9066 11.234 18.9125 11.3291 18.8969 11.3252C18.8833 11.3213 18.8348 10.9894 18.8193 10.9369C18.8057 10.8844 18.7241 10.7065 18.7041 10.5777C18.6846 10.4475 18.642 10.1077 18.6128 9.87667C18.5837 9.64563 18.5701 9.55052 18.5701 9.49267C18.5749 9.35116 18.5671 9.2095 18.5468 9.06937C18.5084 8.82464 18.4316 8.52755 18.3643 8.35488C18.2342 8.0286 17.8885 7.19366 17.8267 6.98592C17.8267 6.93344 17.8946 6.96262 17.8946 6.96262C17.8946 6.96262 18.0635 7.38592 18.1877 7.71206C18.3082 8.03833 18.4228 8.32569 18.4519 8.35488C18.4752 8.38393 18.6578 8.70432 18.7393 9.2286C18.8208 9.75289 18.8499 10.2363 18.8985 10.5587C18.9218 10.7123 18.9413 10.8752 18.9898 11.0383C19.0421 11.215 19.1237 11.3976 19.2306 11.6771C19.3218 11.9121 19.3898 12.1082 19.4267 12.2772C19.4694 12.4927 19.4694 12.6558 19.4946 12.7627C19.5181 12.8539 19.5529 13.0363 19.6345 13.3003C19.7162 13.5642 19.8364 13.9042 19.9179 14.1158C20.0773 14.5391 20.1483 14.8925 20.1724 15.0809C20.1936 15.2751 20.2656 15.9469 20.2461 16.1488L20.2465 16.1485Z" fill="#A88F33"/>
<path fill-rule="evenodd" clip-rule="evenodd" d="M16.3243 3.24558L16.3146 3.26888C16.3146 3.26888 16.3437 3.2786 16.3379 3.31752C16.3383 3.37075 16.3351 3.42396 16.3282 3.47675C16.3186 3.54472 16.2991 3.59707 16.2953 3.63982C16.2953 3.73108 16.3089 3.83592 16.1801 4.09614C16.1417 4.16795 16.118 4.23003 16.0985 4.27278C16.05 4.37761 16.0403 4.39323 15.9976 4.44174C16.0655 4.40334 16.3103 4.24974 16.4344 4.27278C16.349 4.32129 16.2189 4.41652 16.1373 4.54081C16.1568 4.54465 16.2383 4.56027 16.3677 4.54081C16.5833 4.50779 16.8241 4.43009 17.0356 4.44558C17.2668 4.45915 17.1755 4.16795 17.1755 4.16795L16.9088 3.58158L16.404 3.22638L16.3243 3.24571V3.24558Z" fill="#BE9C44"/>
<path fill-rule="evenodd" clip-rule="evenodd" d="M17.6407 7.63793C17.6407 7.63793 17.4155 7.41265 17.3242 6.63953C17.2329 5.86282 17.2524 4.71953 17.2524 4.71953L17.0699 4.27293C17.0699 4.27293 17.0315 3.97585 16.9358 3.86525C16.8402 3.75466 16.6524 3.56817 16.5669 3.4769C16.4814 3.38564 16.3844 3.26135 16.3262 3.24189C16.3552 3.19338 16.4854 2.91959 16.9843 2.91575C17.4833 2.91191 17.6371 3.18954 17.6892 3.29053C17.7413 3.39153 17.9766 3.82813 18.0639 4.66013C18.1454 5.49111 18.1494 5.55332 18.1358 5.84068C18.1261 5.99991 18.0736 6.36881 17.9822 6.76292C17.8988 7.097 17.8075 7.46986 17.6405 7.63869L17.6407 7.63793Z" fill="#A17C34"/>
<path fill-rule="evenodd" clip-rule="evenodd" d="M16.9344 8.30004C17.0095 8.30545 17.0845 8.28853 17.15 8.2514C17.2218 8.24756 17.482 8.28058 17.6819 8.02625C17.6955 8.08436 17.7306 8.2418 17.6392 8.38157C17.6878 8.33293 17.7596 8.31361 17.7694 8.30004C17.7732 8.37185 17.8412 8.59316 17.5538 9.13101C17.6314 9.04564 17.7226 9.04948 17.8042 9.03975C17.8081 9.14074 17.8624 9.48045 17.7188 9.66311C17.6237 9.7874 17.4683 9.74849 17.4683 9.74849C17.4706 9.72135 17.4706 9.69408 17.4683 9.66695C17.4645 9.61447 17.445 9.56212 17.4587 9.52717C17.3836 9.49288 17.3152 9.4455 17.2567 9.38727C17.0878 9.22804 16.8684 8.95629 16.8529 8.75431C16.8334 8.52903 17.0354 8.48052 17.0354 8.48052C17.0185 8.46538 17.0041 8.44767 16.9927 8.42804C16.9829 8.39514 16.9732 8.34266 16.9344 8.30004Z" fill="#8C6228"/>
<path fill-rule="evenodd" clip-rule="evenodd" d="M15.4366 5.85732C15.4366 5.85732 15.4269 5.84376 15.3745 5.90584C15.3842 5.84376 15.394 5.78539 15.3978 5.72907C15.4226 5.67693 15.4547 5.62857 15.493 5.58545C15.4639 5.64356 15.4444 5.69604 15.4444 5.69604C15.4444 5.69604 15.5163 5.56203 15.6212 5.48049C15.693 5.42225 15.7842 5.39512 15.823 5.34072C15.8658 5.28248 15.856 5.27275 15.8658 5.26302C15.8658 5.26302 15.961 5.20094 16.1067 5.01828C16.126 4.99499 16.1552 4.96977 16.1746 4.94648C16.2075 4.93291 16.2852 4.89796 16.3765 4.85124C16.4717 4.79889 16.5785 4.72708 16.6445 4.69764C16.7746 4.6394 16.9126 4.64529 16.9766 4.5539C17.0251 4.54033 17.0774 4.39467 17.0678 4.27051C17.1396 4.29956 17.5085 4.52868 17.6349 5.02968C17.7261 5.385 17.5629 5.93259 17.495 6.19678C17.427 6.46097 17.4174 6.65694 17.3222 6.77726C17.2017 6.93662 16.8135 7.16126 16.7183 7.27249C16.6367 7.36376 16.3921 7.5948 16.4017 7.76171C16.4114 7.886 16.5648 7.95371 16.5979 7.97726C16.6311 8.00081 16.6308 8.02974 16.693 8.01566C16.7552 8.00158 16.7784 7.97291 16.8038 7.97291C16.8328 7.97675 16.8328 7.98264 16.8464 7.98264C16.8562 7.98234 16.866 7.98101 16.8756 7.97867C16.8756 7.97867 16.8658 8.15544 16.4523 8.20907C16.4231 8.21304 16.394 8.22264 16.357 8.22852C16.4057 8.20523 16.4347 8.20523 16.4872 8.13342C16.429 8.12369 16.2619 8.11396 16.2192 8.1004C16.2328 8.0771 16.2774 8.01489 16.3143 7.98584C16.3473 7.95678 16.3104 7.94744 16.2814 7.96254C16.2314 7.99658 16.1834 8.0335 16.1376 8.07313C16.0891 8.11588 16.0464 8.17412 15.9687 8.22673C15.9454 8.14904 15.9492 8.00145 16.0406 7.8947C16.0172 7.89854 15.9725 7.96651 15.9299 7.95294C15.9222 7.88211 15.9268 7.81049 15.9435 7.74123C15.9668 7.6538 16.093 7.50046 16.093 7.50046L16.7026 6.41105L16.8327 5.58584L15.4366 5.85707V5.85732Z" fill="#92723A"/>
<path fill-rule="evenodd" clip-rule="evenodd" d="M15.4038 5.90391C15.4038 5.90391 15.3708 5.9272 15.4368 5.97187C15.4271 5.98544 15.4038 6.03395 15.3746 6.06698C15.3417 6.10538 15.3067 6.12919 15.2931 6.16221C15.264 6.23018 15.2408 6.27677 15.2408 6.30595C15.2408 6.33514 15.231 6.52151 15.1495 6.64183C15.1203 6.68458 15.0873 6.75639 15.064 6.8049C15.0155 6.89027 14.9727 6.9585 14.963 6.9969C14.9437 7.06487 14.9301 7.25123 14.9301 7.25123C14.9301 7.25123 14.9728 7.19875 14.9883 7.17943C14.9649 7.22794 14.9397 7.28029 14.9028 7.3192C14.9261 7.29975 14.9941 7.25123 15.1087 7.15024C15.2679 7.01635 15.5165 6.79107 15.8194 6.61264C15.728 6.64567 15.6505 6.64567 15.5884 6.65539C15.6369 6.60688 16.0738 6.09424 16.3029 6.04573C16.3168 6.02809 16.3237 6.00595 16.3224 5.98352L16.1261 5.96419L15.728 6.04957L15.6699 5.74237L15.4038 5.90352V5.90391Z" fill="#B18E3E"/>
<path fill-rule="evenodd" clip-rule="evenodd" d="M16.0368 7.65148C16.0368 7.65148 15.9843 7.70384 15.9358 7.83401C15.8985 7.79501 15.8665 7.75124 15.8406 7.70384C15.7688 7.58352 15.6582 7.43004 15.3999 7.51747C15.3961 7.43593 15.3902 7.39318 15.3999 7.33494C15.4426 7.32534 15.5727 7.22051 15.7027 7.06704C15.7941 6.9622 15.8795 6.84176 15.9378 6.68841C15.9762 6.65923 16.0426 6.61072 16.1298 6.5544C16.254 6.46902 16.4035 6.35241 16.4268 6.22236C16.3686 6.24566 16.2443 6.3039 16.0578 6.2943C16.1298 6.26128 16.2403 6.22633 16.2268 6.08259C16.256 6.06313 16.2793 6.04956 16.2793 6.04956C16.2574 6.04226 16.2343 6.03897 16.2113 6.03984C16.2073 6.02627 16.2016 6.00694 16.1685 6.01654C16.1355 6.02614 16.1301 6.02627 16.1258 6.03984C16.1122 6.0438 16.0675 6.03984 16.0345 6.06326C16.0015 6.08668 15.9102 6.16412 15.8753 6.17769C15.8889 6.1544 15.9082 6.11958 15.9082 6.11958C15.9082 6.11958 15.8131 6.12918 15.7451 6.15798C15.6208 6.20073 15.4772 6.27843 15.3315 6.35408C15.3451 6.33078 15.351 6.31568 15.3606 6.31132C15.3702 6.30697 15.3936 6.30172 15.3936 6.29776C15.3936 6.29379 15.384 6.25936 15.3898 6.2454C15.4333 6.15315 15.4847 6.0648 15.5434 5.98134C15.6114 5.88995 15.6249 5.7599 15.6249 5.7599L15.922 5.6104L16.757 5.4184L17.2988 5.45142L17.2308 5.8262L16.9108 6.48054L16.637 7.07664L16.3243 7.44182L16.037 7.65148H16.0368Z" fill="#543E26"/>
<path fill-rule="evenodd" clip-rule="evenodd" d="M17.3906 6.02959C17.3906 6.02959 17.0643 6.43343 16.973 6.49564C17.0313 6.37135 17.3906 5.63151 17.5206 5.42569C17.4916 5.40239 17.4526 5.40239 17.5439 5.04169C17.4663 5.22409 17.4391 5.31932 17.3751 5.36783C17.3111 5.41634 17.3031 5.40086 17.2599 5.40086C17.268 5.38608 17.2714 5.36912 17.2695 5.35234C17.2695 5.35234 16.9957 5.31932 16.8087 5.31932C16.6217 5.31932 16.2515 5.42031 16.0455 5.50185C15.8825 5.56981 15.7912 5.56981 15.733 5.61244C15.6747 5.66095 15.6417 5.71343 15.6125 5.727C15.5892 5.74057 15.4786 5.77551 15.4533 5.81237C15.43 5.85077 15.3912 5.89391 15.3912 5.90364C15.3912 5.91337 15.3815 5.92706 15.4107 5.91721C15.4203 5.91337 15.4922 5.87445 15.5737 5.82594C15.6843 5.76386 15.8183 5.69206 15.9155 5.6493C16.1931 5.53858 16.2805 5.55804 16.4047 5.53474C16.5348 5.51145 16.7213 5.45705 16.8454 5.45705C16.9697 5.45321 17.2047 5.45705 17.2591 5.46677C17.2358 5.48623 17.2164 5.50953 17.2261 5.59106C17.2261 5.61436 17.2066 5.63957 17.1877 5.69589C17.1296 5.85513 17.0189 6.11919 16.9573 6.25321C16.8719 6.43561 16.7749 6.58908 16.7269 6.68418C16.6789 6.77929 16.5733 7.02978 16.4687 7.1638C16.3641 7.29781 16.3095 7.37935 16.2767 7.40853C16.2439 7.43772 16.0087 7.61039 16.0262 7.6726C16.069 7.65903 16.3389 7.5574 16.5349 7.33673C16.7309 7.11606 16.7699 6.9814 16.9232 6.86095C17.0766 6.7405 17.197 6.53865 17.2688 6.37174C17.329 6.21634 17.3154 6.16783 17.3911 6.02997L17.3906 6.02959Z" fill="#806031"/>
<path fill-rule="evenodd" clip-rule="evenodd" d="M10.3593 9.04374C10.3593 9.04374 10.3166 9.22038 10.2194 9.3078C10.1243 9.39331 9.95537 9.46704 9.93604 9.61078C9.91274 9.7544 10.105 9.82633 10.105 9.82633C10.105 9.82633 10 9.99913 10 10.1292C10 10.2632 9.9962 10.2884 10.0098 10.4165C9.99437 10.4264 9.98127 10.4395 9.97137 10.4549C9.97137 10.4549 9.98097 10.5792 10.0762 10.6568C10.1714 10.7344 10.2528 10.7811 10.3014 10.7616C10.3088 10.7775 10.3153 10.7937 10.3208 10.8103C10.3208 10.8103 10.3927 10.6277 10.4413 10.4685C10.4898 10.3054 10.5325 10.3286 10.5518 10.1092C10.5712 9.88982 10.7822 9.51312 10.7822 9.51312L10.9262 9.1912L10.6914 9.00867L10.3593 9.04361V9.04374Z" fill="#B6903C"/>
<path fill-rule="evenodd" clip-rule="evenodd" d="M10.7962 9.36017C10.7477 9.40989 10.703 9.46311 10.6624 9.5194C10.6003 9.6049 10.5518 9.68247 10.4605 9.71562C10.3693 9.74878 10.311 9.74852 10.3168 9.83991C10.3226 9.9313 10.4081 9.96996 10.4566 10.0166C10.5091 10.0651 10.5518 10.1466 10.5285 10.238C10.5576 10.2244 10.61 10.2088 10.6586 10.104C10.7071 9.99914 11.0464 9.3603 11.0464 9.3603H10.7962V9.36017Z" fill="#685026"/>
<path fill-rule="evenodd" clip-rule="evenodd" d="M12.1343 7.88639C12.1343 7.88639 12.1633 7.80882 12.1343 7.7525C12.1051 7.69426 11.9284 7.6748 11.841 7.60875C11.7497 7.54079 11.639 7.49356 11.5478 7.52338C11.5613 7.49036 11.6157 7.41842 11.5711 7.40293C11.5283 7.38936 11.3692 7.46117 11.3264 7.49419C11.2837 7.52722 11.1865 7.566 11.1672 7.58943C11.1479 7.61285 11.1147 7.6574 11.0953 7.63794C11.0758 7.62437 11.0662 7.58943 11.0332 7.60875C11.0002 7.62808 10.8412 7.75826 10.8119 7.83403C10.7826 7.90981 10.7167 8.07877 10.5186 8.2709C10.3206 8.46303 10.2351 8.58744 10.2934 8.65925C10.3516 8.73106 10.3789 8.67871 10.3886 8.74079C10.3961 8.80173 10.3928 8.86351 10.3789 8.92332C10.3556 9.02431 10.3168 9.11941 10.3691 9.13887C10.5031 9.18162 10.6333 9.10047 10.6624 9.1253C10.7206 9.17765 10.6294 9.36607 10.7672 9.40293C10.9071 9.44133 11.045 9.36991 11.045 9.36991L11.5536 9.09612L12.043 8.83794L12.2934 8.34271L12.1591 7.92914L12.1335 7.88639H12.1343Z" fill="#D4B968"/>
<path fill-rule="evenodd" clip-rule="evenodd" d="M11.6544 9.06897C11.6544 9.06897 11.5689 8.93892 11.6739 8.82423C11.7788 8.70954 11.9282 8.66116 11.9864 8.58935C11.9754 8.57568 11.9605 8.56557 11.9437 8.5603C11.9824 8.49112 12.0413 8.43549 12.1127 8.40094C12.0836 8.37188 12.0447 8.34858 12.0021 8.34858C11.9068 8.34858 11.8485 8.40682 11.7612 8.40682C11.6758 8.40682 11.6661 8.36407 11.6661 8.36407C11.6661 8.36407 11.8098 8.3505 11.7961 8.28638C11.7825 8.21841 11.7577 8.21841 11.7577 8.21841C11.7577 8.21841 12.0353 8.10321 12.0839 8.04177C12.1324 7.98033 12.1266 7.90775 12.1363 7.8787C12.1692 7.8787 12.3615 7.7777 12.4392 7.82046C12.5169 7.86321 12.4625 7.97969 12.4625 7.97969C12.4625 7.97969 12.6976 7.80292 12.8174 7.62961C12.9223 7.63934 12.971 7.5578 13.0478 7.5578C13.1431 7.5578 13.2926 7.68785 13.3216 7.96548C13.3411 8.12471 13.3701 8.21598 13.3411 8.49758C13.3275 8.65681 13.3313 8.99678 13.3795 9.16548C13.4124 9.2995 13.4901 9.28593 13.4901 9.28593C13.4781 9.32677 13.4545 9.36321 13.4221 9.39076C13.3696 9.43927 13.3639 9.56753 13.3696 9.61604C13.3774 9.65151 13.3871 9.68651 13.3988 9.72087C13.3988 9.72087 13.3367 9.79268 13.3211 9.84132C13.3075 9.88983 13.2435 9.92286 13.1968 9.92286C13.1501 9.92286 13.1735 9.91889 13.1114 9.92286C13.0494 9.92682 13.0299 9.93642 12.991 9.92286C12.9521 9.90929 12.923 9.89367 12.9386 9.76926C12.9522 9.64497 12.459 9.35569 12.459 9.35569L11.6526 9.06833L11.6544 9.06897Z" fill="#CCA849"/>
<path fill-rule="evenodd" clip-rule="evenodd" d="M10.7282 10.2961C10.7282 10.2961 10.9048 10.5311 11.6311 10.5311C11.9767 10.5311 12.0971 10.4981 12.1687 10.4787C12.2464 10.4592 12.5376 10.3448 12.8308 9.99903C13.0949 9.68646 13.0367 9.55833 13.0367 9.55833L12.8831 9.53503L12.3839 9.603L10.9067 10.2321L10.7275 10.2961H10.7282Z" fill="#585136"/>
<path fill-rule="evenodd" clip-rule="evenodd" d="M11.2697 10.3543C11.2697 10.3543 10.6406 10.4942 10.6406 10.0962C10.6406 9.7078 11.029 9.29999 11.1261 9.22818C11.2271 9.15625 11.4679 9.07458 11.4679 9.07458H12.0485L12.1591 9.36783L12.1106 10.0008L11.2697 10.3542V10.3543Z" fill="#252211"/>
<path fill-rule="evenodd" clip-rule="evenodd" d="M11.8503 9.19323C11.8503 9.19323 11.73 9.08251 11.4562 9.23163C11.1824 9.38075 10.9609 9.69243 10.9474 9.97543C10.9338 10.2258 11.1532 10.4123 11.495 10.422C11.7493 10.4316 11.9028 10.4026 11.9805 10.3836C11.961 10.3603 11.86 10.2341 11.86 10.2341L11.8504 9.19335L11.8503 9.19323Z" fill="#C3B378"/>
<path fill-rule="evenodd" clip-rule="evenodd" d="M11.7321 9.25521C11.7321 9.25521 11.7031 9.23192 11.6169 9.27851C11.5451 9.31691 11.4403 9.41841 11.3588 9.49022C11.3063 9.53297 11.2733 9.5523 11.2436 9.58533C11.1231 9.72907 11.0221 9.96408 11.0805 10.0806C11.1389 10.197 11.331 10.3311 11.8203 10.2398L11.7307 9.25534L11.7321 9.25521Z" fill="#E6D89C"/>
<path fill-rule="evenodd" clip-rule="evenodd" d="M11.5731 9.49611C11.5731 9.49611 11.4954 9.61656 11.4954 9.80882C11.4954 10.0049 11.6061 10.3175 12.0139 10.3408C12.3265 10.3602 12.5362 9.89035 12.7634 9.70782C12.9362 9.56805 13.041 9.56408 13.041 9.56408C13.041 9.56408 12.8643 9.37208 12.3925 9.12338C11.9265 8.87288 11.4041 8.83986 11.1206 9.22437C11.2546 9.21464 11.6876 9.10392 11.6876 9.10392L11.8994 9.17189L11.5731 9.49624V9.49611Z" fill="#252211"/>
<path fill-rule="evenodd" clip-rule="evenodd" d="M12.1823 9.75046C12.1688 9.7214 12.159 9.68249 12.2154 9.67289C12.2717 9.66329 12.2969 9.66892 12.3163 9.71129C12.3358 9.75366 12.3547 9.78899 12.3259 9.80652C12.2969 9.82201 12.2211 9.80652 12.1822 9.7502L12.1823 9.75046ZM12.0911 9.47667C12.0911 9.47667 12.0716 9.49023 12.0813 9.4631C12.0852 9.4302 12.1105 9.37183 12.1726 9.38553C12.2347 9.39923 12.2212 9.46707 12.211 9.48652C12.2008 9.50598 12.1489 9.53887 12.11 9.52492C12.1051 9.52366 12.1005 9.52125 12.0967 9.5179C12.0929 9.51454 12.0899 9.51033 12.088 9.5056C12.0861 9.50088 12.0853 9.49577 12.0858 9.4907C12.0862 9.48562 12.0879 9.48073 12.0906 9.47641L12.0911 9.47667Z" fill="#6F674D"/>
<path fill-rule="evenodd" clip-rule="evenodd" d="M6.83496 9.60077C6.83496 9.60077 6.98856 9.71597 7.16699 9.71149C7.34363 9.70752 7.57083 9.52512 7.67566 9.40852C7.73774 9.34055 7.79086 9.26874 7.84846 9.21242C7.8971 9.16391 7.93 9.14061 7.9533 9.10759C7.98632 9.06919 8.02126 8.997 8.0388 8.97357C7.99605 9.0066 7.93397 9.06496 7.86984 9.10375C7.80776 9.14215 7.67375 9.21434 7.61935 9.2338C7.56699 9.25325 7.02325 9.541 7.02325 9.541L6.83496 9.60077Z" fill="#AC924C"/>
<path fill-rule="evenodd" clip-rule="evenodd" d="M7.06982 8.16607C7.06982 8.16607 7.1552 8.10783 7.32032 8.07084C7.47955 8.03244 7.79994 8.00287 7.79994 8.00287L8.064 8.11807L8.16883 8.51615L7.97683 8.92985L7.73222 9.08345L7.45446 8.63685L7.07046 8.16684L7.06982 8.16607Z" fill="#9F8E57"/>
<path fill-rule="evenodd" clip-rule="evenodd" d="M6.7242 8.52138L6.63281 8.5896C6.63281 8.5896 6.65624 8.54685 6.67556 8.4168C6.69489 8.28676 6.79601 7.97021 6.9436 7.78768C7.09118 7.60516 7.08734 7.61488 7.08734 7.61488C7.07376 7.6124 7.05981 7.61284 7.04641 7.61617C7.03301 7.6195 7.02048 7.62565 7.00964 7.63421C7.0291 7.5912 7.15339 7.4376 7.27768 7.3608C7.40196 7.284 7.45048 7.25981 7.58052 7.3224C7.71057 7.385 7.7436 7.41751 7.83883 7.41367C7.93406 7.40983 8.01547 7.30884 8.01547 7.30884C8.01547 7.30884 8.03492 7.37092 7.96312 7.51466C7.89131 7.6584 7.60779 7.95152 7.60779 7.95152L7.01745 8.35536L6.7242 8.52176V8.52138Z" fill="#EAC970"/>
<path fill-rule="evenodd" clip-rule="evenodd" d="M7.16116 8.11755C7.16116 8.11755 7.58842 8.17579 7.71847 8.05547C7.72231 8.06904 7.73793 8.06904 7.73793 8.07876C7.73688 8.0861 7.73346 8.09288 7.7282 8.09809C7.74234 8.09583 7.75663 8.09455 7.77095 8.09425C7.78805 8.09934 7.80564 8.1026 7.82343 8.10398C7.83776 8.10367 7.85204 8.10234 7.86618 8.10001C7.86483 8.10966 7.86155 8.11894 7.85654 8.1273C7.85152 8.13566 7.84488 8.14292 7.837 8.14865C7.85645 8.14865 7.8754 8.15249 7.8754 8.16798C7.8754 8.18347 7.87924 8.23019 7.85594 8.23992C7.83664 8.24525 7.8161 8.24385 7.7977 8.23595C7.79924 8.27271 7.80923 8.30863 7.82688 8.34091C7.86528 8.41272 7.9472 8.49451 8.05728 8.47096C8.05728 8.47096 8.1154 8.61073 7.87079 8.92139C7.83789 8.96414 7.80282 9.02238 7.7602 9.07089C7.74336 9.1076 7.73048 9.14601 7.7218 9.18545C7.7218 9.18545 8.13549 9.02622 8.25389 8.66308C8.37434 8.29803 8.39764 7.93886 8.37434 7.60299C8.37037 7.50776 8.35489 7.43992 8.33159 7.39128C8.27335 7.27083 8.11015 7.29028 8.04423 7.35825C7.949 7.45348 7.78977 7.69028 7.56845 7.85336C7.34317 8.01643 7.33357 8.04536 7.16064 8.11755H7.16116Z" fill="#D7BC6B"/>
<path fill-rule="evenodd" clip-rule="evenodd" d="M6.64854 8.6418C6.64854 8.6418 6.56701 8.69031 6.52426 8.8722C6.4815 9.05857 6.56266 9.28577 6.60963 9.35758C6.65661 9.42938 6.76323 9.62561 6.98442 9.63534C7.03916 9.63505 7.0933 9.62382 7.14365 9.60231C7.22086 9.56691 7.29329 9.52188 7.3592 9.4683C7.45443 9.39649 7.532 9.33441 7.52227 9.32852C7.49898 9.31879 6.9359 8.85274 6.9359 8.85274L6.72419 8.61646L6.64842 8.64206L6.64854 8.6418Z" fill="#585136"/>
<path fill-rule="evenodd" clip-rule="evenodd" d="M7.18088 9.41455C7.18088 9.41455 7.29544 9.40494 7.36341 9.36219C7.43138 9.31944 6.96533 8.85736 6.96533 8.85736L6.99836 9.35656L7.18088 9.41455Z" fill="#453A25"/>
<path fill-rule="evenodd" clip-rule="evenodd" d="M6.68565 8.60673C6.68565 8.60673 6.62741 8.71745 6.62741 8.74663C6.61768 8.84173 6.64687 9.14074 6.67016 9.23585C6.69346 9.33684 6.81967 9.49018 6.98287 9.49018C7.08373 9.49018 7.22364 9.4281 7.22364 9.41261C7.22364 9.39316 7.07989 9.37421 7.04111 9.30189C7.01781 9.26349 7.00808 9.16801 7.00271 9.07149C6.99887 9.00941 6.99887 8.94145 7.02216 8.91789C7.07464 8.85965 7.08424 8.69261 7.08424 8.69261L7.27061 8.34637H7.02549L6.73224 8.5289L6.68565 8.60673Z" fill="#84754B"/>
<path fill-rule="evenodd" clip-rule="evenodd" d="M6.61377 8.71362C6.61377 8.71362 6.80577 8.45928 6.97883 8.40091C7.15188 8.34254 7.22932 8.37762 7.22932 8.37762L7.12833 8.63592L6.98459 8.79515L6.99431 8.87669C6.99431 8.87669 6.97089 9.09224 7.11463 9.24174C7.25838 9.39125 7.36513 9.38549 7.42734 9.38549C7.48955 9.38549 7.66811 9.33301 7.75937 9.11746C7.84091 8.9156 7.90887 8.65666 7.7458 8.39707C7.58644 8.13877 7.30497 8.12878 7.25057 8.12878C7.19617 8.12878 6.76903 8.15016 6.61377 8.71323V8.71362Z" fill="#252211"/>
<path fill-rule="evenodd" clip-rule="evenodd" d="M11.5437 9.57764C11.4719 9.54462 11.5399 9.34276 11.6117 9.28056C11.6835 9.21835 11.7748 9.14667 11.9341 9.13681C11.9923 9.13297 12.0486 9.16984 12.039 9.20875C12.0254 9.28056 11.9244 9.38155 11.8332 9.45336C11.7069 9.55243 11.6253 9.61451 11.5437 9.57764Z" fill="#F7F7E7"/>
<path fill-rule="evenodd" clip-rule="evenodd" d="M7.65993 8.47668C7.71241 8.47284 7.78038 8.51508 7.79395 8.57191C7.80752 8.63399 7.76092 8.75828 7.65993 8.75828C7.5784 8.75828 7.53564 8.65729 7.53564 8.62824C7.53656 8.60434 7.54324 8.58103 7.5551 8.56027C7.55894 8.55438 7.56867 8.48641 7.65993 8.47668Z" fill="#F8F6DE"/>
<path fill-rule="evenodd" clip-rule="evenodd" d="M6.9028 8.52136C6.9028 8.52136 6.76878 8.58344 6.7067 8.71336C6.66235 8.8093 6.64893 8.91666 6.6683 9.02056C6.67803 9.06907 6.72654 9.18939 6.75957 9.23215C6.79259 9.2749 6.83726 9.30408 6.87029 9.30011C6.90331 9.29615 6.97115 9.20885 6.97115 9.1565C6.97115 9.10415 6.97512 8.88271 7.03912 8.76226C7.09544 8.64194 6.90318 8.52149 6.90318 8.52149L6.9028 8.52136Z" fill="#D4C38B"/>
<path fill-rule="evenodd" clip-rule="evenodd" d="M6.92214 8.51163C6.89885 8.5252 6.86006 8.54465 6.86966 8.56987C6.87939 8.59316 6.96093 8.60827 6.99011 8.6651C7.02313 8.72334 7.02313 8.78542 7.01341 8.8146C7.03877 8.80255 7.06178 8.78608 7.08137 8.76596C7.12413 8.71745 7.17648 8.65153 7.22115 8.65153C7.25033 8.65153 7.27939 8.6651 7.30665 8.6651C7.34941 8.6651 7.39203 8.65153 7.39792 8.60686C7.40752 8.54862 7.31638 8.49614 7.2639 8.50587C7.27363 8.46747 7.2872 8.41076 7.24445 8.37185C7.20169 8.33294 7.06781 8.40104 7.03862 8.42049C7.00944 8.43995 6.92214 8.51176 6.92214 8.51176V8.51163Z" fill="#E2D59D"/>
<path fill-rule="evenodd" clip-rule="evenodd" d="M10.0077 12.5913L10.295 12.5064L10.3766 12.5646C10.3766 12.5646 10.4347 12.6889 10.5261 12.7044C10.4969 12.7665 10.4211 12.8196 10.4251 12.8637C10.4291 12.9077 10.4678 12.9414 10.4678 12.9414C10.4678 12.9414 10.2095 13.3685 10.7183 13.799C10.5979 13.8475 10.4445 13.9142 10.363 13.9526C10.4211 13.9661 10.5454 13.991 10.5979 14.0381C10.6504 14.0852 10.6504 14.1001 10.6989 14.1293C10.7474 14.1585 10.7764 14.1973 10.7668 14.2147C10.7338 14.1952 10.6231 14.1371 10.6038 14.1914C10.5844 14.2457 10.1242 14.2244 10.1242 14.2244L9.34746 14.3739C9.34746 14.3739 9.37651 14.2962 9.29498 14.2244C9.19987 14.139 9.08339 14.2283 8.9591 14.1332C8.79603 14.0089 8.79014 13.8651 8.73779 13.8109C8.79014 13.7778 8.89702 13.7293 9.15136 13.6957C9.14163 13.6762 9.10861 13.618 9.12806 13.5656C9.15136 13.4976 9.24838 13.4549 9.21933 13.3736C9.26208 13.3639 9.28141 13.3639 9.38829 13.2299C9.48928 13.0958 9.55136 13.0668 9.62906 13.0571C9.70675 13.0473 9.75334 13.0571 9.89709 12.923C9.99795 12.8279 9.96506 12.7464 9.96506 12.7464C9.96506 12.7464 10.031 12.725 10.0078 12.591L10.0077 12.5913Z" fill="#CBAC5A"/>
<path fill-rule="evenodd" clip-rule="evenodd" d="M9.15914 12.6344C9.16298 12.615 9.1786 12.6052 9.28343 12.615C9.38826 12.6247 10.0523 12.5529 10.2329 12.5432C10.4155 12.5296 11.0581 12.5392 11.3709 12.6052C11.6836 12.6713 12 12.749 12.1533 12.7878C12.3069 12.8305 12.3553 12.8459 12.3494 12.8653C12.3456 12.8848 12.311 12.9037 12.2912 12.8984C12.2718 12.8945 11.763 12.7391 11.6059 12.7064C11.4487 12.6736 10.9048 12.5859 10.6075 12.5912C10.3298 12.5951 10.2191 12.5873 9.98423 12.6145C9.74922 12.6436 9.36087 12.6824 9.24439 12.6669C9.12919 12.6534 9.153 12.6534 9.15888 12.6339L9.15914 12.6344Z" fill="#D6BC6F"/>
<path fill-rule="evenodd" clip-rule="evenodd" d="M10.7221 14.1563C10.7221 14.1563 11.1202 14.3719 11.2639 14.6359C11.3687 14.832 11.2018 14.9292 11.2018 14.9292C11.2018 14.9292 11.4271 14.9292 11.3979 15.0535C11.3844 15.131 11.0096 15.3407 10.7591 15.4514C10.5047 15.5621 10.5145 15.5564 10.3902 15.5757C10.2697 15.5952 9.93962 15.5373 9.87165 15.6339C9.80368 15.7306 9.83325 15.8302 9.85219 15.8457C9.87165 15.8592 10.029 15.8787 10.029 15.8787C10.029 15.8787 9.99594 15.9699 9.66979 15.9797C9.34365 15.9894 9.26198 16.0126 9.24253 16.0476C9.22307 16.0805 9.30461 16.0612 9.45424 16.086C9.60374 16.1093 9.81341 16.1244 9.81341 16.1244C9.81341 16.1244 9.74544 16.1827 9.5688 16.2293C9.36682 16.2816 9.05027 16.3303 8.95517 16.3885C9.00368 16.4215 9.07562 16.47 9.10877 16.4739C9.02723 16.4933 8.91254 16.5361 8.89322 16.5516C8.92227 16.571 8.96118 16.5943 8.96118 16.5943C8.96118 16.5943 8.79798 16.7904 8.70288 16.8391C8.60778 16.8877 8.06019 17.1419 7.87178 17.0934C7.40189 16.9691 7.34365 16.4546 7.22909 16.4158C7.05629 16.3575 6.97475 16.4739 6.82128 16.3923C6.88925 16.3438 6.92624 16.3148 6.99805 16.2817C6.92035 16.2433 6.51843 15.9885 6.51843 15.9885C6.4764 15.8969 6.42975 15.8075 6.37866 15.7206C6.30096 15.5866 6.18666 15.4079 6.1009 15.2506C5.91453 14.905 5.9048 14.7457 5.73584 14.5497C5.76502 14.5113 5.86589 14.5166 5.86589 14.5166L7.28157 14.9827L9.79178 15.0554L10.4446 14.1234L10.7222 14.1564L10.7221 14.1563Z" fill="#DFC677"/>
<path fill-rule="evenodd" clip-rule="evenodd" d="M7.00391 15.5776C7.01905 15.5945 7.03671 15.6089 7.05626 15.6204C7.1049 15.6534 7.17671 15.6923 7.22522 15.7504C7.24467 15.7213 7.29319 15.6689 7.37882 15.7504C7.46445 15.8319 7.57082 15.7738 7.63699 15.7932C7.70496 15.8166 7.7088 15.8262 7.7088 15.8262C7.7088 15.8262 7.7472 15.7932 7.83309 15.7582C7.88557 15.7388 7.94765 15.7252 8.01562 15.7059C8.0777 15.6923 8.14567 15.6728 8.19239 15.6728C8.23514 15.7019 8.38848 15.8648 9.00403 15.6243C9.58464 15.399 9.71853 15.3738 9.81568 15.4086C9.82541 15.3853 9.83514 15.3407 9.98464 15.3466C9.98464 15.2845 9.86035 15.0728 9.86035 15.0728L9.17491 14.8379H8.8L7.67578 15.0437L7.0528 15.3992L7.00429 15.5784L7.00391 15.5776Z" fill="#C4A859"/>
<path fill-rule="evenodd" clip-rule="evenodd" d="M6.62891 15.1835C6.62891 15.1835 6.64247 15.2883 6.79787 15.3991C6.95147 15.5097 6.99972 15.5757 6.99972 15.5757C6.99972 15.5757 7.02891 15.5373 7.0522 15.4981C7.0755 15.4554 7.09495 15.4069 7.13374 15.3933C7.21143 15.3603 7.38807 15.4224 7.42699 15.4126C7.46001 15.403 7.45028 15.3351 7.48523 15.3351C7.56676 15.3311 7.61911 15.3874 7.6483 15.3874C7.67748 15.3874 7.74916 15.3836 7.75889 15.3681C7.76862 15.3526 7.77246 15.1913 7.88318 15.1136C8.00363 15.0282 8.15121 15.0651 8.19038 15.0846C8.19038 15.1136 8.19422 15.1856 8.27191 15.1894C8.34961 15.1932 8.35729 15.1797 8.42551 15.203C8.49374 15.2263 8.57502 15.1991 8.61188 15.3136C8.64491 15.304 8.7226 15.2942 8.70315 15.1835C8.74155 15.1545 8.77508 15.135 8.85675 15.0204C8.8762 14.9914 8.9091 14.9584 8.93444 14.9156C9.00241 14.9156 9.08395 14.902 9.19262 14.9971C9.15959 15.0204 9.14014 15.0355 9.13054 15.0592C9.15896 15.0874 9.18491 15.1179 9.20811 15.1505C9.23729 15.1889 9.25675 15.236 9.29361 15.2457C9.37515 15.269 9.50916 15.236 9.65867 15.2457C9.80241 15.2554 9.92273 15.3078 9.97521 15.3408C9.99467 15.3312 9.99467 15.3273 10.0432 15.337C10.0917 15.3467 10.1286 15.3505 10.0762 15.2885C10.1053 15.302 10.1383 15.3312 10.1675 15.302C10.1966 15.2729 10.2198 15.2302 10.3014 15.2205C10.3829 15.2108 10.4121 15.2243 10.4451 15.139C10.4878 15.0341 10.3403 15.0341 10.3403 15.0341C10.3403 15.0341 10.4082 14.9719 10.484 14.8904C10.5753 14.805 10.6801 14.6943 10.7053 14.5584C10.7481 14.3079 10.5035 14.275 10.5035 14.275L9.31703 14.64L7.86654 14.5681L6.62967 15.1836L6.62891 15.1835Z" fill="#927D49"/>
<path fill-rule="evenodd" clip-rule="evenodd" d="M5.56326 11.7563C5.56326 11.7563 5.52486 11.8049 5.50118 11.9194C5.4775 12.034 5.48761 12.0204 5.46815 12.1019C5.4487 12.1835 5.20972 12.9951 5.29932 13.2689C5.38892 13.5427 5.54406 13.6437 5.64108 13.865C5.66054 13.9135 5.67948 13.9427 5.68959 13.9855C5.72262 14.1291 5.69356 14.2398 5.73235 14.3835C5.74591 14.4321 5.78099 14.4884 5.83334 14.5466C5.94854 14.6669 6.13631 14.7815 6.21734 14.863C6.33177 14.9835 6.49497 15.2282 6.70271 15.2514C6.81343 15.2649 6.97075 15.2184 7.10079 15.1408C7.21599 15.0689 7.28716 14.968 7.40799 14.9104C7.49337 14.8676 7.58463 14.8521 7.66617 14.8327C7.83513 14.7997 7.9886 14.7943 8.07987 14.8132C8.21964 14.8424 8.54975 14.9434 8.73267 14.9434C8.87559 14.9411 9.01772 14.9216 9.15596 14.8852C9.43359 14.8036 9.76947 14.6637 9.99091 14.6017C10.121 14.5633 10.2258 14.5531 10.3327 14.5298C10.5152 14.4871 10.6685 14.4289 10.756 14.3181C10.6977 14.2502 10.6259 14.1453 10.2374 14.1492C9.79673 14.1589 9.28793 14.4035 9.03743 14.4424C8.78694 14.4813 8.67827 14.5142 8.39859 14.4132C8.12441 14.3112 8.11532 14.2438 8.11532 14.2438C8.11532 14.2438 7.82745 14.0424 7.707 13.5291C7.58655 13.0159 7.707 12.6418 8.01971 12.2864C8.10124 12.1951 8.08179 12.1136 8.08179 12.1136C8.08179 12.1136 8.28761 11.836 8.23129 11.576C8.16921 11.3177 7.77113 11.3702 7.77113 11.3702L5.56339 11.7563H5.56326Z" fill="#6E6342"/>
<path fill-rule="evenodd" clip-rule="evenodd" d="M5.89514 12.6204C5.87803 12.6526 5.86997 12.6888 5.87185 12.7253C5.87569 12.7776 5.8913 12.8456 6.04849 12.999C6.1825 13.1329 6.15332 13.2824 6.15332 13.2824C6.15332 13.2824 6.22078 13.296 6.40382 13.2104C6.54756 13.1424 6.59582 13.2629 6.59582 13.2629C6.63766 13.2409 6.68301 13.2264 6.72983 13.2201C6.77225 13.2162 6.81331 13.2031 6.85015 13.1817C6.85015 13.1817 7.01911 13.3545 7.1667 13.436C7.30071 13.508 7.37841 13.5565 7.44446 13.508C7.50654 13.4652 7.50654 13.3778 7.50257 13.339C7.48717 13.3032 7.46766 13.2693 7.44446 13.238C7.4017 13.1759 7.33374 13.104 7.32926 13.046C7.31953 12.9121 7.43025 12.7528 7.40682 12.714C7.3834 12.6752 7.29623 12.6655 7.08068 12.7432C6.85745 12.8169 5.89425 12.6208 5.89425 12.6208L5.89514 12.6204Z" fill="#39331F"/>
<path fill-rule="evenodd" clip-rule="evenodd" d="M6.40379 13.4884C6.40379 13.4884 6.29319 13.3836 6.33198 12.8748C6.37893 12.8741 6.42581 12.8786 6.47175 12.8883C6.47175 12.8883 6.53204 13.2826 6.40379 13.4884Z" fill="#292311"/>
<path fill-rule="evenodd" clip-rule="evenodd" d="M5.61577 11.368C5.6312 11.3565 5.64552 11.3437 5.65852 11.3296C5.62012 11.4014 5.44284 11.6887 5.58659 12.1412C5.73033 12.5916 6.09142 12.9275 6.53609 12.9431C6.98076 12.9587 7.21449 12.7411 7.48175 12.415C7.58659 12.285 7.70703 12.1218 7.81379 12.0112C7.97302 11.8382 8.09731 11.7897 8.09731 11.6228C8.09731 11.281 7.74774 11.1276 7.23318 10.9742C6.71862 10.8209 6.25449 10.8398 6.01372 10.9448C5.77884 11.0592 5.67785 11.1797 5.61564 11.3681L5.61577 11.368Z" fill="#252211"/>
<path fill-rule="evenodd" clip-rule="evenodd" d="M7.26796 13.6418L7.30636 13.6223C7.30636 13.6223 7.31596 13.4687 7.37817 13.4728C7.44025 13.4825 7.46943 13.5642 7.46355 13.5932C7.45971 13.6223 7.44422 13.6709 7.38201 13.6651C7.30047 13.667 7.26758 13.6418 7.26758 13.6418H7.26796Z" fill="#3F3824"/>
<path fill-rule="evenodd" clip-rule="evenodd" d="M7.09521 12.9893C7.09521 12.9893 7.13361 12.9758 7.18059 13.0223C7.21899 13.0223 7.38641 13.0029 7.43889 13.0359C7.49137 13.0689 7.50686 13.098 7.50686 13.098C7.50686 13.098 7.31077 13.1407 7.20389 13.098C7.09521 13.0611 7.09521 12.9893 7.09521 12.9893Z" fill="#2D2815"/>
<path fill-rule="evenodd" clip-rule="evenodd" d="M7.95927 13.0184C7.95927 13.0087 7.85444 12.9369 7.74372 12.9134C7.72427 12.9096 7.7203 12.9232 7.70532 12.9232C7.69559 12.9193 7.69175 12.8901 7.69175 12.8901L7.62878 12.9233C7.62878 12.9233 7.61905 12.9369 7.65207 12.9617C7.68113 12.985 7.72977 13.0044 7.74334 13.0432C7.75691 13.082 7.75691 13.0956 7.76279 13.1015C7.76663 13.1053 7.8346 13.1015 7.86763 13.082C7.90065 13.0626 7.96286 13.0308 7.95889 13.018L7.95927 13.0184Z" fill="#82764F"/>
<path fill-rule="evenodd" clip-rule="evenodd" d="M6.97852 13.4126C6.97852 13.4126 6.99784 13.2787 7.12802 13.2729C7.26191 13.2631 7.28725 13.3932 7.28725 13.3932L7.20956 13.4709C7.20956 13.469 7.15132 13.3874 6.97916 13.4126H6.97852Z" fill="#2D2816"/>
<path fill-rule="evenodd" clip-rule="evenodd" d="M7.82325 12.8359C7.82325 12.8359 7.75132 12.9136 7.59221 12.9369C7.57865 12.9174 7.54946 12.8786 7.59221 12.8166C7.63497 12.7545 7.68348 12.735 7.73199 12.7544C7.75339 12.7578 7.77336 12.7673 7.78953 12.7818C7.8057 12.7962 7.8174 12.815 7.82325 12.8359Z" fill="#574F35"/>
<path fill-rule="evenodd" clip-rule="evenodd" d="M8.11639 12.9311C8.12036 12.9117 8.10679 12.9078 8.11639 12.8981C8.12599 12.8884 8.1786 12.869 8.18833 12.8786C8.19217 12.8826 8.18833 12.8981 8.18833 12.917C8.18833 12.936 8.18833 12.9554 8.1786 12.9694C8.16503 12.9888 8.12625 12.9986 8.10679 12.9928C8.08734 12.987 8.0835 12.9598 8.0835 12.9544C8.0931 12.9506 8.11639 12.9408 8.11639 12.9311ZM8.44791 12.7214C8.44791 12.7117 8.48094 12.6923 8.50039 12.6923C8.52945 12.6923 8.52945 12.7156 8.53342 12.7214C8.54302 12.7253 8.54302 12.7175 8.55274 12.735C8.56247 12.7525 8.57617 12.7835 8.56631 12.803C8.55646 12.8224 8.5178 12.8359 8.5082 12.832C8.49463 12.8223 8.45188 12.735 8.44791 12.7214Z" fill="#82764F"/>
<path fill-rule="evenodd" clip-rule="evenodd" d="M7.78076 12.9758C7.78076 12.9758 7.82351 12.9854 7.88175 13.034C7.8623 13.0476 7.83311 13.0631 7.83311 13.0631C7.83311 13.0631 7.82927 13.0184 7.78076 12.9756V12.9758Z" fill="#6E6342"/>
<path fill-rule="evenodd" clip-rule="evenodd" d="M7.68562 12.5485C7.67589 12.5389 7.71467 12.5156 7.73797 12.5195C7.76127 12.5233 7.77099 12.5389 7.79621 12.5428C7.82143 12.5466 7.82539 12.533 7.83461 12.5233C7.84383 12.5136 7.87736 12.5195 7.88312 12.5233C7.88671 12.5276 7.88996 12.5321 7.89285 12.5369C7.89326 12.5295 7.89518 12.5223 7.89851 12.5156C7.90183 12.509 7.90649 12.5032 7.91218 12.4985C7.91963 12.493 7.92822 12.4893 7.9373 12.4876C7.94639 12.4859 7.95574 12.4863 7.96466 12.4887C7.9685 12.5023 7.98795 12.5508 7.98411 12.5605C7.98027 12.5703 7.92203 12.584 7.91218 12.5741C7.92191 12.5975 7.96466 12.646 7.97042 12.6556C7.97618 12.6652 7.92767 12.6887 7.90834 12.6848C7.8812 12.6829 7.71416 12.5858 7.68511 12.5489L7.68562 12.5485ZM7.93995 12.2262C7.93636 12.2164 7.92948 12.2082 7.9205 12.2029C7.90693 12.1991 7.86226 12.2029 7.86226 12.2262C7.86226 12.2495 7.90066 12.3798 7.94379 12.4476C7.99243 12.5156 8.02533 12.5718 8.05835 12.5874C8.06872 12.5921 8.08049 12.5928 8.0913 12.5892C8.10211 12.5855 8.11114 12.578 8.11659 12.568C8.12043 12.5582 8.13016 12.4864 8.12632 12.3175C8.12248 12.1485 8.11659 11.9854 8.10687 11.9757C8.09714 11.966 8.05835 11.9661 8.04478 11.9854C8.03122 12.0048 7.94379 12.1972 7.93982 12.2262H7.93995Z" fill="#585136"/>
<path fill-rule="evenodd" clip-rule="evenodd" d="M7.76701 13.2204C7.76701 13.2204 7.69904 13.1776 7.63299 13.2068C7.57091 13.236 7.57475 13.3505 7.57475 13.3505C7.58872 13.356 7.60381 13.358 7.61871 13.3563C7.63361 13.3546 7.64788 13.3493 7.66026 13.3408C7.70301 13.3117 7.75728 13.2632 7.76701 13.2205V13.2204Z" fill="#574F35"/>
<path fill-rule="evenodd" clip-rule="evenodd" d="M7.89533 13.3738C7.89149 13.3354 7.85693 13.3354 7.85693 13.3156C7.85931 13.3061 7.86481 13.2977 7.87254 13.2917C7.88027 13.2857 7.88978 13.2825 7.89956 13.2826C7.91901 13.2826 7.93796 13.3059 7.96177 13.321C7.98506 13.3345 8.02001 13.3594 8.02385 13.3889C8.02769 13.4185 7.98545 13.4995 7.93847 13.4995C7.89149 13.4995 7.90545 13.4121 7.89572 13.3733L7.89533 13.3738ZM8.27012 13.3214C8.27012 13.3214 8.19242 13.3446 8.19818 13.3214C8.20394 13.2981 8.22161 13.2923 8.24682 13.2923C8.25963 13.2789 8.27687 13.2706 8.29533 13.2689C8.3059 13.2684 8.31627 13.2718 8.32439 13.2786C8.32439 13.2786 8.37687 13.2553 8.39236 13.2689C8.40785 13.2824 8.39633 13.2824 8.40593 13.2981C8.41815 13.3154 8.42617 13.3353 8.42935 13.3563C8.42935 13.3718 8.37111 13.4048 8.32439 13.399C8.27012 13.3874 8.27972 13.3311 8.27012 13.3214ZM8.72247 13.2339C8.72247 13.2339 8.74577 13.2475 8.72644 13.2631C8.71287 13.2767 8.6449 13.3015 8.58653 13.3059C8.52829 13.3059 8.47594 13.3155 8.47594 13.2961C8.47594 13.2768 8.52445 13.2379 8.55351 13.2282C8.55934 13.2209 8.56674 13.215 8.57516 13.211C8.58358 13.2069 8.59281 13.2048 8.60215 13.2049C8.62545 13.2049 8.71658 13.1951 8.74193 13.1913C8.76522 13.1873 8.78468 13.2009 8.77098 13.2204C8.76522 13.2339 8.72247 13.2339 8.72247 13.2339ZM8.85649 12.6344C8.85649 12.6344 8.8273 12.6965 8.79441 12.6965C8.76138 12.6926 8.76138 12.6829 8.76138 12.6732C8.76138 12.6596 8.79441 12.6246 8.79044 12.6149C8.78084 12.6149 8.75741 12.6149 8.76138 12.5916C8.76138 12.5722 8.79441 12.5489 8.82346 12.5532C8.84542 12.5352 8.87275 12.525 8.90116 12.5242C8.93418 12.5242 8.96324 12.5338 8.96324 12.5532C8.96324 12.5727 8.92484 12.6153 8.91076 12.6252C8.89527 12.6407 8.87581 12.6508 8.85649 12.6348V12.6344ZM8.41373 13.7819C8.41373 13.7819 8.37533 13.7859 8.37533 13.8052C8.37533 13.8149 8.38493 13.8149 8.39863 13.8092C8.40652 13.8087 8.41433 13.8074 8.42193 13.8052C8.42577 13.8092 8.42577 13.8285 8.45495 13.8285C8.47891 13.8253 8.50201 13.8173 8.52292 13.8052C8.54621 13.7956 8.56567 13.7857 8.56567 13.7668C8.55594 13.7338 8.53649 13.7182 8.50743 13.7182C8.49254 13.7172 8.47769 13.7206 8.46468 13.7279C8.46468 13.7279 8.45495 13.7084 8.42193 13.7279C8.3889 13.7473 8.39274 13.7473 8.40247 13.7571C8.41988 13.7726 8.41412 13.7827 8.41412 13.7827L8.41373 13.7819ZM8.19434 13.9839C8.19434 13.9742 8.24285 13.9547 8.25642 13.9606C8.26999 13.9644 8.30877 14.0382 8.30877 14.046C8.30877 14.0557 8.26026 14.079 8.24081 14.079C8.22135 14.079 8.18845 14.046 8.18845 14.0406C8.18845 14.0367 8.21175 14.031 8.21175 14.027C8.21751 14.0174 8.19434 13.994 8.19434 13.9843V13.9839ZM8.04074 13.7004C8.05047 13.6965 8.05047 13.6868 8.06404 13.6771C8.06829 13.6742 8.07312 13.6724 8.07818 13.6718C8.08324 13.6711 8.08839 13.6716 8.09322 13.6732C8.09665 13.6671 8.10138 13.6618 8.1071 13.6578C8.11281 13.6537 8.11935 13.651 8.12625 13.6498C8.14954 13.646 8.169 13.6498 8.16465 13.6595C8.16465 13.6887 8.1841 13.708 8.1841 13.7313C8.1841 13.7546 8.17053 13.7838 8.12202 13.8033C8.07351 13.8168 8.00746 13.8168 7.99773 13.813C7.98801 13.8092 7.97828 13.7702 7.98801 13.7508C7.99773 13.7313 8.02487 13.7101 8.04049 13.7004H8.04074Z" fill="#82764F"/>
<path fill-rule="evenodd" clip-rule="evenodd" d="M8.10236 13.7136C8.10236 13.7136 8.06934 13.733 8.06934 13.7427C8.06641 13.7521 8.06511 13.762 8.0655 13.7718C8.0655 13.7776 8.10825 13.768 8.11401 13.7621C8.11593 13.7582 8.10236 13.7237 8.10236 13.7136Z" fill="#6E6342"/>
<path fill-rule="evenodd" clip-rule="evenodd" d="M7.81373 13.6223C7.83306 13.6262 7.86609 13.6223 7.8913 13.632C7.91076 13.6417 7.92433 13.6612 7.90487 13.6845C7.88541 13.7078 7.86647 13.7427 7.82333 13.7368C7.77482 13.733 7.72823 13.7078 7.72823 13.6883C7.72742 13.676 7.72906 13.6637 7.73305 13.652C7.73705 13.6403 7.74333 13.6296 7.75153 13.6204C7.77098 13.6049 7.78058 13.6146 7.81361 13.6223H7.81373Z" fill="#585136"/>
<path fill-rule="evenodd" clip-rule="evenodd" d="M7.79039 13.6418C7.79039 13.6418 7.72831 13.6903 7.71269 13.7137C7.69324 13.737 7.59814 13.8573 7.56908 13.8826C7.57873 13.8655 7.58973 13.8493 7.60198 13.834C7.56357 13.8586 7.53479 13.8956 7.52044 13.9389C7.49714 14.0108 7.65062 14.0496 7.75148 14.0788C7.85234 14.108 7.89138 14.1172 7.89138 14.1172C7.85425 14.0614 7.82237 14.0022 7.79615 13.9405C7.75775 13.8493 7.73791 13.8395 7.76313 13.7968C7.78258 13.754 7.81177 13.725 7.81177 13.692C7.80012 13.6612 7.79039 13.6418 7.79039 13.6418Z" fill="#574F35"/>
<path fill-rule="evenodd" clip-rule="evenodd" d="M5.57692 13.7953C5.59105 13.7979 5.60554 13.7979 5.61967 13.7953C5.64872 13.7913 5.9517 13.6801 6.26824 13.7C6.50521 13.7143 6.74009 13.7529 6.96917 13.8152C7.36725 13.9201 7.86236 14.1278 8.18274 14.2463C8.26812 14.2792 8.3517 14.3376 8.41314 14.3608C8.65788 14.456 8.66748 14.456 8.81122 14.4812C8.98018 14.5045 9.15298 14.4482 9.33359 14.4094C9.5549 14.3608 9.93352 14.3375 10.2656 14.289C10.3729 14.2741 10.4788 14.2501 10.5821 14.2171C10.5821 14.2171 10.318 14.4812 9.68495 14.5763C9.42905 14.6152 9.16901 14.6184 8.91221 14.586C8.71023 14.5666 8.57634 14.5374 8.47535 14.5083C8.36079 14.4753 8.12578 14.3879 7.8365 14.3163C7.63452 14.2639 7.40924 14.2251 7.15106 14.1766C6.51413 14.06 5.82293 13.9261 5.57666 13.796L5.57692 13.7953Z" fill="#252211"/>
<path fill-rule="evenodd" clip-rule="evenodd" d="M4.86184 12.5952C4.70824 12.7253 4.5453 12.8496 4.3862 12.9699L3.90658 13.3384C3.74351 13.4587 3.58428 13.583 3.42108 13.7034C3.25788 13.8239 3.09493 13.9383 2.92188 14.049C3.07547 13.919 3.23842 13.7985 3.40149 13.6801C3.56456 13.5617 3.73365 13.4456 3.89096 13.3256L4.37058 12.9566C4.53557 12.8362 4.6948 12.712 4.86184 12.5955V12.5952ZM4.01333 13.9544C4.01333 13.9544 4.18613 13.8107 4.40168 13.6088C4.66959 13.3585 4.99778 13.038 5.10261 12.9799L4.0132 13.9546L4.01333 13.9544Z" fill="#CFB66C"/>
<path fill-rule="evenodd" clip-rule="evenodd" d="M4.01367 13.9543C4.09918 13.869 4.19044 13.7855 4.2817 13.7038L4.42148 13.5835C4.46423 13.5451 4.51287 13.502 4.5555 13.4592C4.64087 13.3739 4.72446 13.2825 4.80983 13.1952C4.85215 13.1513 4.89689 13.1098 4.94385 13.0709C4.96732 13.0501 4.9934 13.0325 5.02142 13.0184C5.04484 13.0048 5.07006 12.98 5.10295 12.9756C5.08362 13.0048 5.06033 13.0184 5.04087 13.0436C5.01758 13.0631 4.99812 13.0864 4.97879 13.1057C4.93604 13.1484 4.88753 13.1872 4.84478 13.2261C4.75351 13.3038 4.65841 13.3797 4.56714 13.461C4.47588 13.5423 4.3905 13.63 4.29911 13.7115C4.20017 13.7951 4.1089 13.8766 4.01367 13.9547V13.9543ZM5.17489 13.1776C5.17489 13.1776 4.54193 13.7972 4.41175 13.898L5.17489 13.1776Z" fill="#CFB66C"/>
<path fill-rule="evenodd" clip-rule="evenodd" d="M5.17476 13.1776C5.11782 13.2435 5.05677 13.3058 4.99197 13.364L4.79997 13.5465C4.73789 13.6086 4.67953 13.6708 4.61361 13.7329C4.54564 13.7911 4.48356 13.8481 4.41162 13.9018L4.59799 13.7193C4.6602 13.6572 4.72816 13.6049 4.79421 13.5427L4.98058 13.3601C5.04458 13.2961 5.10679 13.2339 5.17476 13.1776ZM5.20381 13.5135C5.14547 13.6763 5.07672 13.8352 4.99799 13.9893C4.83492 14.3155 4.59031 14.7232 4.48343 14.9311L5.20381 13.5135Z" fill="#CFB66C"/>
<path fill-rule="evenodd" clip-rule="evenodd" d="M5.20382 13.5136C5.20382 13.5854 5.18436 13.6476 5.16106 13.7097C5.13836 13.7718 5.11246 13.8328 5.0835 13.8922C5.05431 13.9505 5.02129 14.0127 4.98826 14.069C4.95524 14.1253 4.91646 14.1834 4.88727 14.2418L4.69118 14.5874C4.62321 14.7026 4.55716 14.8184 4.48535 14.9292C4.53386 14.8049 4.59991 14.6884 4.66212 14.5738C4.73009 14.4586 4.79217 14.3434 4.85412 14.2243C4.88437 14.1649 4.91158 14.104 4.93566 14.0419C4.96471 13.9797 4.99377 13.9214 5.01719 13.8651C5.04625 13.803 5.06954 13.7447 5.09873 13.6885C5.13162 13.6282 5.15889 13.5699 5.20356 13.5136H5.20382Z" fill="#CFB66C"/>
<path fill-rule="evenodd" clip-rule="evenodd" d="M5.89534 15.1058C5.89534 15.1058 5.70334 15.3602 5.72254 15.6825C5.77489 15.5136 5.84094 15.2553 5.89534 15.1058ZM6.07787 15.3608C6.07787 15.3608 6.0099 16.052 5.95358 16.3919C6.0332 15.999 6.04869 16.032 6.07787 15.3608ZM7.34968 16.4327C7.34968 16.4327 7.06232 17.2775 7.05643 17.5122C7.11864 17.2708 7.23896 16.7776 7.34968 16.432V16.4327Z" fill="#DEC270"/>
<path fill-rule="evenodd" clip-rule="evenodd" d="M8.02148 15.0536C8.02148 15.0536 8.48753 15.8225 8.8371 16.4787C8.74251 16.1485 8.52491 15.5428 8.02148 15.0536Z" fill="#CBAF59"/>
<path fill-rule="evenodd" clip-rule="evenodd" d="M9.27393 16.1855C9.52981 16.6378 9.76056 17.1039 9.96513 17.5816C9.92634 17.2515 9.82138 16.6865 9.27393 16.1855Z" fill="#E3C677"/>
<path fill-rule="evenodd" clip-rule="evenodd" d="M12.9552 17.3192C13.0328 17.2707 13.1863 17.0065 13.3203 16.9405C13.4542 16.8726 13.5552 16.859 13.6756 16.725C13.7959 16.5851 13.8292 16.4997 14.093 16.3891C14.4621 16.2298 14.2082 16.0239 14.2082 16.0239C14.2489 15.984 14.2923 15.9471 14.3383 15.9133C14.4335 15.8415 14.5441 15.7541 14.5345 15.6006C14.5209 15.3425 14.4724 14.9677 14.2607 14.7502C14.4665 14.7075 14.8607 14.6784 15.1055 14.6163C15.3889 14.5444 15.5191 14.4434 15.5191 14.4434C15.5191 14.4434 15.356 14.1658 15.6201 13.8862C15.8841 13.6067 16.0997 13.4396 16.2589 13.1269C16.0764 13.1036 15.7981 13.0066 15.088 13.2764C15.1263 13.2945 15.1633 13.3152 15.1987 13.3385C15.1987 13.3385 14.7618 13.4589 14.6026 13.593C14.3248 13.8278 14.2899 14.0201 13.989 14.1638C13.688 14.3076 13.3851 14.2687 13.1347 14.3852C12.8843 14.5016 12.8473 14.6007 12.7559 14.6435C12.7754 14.6668 12.7521 14.7055 12.789 14.7386C12.7657 14.7716 12.6297 14.9929 12.4919 14.9929C12.5055 15.0454 12.6219 15.0842 12.6219 15.0842C12.6219 15.0842 12.5366 15.1464 12.3191 15.1619C12.4297 15.2771 12.5346 15.4026 12.8239 15.5852C12.8006 15.6337 12.7035 15.7056 12.7424 15.7969C12.7851 15.8881 12.896 16.0124 13.3385 16.1134C13.1132 16.123 12.8493 16.1755 12.4937 16.127C12.1383 16.0842 12.0801 16.059 11.8607 16.1134C11.884 16.1367 11.9461 16.1367 12.0005 16.1988C11.9423 16.2026 11.5772 16.156 11.4529 16.3192C11.3229 16.4881 11.2665 16.7658 11.2763 16.9522C11.2083 16.9852 11.1423 17.0435 11.1753 17.1639C11.2083 17.2844 11.3811 17.3231 11.4918 17.3988C11.6024 17.4803 11.6121 17.5094 11.7171 17.49C11.8277 17.4668 11.9908 17.3562 12.086 17.3562C12.1812 17.3562 12.2491 17.428 12.2491 17.428C12.2491 17.428 12.5074 17.3037 12.5326 17.327C12.5559 17.3503 12.5364 17.4998 12.5616 17.5231C12.5872 17.5406 12.8782 17.3678 12.9559 17.3192H12.9552Z" fill="#ECD592"/>
<path fill-rule="evenodd" clip-rule="evenodd" d="M18.6001 9.54861C17.3866 6.41465 14.3865 5.83405 14.3865 5.83405H5.82728L5.8603 9.02624H7.56488V16.1544H5.82715V19.3409H14.1496C16.1553 19.3409 17.7631 17.3252 17.7631 17.3252C20.3379 13.671 18.6 9.54861 18.6 9.54861H18.6001ZM14.1943 15.1777C14.1943 15.1777 13.5415 16.1195 12.8312 16.1195H11.4104L11.3767 9.03405H13.2001C13.2001 9.03405 14.0449 9.21069 14.6351 10.8825C14.6351 10.8825 15.4175 13.2761 14.1943 15.1777Z" fill="white" fill-opacity="0.8"/>
</g>
<defs>
<clipPath id="clip0_1_6345">
<rect width="24" height="24" fill="white" transform="translate(0 0.5)"/>
</clipPath>
</defs>
</svg>
