<svg width="30" height="27" viewBox="0 0 30 27" fill="none" xmlns="http://www.w3.org/2000/svg">
<g clip-path="url(#clip0_28_3582)">
<path d="M29.714 19.3483V18.9883H29.6202L29.5118 19.2353L29.4039 18.9883H29.3099V19.3483H29.3765V19.0771L29.4779 19.3111H29.5469L29.6483 19.0765V19.3483H29.7143H29.714ZM29.1192 19.3483V19.0499H29.2392V18.9892H28.9326V19.0499H29.0526V19.3483H29.1186H29.1192Z" fill="#F79410"/>
<path d="M19.0587 20.8923H10.9458V6.31226H19.0589L19.0587 20.8923Z" fill="#FF5F00"/>
<path d="M11.46 13.6025C11.46 10.645 12.8448 8.01037 15.0012 6.31252C13.3689 5.02544 11.35 4.32689 9.27135 4.32997C4.1508 4.32997 0 8.48137 0 13.6025C0 18.7237 4.1508 22.8751 9.27135 22.8751C11.3501 22.8782 13.369 22.1796 15.0014 20.8925C12.8451 19.195 11.46 16.5602 11.46 13.6025Z" fill="#EB001B"/>
<path d="M30.0036 13.6025C30.0036 18.7237 25.8528 22.8751 20.7322 22.8751C18.6533 22.8781 16.6341 22.1796 15.0015 20.8925C17.1585 19.1947 18.5433 16.5602 18.5433 13.6025C18.5433 10.6448 17.1585 8.01037 15.0015 6.31252C16.6341 5.02548 18.6532 4.32695 20.7321 4.32997C25.8526 4.32997 30.0034 8.48137 30.0034 13.6025" fill="#F79E1B"/>
</g>
<defs>
<clipPath id="clip0_28_3582">
<rect width="30" height="26" fill="white" transform="translate(0 0.5)"/>
</clipPath>
</defs>
</svg>
