<svg width="24" height="25" viewBox="0 0 24 25" fill="none" xmlns="http://www.w3.org/2000/svg">
<g clip-path="url(#clip0_1_6518)">
<path d="M23.9999 12.4988C23.9999 19.1261 18.6279 24.4988 12.0002 24.4988C5.3725 24.4988 0.000488281 19.1261 0.000488281 12.4988C0.000488281 5.87156 5.37263 0.498718 12.0002 0.498718C18.6278 0.498718 23.9999 5.87105 23.9999 12.4988Z" fill="white"/>
<path d="M11.9999 0.498718C5.37457 0.498718 -0.00695956 5.87916 0.00147474 12.4984C0.00313605 13.8227 0.214313 15.0966 0.610661 16.2882H4.20086V6.19347L11.9999 13.9925L19.7986 6.19347V16.2884H23.3895C23.7865 15.0969 23.9966 13.823 23.9989 12.4986C24.0102 5.87246 18.6259 0.500316 11.9999 0.500316V0.498718Z" fill="#F26822"/>
<path d="M10.2063 15.7854L6.80276 12.3817V18.7338H4.20059L1.74512 18.7343C3.85133 22.1898 7.65775 24.5013 11.9999 24.5013C16.342 24.5013 20.1486 22.1893 22.2552 18.7338H17.1962V12.3817L13.7925 15.7854L11.9995 17.5784L10.2064 15.7854H10.2063Z" fill="#4D4D4D"/>
</g>
<defs>
<clipPath id="clip0_1_6518">
<rect width="24" height="24.0026" fill="white" transform="translate(0 0.498718)"/>
</clipPath>
</defs>
</svg>
