<svg width="24" height="21" viewBox="0 0 24 21" fill="none" xmlns="http://www.w3.org/2000/svg">
<g clip-path="url(#clip0_1_6511)">
<path d="M20.4843 0.5625H23.953L16.7343 7.71C14.12 10.297 9.8816 10.297 7.26551 7.71L0.0439453 0.5625H3.51551L8.99988 5.99203C9.79895 6.77958 10.8758 7.22107 11.9978 7.22107C13.1197 7.22107 14.1966 6.77958 14.9957 5.99203L20.4843 0.5625Z" fill="#23292F"/>
<path d="M3.47109 20.4375H0L7.26562 13.2459C9.87984 10.6589 14.1183 10.6589 16.7344 13.2459L24 20.4375H20.5312L15 14.9639C14.2009 14.1764 13.124 13.7349 12.0021 13.7349C10.8802 13.7349 9.80329 14.1764 9.00422 14.9639L3.47109 20.4375Z" fill="#23292F"/>
</g>
<defs>
<clipPath id="clip0_1_6511">
<rect width="24" height="19.875" fill="white" transform="translate(0 0.5625)"/>
</clipPath>
</defs>
</svg>
