<svg width="36" height="15" viewBox="0 0 36 15" fill="none" xmlns="http://www.w3.org/2000/svg">
<g clip-path="url(#clip0_28_3565)">
<path d="M15.5827 13.0429H12.6161L14.4702 1.9648H17.4371L15.5827 13.0429ZM10.1204 1.9648L7.29214 9.58443L6.95747 7.94363L6.95777 7.94422L5.95955 2.96226C5.95955 2.96226 5.83885 1.9648 4.55228 1.9648H-0.123358L-0.178223 2.15238C-0.178223 2.15238 1.2516 2.4416 2.92495 3.41861L5.50235 13.0432H8.59333L13.3132 1.9648H10.1204ZM33.4544 13.0429H36.1784L33.8034 1.9645H31.4186C30.3174 1.9645 30.0492 2.79009 30.0492 2.79009L25.6247 13.0429H28.7172L29.3356 11.3974H33.1069L33.4544 13.0429ZM30.19 9.12422L31.7487 4.97851L32.6256 9.12422H30.19ZM25.8566 4.62884L26.28 2.24987C26.28 2.24987 24.9736 1.76685 23.6118 1.76685C22.1396 1.76685 18.6435 2.39241 18.6435 5.43427C18.6435 8.29627 22.7467 8.33183 22.7467 9.83513C22.7467 11.3384 19.0663 11.0691 17.8516 10.1211L17.4106 12.6085C17.4106 12.6085 18.7353 13.2341 20.7591 13.2341C22.7836 13.2341 25.8377 12.215 25.8377 9.4413C25.8377 6.56094 21.6976 6.29275 21.6976 5.04045C21.6979 3.78784 24.5871 3.94875 25.8566 4.62884Z" fill="#3356D2"/>
<path d="M6.95777 7.9439L5.95955 2.96194C5.95955 2.96194 5.83885 1.96448 4.55228 1.96448H-0.123358L-0.178223 2.15206C-0.178223 2.15206 2.06907 2.60485 4.22462 4.30137C6.28568 5.92291 6.95777 7.9439 6.95777 7.9439Z" fill="#E6A540"/>
</g>
<defs>
<clipPath id="clip0_28_3565">
<rect width="36" height="14" fill="white" transform="translate(0 0.5)"/>
</clipPath>
</defs>
</svg>
