<?xml version="1.0" encoding="utf-8"?>
<!-- Generator: Adobe Illustrator 26.1.0, SVG Export Plug-In . SVG Version: 6.00 Build 0)  -->
<svg version="1.1" id="Слой_1" xmlns="http://www.w3.org/2000/svg" xmlns:xlink="http://www.w3.org/1999/xlink" x="0px" y="0px"
	 viewBox="0 0 25 25" style="enable-background:new 0 0 25 25;" xml:space="preserve">
<style type="text/css">
	.st0{fill:#858585;}
</style>
<g>
	<path class="st0" d="M22.5,23.2c-0.2,0-0.4-0.1-0.5-0.2l-2.5-2.5c-0.3-0.3-0.3-0.8,0-1.1s0.8-0.3,1.1,0L23,22
		c0.3,0.3,0.3,0.8,0,1.1C22.9,23.2,22.7,23.2,22.5,23.2z"/>
</g>
<g>
	<path class="st0" d="M11,20.5c-5.2,0-9.5-4.3-9.5-9.5S5.8,1.5,11,1.5s9.5,4.3,9.5,9.5S16.2,20.5,11,20.5z M11,3c-4.4,0-8,3.6-8,8
		s3.6,8,8,8s8-3.6,8-8S15.4,3,11,3z"/>
</g>
</svg>
