<svg width="29" height="29" viewBox="0 0 29 29" fill="none" xmlns="http://www.w3.org/2000/svg">
<path d="M25.0242 4.41587C25.0242 4.41587 27.3715 3.50056 27.1759 5.72346C27.1107 6.63878 26.5239 9.84238 26.0674 13.3075L24.5025 23.5721C24.5025 23.5721 24.3721 25.0758 23.1984 25.3374C22.0247 25.5989 20.2642 24.4221 19.9382 24.1605C19.6773 23.9644 15.0479 21.0223 13.4177 19.584C12.9612 19.1917 12.4396 18.4071 13.4829 17.4918L20.3294 10.9539C21.1119 10.1693 21.8943 8.33867 18.6341 10.5616L9.50541 16.7727C9.50541 16.7727 8.46214 17.4264 6.50603 16.838L2.26769 15.5304C2.26769 15.5304 0.702773 14.5497 3.37617 13.569C9.89667 10.4961 17.9169 7.35792 25.0242 4.41587Z" fill="white"/>
</svg>
