<svg width="25" height="24" fill="none" xmlns="http://www.w3.org/2000/svg"><path d="M11.708 4.544c-3.675.205-7.078 1.993-8.842 4.647a8.072 8.072 0 0 0-1.196 2.835c-.108.53-.174 1.394-.126 1.65.129.69.951 1.027 1.507.619.321-.236.449-.545.449-1.082.001-.843.404-2.045.981-2.919 1.332-2.021 3.879-3.42 6.832-3.751.483-.054 1.891-.054 2.375 0 2.951.331 5.5 1.73 6.831 3.751.574.87.98 2.08.981 2.919 0 .54.148.889.463 1.098a.981.981 0 0 0 1.493-.633c.048-.258-.017-1.119-.125-1.647-.521-2.559-2.361-4.8-5.06-6.164a12.494 12.494 0 0 0-3.938-1.224c-.405-.057-1.719-.149-1.958-.136l-.667.037m.372 5.501c-1.285.126-2.516.971-3.105 2.133-.272.534-.378.892-.429 1.445a3.973 3.973 0 0 0 2.162 3.917 3.939 3.939 0 0 0 3.584 0 3.972 3.972 0 0 0 1.437-5.852 4.785 4.785 0 0 0-.916-.921c-.484-.347-1.26-.654-1.775-.703-.54-.052-.607-.053-.958-.019m1.041 2.034c.318.099.609.284.847.538.377.403.532.807.532 1.383s-.155.98-.532 1.383c-.396.423-.858.617-1.468.617s-1.072-.194-1.468-.617c-.377-.403-.532-.807-.532-1.383s.155-.98.532-1.383c.233-.249.527-.438.833-.536.331-.106.92-.107 1.256-.002" fill-rule="evenodd" fill="#000"/></svg>